<svg width="222" height="222" fill="none" xmlns="http://www.w3.org/2000/svg"><path d="M18.35 115.196a88.8 88.8 0 1 0 177.6 0 88.8 88.8 0 0 0-177.6 0Z" fill="#FCF9F6"/><path d="M49.322 151.815c0 2.596 4.688 5.086 13.033 6.922 8.346 1.836 19.665 2.868 31.467 2.868s23.121-1.032 31.466-2.868c8.345-1.836 13.034-4.326 13.034-6.922 0-2.597-4.689-5.087-13.034-6.923-8.345-1.836-19.664-2.868-31.466-2.868s-23.121 1.032-31.467 2.868c-8.345 1.836-13.033 4.326-13.033 6.923ZM144.027 55.944H48.254a4.2 4.2 0 0 0-4.2 4.2v58.697h104.171V60.147a4.203 4.203 0 0 0-4.198-4.203Z" fill="#C9D4E8"/><path d="M144.027 55.944H48.254a4.2 4.2 0 0 0-4.2 4.2v58.697h104.171V60.147a4.203 4.203 0 0 0-4.198-4.203v0Z" stroke="#27395B" stroke-width="4" stroke-linecap="round" stroke-linejoin="round"/><path d="M159.263 92.527a5.411 5.411 0 0 0-5.308-6.47H82.993a5.408 5.408 0 0 1-5.304-4.348l-1.507-7.532a5.397 5.397 0 0 0-5.302-4.343H35.942a5.408 5.408 0 0 0-5.306 6.472l14.06 70.301a5.41 5.41 0 0 0 5.307 4.353h93.14a5.415 5.415 0 0 0 5.304-4.342c2.231-11.165 8.176-40.893 10.816-54.09Z" fill="#fff"/><path d="M159.263 92.527a5.411 5.411 0 0 0-5.308-6.47H82.993a5.408 5.408 0 0 1-5.304-4.348l-1.507-7.532a5.397 5.397 0 0 0-5.302-4.343H35.942a5.408 5.408 0 0 0-5.306 6.472l14.06 70.301a5.41 5.41 0 0 0 5.307 4.353h93.14a5.415 5.415 0 0 0 5.304-4.342c2.231-11.165 8.176-40.893 10.816-54.09Z" stroke="#27395B" stroke-width="4" stroke-linecap="round" stroke-linejoin="round"/><path d="M171.26 65.421a1.91 1.91 0 0 1 0-3.714l18.082-4.347a1.909 1.909 0 0 1 2.357 1.852l.027 8.693a1.903 1.903 0 0 1-.725 1.504 1.912 1.912 0 0 1-1.631.359l-18.11-4.347ZM156.51 50.139a1.91 1.91 0 0 1-2.885-1.412c-.05-.424.043-.854.265-1.219l13.645-22.278a1.9 1.9 0 0 1 1.4-.899 1.913 1.913 0 0 1 1.574.542l8.658 8.607a1.909 1.909 0 0 1 .263 2.383 1.92 1.92 0 0 1-.611.6L156.51 50.14ZM123.689 29.098a1.907 1.907 0 0 1-1.858 1.463 1.91 1.91 0 0 1-1.858-1.463l-4.344-18.082a1.91 1.91 0 0 1 1.851-2.358l8.691-.029a1.914 1.914 0 0 1 1.873 1.5c.063.283.06.576-.008.858l-4.347 18.11ZM108.405 43.838a1.91 1.91 0 0 1-2.626 2.627L83.503 32.823a1.912 1.912 0 0 1-.357-2.977l8.605-8.658a1.911 1.911 0 0 1 2.983.348l13.671 22.302ZM151.683 169.471l8.056-8.056 14.098 14.098-8.056 8.056-14.098-14.098Z" fill="#fff" stroke="#27395B" stroke-width="4" stroke-linecap="round" stroke-linejoin="round"/><path d="m201.219 210.574-.387.384a8.303 8.303 0 0 1-11.701 0l-25.435-25.437a2.765 2.765 0 0 1 0-3.898l8.185-8.188a2.772 2.772 0 0 1 3.901 0l25.437 25.437a8.26 8.26 0 0 1 1.799 9.019 8.26 8.26 0 0 1-1.799 2.683Z" fill="#C9D4E8"/><path d="m201.219 210.574-.387.384a8.303 8.303 0 0 1-11.701 0l-25.435-25.437a2.765 2.765 0 0 1 0-3.898l8.185-8.188a2.772 2.772 0 0 1 3.901 0l25.437 25.437a8.26 8.26 0 0 1 1.799 9.019 8.26 8.26 0 0 1-1.799 2.683v0Z" stroke="#27395B" stroke-width="4" stroke-linecap="round" stroke-linejoin="round"/><path d="M91.074 161.561a42.723 42.723 0 0 0 58.739 14.141 42.72 42.72 0 0 0 14.141-58.739 42.721 42.721 0 1 0-72.88 44.598v0Z" fill="#fff" stroke="#27395B" stroke-width="4" stroke-linecap="round" stroke-linejoin="round"/><path d="M151.682 115.096a34.19 34.19 0 0 1-24.167 58.37 34.19 34.19 0 0 1-33.53-40.866 34.185 34.185 0 0 1 33.53-27.51 34.189 34.189 0 0 1 24.167 10.006Z" fill="#C9D4E8"/><path d="M151.682 115.096a34.19 34.19 0 0 1-24.167 58.37 34.19 34.19 0 0 1-33.53-40.866 34.185 34.185 0 0 1 33.53-27.51 34.189 34.189 0 0 1 24.167 10.006v0Z" stroke="#27395B" stroke-width="4" stroke-linecap="round" stroke-linejoin="round"/><path d="M110.969 151.83a20.552 20.552 0 0 1 35.773.322M115.136 123.909l7.91 7.91M115.136 131.819l7.91-7.91M132.874 123.909l7.909 7.91M132.874 131.819l7.909-7.91" stroke="#27395B" stroke-width="4" stroke-linecap="round" stroke-linejoin="round"/></svg>