<?xml version="1.0" encoding="utf-8"?>
<!-- Generator: Adobe Illustrator 23.0.6, SVG Export Plug-In . SVG Version: 6.00 Build 0)  -->
<svg version="1.1" id="Layer_1" xmlns="http://www.w3.org/2000/svg" xmlns:xlink="http://www.w3.org/1999/xlink" x="0px" y="0px"
	 viewBox="0 0 600 400" enable-background="new 0 0 600 400" xml:space="preserve">
<rect fill="#293353" width="600" height="400"/>
<g>
	<path fill="#FFFFFF" d="M161,332.5c-1,0-1.8-0.8-1.8-1.8c0-1,0.8-1.8,1.8-1.8h9.5V192.4h-5.4c-1,0-1.8-0.8-1.8-1.8v-23.2
		c0-1,0.8-1.8,1.8-1.8h5.7v-14.3h-5.7c-1,0-1.8-0.8-1.8-1.8s0.8-1.8,1.8-1.8h94.2V85.6h-5.5c-1,0-1.8-0.8-1.8-1.8V64.8
		c0-1,0.8-1.8,1.8-1.8h87.1c1,0,1.8,0.8,1.8,1.8v19.1c0,1-0.8,1.8-1.8,1.8h-3.7v7.9h27.5V80.9c0-1,0.8-1.8,1.8-1.8h22
		c1,0,1.8,0.8,1.8,1.8v12.5h31.3c1,0,1.8,0.8,1.8,1.8v23.2c0,1-0.8,1.8-1.8,1.8h-5.4V329h8.4c1,0,1.8,0.8,1.8,1.8
		c0,1-0.8,1.8-1.8,1.8H161z M327.3,329h29.4v-17.7l-1.2-0.4c-4.5-1.5-7.5-5.7-7.5-10.4v-16.3c0-6.1,4.9-11,11-11c6.1,0,11,4.9,11,11
		v16.3c0,5.1-3.5,9.5-8.5,10.7l-1.3,0.3V329h52.5v-65.3h-85.4v18.4l1.3,0.3c5.6,1.4,9.6,6.4,9.6,12.2v8.3c0,5.8-3.9,10.8-9.6,12.2
		l0.4,3.4l-1.7-1.7V329z M263.7,266.9c7,0,12.6,5.7,12.6,12.6v12c0,5.8-3.9,10.8-9.6,12.2l-1.3,0.3V329H291v-76.1H174l0,76.1h20.7
		v-38.7c0-1,0.8-1.8,1.8-1.8h40.5c1,0,1.8,0.8,1.8,1.8V329h23.2v-24.9l-1.3-0.3c-5.6-1.4-9.6-6.4-9.6-12.2v-12
		C251.1,272.6,256.7,266.9,263.7,266.9z M262.9,249.4h29.8c1,0,1.8,0.8,1.8,1.8V329h29.2v-13.5l-1.3-0.3c-5.6-1.4-9.6-6.4-9.6-12.2
		v-8.3c0-5.8,3.9-10.8,9.6-12.2l1.3-0.3V120.2h-5.4c-1,0-1.8-0.8-1.8-1.8V95.2c0-1,0.8-1.8,1.8-1.8h15.3v-7.9h-70.9v62.2h5.5
		c1,0,1.8,0.8,1.8,1.8c0,1-0.8,1.8-1.8,1.8h-5.5v14.3h5.5c1,0,1.8,0.8,1.8,1.8v23.2c0,1-0.8,1.8-1.8,1.8h-5.4V249.4z M218.4,329
		h16.8v-37h-16.8V329z M198.2,329h16.7v-37h-16.7V329z M325.5,285.5c-5,0-9.1,4.1-9.1,9.1v8.3c0,5,4.1,9.1,9.1,9.1
		c2.4,0,4.7-1,6.5-2.7c1.7-1.7,2.7-4,2.7-6.5v-8.3C334.6,289.6,330.5,285.5,325.5,285.5z M359,276.8c-4.1,0-7.5,3.4-7.5,7.5v16.3
		c0,4.1,3.4,7.5,7.5,7.5c4.1,0,7.5-3.4,7.5-7.5v-16.3C366.5,280.1,363.1,276.8,359,276.8z M263.7,270.4c-5,0-9.1,4.1-9.1,9.1v12
		c0,5,4.1,9.1,9.1,9.1c5,0,9.1-4.1,9.1-9.1v-12C272.8,274.5,268.7,270.4,263.7,270.4z M398.8,260.2h13.9v-15.7h-13.9V260.2z
		 M380.9,260.2h14.4v-15.7h-14.4V260.2z M363.1,260.2h14.4v-15.7h-14.4V260.2z M345.2,260.2h14.4v-15.7h-14.4V260.2z M327.3,260.2
		h14.4v-15.7h-14.4V260.2z M174,249.4h85.4v-57H174V249.4z M327.2,241l85.4,0V120.2h-85.4V241z M166.9,188.9h99.6v-19.7h-99.6V188.9
		z M244.7,165.6h14.6v-14.3h-14.6V165.6z M227.3,165.6h13.9v-14.3h-13.9V165.6z M209.8,165.6h13.9v-14.3h-13.9V165.6z M192.4,165.6
		h13.9v-14.3h-13.9V165.6z M174.4,165.6h14.5v-14.3h-14.5V165.6z M320.1,116.7h99.7V97h-99.7V116.7z M368.2,93.5h18.5V82.7h-18.5
		V93.5z M255.5,82.1h83.6V66.5h-83.6V82.1z"/>
	<path fill="#FFFFFF" d="M393.9,194.6c-1,0-1.8-0.8-1.8-1.8v-14.5c0-1,0.8-1.8,1.8-1.8c1,0,1.8,0.8,1.8,1.8v14.5
		C395.7,193.8,394.9,194.6,393.9,194.6z"/>
	<path fill="#FFFFFF" d="M393.9,232.8c-1,0-1.8-0.8-1.8-1.8v-14.5c0-1,0.8-1.8,1.8-1.8c1,0,1.8,0.8,1.8,1.8v14.5
		C395.7,232,394.9,232.8,393.9,232.8z"/>
	<path fill="#FFFFFF" d="M393.9,305.3c-1,0-1.8-0.8-1.8-1.8v-14.5c0-1,0.8-1.8,1.8-1.8c1,0,1.8,0.8,1.8,1.8v14.5
		C395.7,304.6,394.9,305.3,393.9,305.3z"/>
	<path fill="#FFFFFF" d="M370.3,232.8c-1,0-1.8-0.8-1.8-1.8v-14.5c0-1,0.8-1.8,1.8-1.8c1,0,1.8,0.8,1.8,1.8v14.5
		C372,232,371.2,232.8,370.3,232.8z"/>
	<path fill="#FFFFFF" d="M346,232.8c-1,0-1.8-0.8-1.8-1.8v-14.5c0-1,0.8-1.8,1.8-1.8c1,0,1.8,0.8,1.8,1.8v14.5
		C347.8,232,347,232.8,346,232.8z"/>
	<path fill="#FFFFFF" d="M370,194.6c-1,0-1.8-0.8-1.8-1.8v-14.5c0-1,0.8-1.8,1.8-1.8c1,0,1.8,0.8,1.8,1.8v14.5
		C371.7,193.8,370.9,194.6,370,194.6z"/>
	<path fill="#FFFFFF" d="M346,194.6c-1,0-1.8-0.8-1.8-1.8v-14.5c0-1,0.8-1.8,1.8-1.8c1,0,1.8,0.8,1.8,1.8v14.5
		C347.8,193.8,347,194.6,346,194.6z"/>
	<path fill="#FFFFFF" d="M393.9,156.5c-1,0-1.8-0.8-1.8-1.8v-14.5c0-1,0.8-1.8,1.8-1.8c1,0,1.8,0.8,1.8,1.8v14.5
		C395.7,155.7,394.9,156.5,393.9,156.5z"/>
	<path fill="#FFFFFF" d="M370,156.5c-1,0-1.8-0.8-1.8-1.8v-14.5c0-1,0.8-1.8,1.8-1.8c1,0,1.8,0.8,1.8,1.8v14.5
		C371.7,155.7,370.9,156.5,370,156.5z"/>
	<path fill="#FFFFFF" d="M346,156.5c-1,0-1.8-0.8-1.8-1.8v-14.5c0-1,0.8-1.8,1.8-1.8c1,0,1.8,0.8,1.8,1.8v14.5
		C347.8,155.7,347,156.5,346,156.5z"/>
	<path fill="#FFFFFF" d="M281.9,194.6c-1,0-1.8-0.8-1.8-1.8v-14.5c0-1,0.8-1.8,1.8-1.8s1.8,0.8,1.8,1.8v14.5
		C283.7,193.8,282.9,194.6,281.9,194.6z"/>
	<path fill="#FFFFFF" d="M281.9,156.5c-1,0-1.8-0.8-1.8-1.8v-14.5c0-1,0.8-1.8,1.8-1.8s1.8,0.8,1.8,1.8v14.5
		C283.7,155.7,282.9,156.5,281.9,156.5z"/>
	<path fill="#FFFFFF" d="M281.9,232.8c-1,0-1.8-0.8-1.8-1.8v-14.5c0-1,0.8-1.8,1.8-1.8s1.8,0.8,1.8,1.8v14.5
		C283.7,232,282.9,232.8,281.9,232.8z"/>
	<path fill="#FFFFFF" d="M303.7,194.6c-1,0-1.8-0.8-1.8-1.8v-14.5c0-1,0.8-1.8,1.8-1.8c1,0,1.8,0.8,1.8,1.8v14.5
		C305.5,193.8,304.7,194.6,303.7,194.6z"/>
	<path fill="#FFFFFF" d="M303.7,156.5c-1,0-1.8-0.8-1.8-1.8v-14.5c0-1,0.8-1.8,1.8-1.8c1,0,1.8,0.8,1.8,1.8v14.5
		C305.5,155.7,304.7,156.5,303.7,156.5z"/>
	<path fill="#FFFFFF" d="M281.9,118.5c-1,0-1.8-0.8-1.8-1.8v-14.5c0-1,0.8-1.8,1.8-1.8s1.8,0.8,1.8,1.8v14.5
		C283.7,117.7,282.9,118.5,281.9,118.5z"/>
	<path fill="#FFFFFF" d="M303.7,118.5c-1,0-1.8-0.8-1.8-1.8v-14.5c0-1,0.8-1.8,1.8-1.8c1,0,1.8,0.8,1.8,1.8v14.5
		C305.5,117.7,304.7,118.5,303.7,118.5z"/>
	<path fill="#FFFFFF" d="M303.7,232.8c-1,0-1.8-0.8-1.8-1.8v-14.5c0-1,0.8-1.8,1.8-1.8c1,0,1.8,0.8,1.8,1.8v14.5
		C305.5,232,304.7,232.8,303.7,232.8z"/>
	<path fill="#FFFFFF" d="M240.6,232.8c-1,0-1.8-0.8-1.8-1.8v-14.5c0-1,0.8-1.8,1.8-1.8c1,0,1.8,0.8,1.8,1.8v14.5
		C242.4,232,241.6,232.8,240.6,232.8z"/>
	<path fill="#FFFFFF" d="M216.7,232.8c-1,0-1.8-0.8-1.8-1.8v-14.5c0-1,0.8-1.8,1.8-1.8c1,0,1.8,0.8,1.8,1.8v14.5
		C218.4,232,217.7,232.8,216.7,232.8z"/>
	<path fill="#FFFFFF" d="M192.8,232.8c-1,0-1.8-0.8-1.8-1.8v-14.5c0-1,0.8-1.8,1.8-1.8c1,0,1.8,0.8,1.8,1.8v14.5
		C194.5,232,193.7,232.8,192.8,232.8z"/>
</g>
</svg>
