<svg width="200" height="143" viewBox="0 0 200 143" fill="none" xmlns="http://www.w3.org/2000/svg">
<g clip-path="url(#clip0)">
<g opacity="0.4">
<path d="M16.6863 45.038C15.1252 39.2122 18.5928 33.2213 24.4313 31.6569L127.504 4.03869C133.342 2.47427 139.341 5.92876 140.902 11.7545C142.463 17.5803 138.995 23.5712 133.157 25.1356L30.0842 52.7538C24.2457 54.3182 18.2473 50.8637 16.6863 45.038Z" fill="#AED5F5"/>
<path d="M31.1488 63.7744C29.5878 57.9486 33.0554 51.9577 38.8939 50.3933L141.966 22.7751C147.805 21.2107 153.803 24.6652 155.364 30.4909C156.925 36.3167 153.458 42.3076 147.619 43.872L44.5468 71.4902C38.7083 73.0546 32.7098 69.6001 31.1488 63.7744Z" fill="#AED5F5"/>
<path d="M17.4205 90.0645C15.8595 84.2387 19.3271 78.2478 25.1656 76.6834L173.167 37.0265C179.006 35.4621 185.004 38.9166 186.565 44.7423C188.126 50.5681 184.659 56.559 178.82 58.1234L30.8185 97.7803C24.98 99.3447 18.9815 95.8902 17.4205 90.0645Z" fill="#AED5F5"/>
<path d="M3.69228 116.355C2.13127 110.529 5.59886 104.538 11.4374 102.973L159.439 63.3166C165.277 61.7522 171.276 65.2067 172.837 71.0324C174.398 76.8582 170.93 82.8491 165.092 84.4135L17.0903 124.07C11.2518 125.635 5.25328 122.18 3.69228 116.355Z" fill="#AED5F5"/>
<path d="M34.8931 130.606C33.3321 124.78 36.7997 118.789 42.6382 117.225L174.782 81.8169C180.621 80.2525 186.619 83.707 188.18 89.5328C189.741 95.3585 186.274 101.349 180.435 102.914L48.2911 138.322C42.4526 139.886 36.4541 136.432 34.8931 130.606Z" fill="#AED5F5"/>
</g>
<rect x="41" y="40" width="15" height="15" fill="#348CFC"/>
<path d="M63 41.5H159" stroke="#AED1FE" stroke-width="3" stroke-linecap="round"/>
<path d="M63 47.5H123.5" stroke="#AED1FE" stroke-width="3" stroke-linecap="round"/>
<rect x="41" y="64" width="15" height="15" fill="#348CFC"/>
<path d="M63 65.5H159" stroke="#AED1FE" stroke-width="3" stroke-linecap="round"/>
<path d="M63 71.5H123.5" stroke="#AED1FE" stroke-width="3" stroke-linecap="round"/>
<rect x="41" y="88" width="15" height="15" fill="#348CFC"/>
<path d="M63 89.5H159" stroke="#AED1FE" stroke-width="3" stroke-linecap="round"/>
<path d="M63 95.5H123.5" stroke="#AED1FE" stroke-width="3" stroke-linecap="round"/>
</g>
<defs>
<clipPath id="clip0">
<rect width="200" height="143" fill="white"/>
</clipPath>
</defs>
</svg>
