<?xml version="1.0" encoding="UTF-8"?>
<svg width="345px" height="64px" viewBox="0 0 345 64" version="1.1" xmlns="http://www.w3.org/2000/svg" xmlns:xlink="http://www.w3.org/1999/xlink">
    <!-- Generator: Sketch 45.2 (43514) - http://www.bohemiancoding.com/sketch -->
    <title>Group 2</title>
    <desc>Created with Sketch.</desc>
    <defs>
        <linearGradient x1="31.8883063%" y1="-6.55270864%" x2="62.0854878%" y2="117.312787%" id="linearGradient-1">
            <stop stop-color="#C2B59B" offset="0%"></stop>
            <stop stop-color="#9C8972" offset="23.56%"></stop>
            <stop stop-color="#3C2415" offset="100%"></stop>
        </linearGradient>
        <linearGradient x1="94.5230613%" y1="127.024746%" x2="-1.98331453%" y2="-34.7238337%" id="linearGradient-2">
            <stop stop-color="#C2B59B" offset="0%"></stop>
            <stop stop-color="#9C8972" offset="23.56%"></stop>
            <stop stop-color="#3C2415" offset="100%"></stop>
        </linearGradient>
        <linearGradient x1="32.3852072%" y1="45.4401319%" x2="142.53936%" y2="61.9712329%" id="linearGradient-3">
            <stop stop-color="#C2B59B" offset="0%"></stop>
            <stop stop-color="#9C8972" offset="23.56%"></stop>
            <stop stop-color="#3C2415" offset="100%"></stop>
        </linearGradient>
        <linearGradient x1="23.3757657%" y1="29.0091685%" x2="78.6648039%" y2="110.706966%" id="linearGradient-4">
            <stop stop-color="#C2B59B" offset="0%"></stop>
            <stop stop-color="#3C2415" offset="100%"></stop>
        </linearGradient>
        <linearGradient x1="29.1448159%" y1="12.9681658%" x2="81.3214678%" y2="154.362787%" id="linearGradient-5">
            <stop stop-color="#C2B59B" offset="0%"></stop>
            <stop stop-color="#3C2415" offset="100%"></stop>
        </linearGradient>
        <linearGradient x1="58.9257511%" y1="102.418613%" x2="41.5771919%" y2="17.8005659%" id="linearGradient-6">
            <stop stop-color="#C2B59B" offset="0%"></stop>
            <stop stop-color="#3C2415" offset="100%"></stop>
        </linearGradient>
        <polygon id="path-7" points="16.3240247 0.355759465 0.124036524 0.355759465 0.124036524 21.7669639 16.3240247 21.7669639 16.3240247 0.355759465"></polygon>
        <polygon id="path-9" points="14.2187641 13.8797327 0.018481296 13.8797327 0.018481296 0.099057461 14.2187641 0.099057461 14.2187641 13.8797327"></polygon>
        <polygon id="path-11" points="14.2323146 13.8797327 0.0349537555 13.8797327 0.0349537555 0.099057461 14.2323146 0.099057461 14.2323146 13.8797327"></polygon>
        <polygon id="path-13" points="0.0575622975 13.5144766 15.8364253 13.5144766 15.8364253 0.247753229 0.0575622975 0.247753229 0.0575622975 13.5144766"></polygon>
        <polygon id="path-15" points="0.132583211 22.2806236 15.9881473 22.2806236 15.9881473 0.355759465 0.132583211 0.355759465 0.132583211 22.2806236"></polygon>
    </defs>
    <g id="Page-1" stroke="none" stroke-width="1" fill="none" fill-rule="evenodd">
        <g id="Group-2">
            <g id="DONURS-02" fill-rule="nonzero">
                <g id="Layer_1">
                    <g id="Layer_2">
                        <g id="Group">
                            <g id="Shape">
                                <path d="M22.7945208,41.2753623 C22.0574304,40.3849275 21.394049,39.4573913 20.7675222,38.4556522 C20.6016768,38.1773913 20.4174042,37.8991304 20.2515589,37.6023188 C15.442044,29.1988406 15.6815984,19.2742029 20.0120045,11.3530435 C15.7553074,12.2063768 12.1435644,14.8962319 10.0244295,18.5507246 C9.08463924,24.3942029 10.061284,30.5901449 13.2307728,36.0997101 C13.8388723,37.1571014 14.5022537,38.1588406 15.2393441,39.1049275 C15.3683349,39.2718841 15.4973258,39.4388406 15.6263166,39.5872464 C16.1791344,40.2921739 16.7688067,40.9228986 17.3769063,41.5350725 C21.9284395,46.1727536 27.9910081,48.8997101 34.2747038,49.3634783 L34.2747038,49.3634783 C29.8890159,47.8052174 25.8903005,45.0597101 22.7945208,41.2753623 Z" fill="url(#linearGradient-1)"></path>
                                <path d="M55.7793164,13.8017391 C51.2277831,10.0544928 45.4231962,7.80985507 39.0657914,7.80985507 C37.8495923,7.80985507 36.6702476,7.88405797 35.490903,8.05101449 C35.2882031,8.06956522 35.0855033,8.10666667 34.8828034,8.14376812 C34.0167222,8.27362319 33.1506409,8.47768116 32.3214142,8.68173913 C26.0561458,10.3513043 20.6938131,14.2655072 17.1557792,19.5153623 L17.1557792,19.5153623 C20.7122404,16.4730435 25.0610738,14.3582609 29.8705886,13.5605797 C31.0130788,13.3750725 32.1371416,13.2452174 33.3164863,13.2081159 C33.648177,13.1895652 33.9614404,13.1895652 34.3115583,13.1895652 C43.9490154,13.1895652 52.3702732,18.3837681 56.9955155,26.1008696 C58.3591328,21.964058 57.8615968,17.4747826 55.7793164,13.8017391 Z" fill="url(#linearGradient-2)"></path>
                                <path d="M51.4120557,19.533913 L51.4120557,19.533913 C52.2412824,24.1344928 51.8911645,28.9947826 50.1774293,33.5953623 C49.7720296,34.6713043 49.3113481,35.7286957 48.7585303,36.7675362 C48.6111122,37.0643478 48.4452668,37.3426087 48.2794215,37.6394203 C43.4699066,46.0428986 34.8090944,50.8104348 25.8165914,50.9588406 C28.6728167,54.2423188 32.800523,56.0417391 37.0019383,56.0973913 C42.4932618,53.9826087 47.321204,50.0313043 50.50912,44.5217391 C51.1172196,43.4643478 51.6516101,42.3698551 52.0938643,41.293913 C52.1675734,41.1084058 52.2412824,40.9043478 52.3334187,40.7188406 C52.6466822,39.884058 52.9046638,39.0492754 53.1442182,38.195942 C54.8579534,31.8886957 54.1577175,25.2475362 51.4120557,19.533913 Z" fill="url(#linearGradient-3)"></path>
                                <path d="M34.2931311,49.4005797 L34.2562766,49.4005797 L34.2562766,49.4005797 C27.9725809,48.9368116 21.9100123,46.2284058 17.358479,41.5721739 C16.7503794,40.96 16.1607071,40.2921739 15.6078893,39.6243478 C15.4788985,39.475942 15.3499077,39.2904348 15.2209169,39.142029 C14.4838265,38.195942 13.8388723,37.2127536 13.2123455,36.1368116 C10.0428568,30.6272464 9.06621198,24.4313043 10.0060022,18.5878261 C10.5035383,15.4156522 11.5907466,12.3362319 13.1939182,9.53507246 C8.71609403,10.0544928 4.82794215,12.595942 2.46925286,16.1947826 C0.902935746,18.5507246 0,21.426087 0,24.5055072 C0,27.1768116 0.700235884,29.6997101 1.89800779,31.8701449 C2.08228039,32.204058 2.28498025,32.5194203 2.48768012,32.8347826 C5.85986872,38.2144928 10.5403928,42.8892754 16.4002615,46.3026087 C20.1778498,48.4915942 24.1212835,49.9571014 28.1752807,50.8104348 C30.2575611,50.5692754 32.3214142,50.1055072 34.2931311,49.4005797 Z" fill="url(#linearGradient-4)"></path>
                                <path d="M61.6023306,8.40347826 C60.3308496,5.84347826 58.3407055,3.6173913 55.6871801,2.07768116 C53.4021998,0.742028986 50.8776652,0.0927536232 48.4268396,0.0371014493 C48.0398671,0.0371014493 47.6713219,0.0556521739 47.2843495,0.0556521739 C40.9637992,0.296811594 34.6063945,2.04057971 28.7465258,5.43536232 C25.005792,7.6057971 21.7625942,10.3327536 19.0353597,13.3936232 C18.1692785,15.3414493 17.5427516,17.4005797 17.1557792,19.4968116 C20.6938131,14.2284058 26.0561458,10.3142029 32.3214142,8.68173913 C33.1690682,8.47768116 34.0167222,8.27362319 34.8828034,8.14376812 C35.0855033,8.10666667 35.2882031,8.08811594 35.490903,8.05101449 C36.6702476,7.9026087 37.8495923,7.80985507 39.0657914,7.80985507 C45.3863417,7.80985507 51.2093559,10.0544928 55.7793164,13.7831884 C58.2669965,15.8237681 60.3492769,18.2910145 61.9708758,21.0736232 C63.75832,16.9368116 63.5187656,12.2805797 61.6023306,8.40347826 Z" fill="url(#linearGradient-5)"></path>
                                <path d="M51.4120557,19.533913 C54.1577175,25.2475362 54.8579534,31.8886957 53.1442182,38.1773913 C52.9046638,39.0307246 52.6466822,39.8655072 52.3334187,40.7002899 C52.2597097,40.8857971 52.1860006,41.0898551 52.0938643,41.2753623 C51.6516101,42.3698551 51.1172196,43.4643478 50.50912,44.5031884 C47.3396312,50.0127536 42.5116891,53.964058 37.0019383,56.0788406 C34.0167222,57.2289855 30.8288062,57.8226087 27.6224629,57.8411594 C30.3312702,61.4771014 34.4221219,63.5918841 38.7341008,63.8701449 C41.5718988,64.0371014 44.4834059,63.4063768 47.1369314,61.8852174 C49.4219116,60.5495652 51.2462104,58.6944928 52.5176913,56.5611594 C52.7019639,56.2272464 52.8862365,55.9118841 53.0520819,55.5594203 C56.0188708,49.92 57.6773242,43.52 57.6773242,36.7118841 C57.6773242,32.3710145 56.958661,28.1971014 55.7056073,24.2828986 C54.4709809,22.502029 53.0336546,20.9252174 51.4120557,19.533913 Z" fill="url(#linearGradient-6)"></path>
                            </g>
                        </g>
                    </g>
                </g>
            </g>
            <g id="Page-1" transform="translate(97.000000, 21.000000)">
                <path d="M0.745607069,5.73718753 L0.000146097202,5.73718753 L0.113736672,0.661588419 L21.5166115,0.661588419 L21.6305673,5.73718753 L20.9314922,5.73718753 C20.6805703,4.3462922 20.3394333,3.34256837 19.9047941,2.72455501 C19.4705202,2.1069069 19.0055658,1.72740579 18.5073744,1.58824321 C18.0091829,1.44725434 17.1567057,1.37858619 15.9528648,1.37858619 L12.4085467,1.37858619 L12.4085467,16.2795751 C12.4085467,17.9298022 12.4487234,19.0149782 12.5287116,19.5336419 C12.6123523,20.0537666 12.8296719,20.436555 13.1872448,20.6863902 C13.5451829,20.9358601 14.2175953,21.0607777 15.2037514,21.0607777 L16.2768353,21.0607777 L16.2768353,21.7763145 L5.28302091,21.7763145 L5.28302091,21.0607777 L6.42330957,21.0607777 C7.36600177,21.0607777 8.01796053,20.945722 8.38247305,20.7181675 C8.74698557,20.4895171 8.97781915,20.1341229 9.08118292,19.6505238 C9.18491193,19.168751 9.23531546,18.0452232 9.23531546,16.2795751 L9.23531546,1.37858619 L5.96858203,1.37858619 C4.5474215,1.37858619 3.5945025,1.44250601 3.10617261,1.57217194 C2.61820795,1.70183786 2.16019323,2.09412294 1.73212842,2.74866192 C1.30406362,3.40173987 0.976440648,4.39888909 0.745607069,5.73718753" id="Fill-1" fill="#1B1B37"></path>
                <g id="Group-5" transform="translate(23.375552, 0.009497)">
                    <mask id="mask-8" fill="white">
                        <use xlink:href="#path-7"></use>
                    </mask>
                    <g id="Clip-4"></g>
                    <path d="M4.77504094,11.1157301 C5.42699971,10.2431332 6.1556595,9.59005523 6.96175081,9.15320891 C7.77076406,8.71782361 8.65684359,8.50013096 9.62327658,8.50013096 C10.7168141,8.50013096 11.6262692,8.71782361 12.3450675,9.15320891 C13.0671529,9.59005523 13.5353944,10.1266165 13.752714,10.7650842 C13.9700336,11.4039171 14.0770498,12.4394183 14.0770498,13.8719528 L14.0770498,17.390465 C14.0770498,18.8854584 14.1073649,19.7945808 14.1672648,20.1163715 C14.2275299,20.4381621 14.4046728,20.6752134 14.6954062,20.8238726 C14.989792,20.9761844 15.5314474,21.0514272 16.3240247,21.0514272 L16.3240247,21.7669639 L9.4424813,21.7669639 L9.4424813,21.0514272 L9.75366834,21.0514272 C10.5429585,21.0514272 11.0575859,20.9407546 11.2884194,20.7230619 C11.5225402,20.5053693 11.6562191,20.2493247 11.6963959,19.953102 C11.7332854,19.6568793 11.7530085,18.8040062 11.7530085,17.390465 L11.7530085,13.5600241 C11.7530085,12.5018771 11.6865343,11.7173069 11.5590645,11.2099661 C11.429038,10.7011644 11.1211381,10.2800241 10.6397479,9.94873675 C10.1547052,9.61598842 9.55314993,9.44943163 8.82412489,9.44943163 C7.97822209,9.44943163 7.21888189,9.68611759 6.5472,10.1583938 C5.87515287,10.6306699 5.28638115,11.3396321 4.77504094,12.2841844 L4.77504094,17.390465 C4.77504094,18.8229996 4.80170368,19.7069194 4.84845479,20.0382067 C4.89885832,20.370955 5.06248719,20.6222512 5.34664624,20.7935563 C5.62751811,20.9648615 6.14251075,21.0514272 6.89162415,21.0514272 L6.89162415,21.7669639 L0.124036524,21.7669639 L0.124036524,21.0514272 L0.464808247,21.0514272 C1.24752401,21.0514272 1.75228984,20.9440419 1.98604536,20.7310976 C2.22053137,20.5181532 2.35421031,20.2635697 2.3940218,19.9677122 C2.43091134,19.6729506 2.45099971,18.8135029 2.45099971,17.390465 L2.45099971,4.68576125 C2.45099971,3.39859866 2.32389514,2.58225122 2.06639882,2.23964098 C1.81255493,1.89739599 1.20406009,1.72572561 0.237627099,1.72572561 L0.237627099,1.01018886 C1.91957113,1.01018886 3.31699087,0.79286147 4.43353873,0.355649889 L4.77504094,0.355649889 L4.77504094,11.1157301 Z" id="Fill-3" fill="#1B1B37" mask="url(#mask-8)"></path>
                </g>
                <path d="M50.8708996,12.7130682 C50.9008495,12.4745559 50.9176507,12.2616116 50.9176507,12.0760615 C50.9176507,11.1618254 50.640066,10.4528633 50.0816094,9.95027082 C49.5235181,9.44621737 48.837957,9.19492116 48.0252913,9.19492116 C46.0493267,9.19492116 44.8754356,10.3681238 44.4944872,12.7130682 L50.8708996,12.7130682 Z M53.7161426,13.3372909 L44.4309349,13.3372909 C44.387471,13.9487296 44.3640954,14.4067608 44.3640954,14.7073666 C44.3640954,16.9485782 44.7315299,18.6338699 45.4605549,19.7595893 C46.1928672,20.8864045 47.2864047,21.4496294 48.7408024,21.4496294 C50.7134798,21.4496294 52.1112648,20.6029657 52.933792,18.9110993 L53.7161426,18.9110993 C53.3684312,19.9707073 52.6795829,20.7983777 51.6499629,21.3955715 C50.6199776,21.9924 49.4997773,22.2900837 48.2827876,22.2900837 C47.156013,22.2900837 46.0927906,22.0179679 45.089468,21.47191 C44.0865108,20.9280437 43.2639835,20.1562575 42.6251735,19.1605693 C41.9834415,18.16342 41.6656801,16.9547875 41.6656801,15.5317497 C41.6656801,13.5184579 42.2840365,11.8441238 43.5178274,10.5105737 C44.7552707,9.17702361 46.2998834,8.50970067 48.1523959,8.50970067 C49.9011794,8.50970067 51.2485608,9.01850245 52.204767,10.0350102 C53.1580513,11.0533443 53.6628171,12.1527653 53.7161426,13.3372909 L53.7161426,13.3372909 Z" id="Fill-6" fill="#1B1B37"></path>
                <path d="M70.8893573,1.26795011 L70.8893573,15.3766984 C70.8893573,17.4623109 70.929534,18.807184 71.0131747,19.4087608 C71.0935281,20.0121639 71.3375105,20.4347653 71.7454869,20.6783911 C72.1498109,20.9231127 73.0095929,21.044743 74.323372,21.044743 C76.242724,21.044743 77.8176518,20.7934468 79.0543647,20.2893933 C80.291808,19.7868009 81.3250804,18.7940347 82.1545473,17.3151127 C82.9832837,15.8361906 83.3981997,13.9489122 83.3981997,11.6551038 C83.3981997,9.8700971 83.1538521,8.27611938 82.6728271,6.87390111 C82.1910716,5.47314388 81.4989361,4.33354477 80.5993426,3.45619955 C79.7001143,2.57885434 78.7037314,1.98202584 77.6069066,1.66644454 C76.5133691,1.34976748 75.109375,1.19124633 73.3938286,1.19124633 C72.5709361,1.19124633 71.7352601,1.21681425 70.8893573,1.26795011 L70.8893573,1.26795011 Z M64.0918197,0.832564811 L67.7194133,0.661259688 C70.7454515,0.515522494 72.7820465,0.443567038 73.8350421,0.443567038 C77.1087152,0.443567038 79.6632247,0.920591537 81.4956489,1.87646682 C83.328073,2.83197684 84.6886032,4.1268098 85.5849096,5.76133096 C86.4779287,7.39548686 86.9257166,9.28276526 86.9257166,11.4213399 C86.9257166,12.967469 86.6813691,14.3824713 86.1934044,15.6648855 C85.7050745,16.9469345 85.0363146,18.0112909 84.1871246,18.8564935 C83.3346474,19.7035225 82.3481261,20.3467385 81.2246386,20.7868722 C80.1044383,21.2288321 79.038294,21.5042352 78.0316842,21.6130815 C77.0217873,21.7219278 75.6006268,21.776351 73.7685679,21.776351 L63.9946651,21.776351 L63.9946651,21.0608143 L64.9041202,21.0608143 C65.8504648,21.0608143 66.5024236,20.9457586 66.8669361,20.718204 C67.2281614,20.4895537 67.4619169,20.1337942 67.5656459,19.6505604 C67.6660878,19.1687875 67.7194133,18.0452597 67.7194133,16.2796116 L67.7194133,6.09590557 C67.7194133,4.41353586 67.6660878,3.32653363 67.5656459,2.83343786 C67.4619169,2.34070735 67.2445973,2.00284543 66.9136872,1.82204365 C66.582777,1.63941559 65.8603264,1.54956258 64.7437785,1.54956258 L64.0918197,1.54956258 L64.0918197,0.832564811 Z" id="Fill-8" fill="#1B1B37"></path>
                <g id="Group-12" transform="translate(89.849779, 8.410388)">
                    <mask id="mask-10" fill="white">
                        <use xlink:href="#path-9"></use>
                    </mask>
                    <g id="Clip-11"></g>
                    <path d="M2.7201838,7.04476793 C2.7201838,9.30643385 3.10478468,10.8927412 3.87362121,11.8004027 C4.64282297,12.7095252 5.72284654,13.164269 7.11040471,13.164269 C8.5312,13.164269 9.61816318,12.7095252 10.3701985,11.8004027 C11.1262515,10.8927412 11.5006256,9.30643385 11.5006256,7.04476793 C11.5006256,4.80209532 11.1262515,3.20300401 10.3804253,2.24749399 C9.63167717,1.29344499 8.5414268,0.814594209 7.11040471,0.814594209 C5.68924418,0.814594209 4.60264624,1.29015768 3.85024566,2.23945835 C3.09455788,3.19022004 2.7201838,4.79113764 2.7201838,7.04476793 M0.018481296,6.96623786 C0.018481296,5.01503964 0.703677172,3.38234477 2.06822504,2.06815323 C3.43569485,0.755422717 5.11435169,0.099057461 7.11040471,0.099057461 C9.11668454,0.099057461 10.8019158,0.758710022 12.1693856,2.07618886 C13.5335682,3.39512873 14.2187641,5.0245363 14.2187641,6.96623786 C14.2187641,9.11467439 13.5233414,10.8047145 12.1357832,12.0341666 C10.748225,13.2650797 9.07322062,13.8798058 7.11040471,13.8798058 C5.14758881,13.8798058 3.47550633,13.2537568 2.09488778,12.0038503 C0.710616789,10.7517523 0.018481296,9.07266993 0.018481296,6.96623786" id="Fill-10" fill="#1B1B37" mask="url(#mask-10)"></path>
                </g>
                <path d="M109.87335,8.50959109 L110.314929,8.50959109 C110.562199,9.15317238 110.702817,10.0305176 110.736054,11.1412615 C111.518405,10.2591679 112.334358,9.59951537 113.193774,9.16266904 C114.049904,8.72728374 114.942558,8.50959109 115.875389,8.50959109 C116.938611,8.50959109 117.808254,8.72253541 118.486876,9.14842405 C119.16221,9.57431269 119.600137,10.0958984 119.794081,10.7120855 C119.991312,11.3300989 120.088467,12.2311857 120.088467,13.4142503 L120.088467,17.3999252 C120.088467,18.8740989 120.115129,19.7722637 120.168455,20.0940543 C120.222146,20.415845 120.392714,20.6572793 120.68016,20.8190878 C120.967606,20.9790699 121.496113,21.0608873 122.268602,21.0608873 L122.268602,21.7764241 L115.453898,21.7764241 L115.453898,21.0608873 L115.761798,21.0608873 C116.544148,21.0608873 117.052201,20.95058 117.289975,20.732522 C117.53067,20.5148294 117.664349,20.2602459 117.697586,19.9705978 C117.731188,19.6794886 117.747989,18.822963 117.747989,17.3999252 L117.747989,13.2893327 C117.747989,12.2826869 117.694299,11.5638628 117.59057,11.1332258 C117.487206,10.7025889 117.212908,10.3216267 116.761103,9.98851314 C116.313315,9.65722584 115.741344,9.4910343 115.045922,9.4910343 C114.25371,9.4910343 113.498022,9.71676258 112.779224,10.1682192 C112.057138,10.6193105 111.374499,11.2964953 110.736054,12.1994085 L110.736054,17.3999252 C110.736054,18.8740989 110.766004,19.7722637 110.826269,20.0940543 C110.886534,20.415845 111.06039,20.6572793 111.347836,20.8190878 C111.631995,20.9790699 112.167076,21.0608873 112.949792,21.0608873 L112.949792,21.7764241 L106.215442,21.7764241 L106.215442,21.0608873 C106.964555,21.0608873 107.482835,20.9871056 107.776855,20.8413684 C108.067954,20.6974575 108.252037,20.4764775 108.322163,20.1802548 C108.391925,19.8843973 108.425527,18.9573773 108.425527,17.3999252 L108.425527,13.6012615 C108.425527,12.1175911 108.398864,11.2165042 108.338599,10.8994619 C108.278699,10.5824196 108.104478,10.3439073 107.817032,10.1839252 C107.529586,10.022482 106.994505,9.94212561 106.215442,9.94212561 L106.215442,9.22512784 C107.409056,9.10203653 108.626411,8.861698 109.87335,8.50959109" id="Fill-13" fill="#1B1B37"></path>
                <g id="Group-17" transform="translate(124.182622, 8.410388)">
                    <mask id="mask-12" fill="white">
                        <use xlink:href="#path-11"></use>
                    </mask>
                    <g id="Clip-16"></g>
                    <path d="M2.73373432,7.04476793 C2.73373432,9.30643385 3.1183352,10.8927412 3.89045891,11.8004027 C4.65929543,12.7095252 5.73639705,13.164269 7.12687717,13.164269 C8.54475052,13.164269 9.6317137,12.7095252 10.3874015,11.8004027 C11.1398021,10.8927412 11.5174633,9.30643385 11.5174633,7.04476793 C11.5174633,4.80209532 11.142724,3.20300401 10.3939758,2.24749399 C9.64486244,1.29344499 8.55826451,0.814594209 7.12687717,0.814594209 C5.70608189,0.814594209 4.61948395,1.29015768 3.86379617,2.23945835 C3.11139558,3.19022004 2.73373432,4.79113764 2.73373432,7.04476793 M0.0349537555,6.96623786 C0.0349537555,5.01503964 0.717227688,3.38234477 2.08506274,2.06815323 C3.44924536,0.755422717 5.13082415,0.099057461 7.12687717,0.099057461 C9.13023505,0.099057461 10.8187535,0.758710022 12.1829361,2.07618886 C13.5504059,3.39512873 14.2323146,5.0245363 14.2323146,6.96623786 C14.2323146,9.11467439 13.5405443,10.8047145 12.1526209,12.0341666 C10.7614103,13.2650797 9.08677113,13.8798058 7.12687717,13.8798058 C5.16442651,13.8798058 3.48905685,13.2537568 2.10843829,12.0038503 C0.727454492,10.7517523 0.0349537555,9.07266993 0.0349537555,6.96623786" id="Fill-15" fill="#1B1B37" mask="url(#mask-12)"></path>
                </g>
                <path d="M145.182779,11.7639136 C145.550579,10.8401808 146.149212,10.0669336 146.978314,9.44453719 C147.807781,8.81994922 148.620081,8.50948151 149.409006,8.50948151 C150.124517,8.50948151 150.689548,8.72242584 151.101177,9.14831448 C151.512441,9.57420312 151.719533,10.0095884 151.719533,10.4559314 C151.719533,10.7569024 151.615804,11.0162343 151.401772,11.2339269 C151.191392,11.4519849 150.933896,11.5622922 150.629648,11.5622922 C150.087993,11.5622922 149.676729,11.1780428 149.395857,10.4095439 C149.198261,9.88941915 148.907528,9.63008731 148.516352,9.63008731 C148.048476,9.63008731 147.493307,9.93434566 146.841348,10.5410361 C146.189389,11.1491875 145.774473,11.7799849 145.587103,12.4330628 C145.403386,13.0876018 145.312806,13.9857666 145.312806,15.127192 L145.312806,17.4001808 C145.312806,18.7603947 145.329607,19.6169203 145.370149,19.9708535 C145.406673,20.3229604 145.560441,20.5932499 145.831086,20.7791653 C146.102461,20.9661764 146.587139,21.0607777 147.279274,21.0607777 L147.734002,21.0607777 L147.734002,21.7763145 L140.662167,21.7763145 L140.662167,21.0607777 L141.003304,21.0607777 C141.65161,21.0607777 142.116564,20.974212 142.394149,20.8032722 C142.668081,20.6316018 142.835363,20.3901675 142.889053,20.0796998 C142.942379,19.7674058 142.969042,18.8743546 142.969042,17.4001808 L142.969042,13.8031385 C142.969042,12.4330628 142.952606,11.5750762 142.912429,11.2258913 C142.875905,10.878898 142.721772,10.6097042 142.451127,10.4175795 C142.180117,10.22582 141.695074,10.1293924 141.003304,10.1293924 L140.662167,10.1293924 L140.662167,9.42846592 C141.678273,9.31487127 143.012871,9.00769087 144.660847,8.50948151 C144.975687,9.32911626 145.149177,10.4146575 145.182779,11.7639136" id="Fill-18" fill="#1B1B37"></path>
                <path d="M164.243899,8.82009532 L164.243899,7.99571225 C166.347333,7.60196615 167.400694,6.475151 167.400694,4.61672784 C167.400694,3.96218886 167.196523,3.63564989 166.798408,3.63564989 C166.711846,3.63564989 166.601177,3.65172116 166.471151,3.68203742 C166.223516,3.7554539 166.006196,3.79051849 165.822114,3.79051849 C165.290685,3.79051849 164.865908,3.6305363 164.551799,3.30911091 C164.237324,2.98732027 164.08027,2.62389042 164.08027,2.21882138 C164.08027,1.81375234 164.240611,1.45397506 164.56166,1.13693274 C164.879422,0.819890423 165.293972,0.661369265 165.805313,0.661369265 C166.497813,0.661369265 167.102656,0.973663252 167.617648,1.59605969 C168.132641,2.21882138 168.390503,3.05452739 168.390503,4.10281247 C168.390503,5.30669666 168.028912,6.33270111 167.310479,7.17790379 C166.588028,8.02456748 165.564617,8.57208641 164.243899,8.82009532" id="Fill-20" fill="#1B1B37"></path>
                <path d="M153.913658,22.1812009 L153.913658,17.9920784 L154.548815,17.9920784 C155.28478,20.4108045 156.601846,21.620898 158.501475,21.620898 C159.324002,21.620898 159.939072,21.3823857 160.347048,20.9039002 C160.751737,20.4268757 160.955543,19.9020027 160.955543,19.3322031 C160.955543,18.6678022 160.738223,18.1217443 160.303584,17.6962209 C159.858718,17.2703323 158.999667,16.7564169 157.718759,16.1544748 C156.374665,15.5225817 155.408597,14.8994548 154.823113,14.286555 C154.238359,13.6846129 153.94726,12.9420472 153.94726,12.0599537 C153.94726,11.2194993 154.261369,10.4177621 154.890318,9.65437684 C155.518901,8.89062628 156.401693,8.50966414 157.541616,8.50966414 C158.701628,8.50966414 159.661487,8.96112071 160.420462,9.8636686 C160.581169,9.7088 160.791549,9.32929889 161.052697,8.72735679 L161.654253,8.72735679 L161.654253,12.6666441 L161.052697,12.6666441 C160.835013,11.7220918 160.417175,10.9108579 159.791879,10.2303857 C159.170235,9.54991359 158.43427,9.21059065 157.588733,9.21059065 C156.939696,9.21059065 156.411555,9.40271537 156.010153,9.78696481 C155.609116,10.1712143 155.408597,10.6179225 155.408597,11.1252633 C155.408597,11.6855661 155.632491,12.1688 156.077357,12.573869 C156.511631,12.9884347 157.341098,13.4607109 158.564662,13.9903323 C160.406948,14.7909737 161.534088,15.568604 161.948639,16.32578 C162.359902,17.0942788 162.566995,17.8320962 162.566995,18.5381363 C162.566995,19.6488802 162.182759,20.5517933 161.420497,21.2465105 C160.654583,21.9426886 159.691437,22.2900472 158.531425,22.2900472 C157.307496,22.2900472 156.217611,21.8068134 155.264692,20.8414414 C154.970671,21.1537354 154.732898,21.6000784 154.548815,22.1812009 L153.913658,22.1812009 Z" id="Fill-22" fill="#1B1B37"></path>
                <path d="M196.377832,0.661405791 L196.558262,5.92438129 L195.792713,5.92438129 C195.642233,4.77199822 195.301461,3.81941024 194.776242,3.06734788 C194.251387,2.31492027 193.699505,1.84447038 193.124613,1.65855501 C192.54972,1.47117862 191.579635,1.37840356 190.215452,1.37840356 L185.905585,1.37840356 L185.905585,10.3311964 L187.968842,10.3311964 C189.30271,10.3311964 190.188789,10.1167911 190.630368,9.6846931 C191.068295,9.25405612 191.288536,8.38949488 191.288536,7.09283563 L192.101202,7.09283563 L192.101202,14.5363902 L191.288536,14.5363902 C191.288536,13.632016 191.192112,12.9197666 191.004742,12.3945283 C190.814085,11.8711163 190.529561,11.5124347 190.158839,11.3206753 C189.7841,11.1285506 189.055075,11.0324882 187.968842,11.0324882 L185.905585,11.0324882 L185.905585,16.2793924 C185.905585,17.9409425 185.948683,19.0279448 186.035976,19.5414949 C186.122904,20.0554102 186.340224,20.4363724 186.69451,20.6862076 C187.045508,20.9360428 187.724495,21.0609604 188.734027,21.0609604 L189.48314,21.0609604 L189.48314,21.7764971 L179.234786,21.7764971 L179.234786,21.0609604 L179.919982,21.0609604 C180.86304,21.0609604 181.515364,20.9455394 181.879876,20.7183501 C182.240736,20.4893345 182.474857,20.1339403 182.578586,19.6507065 C182.682315,19.1685684 182.732353,18.0450405 182.732353,16.2793924 L182.732353,5.92438129 C182.732353,4.24201158 182.682315,3.15829666 182.578586,2.67031448 C182.474857,2.18196704 182.257538,1.84447038 181.926627,1.65855501 C181.598639,1.47117862 180.873267,1.37840356 179.756353,1.37840356 L179.365178,1.37840356 L179.365178,0.661405791 L196.377832,0.661405791 Z" id="Fill-24" fill="#1B1B37"></path>
                <g id="Group-28" transform="translate(196.500736, 8.775644)">
                    <mask id="mask-14" fill="white">
                        <use xlink:href="#path-13"></use>
                    </mask>
                    <g id="Clip-27"></g>
                    <path d="M13.8001956,0.247753229 L13.8001956,8.60992695 C13.8001956,10.0008223 13.8235711,10.8734192 13.8674003,11.2255261 C13.9108642,11.579094 14.0675535,11.8435394 14.3451381,12.0195929 C14.6227228,12.1952811 15.1209143,12.2851341 15.8364253,12.2851341 L15.8364253,13.0006708 C14.1847965,13.0214904 12.9809555,13.1880472 12.2219806,13.4985149 L12.0280365,13.4985149 C11.6803252,12.9287154 11.4962427,11.9425238 11.4765196,10.5403056 C10.814334,11.5264971 10.0586462,12.2690628 9.20616907,12.7669069 C8.35332666,13.264751 7.41392165,13.5145862 6.38393638,13.5145862 C5.49456966,13.5145862 4.70856672,13.3191742 4.02665803,12.9301764 C3.34438409,12.5411786 2.87322062,12.0656151 2.61901149,11.5056775 C2.36480236,10.9453746 2.23806303,10.0987109 2.23806303,8.96678218 L2.23806303,4.62279109 C2.23806303,3.14971314 2.21140029,2.24862628 2.15770957,1.92208731 C2.10073166,1.59408731 1.93016318,1.35374878 1.64271694,1.1970539 C1.35527069,1.04182004 0.826764065,0.963289978 0.0575622975,0.963289978 L0.0575622975,0.247753229 L4.57854021,0.247753229 L4.57854021,9.09169978 C4.57854021,9.96429666 4.63186568,10.598016 4.74216907,10.9917621 C4.84918527,11.3873345 5.12676996,11.7310405 5.57163594,12.0272633 C6.01613667,12.323486 6.53112931,12.4706842 7.1162486,12.4706842 C7.95192459,12.4706842 8.7477891,12.2098913 9.50676406,11.684653 C10.265739,11.161241 10.7840189,10.6060517 11.0619688,10.0183546 C11.335901,9.43248374 11.4765196,8.59385568 11.4765196,7.5039314 L11.4765196,4.62279109 C11.4765196,3.23153051 11.4597184,2.38632784 11.4261161,2.08535679 C11.3928789,1.784751 11.2555476,1.52213185 11.0115652,1.29932561 C10.7675829,1.07542361 10.2595299,0.963289978 9.49032813,0.963289978 L9.14919116,0.963289978 L9.14919116,0.247753229 L13.8001956,0.247753229 Z" id="Fill-26" fill="#1B1B37" mask="url(#mask-14)"></path>
                </g>
                <path d="M217.767376,8.50959109 L218.205302,8.50959109 C218.456224,9.15317238 218.596842,10.0305176 218.626792,11.1412615 C219.409143,10.2591679 220.228383,9.59951537 221.084513,9.16266904 C221.940277,8.72728374 222.832931,8.50959109 223.766127,8.50959109 C224.829349,8.50959109 225.698627,8.72253541 226.377249,9.14842405 C227.056236,9.57431269 227.490875,10.0958984 227.688106,10.7120855 C227.88205,11.3300989 227.979205,12.2311857 227.979205,13.4142503 L227.979205,17.3999252 C227.979205,18.8740989 228.005867,19.7722637 228.059558,20.0940543 C228.116171,20.415845 228.286739,20.6572793 228.574186,20.8190878 C228.861632,20.9790699 229.390138,21.0608873 230.15934,21.0608873 L230.15934,21.7764241 L223.345001,21.7764241 L223.345001,21.0608873 L223.652171,21.0608873 C224.434887,21.0608873 224.94294,20.95058 225.184,20.732522 C225.421043,20.5148294 225.554722,20.2602459 225.588324,19.9705978 C225.621926,19.6794886 225.638728,18.822963 225.638728,17.3999252 L225.638728,13.2893327 C225.638728,12.2826869 225.585037,11.5638628 225.484595,11.1332258 C225.381231,10.7025889 225.103647,10.3216267 224.652206,9.98851314 C224.204053,9.65722584 223.632448,9.4910343 222.93666,9.4910343 C222.147735,9.4910343 221.38876,9.71676258 220.669596,10.1682192 C219.947511,10.6193105 219.268524,11.2964953 218.626792,12.1994085 L218.626792,17.3999252 C218.626792,18.8740989 218.657108,19.7722637 218.717373,20.0940543 C218.777272,20.415845 218.951128,20.6572793 219.238574,20.8190878 C219.526021,20.9790699 220.057814,21.0608873 220.840165,21.0608873 L220.840165,21.7764241 L214.10618,21.7764241 L214.10618,21.0608873 C214.854928,21.0608873 215.37686,20.9871056 215.667594,20.8413684 C215.961979,20.6974575 216.142409,20.4764775 216.212536,20.1802548 C216.283028,19.8843973 216.319552,18.9573773 216.319552,17.3999252 L216.319552,13.6012615 C216.319552,12.1175911 216.289602,11.2165042 216.229337,10.8994619 C216.169072,10.5824196 215.995216,10.3439073 215.70777,10.1839252 C215.419959,10.022482 214.88853,9.94212561 214.10618,9.94212561 L214.10618,9.22512784 C215.299794,9.10203653 216.520436,8.861698 217.767376,8.50959109" id="Fill-29" fill="#1B1B37"></path>
                <g id="Group-33" transform="translate(231.929308, 0.009497)">
                    <mask id="mask-16" fill="white">
                        <use xlink:href="#path-15"></use>
                    </mask>
                    <g id="Clip-32"></g>
                    <path d="M11.4507334,11.2708909 C10.7352224,10.6802717 10.0160589,10.2368508 9.29726068,9.94062806 C8.57517526,9.6447706 7.85272459,9.4957461 7.12735199,9.4957461 C5.90050074,9.4957461 4.87708984,9.9486637 4.06150221,10.8515768 C3.24189691,11.75449 2.83063328,13.2286637 2.83063328,15.274098 C2.83063328,17.3505791 3.25212371,18.880637 4.09145214,19.8668285 C4.9337025,20.8526548 5.97026215,21.3457506 7.20770545,21.3457506 C8.0302327,21.3457506 8.79578203,21.1602004 9.50143152,20.7854477 C10.2034286,20.4125212 10.8553873,19.8507572 11.4507334,19.1049042 L11.4507334,11.2708909 Z M11.4507334,10.3679777 L11.4507334,5.38515367 C11.4507334,4.02640089 11.4339323,3.16987528 11.3941208,2.81594209 C11.3572312,2.46383519 11.2030987,2.1931804 10.9324536,2.00616927 C10.6618085,1.8202539 10.1767658,1.72601782 9.48463034,1.72601782 L9.14385862,1.72601782 L9.14385862,1.01048107 C10.4539853,0.97833853 11.891947,0.76064588 13.4533608,0.355576837 L13.794863,0.355576837 L13.794863,17.5010646 C13.794863,18.984735 13.8215258,19.8876481 13.8748513,20.2094388 C13.9281767,20.5312294 14.0991105,20.7693764 14.3865567,20.9264365 C14.6740029,21.0816704 15.2090839,21.1602004 15.9881473,21.1602004 L15.9881473,21.8757372 C14.4165066,21.9078797 13.0190869,22.0419287 11.7918704,22.2808062 C11.6647658,21.7924588 11.5979264,21.0239599 11.5979264,19.9756748 C10.7954875,20.7441737 9.96930781,21.3201826 9.11683063,21.7044321 C8.26764065,22.0886815 7.38484831,22.2808062 6.47539323,22.2808062 C4.74998527,22.2808062 3.26198527,21.6164053 2.01139323,20.2879688 C0.757879234,18.959167 0.132583211,17.3505791 0.132583211,15.4600134 C0.132583211,13.3838976 0.771027982,11.7048151 2.0519352,10.4224009 C3.33211193,9.14035189 4.85371429,8.50005791 6.62222091,8.50005791 C7.52181443,8.50005791 8.37100442,8.65529176 9.17380854,8.96758575 C9.97624742,9.27805345 10.7352224,9.74558129 11.4507334,10.3679777 L11.4507334,10.3679777 Z" id="Fill-31" fill="#1B1B37" mask="url(#mask-16)"></path>
                </g>
            </g>
        </g>
    </g>
</svg>