<?xml version="1.0" encoding="utf-8"?>
<!-- Generator: Adobe Illustrator 22.1.0, SVG Export Plug-In . SVG Version: 6.00 Build 0)  -->
<svg version="1.1" id="Regular" xmlns="http://www.w3.org/2000/svg" xmlns:xlink="http://www.w3.org/1999/xlink" x="0px" y="0px"
	 viewBox="0 0 24 24" style="enable-background:new 0 0 24 24;" xml:space="preserve">
<g>
	<title>multiple users 1</title>
	<g>
		<path d="M4.5,9c-1.7,0-3-1.3-3-3s1.3-3,3-3s3,1.3,3,3S6.2,9,4.5,9z M4.5,4.5C3.7,4.5,3,5.2,3,6s0.7,1.5,1.5,1.5S6,6.8,6,6
			S5.3,4.5,4.5,4.5z"/>
	</g>
	<g>
		<path d="M6,22.5H3c-0.4,0-0.7-0.3-0.7-0.7l-0.7-5.3H0.8c-0.4,0-0.8-0.3-0.8-0.8v-2.3C0,11,2,9,4.5,9c0.4,0,0.8,0.3,0.8,0.8
			s-0.3,0.8-0.8,0.8c-1.7,0-3,1.3-3,3V15h0.8c0.4,0,0.7,0.3,0.7,0.7L3.7,21H6c0.4,0,0.8,0.3,0.8,0.8S6.4,22.5,6,22.5z"/>
	</g>
	<g>
		<path d="M19.5,9c-1.7,0-3-1.3-3-3s1.3-3,3-3s3,1.3,3,3S21.2,9,19.5,9z M19.5,4.5C18.7,4.5,18,5.2,18,6s0.7,1.5,1.5,1.5
			S21,6.8,21,6S20.3,4.5,19.5,4.5z"/>
	</g>
	<g>
		<path d="M21,22.5h-3c-0.4,0-0.8-0.3-0.8-0.8S17.6,21,18,21h2.3l0.7-5.3c0-0.4,0.4-0.7,0.7-0.7h0.8v-1.5c0-1.7-1.3-3-3-3
			c-0.4,0-0.8-0.3-0.8-0.8S19.1,9,19.5,9C22,9,24,11,24,13.5v2.3c0,0.4-0.3,0.8-0.8,0.8h-0.8l-0.7,5.3C21.7,22.2,21.4,22.5,21,22.5z
			"/>
	</g>
	<g>
		<path d="M12,7.5c-2.1,0-3.8-1.7-3.8-3.8S9.9,0,12,0c2.1,0,3.8,1.7,3.8,3.8S14.1,7.5,12,7.5z M12,1.5c-1.2,0-2.3,1-2.3,2.3
			S10.8,6,12,6c1.2,0,2.3-1,2.3-2.3S13.2,1.5,12,1.5z"/>
	</g>
	<g>
		<path d="M14.3,24H9.8C9.4,24,9,23.7,9,23.3l-0.7-6.8H6.8c-0.4,0-0.8-0.3-0.8-0.8v-2.3c0-3.3,2.7-6,6-6s6,2.7,6,6v2.3
			c0,0.4-0.3,0.8-0.8,0.8h-1.6L15,23.3C15,23.7,14.6,24,14.3,24z M10.4,22.5h3.1l0.7-6.8c0-0.4,0.4-0.7,0.7-0.7h1.5v-1.5
			c0-2.5-2-4.5-4.5-4.5s-4.5,2-4.5,4.5V15H9c0.4,0,0.7,0.3,0.7,0.7L10.4,22.5z"/>
	</g>
</g>
</svg>
