<svg xmlns="http://www.w3.org/2000/svg" width="412" height="85.73" viewBox="0 0 412 85.73">
  <g id="Group_1" data-name="Group 1" transform="translate(-288 -240)">
    <g id="Group_2650" data-name="Group 2650" transform="translate(288 240)">
      <g id="Group_2644" data-name="Group 2644" transform="translate(0 0)">
        <g id="Group_2636" data-name="Group 2636" transform="translate(25.004 12.069)">
          <g id="Group_2635" data-name="Group 2635">
            <path id="Path_1591" data-name="Path 1591" d="M140.075,59.726a40.28,40.28,0,0,0-7.32-5.378c-.552-.316-1.14-.638-1.764-.961a.174.174,0,0,0-.051-.022,41.2,41.2,0,0,0-22.556-4.409,39.624,39.624,0,0,0-19.763,7.152,32.973,32.973,0,0,1,9.194-7.8,46.464,46.464,0,0,1,16.373-5.9c.974-.148,1.95-.268,2.911-.352a39.3,39.3,0,0,1,9.3.244,32.06,32.06,0,0,1,8.342,2.426C138.513,48.168,140.343,53.329,140.075,59.726Z" transform="translate(-88.622 -41.885)" fill="#c36c36"/>
          </g>
        </g>
        <g id="Group_2637" data-name="Group 2637" transform="translate(20.819)">
          <path id="Path_1592" data-name="Path 1592" d="M142.533,40.809a31.935,31.935,0,0,0-8.7-5.853c-6.286-2.855-13.492-3.686-21.423-2.481a48.02,48.02,0,0,0-16.852,6.074,32.711,32.711,0,0,0-10.723,9.735c1.8-5.971,6.3-11.961,12.947-17.13,7.1-5.523,15.6-9.192,22.729-9.816,7.609-.666,13.7,1.161,17.624,5.285A17.829,17.829,0,0,1,142.533,40.809Z" transform="translate(-82.862 -21.205)" fill="#c36c36"/>
          <path id="Path_1593" data-name="Path 1593" d="M81.45,77.263l.019-.041a.317.317,0,0,1,0-.067Z" transform="translate(-81.45 -44.504)" fill="#c36c36"/>
        </g>
        <g id="Group_2639" data-name="Group 2639" transform="translate(42.159 30.625)">
          <g id="Group_2638" data-name="Group 2638">
            <path id="Path_1594" data-name="Path 1594" d="M118.018,116.435a40.27,40.27,0,0,0,8.317-3.65q.825-.481,1.715-1.048a.178.178,0,0,0,.044-.033,41.2,41.2,0,0,0,15.1-17.33,39.617,39.617,0,0,0,3.688-20.69,32.983,32.983,0,0,1,2.158,11.862,46.466,46.466,0,0,1-3.074,17.132c-.359.917-.742,1.823-1.15,2.7a39.325,39.325,0,0,1-4.861,7.93,32.071,32.071,0,0,1-6.272,6.011C128.808,120.86,123.425,119.864,118.018,116.435Z" transform="translate(-118.018 -73.684)" fill="#c36c36"/>
          </g>
        </g>
        <g id="Group_2640" data-name="Group 2640" transform="translate(49.066 23.767)">
          <path id="Path_1595" data-name="Path 1595" d="M129.855,123.434a31.944,31.944,0,0,0,9.416-4.6c5.615-4.016,9.939-9.841,12.861-17.312A48.034,48.034,0,0,0,155.3,83.887a32.718,32.718,0,0,0-3.069-14.153c4.272,4.543,7.208,11.437,8.361,19.777,1.234,8.911.162,18.1-2.864,24.592-3.228,6.922-7.857,11.286-13.389,12.62A17.829,17.829,0,0,1,129.855,123.434Z" transform="translate(-129.855 -65.18)" fill="#c36c36"/>
          <path id="Path_1596" data-name="Path 1596" d="M161.46,61.931l.027.037a.355.355,0,0,1,.058.032Z" transform="translate(-143.016 -61.931)" fill="#c36c36"/>
        </g>
        <g id="Group_2642" data-name="Group 2642" transform="translate(11.337 21.939)">
          <g id="Group_2641" data-name="Group 2641">
            <path id="Path_1597" data-name="Path 1597" d="M75.53,58.8a40.24,40.24,0,0,0-1,9.028c0,.637.018,1.307.05,2.009a.168.168,0,0,0,.006.055,41.2,41.2,0,0,0,7.46,21.739,39.618,39.618,0,0,0,16.074,13.539,32.984,32.984,0,0,1-11.352-4.062,46.476,46.476,0,0,1-13.3-11.228c-.615-.77-1.207-1.555-1.761-2.345a39.315,39.315,0,0,1-4.437-8.174,32.073,32.073,0,0,1-2.07-8.437C66.3,65.931,69.857,61.766,75.53,58.8Z" transform="translate(-65.203 -58.799)" fill="#c36c36"/>
          </g>
        </g>
        <g id="Group_2643" data-name="Group 2643" transform="translate(0 23.599)">
          <path id="Path_1598" data-name="Path 1598" d="M56.5,61.644A31.938,31.938,0,0,0,55.779,72.1c.671,6.871,3.553,13.528,8.562,19.794a48.019,48.019,0,0,0,13.686,11.557,32.719,32.719,0,0,0,13.792,4.419c-6.07,1.429-13.508.524-21.308-2.648-8.333-3.386-15.759-8.911-19.865-14.777C46.265,84.189,44.8,78,46.411,72.541A17.828,17.828,0,0,1,56.5,61.644Z" transform="translate(-45.775 -61.644)" fill="#c36c36"/>
          <path id="Path_1599" data-name="Path 1599" d="M134.727,138.926l-.046,0a.345.345,0,0,1-.057.034Z" transform="translate(-82.775 -93.827)" fill="#c36c36"/>
        </g>
      </g>
      <g id="Group_2649" data-name="Group 2649" transform="translate(101.628 25.272)">
        <g id="Group_2646" data-name="Group 2646">
          <g id="Group_2645" data-name="Group 2645">
            <path id="Path_1600" data-name="Path 1600" d="M236.959,71.1a42.568,42.568,0,0,0-7.194-.511c-5.338,0-8.263,2.831-8.263,6.266a3.559,3.559,0,0,0,.465,2.135c.232.325.417.325.6.139a2.187,2.187,0,0,1,1.58-.65A2.223,2.223,0,0,1,226.19,80.8a2.254,2.254,0,0,1-2.413,2.041c-1.346,0-3.853-1.021-3.853-5.476a8.71,8.71,0,0,1,4.131-7.146c2.09-1.349,5.153-2.135,9.654-2.135a72.588,72.588,0,0,1,9.144.786c3.018.374,7.937.79,8.958.79,1.253,0,2.553-.185,2.553-1.345a2.1,2.1,0,0,0-.418-1.115A2.093,2.093,0,0,1,253.529,66a1.493,1.493,0,0,1,1.623-1.485c1.16,0,1.578,1.206,1.578,2.366a7.679,7.679,0,0,1-.881,3.62L248.562,87.58l.232.186c2.321-3.3,5.384-7.2,9.191-7.2,2.133,0,3.2,1.765,3.2,3.9,0,3.76-1.577,7.751-3.2,10.767-1.857,3.48-4.363,6.126-6.963,6.126a2.237,2.237,0,0,1-2.368-2c0-1.066.7-2.275,1.672-2.275a1.66,1.66,0,0,1,1.623,1.394c.047.416.28.926.79.926,1.021,0,2.553-3.016,3.435-5.382a27.318,27.318,0,0,0,1.856-8.4c0-1.16-.093-2.6-1.393-2.6-2.46,0-6.544,4.826-7.8,6.406a22.147,22.147,0,0,0-3.063,5.386l-1.95,4.732c-.093.28-.325.325-.65.325h-2c-.278,0-.372-.14-.325-.231l10.629-26.319.65-1.576a8.736,8.736,0,0,1-2.553.371c-1.532,0-7.519-.416-9-.7L233.339,94.31c-.928,2.971-.6,3.991,2,3.991h1.81c.325,0,.372.231.325.465l-.186.881c-.047.231-.139.37-.6.37-.648,0-2.506-.139-6.961-.139-3.343,0-5.8.139-6.313.139-.371,0-.418-.139-.371-.465l.14-.881c.045-.23.138-.371.51-.371h1.253c2.785,0,3.621-1.255,4.733-4.69Z" transform="translate(-219.924 -64.511)" fill="#223a5e"/>
            <path id="Path_1601" data-name="Path 1601" d="M292.1,107.255c0-3.9,2.552-8.775,5.941-12.116,1.485-1.485,3.991-3.11,6.219-3.11a2.487,2.487,0,0,1,2.645,2.46c0,2.275-1.718,4.69-4.316,6.035a18.987,18.987,0,0,1-6.731,1.9,12.706,12.706,0,0,0-.6,4.271,2.688,2.688,0,0,0,2.413,2.925,6.766,6.766,0,0,0,5.291-3.3c.095-.139.232-.234.417-.045l.512.415c.23.14.23.28.046.42-1.161,1.625-3.946,4.686-7.519,4.686C293.4,111.8,292.1,110.316,292.1,107.255Zm4.13-6.175c1.623.14,7.7-1.81,7.7-5.245,0-.926-.463-1.761-1.485-1.761C299.483,94.073,296.605,99.409,296.234,101.079Z" transform="translate(-249.982 -75.97)" fill="#223a5e"/>
          </g>
        </g>
        <g id="Group_2647" data-name="Group 2647" transform="translate(67.722 2.366)">
          <path id="Path_1602" data-name="Path 1602" d="M341.262,80.262c0-1.206-.138-7.8-.231-8.587-.14-1.115-.742-1.3-2-1.3h-2.553c-.231,0-.37-.045-.37-.325V68.8c0-.186.139-.235.325-.235.6,0,2.645.14,6.823.14,1.206,0,5.849-.14,6.914-.14,5.989,0,11,.7,15.085,4.18a14.962,14.962,0,0,1,5.153,11.832,16.519,16.519,0,0,1-4.6,12.207c-4.456,4.921-10.862,4.921-14.435,4.921-2.923,0-6.451-.139-8.539-.139-4.038,0-5.9.139-6.546.139-.232,0-.325-.09-.325-.325v-1.206c0-.185.14-.28.372-.28h3.108c.883,0,1.393-.371,1.486-1.115.139-.975.325-11.418.325-15.038Zm4.271,4.5c0,.6.047,8.5.092,11.371a4.366,4.366,0,0,0,.79,2.6c.742.975,2.6,1.485,4.918,1.485a13.613,13.613,0,0,0,10.909-5.011,17.03,17.03,0,0,0,3.388-10.446,16.474,16.474,0,0,0-3.806-10.257c-2.415-2.646-6.5-4.456-11.652-4.456a9.606,9.606,0,0,0-3.713.465,2.477,2.477,0,0,0-.881,2.181c-.047,1.95-.047,8.031-.047,8.772Z" transform="translate(-335.971 -68.565)" fill="#223a5e"/>
          <path id="Path_1603" data-name="Path 1603" d="M401.46,108.262c-2.135-2.551-2.553-4.271-2.553-7.566a9.871,9.871,0,0,1,3.991-7.471A10.044,10.044,0,0,1,409.117,91a9.816,9.816,0,0,1,6.5,2.691,10.3,10.3,0,0,1,3.156,7.567,10.6,10.6,0,0,1-10.257,10.211A9.358,9.358,0,0,1,401.46,108.262Zm13.413-7.471c0-5.151-3.759-8.4-6.126-8.4a4.479,4.479,0,0,0-3.573,1.485c-1.81,1.856-2.46,3.761-2.46,7.286a10.015,10.015,0,0,0,1.763,6.5,5.137,5.137,0,0,0,4.6,2.411C412.6,110.072,414.873,105.757,414.873,100.79Z" transform="translate(-362.179 -77.907)" fill="#223a5e"/>
          <path id="Path_1604" data-name="Path 1604" d="M455.752,108.4c0,.745.418.975,1.021.975h1.485c.418,0,.512.139.512.42v.741c0,.325-.094.51-.372.51-.325,0-1.763-.139-4.409-.139-2.367,0-3.853.139-4.178.139-.278,0-.371-.139-.371-.51V109.8c0-.325.138-.42.6-.42h1.346c.51,0,.882-.231.927-1.066.047-1.21.095-2.695.095-3.9V98.284c0-1.855,0-3.2-1.347-4.18a5.087,5.087,0,0,0-3.388-.835,5.44,5.44,0,0,0-3.759,1.81,4.549,4.549,0,0,0-1.067,3.155v9.611c0,1.251.138,1.531,1.113,1.531h1.16c.372,0,.465.139.465.465v.79c0,.276-.093.415-.325.415-.325,0-1.578-.139-4.038-.139-2.368,0-3.853.139-4.13.139-.233,0-.325-.139-.325-.415V109.8c0-.28.092-.42.464-.42h1.346c.6,0,.928-.14.928-.93V97.589a2.86,2.86,0,0,0-1.9-2.74l-.371-.186c-.325-.139-.372-.28-.372-.42v-.23c0-.234.185-.37.418-.465l3.991-2.226a2.4,2.4,0,0,1,.837-.325c.231,0,.325.186.371.556l.325,2.831h.093c1.345-1.67,4.038-3.386,6.359-3.386a7.148,7.148,0,0,1,3.945,1.021,6.753,6.753,0,0,1,2.553,4.411Z" transform="translate(-377.946 -77.907)" fill="#223a5e"/>
          <path id="Path_1605" data-name="Path 1605" d="M478.783,108.262c-2.135-2.551-2.553-4.271-2.553-7.566a9.871,9.871,0,0,1,3.991-7.471A10.044,10.044,0,0,1,486.44,91a9.816,9.816,0,0,1,6.5,2.691,10.305,10.305,0,0,1,3.156,7.567,10.6,10.6,0,0,1-10.257,10.211A9.359,9.359,0,0,1,478.783,108.262ZM492.2,100.79c0-5.151-3.759-8.4-6.126-8.4a4.48,4.48,0,0,0-3.573,1.485c-1.81,1.856-2.46,3.761-2.46,7.286a10.015,10.015,0,0,0,1.763,6.5,5.138,5.138,0,0,0,4.6,2.411C489.922,110.072,492.2,105.757,492.2,100.79Z" transform="translate(-394.379 -77.907)" fill="#223a5e"/>
          <path id="Path_1606" data-name="Path 1606" d="M517.578,98.426c0-2.366-.372-2.83-1.672-3.526l-.881-.465c-.28-.09-.372-.139-.372-.325v-.275c0-.189.092-.28.372-.42l4.594-2.366a1.393,1.393,0,0,1,.65-.186c.28,0,.325.276.325.556l.232,3.3h.186c1.392-2.135,3.575-4.04,5.57-4.04a2.1,2.1,0,0,1,2.366,2.044A2.243,2.243,0,0,1,527,94.995a3.012,3.012,0,0,1-1.348-.374,3,3,0,0,0-1.531-.371,3.3,3.3,0,0,0-2.738,1.95,4.967,4.967,0,0,0-.465,1.485v9.652c0,1.44.325,1.9,1.3,1.9h2.18c.28,0,.325.139.325.42v.835c0,.276-.045.416-.232.416-.278,0-2.413-.139-4.919-.139-2.878,0-4.828.139-5.106.139-.185,0-.278-.09-.278-.465v-.786c0-.325.093-.42.51-.42h1.811c.7,0,1.02-.28,1.02-.881.047-1.534.047-3.156.047-5.571Z" transform="translate(-410.187 -77.772)" fill="#223a5e"/>
          <path id="Path_1607" data-name="Path 1607" d="M543.021,110.118c-.232-.136-.232-.416-.28-.646l-.788-4.411c-.047-.234.092-.325.278-.371l.6-.139c.187-.049.325.045.417.276l1.16,2.275c.93,1.72,1.58,2.88,4.038,2.88,1.625,0,3.668-.975,3.668-3.156,0-2.09-1.022-3.3-4.5-4.271-2.738-.79-5.476-2.23-5.476-5.9,0-3.2,3.016-5.662,6.5-5.662a8.616,8.616,0,0,1,4.268.975c.7.322.79.556.836.836l.7,3.246a.434.434,0,0,1-.325.42l-.558.186c-.185.045-.278,0-.417-.23l-1.578-2.135a3.541,3.541,0,0,0-3.248-1.81c-1.765,0-3.576,1.066-3.576,3.061,0,2.691,2.182,3.2,4.456,3.855,3.388.971,5.523,2.366,5.57,5.941-.047,3.757-3.11,6.126-7.055,6.126A8.706,8.706,0,0,1,543.021,110.118Z" transform="translate(-421.744 -77.907)" fill="#223a5e"/>
          <path id="Path_1608" data-name="Path 1608" d="M571.083,80.469c.74,3.555-2.045,6.658-2.639,7.215a1.3,1.3,0,0,1-.617.443c-.265.055-.4-.035-.442-.223s-.055-.264.2-.555c.637-.923,1.877-2.915,1.492-4.767a1.258,1.258,0,0,0-.787-.941c-.372-.08-2.038-.128-2.385-1.79a1.728,1.728,0,0,1,1.552-2.018A3.262,3.262,0,0,1,571.083,80.469Z" transform="translate(-431.708 -72.406)" fill="#223a5e"/>
        </g>
        <g id="Group_2648" data-name="Group 2648" transform="translate(216.827 1.81)">
          <path id="Path_1609" data-name="Path 1609" d="M596.49,80.835c0-2.045-.093-8.587-.093-9.146,0-.881-.65-1.346-1.9-1.346H591.8c-.185,0-.325-.09-.325-.275V68.812c0-.185.14-.28.325-.28.278,0,.835.049,1.9.049,1.067.046,2.645.091,4.873.091.79,0,17.08.046,17.823-.185.14.79,1.532,7.055,1.858,8.261.045.186,0,.28-.095.325l-.835.325c-.138.046-.232-.046-.371-.325-.417-.741-1.625-2.46-2.97-4.271a5.688,5.688,0,0,0-3.25-2.18c-1.16-.28-8.539-.42-9.932-.42,0,.6-.047,9.935-.047,12.766v2.32c.65,0,5.524-.139,6.081-.234,1.022-.186,1.625-.6,2.043-2.041.14-.465.325-1.44.464-2.275.046-.185.138-.325.323-.325l.93.049c.185,0,.278.136.278.325-.093.786-.093,4.641-.093,5.291,0,1.67.14,3.9.233,4.826,0,.231-.093.325-.325.37l-.882.186c-.233.049-.278-.091-.325-.325-.046-.371-.371-1.761-.511-2.275a2.153,2.153,0,0,0-1.9-1.806,59.811,59.811,0,0,0-6.314-.28v1.716c0,1.394.047,9.191.047,9.886,0,1.255.233,1.485,1.81,1.485h2.275c.278,0,.418.095.418.28V101.3c0,.28-.094.37-.372.37-.463,0-2.321-.139-6.311-.139-3.621,0-5.386.139-6.081.139-.185,0-.278-.09-.278-.325V100.1c0-.189.138-.235.325-.235h2.088c1.206,0,1.578-.185,1.623-1.02.095-.93.187-6.776.187-14.758Z" transform="translate(-591.476 -67.977)" fill="#223a5e"/>
          <path id="Path_1610" data-name="Path 1610" d="M650.627,101.75c0,2.23,0,4.5.093,5.476.138,1.44.65,1.625,1.205,1.625a6.83,6.83,0,0,0,1.533-.139c.37-.091.51,0,.557.185l.138.6c.047.28-.046.371-.23.42l-4.875,1.625a2.794,2.794,0,0,1-.928.185c-.185,0-.37-.095-.418-.559l-.37-2.691h-.095a8.476,8.476,0,0,1-6.311,3.25,4.858,4.858,0,0,1-4.363-2.135c-1.9-2.46-1.81-3.991-1.81-9.1V95.068c-.045-1.3-.7-1.625-1.763-1.765-.79-.046-1.022-.095-1.022-.325v-.836c0-.28.095-.37.512-.37h4.13a2.467,2.467,0,0,0,.65-.095c.185,0,.371-.046.51-.046a.477.477,0,0,1,.51.556c-.047.42-.185,2.6-.185,5.34v3.341c0,1.855-.465,4.826,1.021,6.961a3.887,3.887,0,0,0,3.713,1.765,6.4,6.4,0,0,0,3.991-2.32,2.524,2.524,0,0,0,.465-1.255V94.928c-.093-1.3-.835-1.531-2-1.625-.79,0-1.022-.095-1.022-.325v-.79c0-.371.094-.415.557-.415h4.318a3.717,3.717,0,0,0,.788-.095c.232,0,.418-.046.557-.046a.4.4,0,0,1,.418.465,40.986,40.986,0,0,0-.278,6.171Z" transform="translate(-608.338 -77.616)" fill="#223a5e"/>
          <path id="Path_1611" data-name="Path 1611" d="M692.216,108.4c0,.745.418.975,1.02.975h1.486c.417,0,.512.139.512.42v.741c0,.325-.094.51-.372.51-.325,0-1.763-.139-4.408-.139-2.367,0-3.853.139-4.178.139-.278,0-.371-.139-.371-.51V109.8c0-.325.138-.42.6-.42h1.345c.511,0,.882-.231.928-1.066.047-1.21.094-2.695.094-3.9V98.284c0-1.855,0-3.2-1.348-4.18a5.085,5.085,0,0,0-3.388-.835,5.439,5.439,0,0,0-3.759,1.81,4.548,4.548,0,0,0-1.067,3.155v9.611c0,1.251.138,1.531,1.113,1.531h1.16c.372,0,.464.139.464.465v.79c0,.276-.092.415-.324.415-.325,0-1.578-.139-4.038-.139-2.368,0-3.853.139-4.131.139-.232,0-.325-.139-.325-.415V109.8c0-.28.093-.42.465-.42h1.346c.6,0,.927-.14.927-.93V97.589a2.859,2.859,0,0,0-1.9-2.74l-.371-.186c-.325-.139-.372-.28-.372-.42v-.23c0-.234.185-.37.418-.465l3.991-2.226A2.391,2.391,0,0,1,678.57,91c.231,0,.325.186.371.556l.325,2.831h.092C680.7,92.714,683.4,91,685.717,91a7.145,7.145,0,0,1,3.945,1.021,6.751,6.751,0,0,1,2.553,4.411Z" transform="translate(-625.522 -77.351)" fill="#223a5e"/>
          <path id="Path_1612" data-name="Path 1612" d="M729.187,72.9c0-1.765-.325-2.321-2.923-2.74-.28-.046-.325-.137-.325-.325v-.786c0-.186.093-.28.371-.325,1.81-.374,4.225-.79,5.106-.975a10.507,10.507,0,0,1,1.067-.14c.233,0,.278.325.233.835-.14,2.321-.186,9.052-.186,14.947V93.652c0,1.716.093,3.756.463,4.221a3.451,3.451,0,0,0,2.042.79c.65.046.835.095.928.325l.092.371c.047.28-.045.419-.325.51l-5.243,1.765c-.278.095-.51-.046-.6-.371l-.6-2.044a10.681,10.681,0,0,1-6.822,2.509,6.433,6.433,0,0,1-5.478-2.135c-2.366-2.32-2.923-4.411-2.923-7.52a11.072,11.072,0,0,1,3.248-7.892,9.343,9.343,0,0,1,6.916-2.921,17.249,17.249,0,0,1,4.966.7Zm0,14.712a4.588,4.588,0,0,0-.418-2.275c-.65-1.251-2.135-2.506-4.873-2.506a5.733,5.733,0,0,0-4.224,1.67,8.871,8.871,0,0,0-2.135,6.175c0,5.242,3.621,9.052,6.312,9.052,2.6,0,4.6-1.349,5.06-2.555a4.335,4.335,0,0,0,.278-1.576Z" transform="translate(-642.522 -67.613)" fill="#223a5e"/>
        </g>
      </g>
    </g>
  </g>
</svg>
