<svg width="200" height="143" viewBox="0 0 200 143" fill="none" xmlns="http://www.w3.org/2000/svg">
<g clip-path="url(#clip0)">
<g opacity="0.4">
<path d="M16.6863 45.038C15.1252 39.2122 18.5928 33.2213 24.4313 31.6569L127.504 4.03869C133.342 2.47427 139.341 5.92876 140.902 11.7545C142.463 17.5803 138.995 23.5712 133.157 25.1356L30.0842 52.7538C24.2457 54.3182 18.2473 50.8637 16.6863 45.038Z" fill="#AED5F5"/>
<path d="M31.1488 63.7744C29.5878 57.9486 33.0554 51.9577 38.8939 50.3933L141.966 22.7751C147.805 21.2107 153.803 24.6652 155.364 30.4909C156.925 36.3167 153.458 42.3076 147.619 43.872L44.5468 71.4902C38.7083 73.0546 32.7098 69.6001 31.1488 63.7744Z" fill="#AED5F5"/>
<path d="M17.4205 90.0645C15.8595 84.2387 19.3271 78.2478 25.1656 76.6834L173.167 37.0265C179.006 35.4621 185.004 38.9166 186.565 44.7423C188.126 50.5681 184.659 56.559 178.82 58.1234L30.8185 97.7803C24.98 99.3447 18.9815 95.8902 17.4205 90.0645Z" fill="#AED5F5"/>
<path d="M3.69228 116.355C2.13127 110.529 5.59886 104.538 11.4374 102.973L159.439 63.3166C165.277 61.7522 171.276 65.2067 172.837 71.0324C174.398 76.8582 170.93 82.8491 165.092 84.4135L17.0903 124.07C11.2518 125.635 5.25328 122.18 3.69228 116.355Z" fill="#AED5F5"/>
<path d="M34.8931 130.606C33.3321 124.78 36.7997 118.789 42.6382 117.225L174.782 81.8169C180.621 80.2525 186.619 83.707 188.18 89.5328C189.741 95.3585 186.274 101.349 180.435 102.914L48.2911 138.322C42.4526 139.886 36.4541 136.432 34.8931 130.606Z" fill="#AED5F5"/>
</g>
<g clip-path="url(#clip1)">
<path d="M132.9 102.784L116.256 86.1398C121.324 78.5534 123.389 69.3531 122.049 60.3285C120.709 51.3039 116.06 43.1003 109.007 37.3134C101.954 31.5265 93 28.57 83.8875 29.0191C74.7751 29.4682 66.1555 33.2908 59.7053 39.7432C53.2552 46.1956 49.4357 54.8166 48.9898 63.9292C48.5439 73.0418 51.5035 81.9944 57.293 89.0458C63.0824 96.0971 71.2876 100.743 80.3127 102.079C89.3378 103.416 98.5373 101.348 106.122 96.2771L122.767 112.918C124.122 114.24 125.94 114.98 127.833 114.98C129.727 114.98 131.545 114.24 132.9 112.918C134.244 111.574 134.998 109.752 134.998 107.851C134.998 105.951 134.244 104.128 132.9 102.784V102.784ZM85.7292 39.7679C90.8674 39.7679 95.8902 41.2916 100.162 44.1462C104.435 47.0008 107.765 51.0582 109.731 55.8053C111.697 60.5523 112.212 65.7759 111.209 70.8154C110.207 75.8548 107.732 80.4839 104.099 84.1171C100.466 87.7504 95.8369 90.2246 90.7975 91.2271C85.758 92.2295 80.5345 91.715 75.7874 89.7487C71.0403 87.7824 66.9829 84.4526 64.1283 80.1803C61.2737 75.9081 59.75 70.8853 59.75 65.7471C59.7576 58.8593 62.4971 52.2558 67.3675 47.3854C72.2379 42.515 78.8414 39.7755 85.7292 39.7679V39.7679Z" fill="#348CFC" fill-opacity="0.1"/>
</g>
<g clip-path="url(#clip2)">
<path d="M121.424 81.5843L120.968 82.2667L121.549 82.8469L138.193 99.4914C138.193 99.4914 138.193 99.4915 138.193 99.4915C139.349 100.648 139.998 102.216 139.998 103.851C139.998 105.484 139.351 107.051 138.197 108.207C137.029 109.344 135.464 109.98 133.833 109.98C132.203 109.98 130.637 109.344 129.469 108.206C129.468 108.205 129.466 108.204 129.465 108.202L112.829 91.5699L112.249 90.9896L111.566 91.4457C104.188 96.3785 95.2387 98.3904 86.4592 97.0902C77.6797 95.79 69.6977 91.2706 64.0658 84.4112C58.4339 77.5518 55.5549 68.8427 55.9886 59.9781C56.4224 51.1134 60.1379 42.727 66.4126 36.4502C72.6872 30.1733 81.0723 26.4548 89.9367 26.0179C98.8012 25.581 107.511 28.457 114.373 34.0865C121.234 39.7159 125.756 47.6963 127.06 56.4754C128.363 65.2544 126.354 74.2044 121.424 81.5843ZM64.75 61.746V61.7471C64.75 67.083 66.3323 72.2992 69.2968 76.7359C72.2614 81.1726 76.4749 84.6306 81.4047 86.6726C86.3345 88.7146 91.7591 89.2488 96.9926 88.2078C102.226 87.1668 107.033 84.5973 110.806 80.8242C114.579 77.0511 117.149 72.2439 118.19 67.0104C119.231 61.777 118.697 56.3524 116.655 51.4226C114.613 46.4928 111.155 42.2792 106.718 39.3147C102.281 36.3502 97.0652 34.7679 91.7292 34.7679V35.7662L91.7281 34.7679C84.5755 34.7758 77.7181 37.6206 72.6604 42.6783C67.6028 47.736 64.7579 54.5934 64.75 61.746Z" stroke="#348CFC" stroke-width="2"/>
</g>
<circle cx="94" cy="60" r="26" fill="#348CFC" fill-opacity="0.5"/>
</g>
<defs>
<clipPath id="clip0">
<rect width="200" height="143" fill="white"/>
</clipPath>
<clipPath id="clip1">
<rect width="86" height="86" fill="white" transform="translate(49 29)"/>
</clipPath>
<clipPath id="clip2">
<rect width="86" height="86" fill="white" transform="translate(55 25)"/>
</clipPath>
</defs>
</svg>
