<svg xmlns="http://www.w3.org/2000/svg" viewBox="0 0 193 193"><defs><style>.cls-1{fill:#3a4758;}.cls-2{fill:#4d6077;}.cls-3{fill:#2a343f;}.cls-4{fill:none;stroke:#00a1ff;stroke-linecap:round;stroke-miterlimit:10;stroke-width:2px;}.cls-5{fill:#00a1ff;}</style></defs><title>Asset 1</title><g id="Layer_2" data-name="Layer 2"><g id="Layer_1-2" data-name="Layer 1"><g id="Layer_2-2" data-name="Layer 2"><g id="Layer_1-2-2" data-name="Layer 1-2"><circle class="cls-1" cx="96.5" cy="96.5" r="96.5"/><rect class="cls-2" x="47" y="61" width="99" height="85" rx="3.5" ry="3.5"/><path class="cls-3" d="M119.71,95.07v29.59a5.34,5.34,0,0,1-5.34,5.34H79.63a5.34,5.34,0,0,1-5.34-5.34V82.34A5.34,5.34,0,0,1,79.63,77h22a7.11,7.11,0,0,1,5,2.09l11,10.91A7.13,7.13,0,0,1,119.71,95.07Z"/><line class="cls-4" x1="82.5" y1="89.25" x2="99.5" y2="89.25"/><line class="cls-4" x1="82.5" y1="99.42" x2="111.5" y2="99.42"/><line class="cls-4" x1="82.5" y1="109.58" x2="111.5" y2="109.58"/><line class="cls-4" x1="82.5" y1="119.75" x2="111.5" y2="119.75"/><rect class="cls-2" x="47" y="47" width="41" height="9" rx="1.44" ry="1.44"/><rect class="cls-5" x="117" y="47" width="29" height="9" rx="1.44" ry="1.44"/></g></g></g></g></svg>