<?xml version="1.0" encoding="utf-8"?>
<!-- Generator: Adobe Illustrator 23.0.6, SVG Export Plug-In . SVG Version: 6.00 Build 0)  -->
<svg version="1.1" id="Layer_1" xmlns="http://www.w3.org/2000/svg" xmlns:xlink="http://www.w3.org/1999/xlink" x="0px" y="0px"
	 viewBox="0 0 256 256" enable-background="new 0 0 256 256" xml:space="preserve">
<path opacity="0.2" fill="#29ABE2" d="M185.7,9.3c-13,0-22.3,11.1-22.1,22.8c-7.4,2.2-12.9,9.1-12.9,17.2c0,9.9,8.1,18,18,18h49
	c11,0,19-7.6,19-17c0-7.4-4.8-14.6-12.2-16.6c-0.5-5.8-3.3-10.2-7.3-12.6c-3.8-2.3-8.5-2.7-12.8-1.2C200.9,14,194.3,9.3,185.7,9.3z"
	/>
<circle opacity="0.1" fill="#F7931E" cx="128" cy="87" r="52.4"/>
<path opacity="0.2" fill="#29ABE2" d="M51.8,38.3c-13,0-22.3,11.1-22.1,22.8c-7.4,2.2-12.9,9.1-12.9,17.2c0,9.9,8.1,18,18,18h49
	c11,0,19-7.6,19-17c0-7.4-4.8-14.6-12.2-16.6c-0.5-5.8-3.3-10.2-7.3-12.6c-3.8-2.3-8.5-2.7-12.8-1.2C67,43,60.4,38.3,51.8,38.3z"/>
<rect x="174.2" y="26.6" fill="none" stroke="#000000" stroke-width="2.3513" stroke-linecap="round" stroke-linejoin="bevel" stroke-miterlimit="10" width="34.1" height="30"/>
<polyline fill="none" stroke="#000000" stroke-width="2.3513" stroke-linecap="round" stroke-linejoin="bevel" stroke-miterlimit="10" points="
	195.4,26.6 195.4,46.4 174.2,46.4 "/>
<circle fill="none" stroke="#000000" stroke-width="2.3513" stroke-linecap="round" stroke-linejoin="bevel" stroke-miterlimit="10" cx="218.7" cy="198.5" r="7.1"/>
<circle fill="none" stroke="#000000" stroke-width="2.3513" stroke-linecap="round" stroke-linejoin="bevel" stroke-miterlimit="10" cx="211.7" cy="210.8" r="7.1"/>
<circle fill="none" stroke="#000000" stroke-width="2.3513" stroke-linecap="round" stroke-linejoin="bevel" stroke-miterlimit="10" cx="225.8" cy="210.8" r="7.1"/>
<polyline fill="none" stroke="#000000" stroke-width="2.3513" stroke-linecap="round" stroke-linejoin="bevel" stroke-miterlimit="10" points="
	88.8,67.3 88.8,217.8 167.5,217.8 167.5,67.3 "/>
<line fill="none" stroke="#000000" stroke-width="2.3513" stroke-linecap="round" stroke-linejoin="bevel" stroke-miterlimit="10" x1="89.3" y1="82.6" x2="134.5" y2="82.6"/>
<line fill="none" stroke="#000000" stroke-width="2.3513" stroke-linecap="round" stroke-linejoin="bevel" stroke-miterlimit="10" x1="89.3" y1="99.1" x2="167.4" y2="99.1"/>
<line fill="none" stroke="#000000" stroke-width="2.3513" stroke-linecap="round" stroke-linejoin="bevel" stroke-miterlimit="10" x1="89.3" y1="110.8" x2="114.5" y2="110.8"/>
<line fill="none" stroke="#000000" stroke-width="2.3513" stroke-linecap="round" stroke-linejoin="bevel" stroke-miterlimit="10" x1="140.3" y1="88.5" x2="140.3" y2="137.9"/>
<polyline fill="none" stroke="#000000" stroke-width="2.3513" stroke-linecap="round" stroke-linejoin="bevel" stroke-miterlimit="10" points="
	167.4,137.9 140.3,137.9 127.4,124.9 114.5,124.9 114.5,90.8 "/>
<line fill="none" stroke="#000000" stroke-width="2.3513" stroke-linecap="round" stroke-linejoin="bevel" stroke-miterlimit="10" x1="18.6" y1="217.8" x2="237.4" y2="217.8"/>
<line fill="none" stroke="#000000" stroke-width="2.3513" stroke-linecap="round" stroke-linejoin="bevel" stroke-miterlimit="10" x1="56.9" y1="48.5" x2="56.9" y2="114.3"/>
<polyline fill="none" stroke="#000000" stroke-width="2.3513" stroke-linecap="round" stroke-linejoin="bevel" stroke-miterlimit="10" points="
	197.2,82.4 183.6,68.9 195.9,56.6 "/>
<polyline fill="none" stroke="#000000" stroke-width="2.3513" stroke-linecap="round" stroke-linejoin="bevel" stroke-miterlimit="10" points="
	71,34.5 56.9,48.6 42.8,34.5 "/>
<polyline fill="none" stroke="#000000" stroke-width="2.3513" stroke-linecap="round" stroke-linejoin="bevel" stroke-miterlimit="10" points="
	99.2,34.5 85.1,48.6 71,34.5 "/>
<polyline fill="none" stroke="#000000" stroke-width="2.3513" stroke-linecap="round" stroke-linejoin="bevel" stroke-miterlimit="10" points="
	127.4,34.5 113.3,48.6 99.2,34.5 "/>
<polyline fill="none" stroke="#000000" stroke-width="2.3513" stroke-linecap="round" stroke-linejoin="bevel" stroke-miterlimit="10" points="
	155.6,34.5 141.5,48.6 127.4,34.5 "/>
<polyline fill="none" stroke="#000000" stroke-width="2.3513" stroke-linecap="round" stroke-linejoin="bevel" stroke-miterlimit="10" points="
	197.2,109.4 183.6,95.9 197.2,82.3 "/>
<polyline fill="none" stroke="#000000" stroke-width="2.3513" stroke-linecap="round" stroke-linejoin="bevel" stroke-miterlimit="10" points="
	197.2,136.4 183.6,122.9 197.2,109.3 "/>
<polyline fill="none" stroke="#000000" stroke-width="2.3513" stroke-linecap="round" stroke-linejoin="bevel" stroke-miterlimit="10" points="
	197.2,163.4 183.6,149.9 197.2,136.3 "/>
<polyline fill="none" stroke="#000000" stroke-width="2.3513" stroke-linecap="round" stroke-linejoin="bevel" stroke-miterlimit="10" points="
	197.2,190.4 183.6,176.9 197.2,163.3 "/>
<polyline fill="none" stroke="#000000" stroke-width="2.3513" stroke-linecap="round" stroke-linejoin="bevel" stroke-miterlimit="10" points="
	197.2,217.4 183.6,203.8 197.2,190.3 "/>
<polyline fill="none" stroke="#000000" stroke-width="2.3513" stroke-linecap="round" stroke-linejoin="bevel" stroke-miterlimit="10" points="
	40.9,217.8 57.3,201.4 73.7,217.8 "/>
<polyline fill="none" stroke="#000000" stroke-width="2.3513" stroke-linecap="round" stroke-linejoin="bevel" stroke-miterlimit="10" points="
	40.5,138 40.5,151.6 50.1,161.2 63.6,161.2 73.2,151.6 73.2,138 "/>
<line fill="none" stroke="#000000" stroke-width="2.3513" stroke-linecap="round" stroke-linejoin="bevel" stroke-miterlimit="10" x1="40.5" y1="138" x2="73.2" y2="138"/>
<polyline fill="none" stroke="#000000" stroke-width="2.3513" stroke-linecap="round" stroke-linejoin="bevel" stroke-miterlimit="10" points="
	197.2,56.6 197.2,217.8 183.6,217.8 183.6,56.6 "/>
<polyline fill="none" stroke="#000000" stroke-width="2.3513" stroke-linecap="round" stroke-linejoin="bevel" stroke-miterlimit="10" points="
	174.2,48.5 42.9,48.5 42.9,34.5 174.2,34.5 "/>
<polyline fill="none" stroke="#000000" stroke-width="2.3513" stroke-linecap="round" stroke-linejoin="bevel" stroke-miterlimit="10" points="
	208.3,34.5 234.4,34.5 234.4,48.5 208.3,48.5 "/>
<polyline fill="none" stroke="#000000" stroke-width="2.3513" stroke-linecap="round" stroke-linejoin="bevel" stroke-miterlimit="10" points="
	174.2,44.2 169.7,48.6 155.6,34.5 "/>
<line fill="none" stroke="#000000" stroke-width="2.3513" stroke-linecap="round" stroke-linejoin="bevel" stroke-miterlimit="10" x1="212" y1="34.5" x2="208.3" y2="38.3"/>
<polyline fill="none" stroke="#000000" stroke-width="2.3513" stroke-linecap="round" stroke-linejoin="bevel" stroke-miterlimit="10" points="
	234.4,40.3 226.1,48.6 212,34.5 "/>
<path fill="none" stroke="#000000" stroke-width="2.3513" stroke-linecap="round" stroke-linejoin="bevel" stroke-miterlimit="10" d="
	M56.9,114.3c3.9,0,7.1,3.2,7.1,7.1s-3.2,7.1-7.1,7.1s-7.1-3.2-7.1-7.1"/>
<line fill="none" stroke="#000000" stroke-width="2.3513" stroke-linecap="round" stroke-linejoin="bevel" stroke-miterlimit="10" x1="61.7" y1="126.5" x2="73.2" y2="138"/>
<line fill="none" stroke="#000000" stroke-width="2.3513" stroke-linecap="round" stroke-linejoin="bevel" stroke-miterlimit="10" x1="40.5" y1="138" x2="52" y2="126.5"/>
<g>
	
		<rect x="97.6" y="195.6" fill="none" stroke="#000000" stroke-width="2.3513" stroke-linecap="round" stroke-linejoin="bevel" stroke-miterlimit="10" width="9" height="9"/>
	
		<rect x="115" y="195.6" fill="none" stroke="#000000" stroke-width="2.3513" stroke-linecap="round" stroke-linejoin="bevel" stroke-miterlimit="10" width="9" height="9"/>
	
		<rect x="132.3" y="195.6" fill="none" stroke="#000000" stroke-width="2.3513" stroke-linecap="round" stroke-linejoin="bevel" stroke-miterlimit="10" width="9" height="9"/>
	
		<rect x="149.6" y="195.6" fill="none" stroke="#000000" stroke-width="2.3513" stroke-linecap="round" stroke-linejoin="bevel" stroke-miterlimit="10" width="9" height="9"/>
</g>
<g>
	
		<rect x="97.6" y="178.9" fill="none" stroke="#000000" stroke-width="2.3513" stroke-linecap="round" stroke-linejoin="bevel" stroke-miterlimit="10" width="9" height="9"/>
	
		<rect x="115" y="178.9" fill="none" stroke="#000000" stroke-width="2.3513" stroke-linecap="round" stroke-linejoin="bevel" stroke-miterlimit="10" width="9" height="9"/>
	
		<rect x="132.3" y="178.9" fill="none" stroke="#000000" stroke-width="2.3513" stroke-linecap="round" stroke-linejoin="bevel" stroke-miterlimit="10" width="9" height="9"/>
	
		<rect x="149.6" y="178.9" fill="none" stroke="#000000" stroke-width="2.3513" stroke-linecap="round" stroke-linejoin="bevel" stroke-miterlimit="10" width="9" height="9"/>
</g>
<g>
	
		<rect x="97.6" y="162.3" fill="none" stroke="#000000" stroke-width="2.3513" stroke-linecap="round" stroke-linejoin="bevel" stroke-miterlimit="10" width="9" height="9"/>
	
		<rect x="115" y="162.3" fill="none" stroke="#000000" stroke-width="2.3513" stroke-linecap="round" stroke-linejoin="bevel" stroke-miterlimit="10" width="9" height="9"/>
	
		<rect x="132.3" y="162.3" fill="none" stroke="#000000" stroke-width="2.3513" stroke-linecap="round" stroke-linejoin="bevel" stroke-miterlimit="10" width="9" height="9"/>
	
		<rect x="149.6" y="162.3" fill="none" stroke="#000000" stroke-width="2.3513" stroke-linecap="round" stroke-linejoin="bevel" stroke-miterlimit="10" width="9" height="9"/>
</g>
<g>
	
		<rect x="97.6" y="145.6" fill="none" stroke="#000000" stroke-width="2.3513" stroke-linecap="round" stroke-linejoin="bevel" stroke-miterlimit="10" width="9" height="9"/>
	
		<rect x="115" y="145.6" fill="none" stroke="#000000" stroke-width="2.3513" stroke-linecap="round" stroke-linejoin="bevel" stroke-miterlimit="10" width="9" height="9"/>
	
		<rect x="132.3" y="145.6" fill="none" stroke="#000000" stroke-width="2.3513" stroke-linecap="round" stroke-linejoin="bevel" stroke-miterlimit="10" width="9" height="9"/>
	
		<rect x="149.6" y="145.6" fill="none" stroke="#000000" stroke-width="2.3513" stroke-linecap="round" stroke-linejoin="bevel" stroke-miterlimit="10" width="9" height="9"/>
</g>
<rect x="97.6" y="129" fill="none" stroke="#000000" stroke-width="2.3513" stroke-linecap="round" stroke-linejoin="bevel" stroke-miterlimit="10" width="9" height="9"/>
<rect x="115" y="129" fill="none" stroke="#000000" stroke-width="2.3513" stroke-linecap="round" stroke-linejoin="bevel" stroke-miterlimit="10" width="9" height="9"/>
<rect x="176.7" y="29.3" opacity="0.5" fill="#435FEA" width="34.1" height="30"/>
<circle opacity="0.5" fill="#435FEA" cx="221.2" cy="201.2" r="7.1"/>
<circle opacity="0.5" fill="#435FEA" cx="214.2" cy="213.5" r="7.1"/>
<circle opacity="0.5" fill="#435FEA" cx="228.3" cy="213.5" r="7.1"/>
<polygon opacity="0.5" fill="#435FEA" points="43.4,220.5 59.8,204.2 76.2,220.5 "/>
<polyline opacity="0.5" fill="#435FEA" points="43,140.8 43,154.3 52.6,163.9 66.1,163.9 75.7,154.3 75.7,140.8 "/>
<line opacity="0.5" fill="#435FEA" x1="43" y1="140.8" x2="75.7" y2="140.8"/>
<path opacity="0.5" fill="#435FEA" d="M152.1,140.7v-0.1h-9.3l-12.9-12.9H117v-14.1H91.2v107H170v-79.8H152.1z M109.1,207.3h-9v-9h9
	V207.3z M109.1,190.7h-9v-9h9V190.7z M109.1,174h-9v-9h9V174z M109.1,157.4h-9v-9h9V157.4z M109.1,140.7h-9v-9h9V140.7z
	 M126.5,207.3h-9v-9h9V207.3z M126.5,190.7h-9v-9h9V190.7z M126.5,174h-9v-9h9V174z M126.5,157.4h-9v-9h9V157.4z M126.5,140.7h-9v-9
	h9V140.7z M143.8,207.3h-9v-9h9V207.3z M143.8,190.7h-9v-9h9V190.7z M143.8,174h-9v-9h9V174z M143.8,157.4h-9v-9h9V157.4z
	 M161.1,207.3h-9v-9h9V207.3z M161.1,190.7h-9v-9h9V190.7z M161.1,174h-9v-9h9V174z M161.1,157.4h-9v-9h9V157.4z"/>
</svg>
