<?xml version="1.0" standalone="no"?>
<!DOCTYPE svg PUBLIC "-//W3C//DTD SVG 20010904//EN"
 "http://www.w3.org/TR/2001/REC-SVG-20010904/DTD/svg10.dtd">
<svg version="1.0" xmlns="http://www.w3.org/2000/svg"
 width="79.000000pt" height="79.000000pt" viewBox="0 0 79.000000 79.000000"
 preserveAspectRatio="xMidYMid meet">
<metadata>
Created by potrace 1.11, written by Peter Selinger 2001-2013
</metadata>
<g transform="translate(0.000000,79.000000) scale(0.100000,-0.100000)"
fill="#000000" stroke="none">
<path d="M0 395 l0 -395 395 0 395 0 0 395 0 395 -395 0 -395 0 0 -395z m216
158 c-4 -16 -9 -36 -12 -45 -4 -15 1 -18 31 -18 30 0 35 -3 31 -17 -3 -10 -8
-30 -12 -45 -5 -24 -11 -28 -39 -28 -39 0 -42 -3 -51 -58 -6 -41 -6 -42 25
-48 25 -5 30 -11 26 -25 -3 -11 -8 -28 -11 -39 -5 -17 -14 -20 -63 -20 -78 0
-96 19 -87 92 3 29 9 63 12 76 5 18 2 22 -15 22 -24 0 -25 2 -10 53 8 29 15
37 33 37 19 0 25 7 31 37 10 53 10 53 67 53 50 0 50 0 44 -27z m190 -120 l9
-58 30 57 30 58 53 0 52 0 0 -55 c0 -30 3 -55 8 -55 4 0 20 25 36 55 l28 55
58 0 58 0 -81 -140 -82 -139 -51 -1 c-58 0 -64 6 -64 73 l-1 42 -32 -57 -32
-58 -52 0 c-30 0 -53 5 -53 10 0 14 -19 195 -24 238 l-5 32 53 0 54 0 8 -57z"/>
</g>
</svg>
