<?xml version="1.0" encoding="UTF-8"?>
<svg width="262px" height="49px" viewBox="0 0 262 49" version="1.1" xmlns="http://www.w3.org/2000/svg" xmlns:xlink="http://www.w3.org/1999/xlink">
    <!-- Generator: Sketch 45.2 (43514) - http://www.bohemiancoding.com/sketch -->
    <title>Group 14</title>
    <desc>Created with Sketch.</desc>
    <defs>
        <linearGradient x1="31.8883063%" y1="-6.55270864%" x2="62.0854878%" y2="117.312787%" id="linearGradient-1">
            <stop stop-color="#C2B59B" offset="0%"></stop>
            <stop stop-color="#9C8972" offset="23.56%"></stop>
            <stop stop-color="#3C2415" offset="100%"></stop>
        </linearGradient>
        <linearGradient x1="94.5230613%" y1="127.024746%" x2="-1.98331453%" y2="-34.7238337%" id="linearGradient-2">
            <stop stop-color="#C2B59B" offset="0%"></stop>
            <stop stop-color="#9C8972" offset="23.56%"></stop>
            <stop stop-color="#3C2415" offset="100%"></stop>
        </linearGradient>
        <linearGradient x1="32.3852072%" y1="45.4401319%" x2="142.53936%" y2="61.9712329%" id="linearGradient-3">
            <stop stop-color="#C2B59B" offset="0%"></stop>
            <stop stop-color="#9C8972" offset="23.56%"></stop>
            <stop stop-color="#3C2415" offset="100%"></stop>
        </linearGradient>
        <linearGradient x1="23.3757657%" y1="29.0091685%" x2="78.6648039%" y2="110.706966%" id="linearGradient-4">
            <stop stop-color="#C2B59B" offset="0%"></stop>
            <stop stop-color="#3C2415" offset="100%"></stop>
        </linearGradient>
        <linearGradient x1="29.1448159%" y1="12.9681658%" x2="81.3214678%" y2="154.362787%" id="linearGradient-5">
            <stop stop-color="#C2B59B" offset="0%"></stop>
            <stop stop-color="#3C2415" offset="100%"></stop>
        </linearGradient>
        <linearGradient x1="58.9257511%" y1="102.418613%" x2="41.5771919%" y2="17.8005659%" id="linearGradient-6">
            <stop stop-color="#C2B59B" offset="0%"></stop>
            <stop stop-color="#3C2415" offset="100%"></stop>
        </linearGradient>
    </defs>
    <g id="Page-1" stroke="none" stroke-width="1" fill="none" fill-rule="evenodd">
        <g id="Group-14">
            <g id="DONURS-02" fill-rule="nonzero">
                <g id="Layer_1">
                    <g id="Layer_2">
                        <g id="Group">
                            <g id="Shape">
                                <path d="M17.2952492,31.317512 C16.7359849,30.6418982 16.232647,29.9381339 15.7572723,29.1780685 C15.6314378,28.9669392 15.4916218,28.7558099 15.3657873,28.5306053 C11.7165876,22.1545006 11.8983485,14.6242225 15.1840264,8.61407521 C11.9542749,9.26153838 9.21387973,11.3024549 7.6059948,14.0752863 C6.89293279,18.5090015 7.63395801,23.2101471 10.0387946,27.3905071 C10.5001877,28.1927984 11.0035256,28.9528639 11.5627899,29.6707035 C11.6606611,29.7973811 11.7585324,29.9240586 11.8564037,30.0366609 C12.2758519,30.5715218 12.7232634,31.0500815 13.1846564,31.514566 C16.6381136,35.0333876 21.2380627,37.1024546 26.005791,37.4543368 L26.005791,37.4543368 C22.6781683,36.2720128 19.6441594,34.1888704 17.2952492,31.317512 Z" fill="url(#linearGradient-1)"></path>
                                <path d="M42.3223277,10.472013 C38.8688705,7.62880517 34.4646639,5.92569553 29.6410091,5.92569553 C28.718223,5.92569553 27.8234001,5.98199667 26.9285772,6.10867425 C26.7747795,6.12274953 26.6209818,6.15090011 26.4671841,6.17905068 C25.8100485,6.27757768 25.1529129,6.43240583 24.5237406,6.58723398 C19.7699938,7.85400975 15.7013459,10.8238952 13.0168771,14.8072012 L13.0168771,14.8072012 C15.7153275,12.4988542 19.014987,10.8942716 22.6641867,10.2890343 C23.5310464,10.1482814 24.3839245,10.0497544 25.2787474,10.0216038 C25.5304164,10.0075285 25.7681037,10.0075285 26.0337543,10.0075285 C33.3461353,10.0075285 39.7357302,13.9486087 43.2451138,19.8039278 C44.2797528,16.665139 43.9022494,13.2589197 42.3223277,10.472013 Z" fill="url(#linearGradient-2)"></path>
                                <path d="M39.0086866,14.8212765 L39.0086866,14.8212765 C39.6378589,18.3119475 39.3722084,21.9996725 38.0719188,25.4903435 C37.7643234,26.3067101 37.4147832,27.1090014 36.995335,27.8972174 C36.8834821,28.122422 36.7576477,28.3335513 36.6318132,28.5587559 C32.9826135,34.9348606 26.4112577,38.5522091 19.5882329,38.6648114 C21.7553822,41.1561371 24.8872624,42.5214399 28.075069,42.5636657 C32.2415882,40.9590831 35.9047696,37.9610471 38.3235878,33.7806871 C38.7849808,32.9783958 39.1904475,32.1479539 39.5260061,31.3315873 C39.5819325,31.1908344 39.6378589,31.0360063 39.707767,30.8952534 C39.9454543,30.2618655 40.1411968,29.6284776 40.3229577,28.9810145 C41.6232473,24.1954171 41.0919462,19.1564646 39.0086866,14.8212765 Z" fill="url(#linearGradient-3)"></path>
                                <path d="M26.0197726,37.4824874 L25.9918094,37.4824874 L25.9918094,37.4824874 C21.2240811,37.1306052 16.624132,35.0756134 13.1706748,31.5427166 C12.7092818,31.0782321 12.2618703,30.5715218 11.842422,30.0648115 C11.7445508,29.9522092 11.6466795,29.8114564 11.5488083,29.6988541 C10.989544,28.9810145 10.5001877,28.2350243 10.024813,27.4186577 C7.61997641,23.2382977 6.87895118,18.537152 7.59201319,14.1034369 C7.96951661,11.6965629 8.79443149,9.36006538 10.0108314,7.23469715 C6.61330062,7.62880517 3.66318132,9.55711939 1.87353548,12.2877249 C0.685098796,14.0752863 0,16.2569557 0,18.5934532 C0,20.6202944 0.531301107,22.5345333 1.44010563,24.1813418 C1.57992171,24.434697 1.7337194,24.6739769 1.88751709,24.9132567 C4.44615137,28.9950897 7.99747983,32.5420619 12.4436312,35.1319146 C15.3098609,36.7927984 18.301925,37.904746 21.3778788,38.5522091 C22.9578005,38.3692304 24.5237406,38.0173483 26.0197726,37.4824874 Z" fill="url(#linearGradient-4)"></path>
                                <path d="M46.7405158,6.37610469 C45.7757849,4.43371518 44.2657712,2.74468083 42.2524196,1.57643206 C40.5187002,0.563011451 38.6032199,0.0703764314 36.743666,0.0281505726 C36.4500523,0.0281505726 36.1704201,0.0422258589 35.8768063,0.0422258589 C31.0811148,0.225204581 26.25746,1.54828149 21.8113086,4.12405888 C18.9730422,5.77086738 16.5122791,7.83993446 14.4430012,10.1623567 C13.7858656,11.6402618 13.3104909,13.2026185 13.0168771,14.7931259 C15.7013459,10.7957446 19.7699938,7.82585917 24.5237406,6.58723398 C25.1668946,6.43240583 25.8100485,6.27757768 26.4671841,6.17905068 C26.6209818,6.15090011 26.7747795,6.13682482 26.9285772,6.10867425 C27.8234001,5.99607196 28.718223,5.92569553 29.6410091,5.92569553 C34.4367007,5.92569553 38.8548889,7.62880517 42.3223277,10.4579377 C44.2098448,12.0062192 45.7897665,13.8782323 47.020148,15.9895252 C48.376364,12.8507364 48.1946031,9.31783952 46.7405158,6.37610469 Z" fill="url(#linearGradient-5)"></path>
                                <path d="M39.0086866,14.8212765 C41.0919462,19.1564646 41.6232473,24.1954171 40.3229577,28.9669392 C40.1411968,29.6144023 39.9454543,30.2477902 39.707767,30.8811781 C39.6518405,31.021931 39.5959141,31.1767591 39.5260061,31.317512 C39.1904475,32.1479539 38.7849808,32.9783958 38.3235878,33.7666118 C35.9187512,37.9469718 32.2555699,40.9450078 28.075069,42.5495904 C25.8100485,43.4222582 23.3912303,43.8726674 20.9584305,43.8867426 C23.0137269,46.6454988 26.1176439,48.2500814 29.3893402,48.4612107 C31.5425078,48.5878883 33.7516019,48.1093285 35.7649535,46.955155 C37.4986729,45.9417344 38.8828521,44.5342058 39.847583,42.9155479 C39.9873991,42.6621927 40.1272152,42.4229129 40.2530497,42.1554824 C42.5040886,37.8765954 43.7624333,33.0206216 43.7624333,27.8549916 C43.7624333,24.5613746 43.2171506,21.3944352 42.2664012,18.4245497 C41.3296335,17.0733223 40.2390681,15.8769229 39.0086866,14.8212765 Z" fill="url(#linearGradient-6)"></path>
                            </g>
                        </g>
                    </g>
                </g>
            </g>
            <g id="Group-4" transform="translate(73.598352, 15.933664)" fill="#FFFFFF">
                <path d="M0.565726308,4.35306752 L0.000110850653,4.35306752 L0.0862972334,0.501977501 L16.3256408,0.501977501 L16.4121043,4.35306752 L15.8816839,4.35306752 C15.6912979,3.2977314 15.4324616,2.53616005 15.1026809,2.06724495 C14.7731774,1.59860698 14.4203952,1.31066206 14.0423945,1.20507302 C13.6643937,1.0980983 13.0175802,1.04599662 12.1041708,1.04599662 L9.41493394,1.04599662 L9.41493394,12.3520608 C9.41493394,13.604164 9.44541787,14.4275368 9.5061086,14.8210707 C9.5695706,15.2157132 9.73446095,15.5061524 10.0057679,15.6957138 C10.277352,15.8849981 10.7875422,15.9797788 11.5357841,15.9797788 L12.3499821,15.9797788 L12.3499821,16.5226894 L4.00847046,16.5226894 L4.00847046,15.9797788 L4.87365981,15.9797788 C5.58892365,15.9797788 6.08359469,15.8924808 6.36016707,15.7198247 C6.63673945,15.5463372 6.81188348,15.2766833 6.89031032,14.9097544 C6.96901428,14.5442113 7.00725776,13.6917391 7.00725776,12.3520608 L7.00725776,1.04599662 L4.52863715,1.04599662 C3.45033743,1.04599662 2.72731404,1.09449553 2.35679573,1.19287901 C1.98655455,1.2912625 1.63903776,1.5889072 1.31424534,2.08553596 C0.989452929,2.58105618 0.74087034,3.33763907 0.565726308,4.35306752" id="Fill-1"></path>
                <path d="M21.3591472,8.44122018 C21.8538183,7.77914087 22.4066859,7.28362065 23.0183044,6.95216529 C23.6321399,6.62181848 24.3044491,6.45664508 25.0377262,6.45664508 C25.8674433,6.45664508 26.5574886,6.62181848 27.1028738,6.95216529 C27.6507532,7.28362065 28.0060295,7.6907343 28.1709199,8.17516906 C28.3358102,8.65988095 28.4170083,9.44556317 28.4170083,10.5324929 L28.4170083,13.2021496 C28.4170083,14.3364697 28.4400098,15.0262626 28.4854586,15.27042 C28.5311845,15.5145773 28.6655909,15.6944389 28.8861837,15.8072335 C29.1095478,15.9227995 29.5205266,15.9798896 30.1218914,15.9798896 L30.1218914,16.5228002 L24.9005485,16.5228002 L24.9005485,15.9798896 L25.1366604,15.9798896 C25.735531,15.9798896 26.1260024,15.8959172 26.3011465,15.7307438 C26.4787846,15.5655704 26.580213,15.3712977 26.6106969,15.1465399 C26.6386867,14.9217821 26.6536515,14.2746682 26.6536515,13.2021496 L26.6536515,10.2958182 C26.6536515,9.49295353 26.6032145,8.89766414 26.5064973,8.51272142 C26.4078402,8.12667015 26.1742225,7.80713167 25.8089696,7.55576878 C25.4409454,7.30329735 24.9845178,7.17692307 24.4313731,7.17692307 C23.7895478,7.17692307 23.2134015,7.35650758 22.7037657,7.71484518 C22.1938526,8.07318279 21.7471245,8.61110491 21.3591472,9.32778012 L21.3591472,13.2021496 C21.3591472,14.2890793 21.3793775,14.9597499 21.4148497,15.2111127 C21.4530932,15.4635842 21.5772459,15.6542541 21.7928504,15.7842312 C22.0059608,15.9142083 22.3967093,15.9798896 22.9650961,15.9798896 L22.9650961,16.5228002 L17.8302167,16.5228002 L17.8302167,15.9798896 L18.0887758,15.9798896 C18.6826582,15.9798896 19.0656472,15.8984115 19.2430083,15.7368408 C19.4209236,15.5752702 19.5223519,15.382106 19.5525587,15.1576254 C19.5805485,14.9339762 19.5957905,14.2818738 19.5957905,13.2021496 L19.5957905,3.56250769 C19.5957905,2.58587836 19.4993504,1.96647808 19.3039761,1.70652397 C19.1113731,1.44684698 18.6496801,1.31659279 17.9164031,1.31659279 L17.9164031,0.773682212 C19.1925712,0.773682212 20.2528577,0.608785942 21.1000338,0.277053447 L21.3591472,0.277053447 L21.3591472,8.44122018 Z" id="Fill-3"></path>
                <path d="M38.5980865,9.64598835 C38.6208109,9.46501816 38.6335587,9.30344753 38.6335587,9.16266214 C38.6335587,8.46898927 38.4229425,7.93106715 37.9992159,7.54972721 C37.5757664,7.16727871 37.0555997,6.97660874 36.4389929,6.97660874 C34.9397379,6.97660874 34.0490529,7.86677146 33.7600098,9.64598835 L38.5980865,9.64598835 Z M40.756903,10.1196148 L33.7117898,10.1196148 C33.6788117,10.5835414 33.6610756,10.9310707 33.6610756,11.1591541 C33.6610756,12.8596642 33.939865,14.1383724 34.4930097,14.9925074 C35.0486486,15.8474738 35.8783658,16.2748184 36.981884,16.2748184 C38.478645,16.2748184 39.5392086,15.6324158 40.1632978,14.3487191 L40.756903,14.3487191 C40.4930785,15.1526923 39.9704176,15.7806839 39.1891976,16.2338022 C38.4077005,16.6866434 37.5577532,16.9125097 36.6343672,16.9125097 C35.7794316,16.9125097 34.9727159,16.7060429 34.2114491,16.2917237 C33.4504593,15.8790673 32.8263702,15.2934777 32.3416757,14.5380034 C31.8547642,13.7814205 31.613664,12.8643755 31.613664,11.7846514 C31.613664,10.2570745 32.0828394,8.98668041 33.0189732,7.97485473 C33.9578782,6.96302905 35.1298467,6.4567005 36.535433,6.4567005 C37.8623153,6.4567005 38.8846355,6.84275177 39.610153,7.61402289 C40.3334535,8.3866797 40.7164425,9.22086083 40.756903,10.1196148 L40.756903,10.1196148 Z" id="Fill-6"></path>
                <path d="M53.7870093,0.96205195 L53.7870093,11.6670069 C53.7870093,13.2494568 53.8174932,14.2698737 53.8809552,14.7263177 C53.9419231,15.1841474 54.1270437,15.5047944 54.4365941,15.6896445 C54.7433733,15.875326 55.3957294,15.9676125 56.3925539,15.9676125 C57.8488543,15.9676125 59.0438244,15.7769425 59.9821752,15.394494 C60.9210802,15.0131541 61.7050714,14.2598968 62.334426,13.1377708 C62.9632264,12.0156447 63.2780422,10.58368 63.2780422,8.84326223 C63.2780422,7.48889572 63.0926445,6.27947166 62.7276687,5.2155443 C62.3621387,4.15272548 61.8369837,3.28805933 61.1544208,2.62237725 C60.4721351,1.95669516 59.7161336,1.50385398 58.8839223,1.26440797 C58.0542052,1.02413055 56.9889304,0.903853267 55.6872666,0.903853267 C55.0629003,0.903853267 54.4288346,0.923252828 53.7870093,0.96205195 L53.7870093,0.96205195 Z M48.6294055,0.631705138 L51.3818272,0.501728078 C53.6778214,0.39115058 55.2230795,0.336554672 56.0220356,0.336554672 C58.5059216,0.336554672 60.4441453,0.698495055 61.8344896,1.4237615 C63.2248339,2.14875082 64.2571306,3.13120002 64.9371994,4.37138625 C65.614774,5.61129534 65.9545312,7.04326009 65.9545312,8.66589481 C65.9545312,9.83901399 65.7691335,10.9126411 65.3988923,11.8856677 C65.028374,12.8584171 64.5209552,13.6659931 63.8766357,14.3072872 C63.2298222,14.9499669 62.4813031,15.4380045 61.6288616,15.7719541 C60.7789142,16.1072893 59.9699816,16.3162503 59.2062206,16.398837 C58.4399655,16.4814237 57.3616657,16.5227171 55.9715985,16.5227171 L48.5556898,16.5227171 L48.5556898,15.9798065 L49.2457352,15.9798065 C49.9637703,15.9798065 50.4584413,15.8925085 50.7350137,15.7198524 C51.0090919,15.5463649 51.186453,15.2764338 51.2651569,14.9097821 C51.3413668,14.544239 51.3818272,13.6917668 51.3818272,12.3520886 L51.3818272,4.62524336 C51.3818272,3.34875224 51.3413668,2.52399376 51.2651569,2.14985936 C51.186453,1.77600211 51.0215626,1.51965076 50.7704859,1.38246815 C50.5194092,1.24389986 49.9712527,1.17572426 49.1240766,1.17572426 L48.6294055,1.17572426 L48.6294055,0.631705138 Z" id="Fill-8"></path>
                <path d="M70.2370799,11.7265359 C70.2370799,13.4425656 70.5288943,14.6461698 71.1122458,15.3348542 C71.6958745,16.0246472 72.515338,16.3696822 73.5681421,16.3696822 C74.6461647,16.3696822 75.4708935,16.0246472 76.0414972,15.3348542 C76.6151494,14.6461698 76.8992042,13.4425656 76.8992042,11.7265359 C76.8992042,10.0249172 76.6151494,8.81161323 76.0492568,8.08662392 C75.4811472,7.36274315 74.6539242,6.99941708 73.5681421,6.99941708 C72.4898423,6.99941708 71.6653906,7.36024892 71.0945097,8.08052691 C70.5211347,8.80191345 70.2370799,10.0166031 70.2370799,11.7265359 M68.1871742,11.6669515 C68.1871742,10.1864878 68.7070638,8.94768729 69.7424089,7.95054985 C70.779971,6.95452096 72.053645,6.45650651 73.5681421,6.45650651 C75.0903986,6.45650651 76.3690609,6.95701519 77.406623,7.95664686 C78.441691,8.95738707 78.9615806,10.1936934 78.9615806,11.6669515 C78.9615806,13.2970689 78.4339315,14.5793799 77.3811274,15.5122216 C76.3283233,16.4461719 75.0574206,16.9125928 73.5681421,16.9125928 C72.0788635,16.9125928 70.8101778,16.4375807 69.7626391,15.4892193 C68.7123292,14.5391951 68.1871742,13.2651982 68.1871742,11.6669515" id="Fill-10"></path>
                <path d="M83.3659541,6.45661736 L83.7010002,6.45661736 C83.888615,6.94493203 83.9953087,7.61061411 84.0205273,8.45338648 C84.6141325,7.78410162 85.2332334,7.28359294 85.8853124,6.95213758 C86.5348972,6.62179077 87.2121947,6.45661736 87.9199761,6.45661736 C88.7266917,6.45661736 89.3865302,6.61818799 89.9014315,6.94132925 C90.4138387,7.26447052 90.7461135,7.66022156 90.8932677,8.12775099 C91.0429161,8.59666609 91.1166318,9.28036205 91.1166318,10.1780075 L91.1166318,13.2021219 C91.1166318,14.3206452 91.1368621,15.002124 91.1773225,15.2462814 C91.2180602,15.4904387 91.3474783,15.673626 91.565577,15.7963975 C91.7836756,15.9177833 92.1846778,15.9798619 92.7708007,15.9798619 L92.7708007,16.5227725 L87.600172,16.5227725 L87.600172,15.9798619 L87.8337897,15.9798619 C88.427395,15.9798619 88.8128781,15.8961667 88.9932875,15.7307161 C89.175914,15.5655427 89.2773423,15.3723785 89.3025609,15.1526092 C89.3280565,14.9317313 89.3408043,14.281846 89.3408043,13.2021219 L89.3408043,10.0832267 C89.3408043,9.31943831 89.3000667,8.77403351 89.2213628,8.44728947 C89.1429359,8.12054543 88.9348138,7.83149197 88.5920082,7.57874341 C88.2522509,7.32738052 87.8182706,7.20128337 87.2906215,7.20128337 C86.6895339,7.20128337 86.1161588,7.37255378 85.5707736,7.71509461 C85.0228943,8.05735829 84.5049446,8.57116953 84.0205273,9.25625117 L84.0205273,13.2021219 C84.0205273,14.3206452 84.0432516,15.002124 84.0889775,15.2462814 C84.1347034,15.4904387 84.2666157,15.673626 84.4847144,15.7963975 C84.7003189,15.9177833 85.1063094,15.9798619 85.7001918,15.9798619 L85.7001918,16.5227725 L80.5905309,16.5227725 L80.5905309,15.9798619 C81.1589176,15.9798619 81.5521603,15.9238803 81.7752473,15.8133028 C81.9961172,15.704111 82.135789,15.5364434 82.1889973,15.3116856 C82.2419285,15.087205 82.2674242,14.3838323 82.2674242,13.2021219 L82.2674242,10.3199014 C82.2674242,9.19417257 82.2471939,8.51047661 82.201468,8.26992206 C82.1560193,8.0293675 82.0238299,7.84839731 81.8057312,7.72701148 C81.5876325,7.60451711 81.181642,7.54354706 80.5905309,7.54354706 L80.5905309,6.99952794 C81.4961808,6.90613291 82.4198438,6.72377703 83.3659541,6.45661736" id="Fill-13"></path>
                <path d="M96.2972648,11.7265359 C96.2972648,13.4425656 96.5890791,14.6461698 97.1749248,15.3348542 C97.7582764,16.0246472 98.5755228,16.3696822 99.6305439,16.3696822 C100.70635,16.3696822 101.531078,16.0246472 102.104453,15.3348542 C102.675334,14.6461698 102.961883,13.4425656 102.961883,11.7265359 C102.961883,10.0249172 102.677551,8.81161323 102.109442,8.08662392 C101.541055,7.36274315 100.716603,6.99941708 99.6305439,6.99941708 C98.5525213,6.99941708 97.7280696,7.36024892 97.1546946,8.08052691 C96.5838137,8.80191345 96.2972648,10.0166031 96.2972648,11.7265359 M94.2495761,11.6669515 C94.2495761,10.1864878 94.7672487,8.94768729 95.8050879,7.95054985 C96.8401559,6.95452096 98.1160469,6.45650651 99.6305439,6.45650651 C101.150584,6.45650651 102.43174,6.95701519 103.466808,7.95664686 C104.50437,8.95738707 105.021765,10.1936934 105.021765,11.6669515 C105.021765,13.2970689 104.496888,14.5793799 103.443806,15.5122216 C102.388231,16.4461719 101.117605,16.9125928 99.6305439,16.9125928 C98.1415425,16.9125928 96.8703627,16.4375807 95.822824,15.4892193 C94.7750082,14.5391951 94.2495761,13.2651982 94.2495761,11.6669515" id="Fill-15"></path>
                <path d="M110.156839,8.92582122 C110.435905,8.22494279 110.890116,7.63824463 111.519193,7.16600389 C112.148548,6.69210032 112.764878,6.45653422 113.363471,6.45653422 C113.906362,6.45653422 114.335077,6.61810485 114.647399,6.94124611 C114.959443,7.26438737 115.116574,7.59473419 115.116574,7.9333951 C115.116574,8.16175565 115.03787,8.35852262 114.875474,8.52369603 C114.715849,8.68914657 114.520475,8.77284182 114.289628,8.77284182 C113.878649,8.77284182 113.566605,8.48129413 113.353495,7.89819875 C113.203569,7.50355625 112.982976,7.30678927 112.686174,7.30678927 C112.331174,7.30678927 111.909942,7.53764405 111.415271,7.99796792 C110.9206,8.45940034 110.605784,8.93801523 110.463618,9.43353545 C110.324223,9.93016421 110.255496,10.6116431 110.255496,11.4776949 L110.255496,13.2023159 C110.255496,14.2343726 110.268244,14.8842578 110.299005,15.1528032 C110.326717,15.4199629 110.443388,15.6250439 110.648739,15.7661065 C110.854644,15.9080004 111.222391,15.9797788 111.747546,15.9797788 L112.092568,15.9797788 L112.092568,16.5226894 L106.726842,16.5226894 L106.726842,15.9797788 L106.985679,15.9797788 C107.477579,15.9797788 107.830361,15.9140974 108.040977,15.7843975 C108.248822,15.6541433 108.375746,15.470956 108.416484,15.2353899 C108.456944,14.9984381 108.477174,14.3208392 108.477174,13.2023159 L108.477174,10.4730748 C108.477174,9.43353545 108.464704,8.7825416 108.43422,8.51759902 C108.406507,8.25431927 108.28956,8.0500696 108.084209,7.90429576 C107.878581,7.75879905 107.510557,7.68563499 106.985679,7.68563499 L106.726842,7.68563499 L106.726842,7.15380988 C107.497809,7.0676204 108.510429,6.83454853 109.760825,6.45653422 C109.999708,7.07842872 110.131343,7.90207866 110.156839,8.92582122" id="Fill-18"></path>
                <path d="M124.619385,6.69221118 L124.619385,6.0667139 C126.215357,5.76796066 127.01459,4.91299428 127.01459,3.50292333 C127.01459,3.00629456 126.859677,2.75853445 126.557609,2.75853445 C126.49193,2.75853445 126.40796,2.77072846 126.309303,2.7937308 C126.121411,2.84943525 125.956521,2.87604036 125.816849,2.87604036 C125.41363,2.87604036 125.091332,2.75465454 124.853003,2.51077434 C124.614397,2.26661701 124.495232,1.9908661 124.495232,1.68352163 C124.495232,1.37617715 124.616891,1.10319761 124.860485,0.862643056 C125.101585,0.622088498 125.416124,0.501811219 125.804101,0.501811219 C126.329533,0.501811219 126.788455,0.738763001 127.179204,1.21100375 C127.569952,1.68352163 127.765604,2.31761014 127.765604,3.11299215 C127.765604,4.02643434 127.491248,4.80491101 126.94614,5.44620508 C126.397984,6.08860769 125.621475,6.50403543 124.619385,6.69221118" id="Fill-20"></path>
                <path d="M116.781357,16.8298953 L116.781357,13.6514157 L117.26328,13.6514157 C117.82169,15.4866142 118.821009,16.4047677 120.262345,16.4047677 C120.886434,16.4047677 121.353115,16.2237975 121.662665,15.8607486 C121.969722,15.4988082 122.124358,15.100563 122.124358,14.6682299 C122.124358,14.1641184 121.959468,13.7497992 121.629687,13.4269351 C121.292147,13.1037938 120.640345,12.7138627 119.668462,12.2571416 C118.648636,11.7776953 117.915636,11.3049003 117.471402,10.8398651 C117.027723,10.383144 116.806853,9.81972528 116.806853,9.15044042 C116.806853,8.51274913 117.045182,7.90443432 117.522394,7.32521886 C117.999329,6.74572625 118.669144,6.45667279 119.534056,6.45667279 C120.41421,6.45667279 121.142499,6.79921361 121.718368,7.48401812 C121.840304,7.36651221 121.999929,7.07856729 122.198074,6.6218462 L122.654502,6.6218462 L122.654502,9.61076429 L122.198074,9.61076429 C122.032907,8.89408908 121.715874,8.27856872 121.241433,7.76226325 C120.769763,7.24595779 120.211353,6.9884979 119.569805,6.9884979 C119.077351,6.9884979 118.676626,7.13427175 118.372064,7.42581944 C118.067779,7.71736713 117.915636,8.05630517 117.915636,8.44124789 C117.915636,8.86637542 118.085515,9.23302712 118.423055,9.5403716 C118.752559,9.85492163 119.381913,10.2132592 120.310288,10.6151073 C121.708114,11.2225907 122.563327,11.8126145 122.877866,12.3871186 C123.18991,12.970214 123.347041,13.5300299 123.347041,14.0657349 C123.347041,14.9085073 123.055504,15.5935889 122.477141,16.1207027 C121.896006,16.6489251 121.165223,16.912482 120.285069,16.912482 C119.356418,16.912482 118.529472,16.5458303 117.806448,15.8133583 C117.583361,16.05031 117.402952,16.388971 117.26328,16.8298953 L116.781357,16.8298953 Z" id="Fill-22"></path>
                <path d="M149.000875,0.501838933 L149.137776,4.49510002 L148.556918,4.49510002 C148.442742,3.62073409 148.184183,2.89796187 147.785675,2.32733764 C147.387444,1.75643626 146.968706,1.39948434 146.532508,1.25842182 C146.096311,1.11625075 145.360263,1.04585805 144.325195,1.04585805 L141.0551,1.04585805 L141.0551,7.83875295 L142.620589,7.83875295 C143.632655,7.83875295 144.304964,7.67607378 144.640011,7.34822119 C144.972285,7.02147716 145.139393,6.36549485 145.139393,5.38165997 L145.755999,5.38165997 L145.755999,11.0294265 L145.139393,11.0294265 C145.139393,10.3432363 145.066231,9.80281995 144.924065,9.40429754 C144.779405,9.00716081 144.563524,8.73501268 144.28224,8.58951597 C143.997908,8.44374212 143.444763,8.3708552 142.620589,8.3708552 L141.0551,8.3708552 L141.0551,12.3519223 C141.0551,13.6126166 141.087801,14.4373751 141.154035,14.8270291 C141.219991,15.2169603 141.384881,15.5060138 141.653694,15.6955752 C141.920013,15.8851366 142.435191,15.9799173 143.201169,15.9799173 L143.769556,15.9799173 L143.769556,16.5228279 L135.99366,16.5228279 L135.99366,15.9799173 L136.513549,15.9799173 C137.22909,15.9799173 137.724038,15.8923422 138.000611,15.7199632 C138.274412,15.5461986 138.45205,15.2765447 138.530754,14.909893 C138.609458,14.5440727 138.647424,13.6916005 138.647424,12.3519223 L138.647424,4.49510002 C138.647424,3.2186089 138.609458,2.39634465 138.530754,2.02609016 C138.45205,1.65555855 138.28716,1.39948434 138.036083,1.25842182 C137.787223,1.11625075 137.23685,1.04585805 136.389396,1.04585805 L136.092594,1.04585805 L136.092594,0.501838933 L149.000875,0.501838933 Z" id="Fill-24"></path>
                <path d="M159.56497,6.8464654 L159.56497,13.1912304 C159.56497,14.2465666 159.582706,14.9086459 159.615961,15.1758055 C159.64894,15.4440738 159.767827,15.6447206 159.978443,15.7783005 C160.189059,15.9116032 160.56706,15.9797788 161.109951,15.9797788 L161.109951,16.5226894 C159.856785,16.5384861 158.943375,16.6648604 158.367506,16.9004265 L158.220352,16.9004265 C157.956527,16.4680934 157.816855,15.7198247 157.801891,14.6558973 C157.29946,15.4041661 156.726085,15.9675848 156.079271,16.3453219 C155.432181,16.7230591 154.719411,16.9126205 153.937914,16.9126205 C153.263111,16.9126205 152.666734,16.7643525 152.149339,16.469202 C151.631666,16.1740515 151.274173,15.8132197 151.081293,15.3883693 C150.888412,14.9632418 150.792249,14.3208392 150.792249,13.4619929 L150.792249,10.1660074 C150.792249,9.04831559 150.772019,8.36461963 150.731282,8.11685952 C150.68805,7.86799086 150.558632,7.68563499 150.340533,7.56674339 C150.122434,7.44896034 149.721432,7.38937598 149.137803,7.38937598 L149.137803,6.8464654 L152.568077,6.8464654 L152.568077,13.5567736 C152.568077,14.2188529 152.608537,14.6996849 152.69223,14.9984381 C152.773428,15.298577 152.984044,15.5593626 153.321584,15.7841203 C153.658847,16.0088781 154.049596,16.1205642 154.493553,16.1205642 C155.127619,16.1205642 155.731477,15.9226886 156.307347,15.5241662 C156.883216,15.1270295 157.276458,14.7057819 157.487352,14.2598691 C157.695197,13.815342 157.801891,13.1790364 157.801891,12.3520608 L157.801891,10.1660074 C157.801891,9.11039418 157.789143,8.46910012 157.763647,8.24073957 C157.738429,8.01265616 157.634229,7.81339495 157.449108,7.64434164 C157.263988,7.47445691 156.878505,7.38937598 156.294876,7.38937598 L156.03604,7.38937598 L156.03604,6.8464654 L159.56497,6.8464654 Z" id="Fill-26"></path>
                <path d="M165.230104,6.45661736 L165.562378,6.45661736 C165.752764,6.94493203 165.859458,7.61061411 165.882183,8.45338648 C166.475788,7.78410162 167.097383,7.28359294 167.746968,6.95213758 C168.396275,6.62179077 169.073573,6.45661736 169.781631,6.45661736 C170.588347,6.45661736 171.247908,6.61818799 171.76281,6.94132925 C172.277988,7.26447052 172.607769,7.66022156 172.757417,8.12775099 C172.904571,8.59666609 172.978287,9.28036205 172.978287,10.1780075 L172.978287,13.2021219 C172.978287,14.3206452 172.998517,15.002124 173.039255,15.2462814 C173.08221,15.4904387 173.211628,15.673626 173.429726,15.7963975 C173.647825,15.9177833 174.048827,15.9798619 174.632456,15.9798619 L174.632456,16.5227725 L169.462104,16.5227725 L169.462104,15.9798619 L169.695168,15.9798619 C170.28905,15.9798619 170.674533,15.8961667 170.857437,15.7307161 C171.037292,15.5655427 171.138721,15.3723785 171.164216,15.1526092 C171.189712,14.9317313 171.20246,14.281846 171.20246,13.2021219 L171.20246,10.0832267 C171.20246,9.31943831 171.161722,8.77403351 171.085512,8.44728947 C171.007085,8.12054543 170.796469,7.83149197 170.453941,7.57874341 C170.113906,7.32738052 169.680203,7.20128337 169.152277,7.20128337 C168.553683,7.20128337 167.977814,7.37255378 167.432152,7.71509461 C166.884273,8.05735829 166.369094,8.57116953 165.882183,9.25625117 L165.882183,13.2021219 C165.882183,14.3206452 165.905184,15.002124 165.95091,15.2462814 C165.996359,15.4904387 166.128271,15.673626 166.34637,15.7963975 C166.564468,15.9177833 166.967965,15.9798619 167.56157,15.9798619 L167.56157,16.5227725 L162.452186,16.5227725 L162.452186,15.9798619 C163.020296,15.9798619 163.41631,15.9238803 163.636903,15.8133028 C163.860267,15.704111 163.997167,15.5364434 164.050376,15.3116856 C164.103861,15.087205 164.131574,14.3838323 164.131574,13.2021219 L164.131574,10.3199014 C164.131574,9.19417257 164.108849,8.51047661 164.063123,8.26992206 C164.017398,8.0293675 163.885485,7.84839731 163.667387,7.72701148 C163.449011,7.60451711 163.045792,7.54354706 162.452186,7.54354706 L162.452186,6.99952794 C163.357836,6.90613291 164.283993,6.72377703 165.230104,6.45661736" id="Fill-29"></path>
                <path d="M184.663609,8.5589478 C184.120718,8.11081794 183.575055,7.77437412 183.02967,7.54961635 C182.481791,7.32513571 181.933634,7.21206399 181.383261,7.21206399 C180.452392,7.21206399 179.675884,7.55571336 179.05706,8.240795 C178.435188,8.92587664 178.123143,10.0443999 178.123143,11.5963648 C178.123143,13.1718863 178.442947,14.3328115 179.079784,15.0810803 C179.718838,15.8290719 180.505324,16.2032063 181.444229,16.2032063 C182.068318,16.2032063 182.649175,16.0624209 183.184584,15.7780788 C183.717221,15.4951223 184.211892,15.0688862 184.663609,14.5029733 L184.663609,8.5589478 Z M184.663609,7.87386616 L184.663609,4.09316883 C184.663609,3.06222072 184.650861,2.41233543 184.620654,2.14379007 C184.592664,1.8766304 184.475717,1.67127219 184.270366,1.52937826 C184.065015,1.38831574 183.696991,1.3168145 183.171836,1.3168145 L182.913277,1.3168145 L182.913277,0.773903921 C183.90733,0.749515901 184.998378,0.584342495 186.183094,0.276998019 L186.442207,0.276998019 L186.442207,13.2860666 C186.442207,14.4117954 186.462438,15.096877 186.502898,15.3410344 C186.543359,15.5851917 186.673054,15.7658848 186.891153,15.8850535 C187.109251,16.0028365 187.515242,16.0624209 188.106353,16.0624209 L188.106353,16.6053315 C186.913877,16.6297195 185.853591,16.7314286 184.922445,16.912676 C184.826005,16.5421443 184.775291,15.959049 184.775291,15.163667 C184.166444,15.7467623 183.539583,16.1838067 182.89277,16.4753544 C182.24845,16.7669021 181.578635,16.912676 180.88859,16.912676 C179.579444,16.912676 178.45043,16.4085645 177.501548,15.4006187 C176.550449,14.3923958 176.076009,13.1718863 176.076009,11.7374273 C176.076009,10.162183 176.560426,8.88818607 177.532309,7.91515951 C178.503638,6.94241009 179.658148,6.45658965 180.999995,6.45658965 C181.682558,6.45658965 182.326877,6.5743727 182.936001,6.81132448 C183.544849,7.04689058 184.120718,7.40162541 184.663609,7.87386616 L184.663609,7.87386616 Z" id="Fill-31"></path>
            </g>
        </g>
    </g>
</svg>