<svg xmlns="http://www.w3.org/2000/svg" width="255" height="53.061" viewBox="0 0 255 53.061">
  <g id="Group_2663" data-name="Group 2663" transform="translate(-288 -240)">
    <g id="Group_2650" data-name="Group 2650" transform="translate(288 240)">
      <g id="Group_2644" data-name="Group 2644" transform="translate(0 0)">
        <g id="Group_2636" data-name="Group 2636" transform="translate(15.476 7.47)">
          <g id="Group_2635" data-name="Group 2635">
            <path id="Path_1591" data-name="Path 1591" d="M120.468,52.928a24.931,24.931,0,0,0-4.53-3.329c-.342-.2-.706-.395-1.092-.595a.108.108,0,0,0-.031-.014,25.5,25.5,0,0,0-13.961-2.729,24.525,24.525,0,0,0-12.232,4.426,20.408,20.408,0,0,1,5.691-4.828,28.758,28.758,0,0,1,10.134-3.654c.6-.091,1.207-.166,1.8-.218a24.327,24.327,0,0,1,5.754.151,19.843,19.843,0,0,1,5.163,1.5C119.5,45.774,120.634,48.968,120.468,52.928Z" transform="translate(-88.622 -41.885)" fill="#c36c36"/>
          </g>
        </g>
        <g id="Group_2637" data-name="Group 2637" transform="translate(12.885)">
          <path id="Path_1592" data-name="Path 1592" d="M120.549,33.339a19.766,19.766,0,0,0-5.382-3.623,23.18,23.18,0,0,0-13.259-1.536,29.721,29.721,0,0,0-10.43,3.76,20.246,20.246,0,0,0-6.637,6.025c1.113-3.7,3.9-7.4,8.013-10.6,4.394-3.419,9.654-5.689,14.068-6.075,4.71-.412,8.481.719,10.908,3.271A11.035,11.035,0,0,1,120.549,33.339Z" transform="translate(-83.616 -21.205)" fill="#c36c36"/>
          <path id="Path_1593" data-name="Path 1593" d="M81.45,77.222l.012-.026a.2.2,0,0,1,0-.041Z" transform="translate(-81.45 -56.946)" fill="#c36c36"/>
        </g>
        <g id="Group_2639" data-name="Group 2639" transform="translate(26.093 18.955)">
          <g id="Group_2638" data-name="Group 2638">
            <path id="Path_1594" data-name="Path 1594" d="M118.018,100.144a24.925,24.925,0,0,0,5.148-2.259q.511-.3,1.062-.648a.11.11,0,0,0,.027-.02A25.5,25.5,0,0,0,133.6,86.49a24.52,24.52,0,0,0,2.283-12.806,20.415,20.415,0,0,1,1.336,7.342,28.76,28.76,0,0,1-1.9,10.6c-.222.568-.459,1.128-.712,1.67a24.339,24.339,0,0,1-3.008,4.908,19.85,19.85,0,0,1-3.882,3.721C124.7,102.883,121.364,102.266,118.018,100.144Z" transform="translate(-118.018 -73.684)" fill="#c36c36"/>
          </g>
        </g>
        <g id="Group_2640" data-name="Group 2640" transform="translate(30.369 14.71)">
          <path id="Path_1595" data-name="Path 1595" d="M129.855,102.971a19.771,19.771,0,0,0,5.828-2.849,23.182,23.182,0,0,0,7.96-10.715A29.73,29.73,0,0,0,145.6,78.494a20.25,20.25,0,0,0-1.9-8.76c2.644,2.812,4.461,7.079,5.175,12.24.764,5.515.1,11.2-1.773,15.221-2,4.284-4.863,6.985-8.287,7.811A11.035,11.035,0,0,1,129.855,102.971Z" transform="translate(-129.855 -66.916)" fill="#c36c36"/>
          <path id="Path_1596" data-name="Path 1596" d="M161.46,61.931l.017.023a.22.22,0,0,1,.036.02Z" transform="translate(-150.045 -61.931)" fill="#c36c36"/>
        </g>
        <g id="Group_2642" data-name="Group 2642" transform="translate(7.017 13.579)">
          <g id="Group_2641" data-name="Group 2641">
            <path id="Path_1597" data-name="Path 1597" d="M71.595,58.8a24.906,24.906,0,0,0-.617,5.588c0,.394.011.809.031,1.243a.1.1,0,0,0,0,.034,25.5,25.5,0,0,0,4.617,13.455,24.521,24.521,0,0,0,9.949,8.38,20.415,20.415,0,0,1-7.026-2.514,28.766,28.766,0,0,1-8.232-6.949c-.38-.476-.747-.962-1.09-1.452a24.333,24.333,0,0,1-2.746-5.059A19.851,19.851,0,0,1,65.2,66.3C65.883,63.213,68.083,60.636,71.595,58.8Z" transform="translate(-65.203 -58.799)" fill="#c36c36"/>
          </g>
        </g>
        <g id="Group_2643" data-name="Group 2643" transform="translate(0 14.606)">
          <path id="Path_1598" data-name="Path 1598" d="M52.413,61.644a19.767,19.767,0,0,0-.446,6.472,23.18,23.18,0,0,0,5.3,12.251,29.721,29.721,0,0,0,8.471,7.153,20.251,20.251,0,0,0,8.536,2.735c-3.757.884-8.361.324-13.188-1.639-5.158-2.1-9.754-5.515-12.3-9.146-2.711-3.872-3.618-7.7-2.621-11.082A11.035,11.035,0,0,1,52.413,61.644Z" transform="translate(-45.775 -61.644)" fill="#c36c36"/>
          <path id="Path_1599" data-name="Path 1599" d="M134.688,138.926l-.028,0a.216.216,0,0,1-.035.021Z" transform="translate(-102.533 -111.012)" fill="#c36c36"/>
        </g>
      </g>
      <g id="Group_2649" data-name="Group 2649" transform="translate(62.901 15.642)">
        <g id="Group_2646" data-name="Group 2646">
          <g id="Group_2645" data-name="Group 2645">
            <path id="Path_1600" data-name="Path 1600" d="M230.468,68.591a26.347,26.347,0,0,0-4.452-.316c-3.3,0-5.114,1.752-5.114,3.878a2.2,2.2,0,0,0,.288,1.322c.144.2.258.2.373.086a1.354,1.354,0,0,1,.978-.4A1.376,1.376,0,0,1,223.8,74.6a1.4,1.4,0,0,1-1.494,1.263c-.833,0-2.385-.632-2.385-3.389a5.391,5.391,0,0,1,2.557-4.423,10.928,10.928,0,0,1,5.975-1.322,44.927,44.927,0,0,1,5.659.487c1.868.232,4.912.489,5.545.489.775,0,1.58-.115,1.58-.833a1.3,1.3,0,0,0-.259-.69,1.3,1.3,0,0,1-.258-.746.924.924,0,0,1,1-.919c.718,0,.977.746.977,1.464a4.753,4.753,0,0,1-.545,2.241l-4.511,10.573.144.115c1.436-2.04,3.332-4.454,5.689-4.454,1.32,0,1.981,1.093,1.981,2.414a14.922,14.922,0,0,1-1.981,6.664c-1.15,2.154-2.7,3.792-4.31,3.792a1.385,1.385,0,0,1-1.465-1.235c0-.66.431-1.408,1.035-1.408a1.027,1.027,0,0,1,1,.863c.029.258.173.573.489.573.632,0,1.58-1.867,2.126-3.331a16.908,16.908,0,0,0,1.149-5.2c0-.718-.057-1.609-.862-1.609-1.523,0-4.05,2.987-4.826,3.965a13.707,13.707,0,0,0-1.9,3.333L234.719,86.2c-.057.173-.2.2-.4.2h-1.235c-.172,0-.23-.087-.2-.143l6.579-16.29.4-.976a5.407,5.407,0,0,1-1.58.229c-.948,0-4.654-.257-5.573-.431l-4.482,14.163c-.574,1.839-.373,2.47,1.235,2.47h1.12c.2,0,.23.143.2.288l-.115.545c-.029.143-.086.229-.374.229-.4,0-1.551-.086-4.309-.086-2.069,0-3.591.086-3.907.086-.229,0-.259-.086-.229-.288l.087-.545c.028-.143.085-.229.316-.229h.775c1.724,0,2.241-.777,2.93-2.9Z" transform="translate(-219.924 -64.511)" fill="#fff"/>
            <path id="Path_1601" data-name="Path 1601" d="M292.1,101.452c0-2.414,1.58-5.431,3.677-7.5a6.2,6.2,0,0,1,3.849-1.925,1.539,1.539,0,0,1,1.637,1.523,4.566,4.566,0,0,1-2.671,3.735,11.752,11.752,0,0,1-4.166,1.177,7.864,7.864,0,0,0-.373,2.643,1.664,1.664,0,0,0,1.494,1.81,4.188,4.188,0,0,0,3.275-2.04c.059-.086.144-.145.258-.028l.317.257c.143.087.143.173.028.26-.718,1.006-2.442,2.9-4.654,2.9C292.907,104.266,292.1,103.347,292.1,101.452Zm2.556-3.822c1,.087,4.768-1.12,4.768-3.246,0-.573-.287-1.09-.919-1.09C296.671,93.294,294.89,96.6,294.66,97.63Z" transform="translate(-266.033 -82.089)" fill="#fff"/>
          </g>
        </g>
        <g id="Group_2647" data-name="Group 2647" transform="translate(41.915 1.464)">
          <path id="Path_1602" data-name="Path 1602" d="M339.246,75.8c0-.746-.086-4.826-.143-5.315-.086-.69-.459-.8-1.236-.8h-1.58c-.143,0-.229-.028-.229-.2V68.71c0-.115.086-.145.2-.145.373,0,1.637.087,4.223.087.746,0,3.62-.087,4.279-.087,3.707,0,6.809.433,9.337,2.587a9.261,9.261,0,0,1,3.189,7.323,10.225,10.225,0,0,1-2.844,7.555c-2.758,3.046-6.723,3.046-8.934,3.046-1.809,0-3.993-.086-5.285-.086-2.5,0-3.649.086-4.051.086-.144,0-.2-.056-.2-.2v-.746c0-.114.087-.173.23-.173h1.924c.546,0,.862-.229.92-.69.086-.6.2-7.067.2-9.308Zm2.643,2.786c0,.374.029,5.258.057,7.038a2.7,2.7,0,0,0,.489,1.609c.459.6,1.608.919,3.044.919a8.425,8.425,0,0,0,6.752-3.1,10.54,10.54,0,0,0,2.1-6.465,10.2,10.2,0,0,0-2.355-6.348,9.628,9.628,0,0,0-7.212-2.758,5.946,5.946,0,0,0-2.3.288,1.533,1.533,0,0,0-.545,1.35c-.029,1.207-.029,4.97-.029,5.429Z" transform="translate(-335.971 -68.565)" fill="#fff"/>
          <path id="Path_1603" data-name="Path 1603" d="M400.487,101.683a6.417,6.417,0,0,1,.89-9.307A6.217,6.217,0,0,1,405.226,91a6.075,6.075,0,0,1,4.022,1.665,6.374,6.374,0,0,1,1.953,4.683,6.559,6.559,0,0,1-6.348,6.32A5.792,5.792,0,0,1,400.487,101.683Zm8.3-4.624c0-3.188-2.326-5.2-3.792-5.2a2.772,2.772,0,0,0-2.212.919c-1.12,1.149-1.523,2.328-1.523,4.51a6.2,6.2,0,0,0,1.091,4.023A3.18,3.18,0,0,0,405.2,102.8C407.382,102.8,408.789,100.133,408.789,97.059Z" transform="translate(-376.175 -82.895)" fill="#fff"/>
          <path id="Path_1604" data-name="Path 1604" d="M448.518,101.77c0,.461.259.6.632.6h.919c.259,0,.317.086.317.26v.458c0,.2-.058.316-.23.316-.2,0-1.091-.086-2.729-.086-1.465,0-2.385.086-2.586.086-.172,0-.229-.086-.229-.316v-.458c0-.2.086-.26.373-.26h.833c.316,0,.546-.143.574-.66.029-.749.059-1.668.059-2.414V95.508c0-1.148,0-1.983-.834-2.587a3.148,3.148,0,0,0-2.1-.517,3.367,3.367,0,0,0-2.326,1.12,2.815,2.815,0,0,0-.661,1.953v5.948c0,.774.085.947.689.947h.718c.23,0,.288.086.288.288v.489c0,.171-.057.257-.2.257-.2,0-.977-.086-2.5-.086-1.465,0-2.385.086-2.556.086-.144,0-.2-.086-.2-.257v-.517c0-.173.057-.26.287-.26h.833c.373,0,.574-.087.574-.575v-6.72a1.77,1.77,0,0,0-1.178-1.7l-.229-.115c-.2-.086-.23-.173-.23-.26v-.143c0-.145.115-.229.259-.288l2.47-1.378a1.484,1.484,0,0,1,.518-.2c.143,0,.2.115.229.344l.2,1.752h.057A5.764,5.764,0,0,1,444.5,91a4.424,4.424,0,0,1,2.442.632,4.179,4.179,0,0,1,1.58,2.73Z" transform="translate(-400.362 -82.895)" fill="#fff"/>
          <path id="Path_1605" data-name="Path 1605" d="M477.81,101.683a6.417,6.417,0,0,1,.89-9.307A6.217,6.217,0,0,1,482.549,91a6.075,6.075,0,0,1,4.022,1.665,6.378,6.378,0,0,1,1.953,4.683,6.559,6.559,0,0,1-6.348,6.32A5.792,5.792,0,0,1,477.81,101.683Zm8.3-4.624c0-3.188-2.326-5.2-3.792-5.2a2.772,2.772,0,0,0-2.212.919c-1.12,1.149-1.523,2.328-1.523,4.51a6.2,6.2,0,0,0,1.091,4.023,3.18,3.18,0,0,0,2.844,1.492C484.7,102.8,486.112,100.133,486.112,97.059Z" transform="translate(-425.57 -82.895)" fill="#fff"/>
          <path id="Path_1606" data-name="Path 1606" d="M516.287,95.472c0-1.464-.23-1.752-1.035-2.182L514.707,93c-.173-.056-.23-.086-.23-.2v-.17c0-.117.057-.173.23-.26l2.843-1.464a.862.862,0,0,1,.4-.115c.173,0,.2.171.2.344l.144,2.04h.115c.862-1.322,2.213-2.5,3.448-2.5a1.3,1.3,0,0,1,1.464,1.265,1.388,1.388,0,0,1-1.206,1.408,1.864,1.864,0,0,1-.834-.232,1.856,1.856,0,0,0-.947-.229,2.04,2.04,0,0,0-1.695,1.207,3.074,3.074,0,0,0-.288.919v5.974c0,.891.2,1.179.8,1.179h1.349c.173,0,.2.086.2.26v.517c0,.171-.028.257-.144.257-.172,0-1.494-.086-3.044-.086-1.781,0-2.988.086-3.16.086-.115,0-.172-.056-.172-.288v-.487c0-.2.057-.26.316-.26h1.121c.43,0,.631-.173.631-.545.029-.95.029-1.953.029-3.448Z" transform="translate(-449.819 -82.689)" fill="#fff"/>
          <path id="Path_1607" data-name="Path 1607" d="M542.61,102.832c-.144-.084-.144-.257-.173-.4l-.488-2.73c-.029-.145.057-.2.172-.229l.373-.086c.116-.03.2.028.258.171l.718,1.408c.576,1.064.978,1.782,2.5,1.782a2.094,2.094,0,0,0,2.27-1.953c0-1.293-.633-2.04-2.787-2.643-1.695-.489-3.389-1.38-3.389-3.649a3.8,3.8,0,0,1,4.022-3.5,5.333,5.333,0,0,1,2.642.6c.432.2.489.344.517.517l.432,2.009a.269.269,0,0,1-.2.26l-.345.115c-.115.028-.172,0-.258-.143l-.977-1.322a2.192,2.192,0,0,0-2.01-1.12,2.025,2.025,0,0,0-2.213,1.894c0,1.665,1.351,1.984,2.758,2.386,2.1.6,3.419,1.464,3.448,3.677-.029,2.325-1.925,3.792-4.367,3.792A5.388,5.388,0,0,1,542.61,102.832Z" transform="translate(-467.549 -82.895)" fill="#fff"/>
          <path id="Path_1608" data-name="Path 1608" d="M569.1,79.447c.458,2.2-1.266,4.121-1.633,4.466a.808.808,0,0,1-.382.274c-.164.034-.249-.022-.273-.138s-.034-.164.124-.343a4.224,4.224,0,0,0,.923-2.951.779.779,0,0,0-.487-.583c-.23-.049-1.262-.079-1.476-1.108a1.069,1.069,0,0,1,.96-1.249A2.019,2.019,0,0,1,569.1,79.447Z" transform="translate(-482.834 -74.457)" fill="#fff"/>
        </g>
        <g id="Group_2648" data-name="Group 2648" transform="translate(134.201 1.12)">
          <path id="Path_1609" data-name="Path 1609" d="M594.579,76.13c0-1.266-.057-5.315-.057-5.661,0-.545-.4-.833-1.178-.833h-1.667c-.115,0-.2-.056-.2-.17v-.777c0-.115.087-.173.2-.173.172,0,.517.03,1.178.03.661.028,1.637.056,3.016.056.489,0,10.571.028,11.031-.114.087.489.948,4.367,1.15,5.113.028.115,0,.173-.059.2l-.517.2c-.086.028-.144-.028-.229-.2-.258-.458-1.006-1.523-1.838-2.643A3.52,3.52,0,0,0,603.4,69.81c-.718-.173-5.285-.26-6.147-.26,0,.374-.029,6.149-.029,7.9v1.436c.4,0,3.419-.086,3.764-.145.633-.115,1.006-.372,1.265-1.263.086-.288.2-.891.287-1.408.028-.115.086-.2.2-.2l.575.03c.115,0,.172.084.172.2-.057.487-.057,2.873-.057,3.275,0,1.034.087,2.412.144,2.987,0,.143-.057.2-.2.229l-.546.115c-.144.03-.172-.056-.2-.2-.028-.229-.229-1.09-.316-1.408a1.333,1.333,0,0,0-1.177-1.118,37.019,37.019,0,0,0-3.908-.173v1.062c0,.863.029,5.688.029,6.119,0,.777.144.919,1.12.919h1.408c.172,0,.259.059.259.173V88.8c0,.173-.058.229-.23.229-.287,0-1.436-.086-3.906-.086-2.241,0-3.333.086-3.764.086-.115,0-.172-.056-.172-.2v-.774c0-.117.086-.145.2-.145h1.292c.746,0,.977-.114,1-.631.059-.576.116-4.194.116-9.135Z" transform="translate(-591.476 -68.172)" fill="#fff"/>
          <path id="Path_1610" data-name="Path 1610" d="M643.516,97.895c0,1.38,0,2.786.057,3.389.085.891.4,1.006.746,1.006a4.227,4.227,0,0,0,.949-.086c.229-.056.316,0,.345.115l.085.374c.029.173-.028.229-.143.26l-3.017,1.006a1.73,1.73,0,0,1-.574.115c-.115,0-.229-.059-.259-.346l-.229-1.665h-.059a5.246,5.246,0,0,1-3.906,2.011,3.007,3.007,0,0,1-2.7-1.322c-1.178-1.523-1.12-2.47-1.12-5.63V93.759c-.028-.8-.431-1.006-1.091-1.092-.489-.028-.633-.059-.633-.2v-.517c0-.173.059-.229.317-.229h2.556a1.527,1.527,0,0,0,.4-.059c.115,0,.229-.028.316-.028a.3.3,0,0,1,.316.344c-.029.26-.114,1.609-.114,3.305V97.35c0,1.148-.288,2.987.632,4.309a2.406,2.406,0,0,0,2.3,1.092,3.959,3.959,0,0,0,2.47-1.436,1.562,1.562,0,0,0,.288-.777V93.673c-.057-.8-.517-.947-1.235-1.006-.489,0-.632-.059-.632-.2v-.489c0-.229.058-.257.345-.257H642.6a2.3,2.3,0,0,0,.488-.059c.144,0,.259-.028.345-.028a.248.248,0,0,1,.259.288,25.355,25.355,0,0,0-.172,3.82Z" transform="translate(-617.342 -82.957)" fill="#fff"/>
          <path id="Path_1611" data-name="Path 1611" d="M684.982,101.77c0,.461.259.6.631.6h.92c.258,0,.317.086.317.26v.458c0,.2-.058.316-.23.316-.2,0-1.091-.086-2.728-.086-1.465,0-2.385.086-2.586.086-.172,0-.229-.086-.229-.316v-.458c0-.2.085-.26.373-.26h.833c.316,0,.546-.143.574-.66.029-.749.058-1.668.058-2.414V95.508c0-1.148,0-1.983-.834-2.587a3.147,3.147,0,0,0-2.1-.517,3.366,3.366,0,0,0-2.326,1.12A2.815,2.815,0,0,0,677,95.477v5.948c0,.774.085.947.689.947h.718c.23,0,.287.086.287.288v.489c0,.171-.057.257-.2.257-.2,0-.977-.086-2.5-.086-1.465,0-2.385.086-2.557.086-.144,0-.2-.086-.2-.257v-.517c0-.173.057-.26.288-.26h.833c.373,0,.574-.087.574-.575v-6.72a1.77,1.77,0,0,0-1.177-1.7l-.229-.115c-.2-.086-.23-.173-.23-.26v-.143c0-.145.115-.229.259-.288l2.47-1.378a1.48,1.48,0,0,1,.518-.2c.143,0,.2.115.229.344l.2,1.752h.057a5.765,5.765,0,0,1,3.936-2.1,4.422,4.422,0,0,1,2.442.632,4.178,4.178,0,0,1,1.58,2.73Z" transform="translate(-643.703 -82.552)" fill="#fff"/>
          <path id="Path_1612" data-name="Path 1612" d="M723.422,70.888c0-1.093-.2-1.436-1.809-1.7-.173-.028-.2-.085-.2-.2V68.5c0-.115.057-.173.229-.2,1.12-.232,2.615-.489,3.16-.6a6.5,6.5,0,0,1,.661-.087c.144,0,.172.2.144.517-.087,1.436-.115,5.6-.115,9.251V83.73a7.1,7.1,0,0,0,.287,2.612,2.136,2.136,0,0,0,1.264.489c.4.028.517.059.574.2l.057.229c.029.173-.028.259-.2.316l-3.245,1.092c-.172.059-.316-.028-.373-.229l-.374-1.265a6.611,6.611,0,0,1-4.222,1.553,3.981,3.981,0,0,1-3.391-1.322,5.68,5.68,0,0,1-1.809-4.655,6.853,6.853,0,0,1,2.01-4.884,5.783,5.783,0,0,1,4.281-1.808,10.677,10.677,0,0,1,3.074.431Zm0,9.106a2.839,2.839,0,0,0-.259-1.408,3.157,3.157,0,0,0-3.016-1.551,3.549,3.549,0,0,0-2.614,1.034,5.49,5.49,0,0,0-1.322,3.822c0,3.245,2.241,5.6,3.907,5.6a3.4,3.4,0,0,0,3.132-1.581,2.682,2.682,0,0,0,.172-.976Z" transform="translate(-669.782 -67.613)" fill="#fff"/>
        </g>
      </g>
    </g>
  </g>
</svg>
