<svg xmlns="http://www.w3.org/2000/svg" width="49.883" height="53.061" viewBox="0 0 49.883 53.061">
  <g id="Group_2664" data-name="Group 2664" transform="translate(-288 -240)">
    <g id="Group_2650" data-name="Group 2650" transform="translate(288 240)">
      <g id="Group_2644" data-name="Group 2644" transform="translate(0 0)">
        <g id="Group_2636" data-name="Group 2636" transform="translate(15.476 7.47)">
          <g id="Group_2635" data-name="Group 2635">
            <path id="Path_1591" data-name="Path 1591" d="M120.468,52.928a24.931,24.931,0,0,0-4.53-3.329c-.342-.2-.706-.395-1.092-.595a.108.108,0,0,0-.031-.014,25.5,25.5,0,0,0-13.961-2.729,24.525,24.525,0,0,0-12.232,4.426,20.408,20.408,0,0,1,5.691-4.828,28.758,28.758,0,0,1,10.134-3.654c.6-.091,1.207-.166,1.8-.218a24.327,24.327,0,0,1,5.754.151,19.843,19.843,0,0,1,5.163,1.5C119.5,45.774,120.634,48.968,120.468,52.928Z" transform="translate(-88.622 -41.885)" fill="#c36c36"/>
          </g>
        </g>
        <g id="Group_2637" data-name="Group 2637" transform="translate(12.885)">
          <path id="Path_1592" data-name="Path 1592" d="M120.549,33.339a19.766,19.766,0,0,0-5.382-3.623,23.18,23.18,0,0,0-13.259-1.536,29.721,29.721,0,0,0-10.43,3.76,20.246,20.246,0,0,0-6.637,6.025c1.113-3.7,3.9-7.4,8.013-10.6,4.394-3.419,9.654-5.689,14.068-6.075,4.71-.412,8.481.719,10.908,3.271A11.035,11.035,0,0,1,120.549,33.339Z" transform="translate(-83.616 -21.205)" fill="#c36c36"/>
          <path id="Path_1593" data-name="Path 1593" d="M81.45,77.222l.012-.026a.2.2,0,0,1,0-.041Z" transform="translate(-81.45 -56.946)" fill="#c36c36"/>
        </g>
        <g id="Group_2639" data-name="Group 2639" transform="translate(26.093 18.955)">
          <g id="Group_2638" data-name="Group 2638">
            <path id="Path_1594" data-name="Path 1594" d="M118.018,100.144a24.925,24.925,0,0,0,5.148-2.259q.511-.3,1.062-.648a.11.11,0,0,0,.027-.02A25.5,25.5,0,0,0,133.6,86.49a24.52,24.52,0,0,0,2.283-12.806,20.415,20.415,0,0,1,1.336,7.342,28.76,28.76,0,0,1-1.9,10.6c-.222.568-.459,1.128-.712,1.67a24.339,24.339,0,0,1-3.008,4.908,19.85,19.85,0,0,1-3.882,3.721C124.7,102.883,121.364,102.266,118.018,100.144Z" transform="translate(-118.018 -73.684)" fill="#c36c36"/>
          </g>
        </g>
        <g id="Group_2640" data-name="Group 2640" transform="translate(30.369 14.71)">
          <path id="Path_1595" data-name="Path 1595" d="M129.855,102.971a19.771,19.771,0,0,0,5.828-2.849,23.182,23.182,0,0,0,7.96-10.715A29.73,29.73,0,0,0,145.6,78.494a20.25,20.25,0,0,0-1.9-8.76c2.644,2.812,4.461,7.079,5.175,12.24.764,5.515.1,11.2-1.773,15.221-2,4.284-4.863,6.985-8.287,7.811A11.035,11.035,0,0,1,129.855,102.971Z" transform="translate(-129.855 -66.916)" fill="#c36c36"/>
          <path id="Path_1596" data-name="Path 1596" d="M161.46,61.931l.017.023a.22.22,0,0,1,.036.02Z" transform="translate(-150.045 -61.931)" fill="#c36c36"/>
        </g>
        <g id="Group_2642" data-name="Group 2642" transform="translate(7.017 13.579)">
          <g id="Group_2641" data-name="Group 2641">
            <path id="Path_1597" data-name="Path 1597" d="M71.595,58.8a24.906,24.906,0,0,0-.617,5.588c0,.394.011.809.031,1.243a.1.1,0,0,0,0,.034,25.5,25.5,0,0,0,4.617,13.455,24.521,24.521,0,0,0,9.949,8.38,20.415,20.415,0,0,1-7.026-2.514,28.766,28.766,0,0,1-8.232-6.949c-.38-.476-.747-.962-1.09-1.452a24.333,24.333,0,0,1-2.746-5.059A19.851,19.851,0,0,1,65.2,66.3C65.883,63.213,68.083,60.636,71.595,58.8Z" transform="translate(-65.203 -58.799)" fill="#c36c36"/>
          </g>
        </g>
        <g id="Group_2643" data-name="Group 2643" transform="translate(0 14.606)">
          <path id="Path_1598" data-name="Path 1598" d="M52.413,61.644a19.767,19.767,0,0,0-.446,6.472,23.18,23.18,0,0,0,5.3,12.251,29.721,29.721,0,0,0,8.471,7.153,20.251,20.251,0,0,0,8.536,2.735c-3.757.884-8.361.324-13.188-1.639-5.158-2.1-9.754-5.515-12.3-9.146-2.711-3.872-3.618-7.7-2.621-11.082A11.035,11.035,0,0,1,52.413,61.644Z" transform="translate(-45.775 -61.644)" fill="#c36c36"/>
          <path id="Path_1599" data-name="Path 1599" d="M134.688,138.926l-.028,0a.216.216,0,0,1-.035.021Z" transform="translate(-102.533 -111.012)" fill="#c36c36"/>
        </g>
      </g>
    </g>
  </g>
</svg>
