<?xml version="1.0" encoding="UTF-8"?>
<svg width="26px" height="26px" viewBox="0 0 26 26" version="1.1" xmlns="http://www.w3.org/2000/svg" xmlns:xlink="http://www.w3.org/1999/xlink">
    <!-- Generator: Sketch 45.2 (43514) - http://www.bohemiancoding.com/sketch -->
    <title>Page 1</title>
    <desc>Created with Sketch.</desc>
    <defs></defs>
    <g id="Page-1" stroke="none" stroke-width="1" fill="none" fill-rule="evenodd">
        <g fill="#FFFFFF">
            <polygon id="Fill-1" points="18.3123119 15.7331152 24.6373311 21.9283014 25.7837858 20.6977279 19.6031631 14.5771556"></polygon>
            <g id="Group-7" transform="translate(0.000000, 0.012176)">
                <g id="Group-4" transform="translate(0.000000, 1.856069)">
                    <path d="M17.5458738,14.5514305 L15.9169606,16.0106717 C14.2781935,15.1954863 12.6477644,13.8049196 11.3895066,12.6166644 C11.3864747,12.6140659 11.3842007,12.6118386 11.3815478,12.6096113 C11.3792738,12.6070128 11.3769998,12.6047856 11.3747259,12.6021871 C10.1615683,11.3697574 8.74185944,9.77242466 7.90959015,8.16729641 L9.39903382,6.57181972 L3.0088278,0.312413491 L1.24840393,1.88635979 C1.24840393,1.88635979 -0.183432757,3.01373594 0.0197076516,4.99861585 C0.22284806,6.98312455 0.948241234,9.1146339 3.02512451,12.1288895 C3.97298675,13.5053501 5.3278878,15.188062 7.02274583,16.8644633 L7.08035281,16.8228874 L7.03752657,16.8789407 C8.7494393,18.5390085 10.4674159,19.8660977 11.8723441,20.7948745 C14.9493907,22.8287546 17.1263282,23.5392577 19.1524264,23.7382283 C21.1789035,23.9371989 22.3295272,22.5347533 22.3295272,22.5347533 L23.9364588,20.8108367 L17.5458738,14.5514305 Z" id="Fill-2"></path>
                </g>
                <polygon id="Fill-5" points="10.0999819 7.67744275 11.2801671 6.41345994 5.03170453 0.358963695 3.77572074 1.48262771"></polygon>
            </g>
        </g>
    </g>
</svg>