<?xml version="1.0" encoding="UTF-8"?>
<svg width="36px" height="36px" viewBox="0 0 36 36" version="1.1" xmlns="http://www.w3.org/2000/svg" xmlns:xlink="http://www.w3.org/1999/xlink">
    <!-- Generator: Sketch 45.2 (43514) - http://www.bohemiancoding.com/sketch -->
    <title>Group 12</title>
    <desc>Created with Sketch.</desc>
    <defs></defs>
    <g id="Page-1" stroke="none" stroke-width="1" fill="none" fill-rule="evenodd">
        <g id="Group-12">
            <rect id="Rectangle-10-Copy" fill="#FFFFFF" x="0" y="0" width="36" height="36" rx="18"></rect>
            <g id="Group-3" transform="translate(8.000000, 6.000000)" fill="#77614E">
                <path d="M15.1997,5.06817391 C15.1997,7.86782609 12.917,10.1363478 10.09985,10.1363478 C7.2827,10.1363478 5,7.86782609 5,5.06817391 C5,2.26852174 7.2827,0 10.09985,0 C12.917,0 15.1997,2.26852174 15.1997,5.06817391" id="Fill-1"></path>
                <path d="M20.6724,17.848 C18.37815,14.917913 14.60865,13 10.3362,13 C6.06375,13 2.29425,14.917913 0,17.848 C2.15985,21.2653913 5.97555,23.5443478 10.3362,23.5443478 C14.69685,23.5443478 18.51255,21.2653913 20.6724,17.848" id="Fill-3"></path>
            </g>
        </g>
    </g>
</svg>