<svg xmlns="http://www.w3.org/2000/svg" version="1.1" xmlns:xlink="http://www.w3.org/1999/xlink" xmlns:svgjs="http://svgjs.com/svgjs" viewBox="0 0 18 18" width="18" height="18"><g transform="matrix(0.75,0,0,0.75,0,0)"><path d="M0.750 12.000 A11.250 11.250 0 1 0 23.250 12.000 A11.250 11.250 0 1 0 0.750 12.000 Z" fill="none" stroke="#C36C36" stroke-linecap="round" stroke-linejoin="round" stroke-width="1.5"></path><path d="M9.289,22.921C7.767,20.689,6.75,16.633,6.75,12S7.767,3.311,9.289,1.079" fill="none" stroke="#C36C36" stroke-linecap="round" stroke-linejoin="round" stroke-width="1.5"></path><path d="M0.75 12L23.25 12" fill="none" stroke="#C36C36" stroke-linecap="round" stroke-linejoin="round" stroke-width="1.5"></path><path d="M2.482 18L21.518 18" fill="none" stroke="#C36C36" stroke-linecap="round" stroke-linejoin="round" stroke-width="1.5"></path><path d="M2.482 6L21.518 6" fill="none" stroke="#C36C36" stroke-linecap="round" stroke-linejoin="round" stroke-width="1.5"></path><path d="M14.711,1.079C16.233,3.311,17.25,7.367,17.25,12s-1.017,8.689-2.539,10.921" fill="none" stroke="#C36C36" stroke-linecap="round" stroke-linejoin="round" stroke-width="1.5"></path></g></svg>