<svg xmlns="http://www.w3.org/2000/svg" version="1.1" xmlns:xlink="http://www.w3.org/1999/xlink" xmlns:svgjs="http://svgjs.com/svgjs" viewBox="0 0 18 18" width="18" height="18"><g transform="matrix(0.75,0,0,0.75,0,0)"><path d="M15.04,22.39l.012.007a5.533,5.533,0,0,0,6.884-.755l.774-.774a1.846,1.846,0,0,0,0-2.609L19.449,15a1.846,1.846,0,0,0-2.609,0h0a1.843,1.843,0,0,1-2.608,0L9.014,9.781a1.846,1.846,0,0,1,0-2.609h0a1.843,1.843,0,0,0,0-2.608L5.754,1.3a1.846,1.846,0,0,0-2.609,0l-.774.774a5.535,5.535,0,0,0-.756,6.884l.008.012A49.935,49.935,0,0,0,15.04,22.39Z" fill="none" stroke="#828FA7" stroke-linecap="round" stroke-linejoin="round" stroke-width="1.5"></path></g></svg>