<svg xmlns="http://www.w3.org/2000/svg" version="1.1" xmlns:xlink="http://www.w3.org/1999/xlink" xmlns:svgjs="http://svgjs.com/svgjs" viewBox="0 0 24 24" width="24" height="24"><g transform="matrix(1,0,0,1,0,0)"><path d="M14.25,14.25v6a3,3,0,0,1-3,3H3.75a3,3,0,0,1-3-3V3.75a3,3,0,0,1,3-3h7.5" fill="none" stroke="" stroke-linecap="round" stroke-linejoin="round" stroke-width="1"></path><path d="M0.75 18.57L14.25 18.57" fill="none" stroke="" stroke-linecap="round" stroke-linejoin="round" stroke-width="1"></path><path d="M23.25,6.75s-2.25,4.5-6.75,4.5-6.75-4.5-6.75-4.5S12,2.25,16.5,2.25,23.25,6.75,23.25,6.75Z" fill="none" stroke="" stroke-linecap="round" stroke-linejoin="round" stroke-width="1"></path><path d="M14.250 6.750 A2.250 2.250 0 1 0 18.750 6.750 A2.250 2.250 0 1 0 14.250 6.750 Z" fill="none" stroke="" stroke-linecap="round" stroke-linejoin="round" stroke-width="1"></path></g></svg>