<svg width="24" height="24" viewBox="0 0 24 24" fill="none" xmlns="http://www.w3.org/2000/svg">
<path fill-rule="evenodd" clip-rule="evenodd" d="M16.6667 12.3333C14.2732 12.3333 12.3333 14.2732 12.3333 16.6667C12.3333 19.0602 14.2732 21 16.6667 21C19.0602 21 21 19.0602 21 16.6667C21 14.2732 19.0602 12.3333 16.6667 12.3333ZM10.3333 16.6667C10.3333 13.1686 13.1686 10.3333 16.6667 10.3333C20.1647 10.3333 23 13.1686 23 16.6667C23 20.1647 20.1647 23 16.6667 23C13.1686 23 10.3333 20.1647 10.3333 16.6667Z"/>
<path fill-rule="evenodd" clip-rule="evenodd" d="M16.6667 13C17.219 13 17.6667 13.4477 17.6667 14V19.3333C17.6667 19.8856 17.219 20.3333 16.6667 20.3333C16.1144 20.3333 15.6667 19.8856 15.6667 19.3333V14C15.6667 13.4477 16.1144 13 16.6667 13Z"/>
<path fill-rule="evenodd" clip-rule="evenodd" d="M13 16.6667C13 16.1144 13.4477 15.6667 14 15.6667H19.3333C19.8856 15.6667 20.3333 16.1144 20.3333 16.6667C20.3333 17.219 19.8856 17.6667 19.3333 17.6667H14C13.4477 17.6667 13 17.219 13 16.6667Z"/>
<path fill-rule="evenodd" clip-rule="evenodd" d="M3.33333 3C3.14962 3 3 3.14962 3 3.33333V18C3 18.1837 3.14962 18.3333 3.33333 18.3333H8.66667C9.21895 18.3333 9.66667 18.781 9.66667 19.3333C9.66667 19.8856 9.21895 20.3333 8.66667 20.3333H3.33333C2.04505 20.3333 1 19.2883 1 18V3.33333C1 2.04505 2.04505 1 3.33333 1H12.7813C13.4004 1 13.9934 1.24587 14.4307 1.68312L16.9836 4.236C17.4208 4.67325 17.6667 5.26624 17.6667 5.88533V8.66667C17.6667 9.21895 17.219 9.66667 16.6667 9.66667C16.1144 9.66667 15.6667 9.21895 15.6667 8.66667V5.88533C15.6667 5.79687 15.6316 5.71253 15.5693 5.65022L13.0164 3.09733C12.9541 3.03502 12.8698 3 12.7813 3H3.33333Z"/>
<path fill-rule="evenodd" clip-rule="evenodd" d="M6 7.33333C6.36829 7.33333 6.66667 7.03495 6.66667 6.66667C6.66667 6.29838 6.36829 6 6 6C5.63172 6 5.33333 6.29838 5.33333 6.66667C5.33333 7.03495 5.63172 7.33333 6 7.33333ZM4.66667 6.66667C4.66667 5.93038 5.26372 5.33333 6 5.33333C6.73629 5.33333 7.33333 5.93038 7.33333 6.66667C7.33333 7.40295 6.73629 8 6 8C5.26372 8 4.66667 7.40295 4.66667 6.66667Z"/>
<path fill-rule="evenodd" clip-rule="evenodd" d="M9.85653 7.64847C10.6234 7.13797 11.6571 7.34837 12.1658 8.11253C12.1712 8.12077 12.1766 8.1291 12.1819 8.1375L13.0965 9.60417C13.3888 10.0728 13.2458 10.6896 12.7772 10.9819C12.3085 11.2741 11.6917 11.1311 11.3995 10.6625L10.7623 9.64081L9.27376 11.7627C9.1151 11.9889 8.86995 12.1394 8.59645 12.1784C8.32295 12.2175 8.04549 12.1416 7.82988 11.9689L7.06512 11.3562L6.26532 13H8.66667C9.21895 13 9.66667 13.4477 9.66667 14C9.66667 14.5523 9.21895 15 8.66667 15H4.66667C4.32201 15 4.00165 14.8225 3.81887 14.5303C3.63609 14.2381 3.61666 13.8724 3.76746 13.5625L5.48924 10.0238C5.50896 9.98329 5.53139 9.94414 5.55639 9.90664C5.57981 9.87151 5.60991 9.82909 5.64677 9.78391C6.22306 9.07045 7.26867 8.95639 7.98524 9.53068C7.98535 9.53077 7.98512 9.53059 7.98524 9.53068L8.24855 9.74163L9.41416 8.08005C9.53452 7.90842 9.68557 7.76244 9.85653 7.64847Z"/>
</svg>
