<svg width="24" height="24" viewBox="0 0 24 24" fill="none" xmlns="http://www.w3.org/2000/svg">
<path d="M13 8C13 7.5 12.5 7 12 7C11.5 7 11 7.5 11 8C11 8.5 11 11 11 11C11 11 8.5 11 8 11C7.5 11 7 11.5 7 12C7 12.5 7.5 13 8 13C8.5 13 11 13 11 13C11 13 11 15.5 11 16C11 16.5 11.5 17 12 17C12.5 17 13 16.5 13 16C13 15.5 13 13 13 13C13 13 15.5 13 16 13C16.5 13 17 12.5 17 12C17 11.5 16.5 11 16 11C15.5 11 13 11 13 11C13 11 13 8.5 13 8ZM12 2C6.48 2 2 6.48 2 12C2 17.52 6.48 22 12 22C17.52 22 22 17.52 22 12C22 6.48 17.52 2 12 2ZM12 20C7.59 20 4 16.41 4 12C4 7.59 7.59 4 12 4C16.41 4 20 7.59 20 12C20 16.41 16.41 20 12 20Z" />
</svg>
