<svg width="24" height="24" viewBox="0 0 24 24" fill="none" xmlns="http://www.w3.org/2000/svg">
<path fill-rule="evenodd" clip-rule="evenodd" d="M11.5 4C7.37729 4 4 7.37729 4 11.5C4 15.6227 7.37729 19 11.5 19C15.6227 19 19 15.6227 19 11.5C19 10.8047 18.9223 10.1223 18.7749 9.53254L20.7151 9.04746C20.9077 9.81772 21 10.6653 21 11.5C21 16.7273 16.7273 21 11.5 21C6.27272 21 2 16.7273 2 11.5C2 6.27272 6.27272 2 11.5 2C13.2958 2 15.0106 2.47422 16.535 3.427L15.475 5.123C14.2794 4.37578 12.9342 4 11.5 4Z"/>
<path fill-rule="evenodd" clip-rule="evenodd" d="M22.4136 4.04067L11.4667 14.3752L6.58636 9.76795L7.95931 8.31364L11.4667 11.6248L21.0407 2.58636L22.4136 4.04067Z"/>
</svg>
