<svg xmlns="http://www.w3.org/2000/svg" version="1.1" xmlns:xlink="http://www.w3.org/1999/xlink" xmlns:svgjs="http://svgjs.com/svgjs" viewBox="0 0 24 24" height="24" width="24"><title>archive (From Streamline App : https://app.streamlineicons.com)</title><g transform="matrix(1,0,0,1,0,0)"><path d="M21.5,2.5h-19c-1.105,0-2,0.895-2,2v3c0,0.552,0.448,1,1,1h21c0.552,0,1-0.448,1-1v-3C23.5,3.395,22.605,2.5,21.5,2.5z M21.5,10h-19c-0.552,0-1,0.448-1,1v8.5c0,1.105,0.895,2,2,2h17c1.105,0,2-0.895,2-2V11C22.5,10.448,22.052,10,21.5,10z M15.25,13.5c-0.001,0.69-0.56,1.249-1.25,1.25h-4c-0.69,0-1.25-0.56-1.25-1.25s0.56-1.25,1.25-1.25h4 C14.69,12.251,15.249,12.81,15.25,13.5z" stroke="none" stroke-width="0" stroke-linecap="round" stroke-linejoin="round"></path></g></svg>