<svg xmlns="http://www.w3.org/2000/svg" version="1.1" xmlns:xlink="http://www.w3.org/1999/xlink" xmlns:svgjs="http://svgjs.com/svgjs" viewBox="0 0 24 24" height="24" width="24"><title>arrow button right (From Streamline App : https://app.streamlineicons.com)</title><g transform="matrix(1,0,0,1,0,0)"><path d="M7.207,23.751l12.471-10.984l0,0c0.425-0.407,0.439-1.082,0.032-1.507c-0.01-0.011-0.021-0.021-0.032-0.032L7.207,0.249 C6.799-0.113,6.175-0.076,5.814,0.332C5.807,0.34,5.8,0.348,5.793,0.356l-1.557,1.85C3.874,2.635,3.924,3.275,4.347,3.644 l9.453,8.165c0.105,0.09,0.116,0.248,0.026,0.353c-0.008,0.009-0.017,0.018-0.026,0.026l-9.45,8.168 c-0.205,0.178-0.33,0.43-0.349,0.7c-0.024,0.269,0.062,0.536,0.238,0.741l1.558,1.851c0.35,0.419,0.974,0.475,1.393,0.125 c0.007-0.006,0.014-0.012,0.021-0.018L7.207,23.751z" stroke="none" stroke-width="0" stroke-linecap="round" stroke-linejoin="round"></path></g></svg>