<?xml version="1.0" encoding="utf-8"?>
<!-- Generator: Adobe Illustrator 23.0.6, SVG Export Plug-In . SVG Version: 6.00 Build 0)  -->
<svg version="1.1" id="Layer_1" xmlns:svgjs="http://svgjs.com/svgjs"
	 xmlns="http://www.w3.org/2000/svg" xmlns:xlink="http://www.w3.org/1999/xlink" x="0px" y="0px" viewBox="0 0 24 24"
	 enable-background="new 0 0 24 24" xml:space="preserve">
<title>arrow button right (From Streamline App : https://app.streamlineicons.com)</title>
<g transform="matrix(1,0,0,1,0,0)">
	<path d="M13.7,0.3l-12.5,11l0,0c-0.4,0.4-0.4,1.1,0,1.5c0,0,0,0,0,0l12.5,11c0.4,0.4,1,0.3,1.4-0.1c0,0,0,0,0,0l1.6-1.9
		c0.4-0.4,0.3-1.1-0.1-1.4l-9.5-8.2c-0.1-0.1-0.1-0.2,0-0.4c0,0,0,0,0,0l9.4-8.2c0.2-0.2,0.3-0.4,0.3-0.7c0-0.3-0.1-0.5-0.2-0.7
		l-1.6-1.9C14.8-0.1,14.2-0.1,13.7,0.3C13.7,0.2,13.7,0.2,13.7,0.3L13.7,0.3z"/>
</g>
</svg>
