<svg xmlns="http://www.w3.org/2000/svg" version="1.1" xmlns:xlink="http://www.w3.org/1999/xlink" xmlns:svgjs="http://svgjs.com/svgjs" viewBox="0 0 24 24" height="24" width="24"><title>arrow left (From Streamline App : https://app.streamlineicons.com)</title><g transform="matrix(1,0,0,1,0,0)"><path d="M22.548,10.561H5.437c-0.139-0.001-0.25-0.115-0.249-0.253c0.001-0.071,0.031-0.138,0.084-0.185l8.637-7.6 c0.579-0.546,0.605-1.457,0.06-2.036c-0.519-0.55-1.375-0.605-1.96-0.126L0.828,10.2c-0.994,0.877-1.089,2.393-0.213,3.387 c0.066,0.075,0.137,0.146,0.213,0.213l11.179,9.837c0.619,0.5,1.525,0.403,2.025-0.215c0.47-0.582,0.416-1.428-0.125-1.946 l-8.637-7.6c-0.103-0.092-0.112-0.251-0.02-0.354c0.047-0.053,0.114-0.083,0.185-0.084h17.113c0.795-0.021,1.423-0.682,1.402-1.477 c-0.02-0.766-0.636-1.381-1.402-1.402V10.561z" stroke="none" stroke-width="0" stroke-linecap="round" stroke-linejoin="round"></path></g></svg>