<svg xmlns="http://www.w3.org/2000/svg" version="1.1" xmlns:xlink="http://www.w3.org/1999/xlink" xmlns:svgjs="http://svgjs.com/svgjs" viewBox="0 0 24 24" width="24" height="24"><g transform="matrix(1,0,0,1,0,0)"><path d="M19.059,23.105l-6.177-4.492a1.5,1.5,0,0,0-1.764,0L4.941,23.105A.75.75,0,0,1,3.75,22.5V2.25A1.5,1.5,0,0,1,5.25.75h13.5a1.5,1.5,0,0,1,1.5,1.5V22.5A.75.75,0,0,1,19.059,23.105Z" fill="none" stroke="" stroke-linecap="round" stroke-linejoin="round" stroke-width="1"></path><path d="M16.5,7.811,11.03,13.28a.749.749,0,0,1-1.06,0L8.25,11.561" fill="none" stroke="" stroke-linecap="round" stroke-linejoin="round" stroke-width="1"></path></g></svg>