<svg width="24" height="25" fill="none" xmlns="http://www.w3.org/2000/svg">
  <path fill-rule="evenodd" clip-rule="evenodd" d="M0 5.75A2.25 2.25 0 0 1 2.25 3.5h19.5A2.25 2.25 0 0 1 24 5.75v16.5a2.25 2.25 0 0 1-2.25 2.25H2.25A2.25 2.25 0 0 1 0 22.25V5.75zM2.25 5a.75.75 0 0 0-.75.75v16.5c0 .414.336.75.75.75h19.5a.75.75 0 0 0 .75-.75V5.75a.75.75 0 0 0-.75-.75H2.25z" fill=""/>
  <path fill-rule="evenodd" clip-rule="evenodd" d="M0 10.25a.75.75 0 0 1 .75-.75h22.5a.75.75 0 0 1 0 1.5H.75a.75.75 0 0 1-.75-.75zM6.75.5a.75.75 0 0 1 .75.75V6.5a.75.75 0 0 1-1.5 0V1.25A.75.75 0 0 1 6.75.5zM17.25.5a.75.75 0 0 1 .75.75V6.5a.75.75 0 0 1-1.5 0V1.25a.75.75 0 0 1 .75-.75zM4.5 14.375a1.125 1.125 0 1 1 2.25 0 1.125 1.125 0 0 1-2.25 0zM4.5 19.625a1.125 1.125 0 1 1 2.25 0 1.125 1.125 0 0 1-2.25 0zM10.875 14.375a1.125 1.125 0 1 1 2.25 0 1.125 1.125 0 0 1-2.25 0zM10.875 19.625a1.125 1.125 0 1 1 2.25 0 1.125 1.125 0 0 1-2.25 0zM17.25 14.375a1.125 1.125 0 1 1 2.25 0 1.125 1.125 0 0 1-2.25 0zM17.25 19.625a1.125 1.125 0 1 1 2.25 0 1.125 1.125 0 0 1-2.25 0z" fill=""/>
</svg>