<svg xmlns="http://www.w3.org/2000/svg" version="1.1" xmlns:xlink="http://www.w3.org/1999/xlink" xmlns:svgjs="http://svgjs.com/svgjs" viewBox="0 0 2 2" width="2" height="2"><g transform="matrix(0.08333333333333333,0,0,0.08333333333333333,0,0)"><path d="M9.75,15.937c0,.932,1.007,1.688,2.25,1.688s2.25-.756,2.25-1.688S13.243,14.25,12,14.25s-2.25-.756-2.25-1.688,1.007-1.687,2.25-1.687,2.25.755,2.25,1.687" fill="none" stroke="" stroke-linecap="round" stroke-linejoin="round" stroke-width="1.5"></path><path d="M12 9.75L12 10.875" fill="none" stroke="" stroke-linecap="round" stroke-linejoin="round" stroke-width="1.5"></path><path d="M12 17.625L12 18.75" fill="none" stroke="" stroke-linecap="round" stroke-linejoin="round" stroke-width="1.5"></path><path d="M1.500 6.750 L22.500 6.750 L22.500 21.750 L1.500 21.750 Z" fill="none" stroke="" stroke-linecap="round" stroke-linejoin="round" stroke-width="1.5"></path><path d="M15.342,3.275A1.5,1.5,0,0,0,13.919,2.25H10.081A1.5,1.5,0,0,0,8.658,3.275L7.5,6.75h9Z" fill="none" stroke="" stroke-linecap="round" stroke-linejoin="round" stroke-width="1.5"></path></g></svg>