<svg xmlns="http://www.w3.org/2000/svg" fill="none" viewBox="0 0 24 24" height="44" width="44"><path stroke="" stroke-linecap="round" stroke-linejoin="round" stroke-width="1.5" d="M6.75 16.25c3.314 0 6-1.343 6-3s-2.686-3-6-3-6 1.343-6 3 2.686 3 6 3Z"/><path stroke="" stroke-linecap="round" stroke-linejoin="round" stroke-width="1.5" d="M.75 13.25v7c0 1.66 2.69 3 6 3s6-1.34 6-3v-7"/><path stroke="" stroke-linecap="round" stroke-linejoin="round" stroke-width="1.5" d="M12.75 16.75c0 1.66-2.69 3-6 3s-6-1.34-6-3"/><g stroke="" stroke-width="1.5"><path stroke-linecap="round" stroke-linejoin="round" d="M15.75 15.75h6a1.5 1.5 0 0 0 1.5-1.5v-12a1.5 1.5 0 0 0-1.5-1.5H2.25a1.5 1.5 0 0 0-1.5 1.5v6.51"/><path stroke-linecap="round" stroke-linejoin="round" d="M9.32 6.91a3 3 0 1 1 5.27 2.85"/><path d="M4.505 4.88a.375.375 0 0 1 0-.75M4.505 4.88a.375.375 0 1 0 0-.75M19.495 12.37a.375.375 0 1 1 0-.75M19.495 12.37a.375.375 0 1 0 0-.75"/></g></svg>