<svg xmlns="http://www.w3.org/2000/svg" viewBox="0 0 32 32"><path d="m3.75 23-2-2.52a4.5 4.5 0 0 1-1-2.81V12.5a1.5 1.5 0 0 1 1.5-1.5h0a1.5 1.5 0 0 1 1.5 1.5v3.87" style="fill:none;stroke:;stroke-linecap:round;stroke-linejoin:round;stroke-width:1.5px" transform="scale(1.33333)"/><path d="M8.25 22.86v-3a4.43 4.43 0 0 0-.76-2.49l-1.14-1.72a1.41 1.41 0 0 0-2-.44h0A1.4 1.4 0 0 0 3.9 17l1.35 2.25M20.25 23l2-2.52a4.5 4.5 0 0 0 1-2.81V12.5a1.5 1.5 0 0 0-1.5-1.5h0a1.5 1.5 0 0 0-1.5 1.5v3.87" style="fill:none;stroke:;stroke-linecap:round;stroke-linejoin:round;stroke-width:1.5px" transform="scale(1.33333)"/><path d="M15.75 22.86v-3a4.43 4.43 0 0 1 .76-2.49l1.14-1.72a1.41 1.41 0 0 1 2-.44h0A1.4 1.4 0 0 1 20.1 17l-1.35 2.25M4 7.25l7-5.93a1.51 1.51 0 0 1 1.94 0l7 5.93M15.93 8.59a1.89 1.89 0 0 0-2.75 0L12 9.81l-1.18-1.22a1.89 1.89 0 0 0-2.75 0 2.05 2.05 0 0 0 0 2.84l3.51 3.63a.58.58 0 0 0 .84 0l3.51-3.63a2.05 2.05 0 0 0 0-2.84Z" style="fill:none;stroke:;stroke-linecap:round;stroke-linejoin:round;stroke-width:1.5px" transform="scale(1.33333)"/></svg>