<svg xmlns="http://www.w3.org/2000/svg" version="1.1" xmlns:xlink="http://www.w3.org/1999/xlink" xmlns:svgjs="http://svgjs.com/svgjs" viewBox="0 0 24 24" height="24" width="24"><title>checklist (From Streamline App : https://app.streamlineicons.com)</title><g transform="matrix(1,0,0,1,0,0)"><path d="M21.5,0h-19C1.119,0,0,1.119,0,2.5v19C0,22.881,1.119,24,2.5,24h19c1.381,0,2.5-1.119,2.5-2.5v-19 C24,1.119,22.881,0,21.5,0z M18.5,9.5H14c-0.552,0-1-0.448-1-1s0.448-1,1-1h4.5c0.552,0,1,0.448,1,1S19.052,9.5,18.5,9.5z M19.5,17.5c0,0.552-0.448,1-1,1H14c-0.552,0-1-0.448-1-1s0.448-1,1-1h4.5C19.052,16.5,19.5,16.948,19.5,17.5z M11.3,5.6l-3,4 C8.127,9.833,7.861,9.979,7.571,10H7.5c-0.265,0-0.52-0.105-0.707-0.293l-1.5-1.5c-0.391-0.39-0.391-1.024-0.001-1.414 s1.024-0.391,1.414-0.001l0.685,0.685L9.7,4.4c0.331-0.442,0.958-0.531,1.4-0.2C11.542,4.531,11.631,5.158,11.3,5.6z M11.3,15.6 l-3,4c-0.346,0.443-0.986,0.521-1.429,0.175c-0.027-0.021-0.053-0.044-0.078-0.068l-1.5-1.5c-0.384-0.397-0.373-1.03,0.025-1.414 c0.388-0.374,1.002-0.374,1.389,0l0.685,0.685L9.7,14.4c0.331-0.442,0.958-0.531,1.4-0.2C11.542,14.531,11.631,15.158,11.3,15.6z" stroke="none"  stroke-width="0" stroke-linecap="round" stroke-linejoin="round"></path></g></svg>