<svg xmlns="http://www.w3.org/2000/svg" version="1.1" xmlns:xlink="http://www.w3.org/1999/xlink" xmlns:svgjs="http://svgjs.com/svgjs" viewBox="0 0 24 24" width="24" height="24"><g transform="matrix(1,0,0,1,0,0)"><path d="M11.250 17.250 A6.000 6.000 0 1 0 23.250 17.250 A6.000 6.000 0 1 0 11.250 17.250 Z" fill="none" stroke="" stroke-linecap="round" stroke-linejoin="round" stroke-width="1.5"></path><path d="M19.924,15.506l-2.905,3.873a.751.751,0,0,1-1.13.081l-1.5-1.5" fill="none" stroke="" stroke-linecap="round" stroke-linejoin="round" stroke-width="1.5"></path><path d="M20.25,8.25v-6a1.5,1.5,0,0,0-1.5-1.5H2.25a1.5,1.5,0,0,0-1.5,1.5v12a1.5,1.5,0,0,0,1.5,1.5h6" fill="none" stroke="" stroke-linecap="round" stroke-linejoin="round" stroke-width="1.5"></path><path d="M0.75 5.25L20.25 5.25" fill="none" stroke="" stroke-linecap="round" stroke-linejoin="round" stroke-width="1.5"></path><path d="M3.75 9L9.75 9" fill="none" stroke="" stroke-linecap="round" stroke-linejoin="round" stroke-width="1.5"></path><path d="M3.75 12L6.75 12" fill="none" stroke="" stroke-linecap="round" stroke-linejoin="round" stroke-width="1.5"></path></g></svg>