<svg xmlns="http://www.w3.org/2000/svg" version="1.1" xmlns:xlink="http://www.w3.org/1999/xlink" xmlns:svgjs="http://svgjs.com/svgjs" viewBox="0 0 24 24" height="24" width="24"><title>remove circle (From Streamline App : https://app.streamlineicons.com)</title><g transform="matrix(1,0,0,1,0,0)"><path d="M12,0C5.373,0,0,5.373,0,12s5.373,12,12,12s12-5.373,12-12C23.992,5.376,18.624,0.008,12,0z M17.49,16.076 c0.397,0.384,0.408,1.017,0.025,1.414c-0.384,0.397-1.017,0.408-1.414,0.025c-0.008-0.008-0.017-0.016-0.025-0.025l-3.9-3.9 c-0.098-0.097-0.256-0.097-0.354,0l-3.9,3.9c-0.393,0.384-1.021,0.384-1.414,0c-0.39-0.39-0.39-1.024,0-1.414l3.9-3.9 c0.097-0.097,0.098-0.255,0.001-0.352c0,0-0.001-0.001-0.001-0.001l-3.9-3.9c-0.39-0.391-0.39-1.024,0.001-1.414 s1.024-0.39,1.414,0.001l3.9,3.9c0.098,0.098,0.256,0.098,0.354,0c0,0,0,0,0,0l3.9-3.9c0.374-0.406,1.007-0.432,1.413-0.058 c0.406,0.374,0.432,1.007,0.058,1.413c-0.019,0.02-0.038,0.04-0.059,0.059l-3.9,3.9c-0.097,0.097-0.098,0.255-0.001,0.352 c0,0,0.001,0.001,0.001,0.001L17.49,16.076z" stroke="none" stroke-width="0" stroke-linecap="round" stroke-linejoin="round"></path></g></svg>