<svg xmlns="http://www.w3.org/2000/svg" version="1.1" xmlns:xlink="http://www.w3.org/1999/xlink" xmlns:svgjs="http://svgjs.com/svgjs" viewBox="0 0 24 24" height="24" width="24"><title>arrow button circle right 1 (From Streamline App : https://app.streamlineicons.com)</title><g transform="matrix(1,0,0,1,0,0)"><path d="M12,0C5.373,0,0,5.373,0,12s5.373,12,12,12s12-5.373,12-12C23.993,5.376,18.624,0.007,12,0z M17.316,12.384L9.6,18.817 c-0.212,0.177-0.527,0.148-0.704-0.064c-0.075-0.09-0.116-0.204-0.116-0.321v-2.687c0-0.154,0.071-0.3,0.193-0.395l4.05-3.15 c0.109-0.084,0.129-0.24,0.045-0.349c-0.013-0.017-0.028-0.032-0.045-0.045L8.97,8.65C8.848,8.555,8.777,8.409,8.777,8.255V5.568 c0-0.276,0.223-0.5,0.499-0.501c0.117,0,0.231,0.041,0.321,0.116l7.719,6.433c0.212,0.177,0.241,0.492,0.064,0.704 C17.36,12.343,17.339,12.365,17.316,12.384z" stroke="none" stroke-width="0" stroke-linecap="round" stroke-linejoin="round"></path></g></svg>