<svg viewBox="0 0 30 30" xmlns="http://www.w3.org/2000/svg"><g fill="none" stroke="" stroke-linecap="round" stroke-linejoin="round" stroke-width="1.5"><path d="M25.315 11.25V6.561a1.875 1.875 0 0 0-1.875-1.875h-5M7.815 4.686h-5A1.875 1.875 0 0 0 .94 6.561v20.625a1.875 1.875 0 0 0 1.875 1.875h10.31" stroke-width="1.875"/><path d="M18.029 5.92a.939.939 0 0 1-.889.641H9.116a.939.939 0 0 1-.89-.641l-1.25-3.75a.936.936 0 0 1 .89-1.234H18.39a.936.936 0 0 1 .889 1.234ZM10.315 25.311h-4.69a.938.938 0 0 1-.938-.937V8.436M21.565 8.436v1.875M14.063 21.561a7.5 7.5 0 1 0 15 0 7.5 7.5 0 1 0-15 0Z" stroke-width="1.875"/><path d="m24.905 19.375-3.631 4.843a.939.939 0 0 1-1.414.1l-1.875-1.875M8.44 12.186h5.625M8.44 17.811h1.875" stroke-width="1.875"/></g></svg>