<svg width="24" height="24" viewBox="0 0 24 24" fill="none" xmlns="http://www.w3.org/2000/svg">
<path fill-rule="evenodd" clip-rule="evenodd" d="M2.61662 2.61662C3.43877 1.79446 4.77175 1.79446 5.59391 2.61662L12 9.02271L18.4061 2.61662C19.2283 1.79446 20.5612 1.79446 21.3834 2.61662C22.2055 3.43877 22.2055 4.77175 21.3834 5.59391L14.9773 12L21.3834 18.4061C22.2055 19.2282 22.2055 20.5612 21.3834 21.3834C20.5612 22.2055 19.2283 22.2055 18.4061 21.3834L12 14.9773L5.59391 21.3834C4.77175 22.2055 3.43877 22.2055 2.61662 21.3834C1.79446 20.5612 1.79446 19.2282 2.61662 18.4061L9.02271 12L2.61662 5.59391C1.79446 4.77175 1.79446 3.43877 2.61662 2.61662Z"/>
</svg>
