<svg xmlns="http://www.w3.org/2000/svg" version="1.1" xmlns:xlink="http://www.w3.org/1999/xlink" xmlns:svgjs="http://svgjs.com/svgjs" viewBox="0 0 24 24" height="24" width="24">><g transform="matrix(1,0,0,1,0,0)"><path d="M14.3,12.179c-0.098-0.098-0.098-0.256,0-0.354c0,0,0,0,0,0l9.263-9.262c0.586-0.587,0.585-1.537-0.002-2.123 s-1.537-0.585-2.122,0.002L12.177,9.7c-0.098,0.098-0.256,0.098-0.354,0c0,0,0,0,0,0L2.561,0.442 C1.975-0.144,1.025-0.144,0.44,0.441s-0.586,1.536-0.001,2.122L9.7,11.825c0.098,0.098,0.098,0.256,0,0.354c0,0,0,0,0,0 l-9.261,9.263c-0.586,0.586-0.585,1.536,0,2.122s1.536,0.585,2.122,0l0,0l9.262-9.263c0.098-0.098,0.256-0.098,0.354,0c0,0,0,0,0,0 l9.262,9.263c0.586,0.586,1.536,0.586,2.122,0s0.586-1.536,0-2.122L14.3,12.179z" stroke="none" stroke-width="0" stroke-linecap="round" stroke-linejoin="round"></path></g></svg>