<svg xmlns="http://www.w3.org/2000/svg" version="1.1" xmlns:xlink="http://www.w3.org/1999/xlink" xmlns:svgjs="http://svgjs.com/svgjs" viewBox="0 0 24 24" height="24" width="24"><title>cog (From Streamline App : https://app.streamlineicons.com)</title><g transform="matrix(1,0,0,1,0,0)"><path d="M22.5,9.5h-1.862c-0.185-0.64-0.441-1.257-0.763-1.84l1.317-1.316c0.586-0.586,0.586-1.535,0.001-2.121 c0,0,0,0-0.001-0.001l-1.415-1.413c-0.586-0.586-1.535-0.586-2.121,0l-1.318,1.317c-0.582-0.322-1.199-0.578-1.838-0.763V1.5 C14.5,0.672,13.828,0,13,0h-2c-0.828,0-1.5,0.672-1.5,1.5v1.863C8.861,3.548,8.244,3.804,7.661,4.126L6.343,2.809 c-0.586-0.586-1.535-0.586-2.121,0L2.807,4.223C2.221,4.809,2.221,5.758,2.806,6.344c0,0,0,0,0.001,0.001l1.318,1.317 C3.803,8.244,3.547,8.861,3.362,9.5H1.5C0.672,9.5,0,10.172,0,11v2c0,0.828,0.672,1.5,1.5,1.5h1.862 c0.185,0.64,0.441,1.257,0.763,1.839l-1.319,1.319c-0.586,0.586-0.586,1.535,0,2.121l1.414,1.414c0.595,0.563,1.527,0.563,2.122,0 l1.318-1.317c0.583,0.322,1.2,0.578,1.84,0.764v1.86c0,0.828,0.672,1.5,1.5,1.5h2c0.828,0,1.5-0.672,1.5-1.5v-1.86 c0.639-0.185,1.256-0.441,1.839-0.763l1.318,1.317c0.586,0.586,1.535,0.586,2.121,0l1.414-1.414c0.586-0.586,0.586-1.535,0-2.121 l-1.317-1.317c0.322-0.583,0.578-1.2,0.763-1.84H22.5c0.828,0,1.5-0.672,1.5-1.5c0-0.001,0-0.001,0-0.002v-2 C24,10.172,23.328,9.5,22.5,9.5z M12,17c-2.761,0-5-2.239-5-5s2.239-5,5-5s5,2.239,5,5C16.997,14.76,14.76,16.997,12,17z" stroke="none" stroke-width="0" stroke-linecap="round" stroke-linejoin="round"></path></g></svg>