<svg width="24" height="24" viewBox="0 0 24 24" fill="none" xmlns="http://www.w3.org/2000/svg">
<path d="M18.75 6.75V5.25C18.75 4.85218 18.592 4.47064 18.3107 4.18934C18.0294 3.90804 17.6478 3.75 17.25 3.75H8.25V2.25C8.25 1.85218 8.09196 1.47064 7.81066 1.18934C7.52936 0.908035 7.14782 0.75 6.75 0.75H2.25C1.85218 0.75 1.47064 0.908035 1.18934 1.18934C0.908035 1.47064 0.75 1.85218 0.75 2.25V18.55" stroke="" stroke-width="1.5" stroke-linecap="round" stroke-linejoin="round"/>
<path d="M3.75 20.25V8.25C3.75 7.85218 3.90804 7.47064 4.18934 7.18934C4.47064 6.90804 4.85218 6.75 5.25 6.75H20.25C20.6478 6.75 21.0294 6.90804 21.3107 7.18934C21.592 7.47064 21.75 7.85218 21.75 8.25V9.75" stroke="" stroke-width="1.5" stroke-linecap="round" stroke-linejoin="round"/>
<path d="M6.75 9.75H23.25V23.25H6.75V9.75Z" stroke="" stroke-width="1.5" stroke-linecap="round" stroke-linejoin="round"/>
</svg>
