<svg viewBox="0 0 30 30" xmlns="http://www.w3.org/2000/svg"><g fill="none" stroke="" stroke-linecap="round" stroke-linejoin="round" stroke-width="1.5"><path d="M10.39 21.563H2.812a1.875 1.875 0 0 1-1.874-1.875v-15a1.875 1.875 0 0 1 1.875-1.875h16.875a1.875 1.875 0 0 1 1.875 1.874v3.75M.938 8.438h20.625M6.563 4.688V.938M15.938 4.688V.938M19.688 20.625a1.875 1.875 0 1 0 3.75 0 1.875 1.875 0 1 0-3.75 0Z" stroke-width="1.5"/><path d="m23.155 13.375.552 1.815a1.241 1.241 0 0 0 1.468.851l1.84-.426a1.674 1.674 0 0 1 1.594 2.772l-1.289 1.39a1.25 1.25 0 0 0 0 1.702l1.289 1.388a1.674 1.674 0 0 1-1.594 2.774l-1.84-.427a1.25 1.25 0 0 0-1.467.851l-.553 1.81a1.663 1.663 0 0 1-3.185 0l-.552-1.816a1.25 1.25 0 0 0-1.468-.852l-1.84.428a1.674 1.674 0 0 1-1.594-2.774l1.289-1.389a1.25 1.25 0 0 0 0-1.702l-1.289-1.389a1.674 1.674 0 0 1 1.594-2.772l1.84.426a1.241 1.241 0 0 0 1.468-.851l.552-1.815a1.663 1.663 0 0 1 3.185.006Z" stroke-width="1.5"/></g></svg>