<svg xmlns="http://www.w3.org/2000/svg" height="24" width="24"><path d="M.793.786a.997.997 0 0 0-.293.707v11.015a1 1 0 0 0 1 1h8a1 1 0 0 0 1-1v-11a1 1 0 0 0-1-1l-8-.015a.997.997 0 0 0-.707.293zM22.5.493l-8 .014a1 1 0 0 0-1 1v5a1 1 0 0 0 1 1h8a1 1 0 0 0 1-1V1.493a1 1 0 0 0-1-1zM10.207 23.214a.997.997 0 0 0 .293-.707v-5a1 1 0 0 0-1-1h-8a1 1 0 0 0-1 1v4.985a1 1 0 0 0 1 1l8 .014c.265 0 .519-.105.707-.292zM22.5 10.508h-8a1 1 0 0 0-1 1v11a1 1 0 0 0 1 1l8-.014a1 1 0 0 0 1-1V11.508a1 1 0 0 0-1-1z"/></svg>