<svg width="24" height="24" viewBox="0 0 24 24" fill="none" xmlns="http://www.w3.org/2000/svg">
<path fill-rule="evenodd" clip-rule="evenodd" d="M3.5 15.5H9.5C10.6046 15.5 11.5 16.3954 11.5 17.5V20.5C11.5 21.6046 10.6046 22.5 9.5 22.5H3.5C2.39543 22.5 1.5 21.6046 1.5 20.5V17.5C1.5 16.3954 2.39543 15.5 3.5 15.5ZM3.5 17C3.22386 17 3 17.2239 3 17.5V20.5C3 20.7761 3.22386 21 3.5 21H9.5C9.77614 21 10 20.7761 10 20.5V17.5C10 17.2239 9.77614 17 9.5 17H3.5Z"/>
<path fill-rule="evenodd" clip-rule="evenodd" d="M20.5 22.5H14.5C13.3954 22.5 12.5 21.6046 12.5 20.5L12.5 11.5C12.5 10.3954 13.3954 9.5 14.5 9.5L20.5 9.5C21.6046 9.5 22.5 10.3954 22.5 11.5L22.5 20.5C22.5 21.6046 21.6046 22.5 20.5 22.5ZM20.5 21C20.7761 21 21 20.7761 21 20.5L21 11.5C21 11.2239 20.7761 11 20.5 11L14.5 11C14.2239 11 14 11.2239 14 11.5L14 20.5C14 20.7761 14.2239 21 14.5 21H20.5Z"/>
<path fill-rule="evenodd" clip-rule="evenodd" d="M20.5 8.5L14.5 8.5C13.3954 8.5 12.5 7.60457 12.5 6.5V3.5C12.5 2.39543 13.3954 1.5 14.5 1.5L20.5 1.5C21.6046 1.5 22.5 2.39543 22.5 3.5V6.5C22.5 7.60457 21.6046 8.5 20.5 8.5ZM20.5 7C20.7761 7 21 6.77614 21 6.5V3.5C21 3.22386 20.7761 3 20.5 3L14.5 3C14.2239 3 14 3.22386 14 3.5V6.5C14 6.77614 14.2239 7 14.5 7L20.5 7Z"/>
<path fill-rule="evenodd" clip-rule="evenodd" d="M3.5 1.5H9.5C10.6046 1.5 11.5 2.39543 11.5 3.5V12.5C11.5 13.6046 10.6046 14.5 9.5 14.5H3.5C2.39543 14.5 1.5 13.6046 1.5 12.5V3.5C1.5 2.39543 2.39543 1.5 3.5 1.5ZM3.5 3C3.22386 3 3 3.22386 3 3.5V12.5C3 12.7761 3.22386 13 3.5 13H9.5C9.77614 13 10 12.7761 10 12.5V3.5C10 3.22386 9.77614 3 9.5 3H3.5Z"/>
</svg>
