<svg viewBox="0 0 32 32" xmlns="http://www.w3.org/2000/svg"><g fill="none" stroke="" stroke-linecap="round" stroke-linejoin="round" stroke-width="1.5"><path d="M16 6A15.115 15.115 0 0 0 1 21.23V24a2 2 0 0 0 2 2h26a2 2 0 0 0 2-2v-2.773A15.115 15.115 0 0 0 16 6Z" stroke-width="1.9999949999999997"/><path d="M12 26v-1a4 4 0 0 1 8 0v1M19 12.004l-3 9M6.5 20.004h0M6.5 20a.5.5 0 1 0 .5.5.5.5 0 0 0-.5-.5M8.5 15.004h0M8.5 15.004a.5.5 0 1 0 .5.5.5.5 0 0 0-.5-.5M25.5 20.004h0M25.5 20a.5.5 0 1 0 .5.5.5.5 0 0 0-.5-.5M23.5 15.004h0M23.5 15.004a.5.5 0 1 0 .5.5.5.5 0 0 0-.5-.5M12.5 11.004h0M12.5 11.004a.5.5 0 1 0 .5.5.5.5 0 0 0-.5-.5" stroke-width="1.9999949999999997"/></g></svg>