<svg xmlns="http://www.w3.org/2000/svg" version="1.1" xmlns:xlink="http://www.w3.org/1999/xlink" xmlns:svgjs="http://svgjs.com/svgjs" viewBox="0 0 24 24" width="24" height="24"><g transform="matrix(1,0,0,1,0,0)"><path d="M3.000 3.750 A3.000 3.000 0 1 0 9.000 3.750 A3.000 3.000 0 1 0 3.000 3.750 Z" fill="none" stroke="" stroke-linecap="round" stroke-linejoin="round" stroke-width="1"></path><path d="M9.674,9.75A5.25,5.25,0,0,0,.75,13.5v2.25H3l.75,7.5h4.5l.521-5.216" fill="none" stroke="" stroke-linecap="round" stroke-linejoin="round" stroke-width="1"></path><path d="M15.750 16.500 A1.500 1.500 0 1 0 18.750 16.500 A1.500 1.500 0 1 0 15.750 16.500 Z" fill="none" stroke="" stroke-linecap="round" stroke-linejoin="round" stroke-width="1"></path><path d="M18.524,10.7l.442,1.453a.993.993,0,0,0,1.173.681l1.473-.342a1.339,1.339,0,0,1,1.274,2.219l-1.03,1.111a1,1,0,0,0,0,1.362l1.03,1.111a1.338,1.338,0,0,1-1.274,2.218l-1.473-.341a.992.992,0,0,0-1.173.681L18.524,22.3a1.331,1.331,0,0,1-2.549,0l-.442-1.452a.992.992,0,0,0-1.173-.681l-1.473.341a1.338,1.338,0,0,1-1.274-2.218l1.03-1.111a1,1,0,0,0,0-1.362l-1.03-1.111a1.339,1.339,0,0,1,1.274-2.219l1.473.342a.993.993,0,0,0,1.173-.681l.442-1.453A1.331,1.331,0,0,1,18.524,10.7Z" fill="none" stroke="" stroke-linecap="round" stroke-linejoin="round" stroke-width="1"></path></g></svg>