<svg width="24" height="24" viewBox="0 0 24 24" fill="none" xmlns="http://www.w3.org/2000/svg">
<path fill-rule="evenodd" clip-rule="evenodd" d="M4.94526 2.94676C4.86886 3.02268 4.75 3.22333 4.75 3.81818V20C4.75 20.3844 4.84559 20.5349 4.90533 20.5947C4.96507 20.6544 5.11561 20.75 5.5 20.75H19C19.3844 20.75 19.5349 20.6544 19.5947 20.5947C19.6544 20.5349 19.75 20.3844 19.75 20V6.48324C19.75 6.48319 19.75 6.4833 19.75 6.48324C19.7499 6.28131 19.6676 6.08305 19.5139 5.93354L16.4836 2.98824C16.3291 2.8381 16.1151 2.75009 15.8877 2.75C15.8876 2.75 15.8877 2.75 15.8877 2.75H5.83273C5.22886 2.75 5.02294 2.86956 4.94526 2.94676ZM3.88792 1.88279C4.39343 1.38044 5.10387 1.25 5.83273 1.25H15.8877C16.4992 1.25013 17.0899 1.486 17.5288 1.91228L20.5595 4.85809C20.9988 5.28535 21.2499 5.86942 21.25 6.48291V20C21.25 20.6156 21.0956 21.2151 20.6553 21.6553C20.2151 22.0956 19.6156 22.25 19 22.25H5.5C4.88439 22.25 4.28493 22.0956 3.84467 21.6553C3.40441 21.2151 3.25 20.6156 3.25 20V3.81818C3.25 3.09485 3.38114 2.38641 3.88792 1.88279ZM6.25 8C6.25 7.58579 6.58579 7.25 7 7.25H17.5C17.9142 7.25 18.25 7.58579 18.25 8C18.25 8.41421 17.9142 8.75 17.5 8.75H7C6.58579 8.75 6.25 8.41421 6.25 8ZM6.25 12.5C6.25 12.0858 6.58579 11.75 7 11.75H14C14.4142 11.75 14.75 12.0858 14.75 12.5C14.75 12.9142 14.4142 13.25 14 13.25H7C6.58579 13.25 6.25 12.9142 6.25 12.5ZM6.25 17C6.25 16.5858 6.58579 16.25 7 16.25H14C14.4142 16.25 14.75 16.5858 14.75 17C14.75 17.4142 14.4142 17.75 14 17.75H7C6.58579 17.75 6.25 17.4142 6.25 17Z" />
</svg>
