<svg xmlns="http://www.w3.org/2000/svg" viewBox="0 0 32 32"><g transform="scale(1.33333)"><path d="M15.75 23.24a3 3 0 0 0-3-3H9a3 3 0 0 0-3-3H.75v6ZM6 20.24h3M16.5 17.74H21a.76.76 0 0 0 .75-.75v-6.75M8.25 10.24v4" style="fill:none;stroke:;stroke-linecap:round;stroke-linejoin:round;stroke-width:1.5px"/><rect x="6.75" y="5.99" width="16.5" height="4.25" rx=".75" style="fill:none;stroke:;stroke-linecap:round;stroke-linejoin:round;stroke-width:1.5px"/><path style="fill:none;stroke:;stroke-linecap:round;stroke-linejoin:round;stroke-width:1.5px" d="M15 15.24V5.99M19.27 3.87A11.84 11.84 0 0 1 15 6a11.93 11.93 0 0 1 2.12-4.24C18.46.43 19.21.63 19.8 1.22s.78 1.33-.53 2.65ZM10.73 3.87A11.84 11.84 0 0 0 15 6a11.93 11.93 0 0 0-2.12-4.24C11.54.43 10.79.63 10.2 1.22s-.78 1.33.53 2.65Z"/></g></svg>