<svg viewBox="0 0 32 32" xmlns="http://www.w3.org/2000/svg"><g transform="matrix(1.3333333333333333,0,0,1.3333333333333333,0,0)"><path d="M0.759 14.25L0.759 23.25" fill="none" stroke="" stroke-linecap="round" stroke-linejoin="round" stroke-width="1.5"></path><path d="M.759,21.75h15a3,3,0,0,0-3-3H9.009a3,3,0,0,0-3-3H.759" fill="none" stroke="" stroke-linecap="round" stroke-linejoin="round" stroke-width="1.5"></path><path d="M6.009 18.75L9.009 18.75" fill="none" stroke="" stroke-linecap="round" stroke-linejoin="round" stroke-width="1.5"></path><path d="M16.509 3.750 A3.000 3.000 0 1 0 22.509 3.750 A3.000 3.000 0 1 0 16.509 3.750 Z" fill="none" stroke="" stroke-linecap="round" stroke-linejoin="round" stroke-width="1.5"></path><path d="M23.259,12a3.75,3.75,0,0,0-6-3" fill="none" stroke="" stroke-linecap="round" stroke-linejoin="round" stroke-width="1.5"></path><path d="M3.009 3.750 A3.000 3.000 0 1 0 9.009 3.750 A3.000 3.000 0 1 0 3.009 3.750 Z" fill="none" stroke="" stroke-linecap="round" stroke-linejoin="round" stroke-width="1.5"></path><path d="M2.259,12a3.751,3.751,0,0,1,6-3" fill="none" stroke="" stroke-linecap="round" stroke-linejoin="round" stroke-width="1.5"></path><path d="M10.509 7.500 A2.250 2.250 0 1 0 15.009 7.500 A2.250 2.250 0 1 0 10.509 7.500 Z" fill="none" stroke="" stroke-linecap="round" stroke-linejoin="round" stroke-width="1.5"></path><path d="M12.759,11.25A3.749,3.749,0,0,0,9.322,13.5" fill="none" stroke="" stroke-linecap="round" stroke-linejoin="round" stroke-width="1.5"></path><path d="M12.759,11.25A3.75,3.75,0,0,1,16.509,15" fill="none" stroke="" stroke-linecap="round" stroke-linejoin="round" stroke-width="1.5"></path></g></svg>