<svg xmlns="http://www.w3.org/2000/svg" height="24" width="24"><path fill="" d="M22 11.49h-3.446a.25.25 0 0 0-.177.073l-5.191 5.19a1.99 1.99 0 0 1-.67.442L8.979 18.61a2 2 0 0 1-2.6-2.6l1.414-3.535c.101-.251.251-.48.443-.671l.314-.314H2a2 2 0 0 0-2 2v6.5a2 2 0 0 0 2 2h20a2 2 0 0 0 2-2v-6.5a2 2 0 0 0-2-2zM9.3 12.865a.495.495 0 0 0-.11.168l-1.418 3.535a.5.5 0 0 0 .65.649l3.536-1.417a.468.468 0 0 0 .167-.11l7.814-7.814a.5.5 0 0 0 0-.707L17.817 5.05a.516.516 0 0 0-.707 0L9.3 12.865zm9.225-8.522l2.121 2.121a.5.5 0 0 0 .354.147.496.496 0 0 0 .3-.108.368.368 0 0 0 .058-.039L22.415 5.4a2 2 0 0 0 0-2.828 2.05 2.05 0 0 0-2.829 0l-1.061 1.06a.523.523 0 0 0-.041.063.495.495 0 0 0-.105.291.502.502 0 0 0 .146.357z"/></svg>