<svg xmlns="http://www.w3.org/2000/svg" version="1.1" xmlns:xlink="http://www.w3.org/1999/xlink" xmlns:svgjs="http://svgjs.com/svgjs" viewBox="0 0 24 24" height="24" width="24"><title>pencil write 3 (From Streamline App : https://app.streamlineicons.com)</title><g transform="matrix(1,0,0,1,0,0)"><path d="M22,11.49h-3.446c-0.066,0-0.13,0.026-0.177,0.073l-5.191,5.19c-0.191,0.191-0.419,0.342-0.67,0.442L8.979,18.61 c-1.025,0.41-2.19-0.088-2.6-1.114c-0.191-0.477-0.191-1.009,0-1.486l1.414-3.535c0.101-0.251,0.251-0.48,0.443-0.671L8.55,11.49H2 c-1.105,0-2,0.895-2,2v6.5c0,1.105,0.895,2,2,2h20c1.105,0,2-0.895,2-2v-6.5C24,12.385,23.105,11.49,22,11.49L22,11.49z M9.3,12.865c-0.048,0.048-0.085,0.105-0.11,0.168l-1.418,3.535c-0.074,0.186-0.03,0.398,0.111,0.539 c0.143,0.139,0.353,0.182,0.539,0.11l3.536-1.417c0.063-0.024,0.12-0.062,0.167-0.11l7.814-7.814 c0.094-0.094,0.147-0.221,0.147-0.353c0-0.133-0.053-0.26-0.147-0.354L17.817,5.05c-0.199-0.187-0.508-0.187-0.707,0L9.3,12.865z M18.525,4.343l2.121,2.121C20.74,6.558,20.867,6.611,21,6.611c0.109-0.002,0.215-0.04,0.3-0.108 c0.02-0.011,0.04-0.024,0.058-0.039L22.415,5.4c0.781-0.781,0.781-2.047,0-2.828c-0.792-0.755-2.037-0.755-2.829,0l-1.061,1.06 c-0.015,0.02-0.029,0.041-0.041,0.063c-0.065,0.083-0.102,0.185-0.105,0.291C18.378,4.12,18.431,4.248,18.525,4.343z" stroke="none" stroke-width="0" stroke-linecap="round" stroke-linejoin="round"></path></g></svg>