<svg width="24" height="23" fill="none" xmlns="http://www.w3.org/2000/svg">
  <path d="M8.563 15.438h-5.5c-.76 0-1.376-.616-1.376-1.376v-11c0-.759.616-1.374 1.375-1.374h16.5c.76 0 1.375.615 1.375 1.375v8.25" stroke="" stroke-width="1.5" stroke-linecap="round" stroke-linejoin="round"/>
  <path d="M2.025 2.163L9.46 7.847a2.75 2.75 0 0 0 3.704 0l7.434-5.684" stroke="" stroke-width="1.5" stroke-linecap="round" stroke-linejoin="round"/>
  <path clip-rule="evenodd" d="M16.813 12l5.5 4.125-5.5 4.125v-2.063h-4.125c-.76 0-1.376-.615-1.376-1.375v-1.375c0-.759.616-1.374 1.376-1.374h4.124V12z" stroke="" stroke-width="1.5" stroke-linecap="round" stroke-linejoin="round"/>
</svg>