<svg xmlns="http://www.w3.org/2000/svg" version="1.1" xmlns:xlink="http://www.w3.org/1999/xlink" xmlns:svgjs="http://svgjs.com/svgjs" viewBox="0 0 24 24" height="24" width="24"><title>email action lock (From Streamline App : https://app.streamlineicons.com)</title><g transform="matrix(1,0,0,1,0,0)"><path d="M19,9.25c0.568,0,1.132,0.099,1.666,0.291c0.13,0.046,0.273-0.021,0.319-0.151C20.995,9.362,21,9.334,21,9.305V1.75 c0-0.065-0.04-0.123-0.1-0.147c-0.059-0.024-0.127-0.011-0.173,0.034L12.2,10.164c-0.94,0.937-2.46,0.937-3.4,0L0.271,1.637 C0.209,1.575,0.108,1.576,0.046,1.638C0.017,1.668,0,1.708,0,1.75v10.5c-0.001,0.966,0.782,1.749,1.748,1.75 c0.001,0,0.001,0,0.002,0h12.043c0.129,0,0.237-0.098,0.249-0.226C14.283,11.214,16.429,9.256,19,9.25z M9.726,9.236 c0.427,0.427,1.12,0.427,1.547,0l8.475-8.475c0.171-0.171,0.171-0.447,0-0.618c-0.067-0.067-0.154-0.111-0.248-0.124 C19.417,0.006,19.333,0,19.249,0h-17.5C1.666,0,1.582,0.006,1.5,0.019c-0.165,0.025-0.302,0.141-0.352,0.3 C1.098,0.474,1.137,0.644,1.25,0.761L9.726,9.236z M22.5,15.5v-1.25c0-1.933-1.567-3.5-3.5-3.5s-3.5,1.567-3.5,3.5v1.25 c-0.828,0-1.5,0.672-1.5,1.5v5.5c0,0.828,0.672,1.5,1.5,1.5h7c0.828,0,1.5-0.672,1.5-1.5V17C24,16.172,23.328,15.5,22.5,15.5z M19,12.75c0.828,0,1.5,0.672,1.5,1.5v1.25h-3v-1.25C17.5,13.422,18.172,12.75,19,12.75z M20,20.25c0,0.552-0.448,1-1,1 s-1-0.448-1-1s0.448-1,1-1S20,19.698,20,20.25z" stroke="none" stroke-width="0" stroke-linecap="round" stroke-linejoin="round"></path></g></svg>