<svg xmlns="http://www.w3.org/2000/svg" version="1.1" xmlns:xlink="http://www.w3.org/1999/xlink" xmlns:svgjs="http://svgjs.com/svgjs" viewBox="0 0 24 24" height="24" width="24"><title>view 1 (From Streamline App : https://app.streamlineicons.com)</title><g transform="matrix(1,0,0,1,0,0)"><path d="M23.432,10.524C20.787,7.614,16.4,4.538,12,4.6C7.6,4.537,3.213,7.615,0.568,10.524c-0.751,0.839-0.751,2.109,0,2.948 C3.182,16.351,7.507,19.4,11.839,19.4h0.308c4.347,0,8.671-3.049,11.288-5.929C24.185,12.631,24.183,11.362,23.432,10.524z M7.4,12 c0-2.541,2.059-4.6,4.6-4.6s4.6,2.059,4.6,4.6s-2.059,4.6-4.6,4.6S7.4,14.541,7.4,12L7.4,12z M12,10c1.105,0,2,0.895,2,2 s-0.895,2-2,2s-2-0.895-2-2S10.895,10,12,10z" stroke="none" stroke-width="0" stroke-linecap="round" stroke-linejoin="round"></path></g></svg>