<svg viewBox="0 0 32 32" xmlns="http://www.w3.org/2000/svg"><g transform="matrix(1.3333333333333333,0,0,1.3333333333333333,0,0)"><path d="M.75,18.75c3.75,0,2.25.75,12,.75,3,0,6-.75,6.75-3.75" fill="none" stroke="" stroke-linecap="round" stroke-linejoin="round" stroke-width="1.5"></path><path d="M.75,11.143H3.132a.964.964,0,0,0,.747-.354L7.929,6.8l3.829.766c.546.109.905.545.667,1.5a.963.963,0,0,1-.8.721L9.75,10.06a.842.842,0,0,0-.75.955v2.557a1.4,1.4,0,0,1-.44.753L6.482,15.964" fill="none" stroke="" stroke-linecap="round" stroke-linejoin="round" stroke-width="1.5"></path><path d="M12,15.75h9.75a1.5,1.5,0,0,0,1.5-1.5V6a1.5,1.5,0,0,0-1.5-1.5H10.5A1.5,1.5,0,0,0,9,6V7.018" fill="none" stroke="" stroke-linecap="round" stroke-linejoin="round" stroke-width="1.5"></path><path d="M12.492 8.25L23.25 8.25" fill="none" stroke="" stroke-linecap="round" stroke-linejoin="round" stroke-width="1.5"></path><path d="M20.25 11.25L18.75 11.25" fill="none" stroke="" stroke-linecap="round" stroke-linejoin="round" stroke-width="1.5"></path></g></svg>