<svg width="24" height="24" viewBox="0 0 24 24" fill="none" xmlns="http://www.w3.org/2000/svg">
<path d="M22.9028 1.506C22.8266 1.35393 22.7096 1.22606 22.5649 1.1367C22.4202 1.04734 22.2534 1.00001 22.0833 1H1.91667C1.74643 1 1.57956 1.04741 1.43475 1.1369C1.28994 1.2264 1.17291 1.35446 1.09678 1.50672C1.02064 1.65898 0.988416 1.82944 1.0037 1.99899C1.01899 2.16854 1.08119 2.33048 1.18333 2.46667L9.25 13.3044V21.1667C9.2536 21.6518 9.44791 22.116 9.79095 22.4591C10.134 22.8021 10.5982 22.9964 11.0833 23C11.4801 23.0005 11.8662 22.8718 12.1833 22.6333L14.0167 21.2583C14.244 21.0872 14.4285 20.8657 14.5558 20.6112C14.683 20.3567 14.7495 20.0762 14.75 19.7917V13.3044L22.8167 2.46667C22.9189 2.33037 22.9811 2.16827 22.9963 1.99858C23.0115 1.82889 22.9792 1.65832 22.9028 1.506ZM5.96558 3.01667L9.57633 7.82917C9.63583 7.9085 9.668 8.005 9.668 8.10417V9.25C9.668 9.3462 9.63773 9.43995 9.58148 9.51799C9.52524 9.59603 9.44586 9.65439 9.3546 9.68481C9.26334 9.71523 9.16483 9.71617 9.073 9.68748C8.98118 9.6588 8.90072 9.60196 8.843 9.525L4.31833 3.56667C4.26726 3.49857 4.23616 3.4176 4.22852 3.33283C4.22087 3.24805 4.23699 3.16283 4.27505 3.08669C4.31312 3.01056 4.37163 2.94653 4.44404 2.90178C4.51645 2.85704 4.59988 2.83333 4.685 2.83333H5.60167C5.67236 2.83376 5.74199 2.85053 5.80512 2.88233C5.86825 2.91414 5.92317 2.96011 5.96558 3.01667Z"/>
</svg>
