<svg xmlns="http://www.w3.org/2000/svg" viewBox="0 0 32 32"><path d="M18.63 19.75H5.37a.75.75 0 0 1-.74-.86L6.75 4.75h10.5l2.12 14.14a.75.75 0 0 1-.74.86ZM4.5 23.25h15" style="fill:none;stroke:;stroke-linecap:round;stroke-linejoin:round;stroke-width:1.5px" transform="scale(1.33333)"/><path d="M13.5 9.25h-2a1.34 1.34 0 0 0-.5 2.59l2.06.82a1.34 1.34 0 0 1-.5 2.59h-2M12 9.25v-1.5M12 16.75v-1.5M2.75 8.25H1.5a.76.76 0 0 1-.75-.75v-6A.76.76 0 0 1 1.5.75h21a.76.76 0 0 1 .75.75v6a.76.76 0 0 1-.75.75h-1.25" style="fill:none;stroke:;stroke-linecap:round;stroke-linejoin:round;stroke-width:1.5px" transform="scale(1.33333)"/></svg>