<svg xmlns="http://www.w3.org/2000/svg" version="1.1" xmlns:xlink="http://www.w3.org/1999/xlink" xmlns:svgjs="http://svgjs.com/svgjs" viewBox="0 0 140 140" width="140" height="140"><g transform="matrix(5.833333333333333,0,0,5.833333333333333,0,0)"><path d="M0.75 14.25L0.75 23.25" fill="none" stroke="" stroke-linecap="round" stroke-linejoin="round" stroke-width="1.5"></path><path d="M.75,21.75h16.5a3,3,0,0,0-3-3H10.5a3,3,0,0,0-3-3H.75" fill="none" stroke="" stroke-linecap="round" stroke-linejoin="round" stroke-width="1.5"></path><path d="M6.75 18.75L10.5 18.75" fill="none" stroke="" stroke-linecap="round" stroke-linejoin="round" stroke-width="1.5"></path><path d="M18.75,3.75H16.717a1.342,1.342,0,0,0-.5,2.587l2.064.826a1.342,1.342,0,0,1-.5,2.587H15.75" fill="none" stroke="" stroke-linecap="round" stroke-linejoin="round" stroke-width="1.5"></path><path d="M17.25 3.75L17.25 3" fill="none" stroke="" stroke-linecap="round" stroke-linejoin="round" stroke-width="1.5"></path><path d="M17.25 10.5L17.25 9.75" fill="none" stroke="" stroke-linecap="round" stroke-linejoin="round" stroke-width="1.5"></path><path d="M11.250 6.750 A6.000 6.000 0 1 0 23.250 6.750 A6.000 6.000 0 1 0 11.250 6.750 Z" fill="none" stroke="" stroke-linecap="round" stroke-linejoin="round" stroke-width="1.5"></path></g></svg>
