<svg xmlns="http://www.w3.org/2000/svg" viewBox="0 0 32 32"><path style="fill:none;stroke:;stroke-linecap:round;stroke-linejoin:round;stroke-width:1.5px" d="M.75 14.25v9M.75 21.75h16.5a3 3 0 0 0-3-3H10.5a3 3 0 0 0-3-3H.75M6.75 18.75h3.75" transform="scale(1.33333)"/><g transform="scale(1.33333)"><path d="M18.1 4.48h-2.17a1.39 1.39 0 0 0-1.43 1.35 1.35 1.35 0 0 0 .9 1.25l2.2.84a1.35 1.35 0 0 1 .9 1.25 1.39 1.39 0 0 1-1.43 1.35H14.9M16.5 4.48V3.25M16.5 11.75v-1.23" style="fill:none;stroke:;stroke-linecap:round;stroke-linejoin:round;stroke-width:1.5px"/><circle cx="16.5" cy="7.5" r="6.75" style="fill:none;stroke:;stroke-linecap:round;stroke-linejoin:round;stroke-width:1.5px"/></g></svg>