<svg width="24" height="23" fill="none" xmlns="http://www.w3.org/2000/svg">
  <path d="M21.75 8.5v-3a1.5 1.5 0 0 0-1.5-1.5h-12V2.5A1.5 1.5 0 0 0 6.75 1h-4.5a1.5 1.5 0 0 0-1.5 1.5v17.8a1.7 1.7 0 0 0 3.336.438L6.437 9.584A1.5 1.5 0 0 1 7.879 8.5H21.75a1.5 1.5 0 0 1 1.45 1.886l-2.2 10.5A1.5 1.5 0 0 1 19.55 22H2.447" stroke="" stroke-width="1.5" stroke-linecap="round" stroke-linejoin="round"/>
  <path d="M9.75 11.875a.375.375 0 1 1 0 .75.375.375 0 0 1 0-.75M18.379 19l-2.911-4.365a.75.75 0 0 0-1.238-.015l-2 2.851-1.23-.989a.75.75 0 0 0-1.092.17L8.34 19" stroke="" stroke-width="1.5" stroke-linecap="round" stroke-linejoin="round"/>
</svg>