<svg width="24" height="24" viewBox="0 0 24 24" fill="none" xmlns="http://www.w3.org/2000/svg">
<path fill-rule="evenodd" clip-rule="evenodd" d="M5.93799 2.43401C5.73908 2.43401 5.54831 2.51302 5.40766 2.65368C5.26701 2.79433 5.18799 2.98509 5.18799 3.18401V6.87415L10.1097 11.7956L10.2932 11.5206C10.4037 11.3551 10.5475 11.2142 10.7152 11.1071C10.8829 11 11.0711 10.9288 11.2678 10.8982C11.4644 10.8675 11.6653 10.878 11.8577 10.929C12.0501 10.98 12.2298 11.0704 12.3855 11.1945L12.3867 11.1955L12.8953 11.6026L14.2638 9.64744L14.2648 9.64597C14.3981 9.45441 14.576 9.29818 14.7832 9.1908C14.991 9.08314 15.2219 9.02784 15.4558 9.02969C15.6898 9.03155 15.9198 9.09051 16.1258 9.20144C16.3318 9.31238 16.5076 9.47194 16.6379 9.66626L16.6401 9.66948L20.188 15.0195L19.563 15.434V16.184H14.4984L17.1235 18.809H20.813C21.0119 18.809 21.2027 18.73 21.3433 18.5893C21.484 18.4487 21.563 18.2579 21.563 18.059V3.18401C21.563 2.98509 21.484 2.79433 21.3433 2.65368C21.2027 2.51302 21.0119 2.43401 20.813 2.43401H5.93799ZM12.9983 14.684H18.1657L15.443 10.5785L13.6654 13.1181C13.5466 13.2879 13.3627 13.401 13.1575 13.4304C12.9523 13.4598 12.7441 13.403 12.5823 13.2735L11.5032 12.4097L11.1913 12.8771L12.9983 14.684ZM10.3422 14.1493L10.8769 14.684H9.98529L10.3422 14.1493ZM9.26059 13.0678L7.95919 15.0176C7.8056 15.2478 7.79118 15.5438 7.92166 15.7877C8.05214 16.0317 8.30634 16.184 8.58301 16.184H12.377L15.0021 18.809H5.93799C5.73908 18.809 5.54831 18.73 5.40766 18.5893C5.26701 18.4487 5.18799 18.2579 5.18799 18.059V8.99541L9.26059 13.0678ZM3.68799 3.18401V5.37423L2.21733 3.90365C2.00283 3.68916 1.68024 3.625 1.39999 3.74109C1.11974 3.85718 0.937012 4.13065 0.937012 4.434V20.934C0.937012 22.1076 1.88915 23.059 3.06301 23.059H19.563C19.8664 23.059 20.1398 22.8763 20.2559 22.596C20.372 22.3157 20.3078 21.9931 20.0933 21.7787L18.6236 20.309H20.813C21.4097 20.309 21.982 20.072 22.404 19.65C22.8259 19.228 23.063 18.6557 23.063 18.059V3.18401C23.063 2.58727 22.8259 2.01497 22.404 1.59302C21.982 1.17106 21.4097 0.934006 20.813 0.934006H5.93799C5.34125 0.934006 4.76895 1.17106 4.347 1.59302C3.92504 2.01497 3.68799 2.58727 3.68799 3.18401ZM17.7523 21.559L16.5022 20.309H5.93799C5.34125 20.309 4.76895 20.072 4.347 19.65C3.92504 19.228 3.68799 18.6557 3.68799 18.059V7.49549L2.43701 6.24459V20.934C2.43701 21.2784 2.71687 21.559 3.06301 21.559H17.7523ZM8.9071 6.434C9.19711 6.43442 9.47509 6.54998 9.67993 6.75527C9.88477 6.96056 9.99972 7.23878 9.99951 7.52879C9.9993 7.81881 9.88394 8.09686 9.6788 8.30185C9.47366 8.50684 9.19552 8.622 8.90551 8.622C8.6155 8.622 8.33736 8.50685 8.13222 8.30185C7.92708 8.09686 7.81172 7.8188 7.81151 7.52879C7.8113 7.23879 7.92625 6.96056 8.13109 6.75527C8.33594 6.54998 8.61391 6.43442 8.90392 6.434H8.9071Z"/>
</svg>
