<svg viewBox="0 0 32 32" xmlns="http://www.w3.org/2000/svg"><g fill="none" stroke="" stroke-linecap="round" stroke-linejoin="round" stroke-width="1.5"><path d="M18.524 17h9l.628 1.056a1.288 1.288 0 0 1 0 1.428l-.4.596a1.287 1.287 0 0 0-.08 1.29l.667 1.333a1.288 1.288 0 0 1 0 1.152l-.762 1.521a1.29 1.29 0 0 0-.069.983l.223.666a1.284 1.284 0 0 1-.311 1.318L25.524 30h-9.027a3.855 3.855 0 0 0-1.433.276L12.531 31M3.524 23.276l4.323-1.621a2.58 2.58 0 0 0 1.289-1.067l2.78-6.43a3.859 3.859 0 0 1 1.147-1.189l.968-.646" stroke-width="1.9999949999999997"/><path d="M14.595 16.273 12.533 1.831A.725.725 0 0 1 13.252 1h10.07" stroke-width="1.9999949999999997"/><path d="M18.883 17 17.755 5.788a.667.667 0 0 1 .666-.737h9.2a.667.667 0 0 1 .667.769L26.611 17" stroke-width="1.9999949999999997"/><path d="M22.784 11.495a.5.5 0 1 1-.5.505.5.5 0 0 1 .5-.5" stroke-width="1.9999949999999997"/></g></svg>