<svg xmlns="http://www.w3.org/2000/svg" version="1.1" xmlns:xlink="http://www.w3.org/1999/xlink" xmlns:svgjs="http://svgjs.com/svgjs" viewBox="0 0 24 24" height="24" width="24"><title>lock 6 (From Streamline App : https://app.streamlineicons.com)</title><g transform="matrix(1,0,0,1,0,0)"><path d="M18.75,10.063V6.748c0-3.728-3.022-6.75-6.75-6.75S5.25,3.02,5.25,6.748v3.315C3.57,10.906,2.507,12.621,2.5,14.5V19 c0.003,2.76,2.24,4.997,5,5h9c2.76-0.003,4.997-2.24,5-5v-4.5C21.493,12.621,20.43,10.906,18.75,10.063z M14,16.452 c0,1.105-0.895,2-2,2s-2-0.895-2-2s0.895-2,2-2S14,15.347,14,16.452z M12,2.5c2.346,0.003,4.247,1.903,4.25,4.249V9 c0,0.276-0.224,0.5-0.5,0.5h-7.5c-0.276,0-0.5-0.224-0.5-0.5V6.748C7.754,4.403,9.655,2.503,12,2.5z" stroke="none" stroke-width="0" stroke-linecap="round" stroke-linejoin="round"></path></g></svg>