<?xml version="1.0" encoding="utf-8"?>
<!-- Generator: Adobe Illustrator 23.0.3, SVG Export Plug-In . SVG Version: 6.00 Build 0)  -->
<svg version="1.1" id="Layer_1" xmlns:svgjs="http://svgjs.com/svgjs"
	 xmlns="http://www.w3.org/2000/svg" xmlns:xlink="http://www.w3.org/1999/xlink" x="0px" y="0px" viewBox="0 0 24 24"
	 style="enable-background:new 0 0 24 24;" xml:space="preserve">
<title>lock 1 (From Streamline App : https://app.streamlineicons.com)</title>
<path d="M19.5,9.5h-0.8V6.8C18.8,3,15.7,0,12,0S5.3,3,5.3,6.8v2.8H4.5c-1.1,0-2,0.9-2,2V22c0,1.1,0.9,2,2,2h15c1.1,0,2-0.9,2-2V11.5
	C21.5,10.4,20.6,9.5,19.5,9.5z M12,18.5c-1.1,0-2-0.9-2-2c0-1.1,0.9-2,2-2s2,0.9,2,2C14,17.6,13.1,18.5,12,18.5z M16.3,9
	c0,0.3-0.2,0.5-0.5,0.5H8.3C8,9.5,7.8,9.3,7.8,9V6.8c0-2.3,1.9-4.3,4.3-4.3s4.3,1.9,4.3,4.3V9z"/>
</svg>
