<svg width="22" height="24" fill="none" xmlns="http://www.w3.org/2000/svg">
  <path d="M10.313 14.073h4.812M10.313 18.198h4.812M7.563 13.729a.344.344 0 1 1 0 .687.344.344 0 0 1 0-.687M10.313 9.948h4.812M7.563 9.604a.344.344 0 1 1 0 .687.344.344 0 0 1 0-.687M7.563 17.854a.344.344 0 1 1 0 .687.344.344 0 0 1 0-.687" stroke="" stroke-width="1.5" stroke-linecap="round" stroke-linejoin="round"/>
  <path clip-rule="evenodd" d="M14.438 5.135h3.437c.76 0 1.375.616 1.375 1.375v14.438c0 .759-.616 1.375-1.375 1.375H4.125c-.76 0-1.375-.616-1.375-1.375V6.51c0-.76.616-1.375 1.375-1.375h3.438a3.437 3.437 0 1 1 6.875 0z" stroke="" stroke-width="1.5" stroke-linecap="round" stroke-linejoin="round"/>
  <path d="M11 4.448a.344.344 0 1 1 0 .687.344.344 0 0 1 0-.687" stroke="" stroke-width="1.5" stroke-linecap="round" stroke-linejoin="round"/>
</svg>