<svg xmlns="http://www.w3.org/2000/svg" version="1.1" xmlns:xlink="http://www.w3.org/1999/xlink" xmlns:svgjs="http://svgjs.com/svgjs" viewBox="0 0 24 24" height="24" width="24"><title>paginate filter mail (From Streamline App : https://app.streamlineicons.com)</title><g transform="matrix(1,0,0,1,0,0)"><path d="M13.852,10.016c0.083,0.053,0.189,0.053,0.272,0L23.74,3.6c0.17-0.113,0.254-0.319,0.212-0.519 C23.755,2.16,22.942,1.502,22,1.5H5.5C4.531,1.499,3.701,2.194,3.53,3.148c-0.035,0.2,0.054,0.402,0.226,0.51L13.852,10.016z M14.956,11.261c-0.573,0.381-1.317,0.39-1.9,0.024L4.267,5.737C4.034,5.59,3.725,5.659,3.577,5.893 C3.527,5.973,3.5,6.065,3.5,6.16V17c0,1.105,0.895,2,2,2H22c1.105,0,2-0.895,2-2V6.166c0-0.276-0.224-0.5-0.5-0.5 c-0.098,0-0.195,0.029-0.277,0.084L14.956,11.261z M19.5,20.5h-17C2.224,20.5,2,20.276,2,20V6c0-0.552-0.448-1-1-1S0,5.448,0,6 v14.5c0,1.105,0.895,2,2,2h17.5c0.552,0,1-0.448,1-1S20.052,20.5,19.5,20.5z" stroke="none" stroke-width="0" stroke-linecap="round" stroke-linejoin="round"></path></g></svg>