<svg xmlns="http://www.w3.org/2000/svg" version="1.1" xmlns:xlink="http://www.w3.org/1999/xlink" xmlns:svgjs="http://svgjs.com/svgjs" viewBox="0 0 24 24" height="24" width="24"><title>navigation menu (From Streamline App : https://app.streamlineicons.com)</title><g transform="matrix(1,0,0,1,0,0)"><path d="M1.5,2.5h21c0.552,0,1,0.448,1,1v1c0,0.552-0.448,1-1,1h-21c-0.552,0-1-0.448-1-1v-1C0.5,2.948,0.948,2.5,1.5,2.5z M1.5,10.5h21c0.552,0,1,0.448,1,1v1c0,0.552-0.448,1-1,1h-21c-0.552,0-1-0.448-1-1v-1C0.5,10.948,0.948,10.5,1.5,10.5z M1.5,18.5 h21c0.552,0,1,0.448,1,1v1c0,0.552-0.448,1-1,1h-21c-0.552,0-1-0.448-1-1v-1C0.5,18.948,0.948,18.5,1.5,18.5z" stroke="none" stroke-width="0" stroke-linecap="round" stroke-linejoin="round"></path></g></svg>