<svg viewBox="0 0 30 30" xmlns="http://www.w3.org/2000/svg"><g fill="none" stroke="" stroke-linecap="round" stroke-linejoin="round" stroke-width="1.5"><path d="M10.313 10.313a9.375 9.375 0 1 0 18.75 0 9.375 9.375 0 1 0-18.75 0ZM7.969 17.615a1.676 1.676 0 0 0 1.053 1.556l2.58 1.033a1.678 1.678 0 0 1-.624 3.233h-2.54M10.313 25.313v-1.875" stroke-width="1.875"/><path d="M6.601 11.084a9.375 9.375 0 1 0 12.316 12.315M21.563 6.563H19.02a1.678 1.678 0 0 0-.625 3.233l2.58 1.033a1.678 1.678 0 0 1-.625 3.234h-2.538M19.688 6.563V4.688M19.688 15.938v-1.876" stroke-width="1.875"/></g></svg>