<svg width="24" height="24" viewBox="0 0 24 24" fill="none" xmlns="http://www.w3.org/2000/svg">
<path d="M22 12.0282C22.0001 12.2462 21.9539 12.4617 21.8643 12.6602C21.7748 12.8588 21.644 13.036 21.4808 13.1799L14.0698 19.7199C13.8237 19.9227 13.5086 20.0217 13.1911 19.996C12.8736 19.9703 12.5785 19.8218 12.368 19.5819C12.1576 19.3421 12.0484 19.0296 12.0634 18.7105C12.0783 18.3914 12.2164 18.0906 12.4483 17.8716L18.9289 12.1526C18.9464 12.137 18.9603 12.1178 18.9699 12.0964C18.9794 12.0749 18.9843 12.0517 18.9843 12.0282C18.9843 12.0048 18.9794 11.9815 18.9699 11.9601C18.9603 11.9387 18.9464 11.9195 18.9289 11.9038L12.4483 6.18307C12.321 6.07817 12.2161 5.94866 12.1398 5.80224C12.0634 5.65583 12.0173 5.49551 12.004 5.33083C11.9907 5.16615 12.0106 5.00047 12.0625 4.84366C12.1144 4.68685 12.1972 4.54211 12.3061 4.41807C12.4149 4.29402 12.5475 4.19321 12.696 4.12162C12.8444 4.05003 13.0058 4.00913 13.1703 4.00136C13.3349 3.99359 13.4993 4.01911 13.6539 4.0764C13.8084 4.13368 13.9498 4.22156 14.0698 4.3348L21.4772 10.8731C21.6412 11.0173 21.7727 11.1949 21.8628 11.3941C21.953 11.5933 21.9997 11.8095 22 12.0282V12.0282Z" />
<path d="M12 12.0282C12.0001 12.2462 11.9539 12.4617 11.8643 12.6602C11.7748 12.8588 11.644 13.036 11.4808 13.1799L4.06981 19.7199C3.8237 19.9227 3.50863 20.0217 3.19111 19.996C2.87359 19.9703 2.57847 19.8218 2.36805 19.5819C2.15762 19.3421 2.04837 19.0296 2.06335 18.7105C2.07833 18.3914 2.21637 18.0906 2.44833 17.8716L8.92893 12.1526C8.94637 12.137 8.96031 12.1178 8.96985 12.0964C8.9794 12.0749 8.98433 12.0517 8.98433 12.0282C8.98433 12.0048 8.9794 11.9815 8.96985 11.9601C8.96031 11.9387 8.94637 11.9195 8.92893 11.9038L2.44833 6.18307C2.32105 6.07817 2.21612 5.94866 2.13978 5.80224C2.06345 5.65583 2.01727 5.49551 2.00399 5.33083C1.99072 5.16615 2.01062 5.00047 2.06251 4.84366C2.11441 4.68685 2.19723 4.54211 2.30605 4.41807C2.41488 4.29402 2.54748 4.19321 2.69595 4.12162C2.84443 4.05003 3.00576 4.00913 3.17032 4.00136C3.33489 3.99359 3.49933 4.01911 3.65386 4.0764C3.80839 4.13368 3.94985 4.22156 4.06981 4.3348L11.4772 10.8731C11.6412 11.0173 11.7727 11.1949 11.8628 11.3941C11.953 11.5933 11.9997 11.8095 12 12.0282V12.0282Z" />
</svg>
