<svg width="24" height="24" viewBox="0 0 24 24" fill="none" xmlns="http://www.w3.org/2000/svg">
<path d="M2 3C2 2.44772 2.44772 2 3 2H21C21.5523 2 22 2.44772 22 3C22 3.55228 21.5523 4 21 4H3C2.44772 4 2 3.55228 2 3Z"/>
<path d="M2 8C2 7.44772 2.44772 7 3 7H14C14.5523 7 15 7.44772 15 8C15 8.55228 14.5523 9 14 9H3C2.44772 9 2 8.55228 2 8Z"/>
<path d="M2 12C2 11.4477 2.44772 11 3 11H20C20.5523 11 21 11.4477 21 12C21 12.5523 20.5523 13 20 13H3C2.44771 13 2 12.5523 2 12Z"/>
<path d="M2 17C2 16.4477 2.44772 16 3 16H18C18.5523 16 19 16.4477 19 17C19 17.5523 18.5523 18 18 18H3C2.44772 18 2 17.5523 2 17Z"/>
<path d="M2 21C2 20.4477 2.44772 20 3 20H21C21.5523 20 22 20.4477 22 21C22 21.5523 21.5523 22 21 22H3C2.44772 22 2 21.5523 2 21Z"/>
</svg>
