<svg width="24" height="24" viewBox="0 0 24 24" fill="none" xmlns="http://www.w3.org/2000/svg">
<path d="M12 3.42508V1.25M10 21.5508C10.127 21.969 10.3908 22.3363 10.7518 22.5976C11.1127 22.8588 11.5516 23 12.0025 23C12.4534 23 12.8923 22.8588 13.2532 22.5976C13.6142 22.3363 13.878 21.969 14.005 21.5508H10Z" stroke-width="1.5" stroke-linecap="round" stroke-linejoin="round"/>
<path d="M12 3.42508C12.9849 3.42508 13.9602 3.61261 14.8701 3.97697C15.7801 4.34133 16.6069 4.87538 17.3033 5.54863C17.9997 6.22188 18.5522 7.02115 18.9291 7.90079C19.306 8.78044 19.5 9.72323 19.5 10.6754C19.5 17.4867 21 18.6507 21 18.6507H3C3 18.6507 4.5 16.7984 4.5 10.6754C4.5 8.75246 5.29018 6.90832 6.6967 5.54863C8.10322 4.18895 10.0109 3.42508 12 3.42508Z" stroke-width="1.5" stroke-linecap="round" stroke-linejoin="round"/>
</svg>
