<svg xmlns="http://www.w3.org/2000/svg" version="1.1" xmlns:xlink="http://www.w3.org/1999/xlink" xmlns:svgjs="http://svgjs.com/svgjs" viewBox="0 0 24 24" height="24" width="24"><title>password key (From Streamline App : https://app.streamlineicons.com)</title><g transform="matrix(1,0,0,1,0,0)"><path d="M21,0H3C1.343,0,0,1.343,0,3v15c0,1.657,1.343,3,3,3h6.5c0.552,0,1-0.448,1-1s-0.448-1-1-1H3c-0.552,0-1-0.448-1-1V7.5 C2,7.224,2.224,7,2.5,7h19C21.776,7,22,7.224,22,7.5V9c0,0.552,0.448,1,1,1s1-0.448,1-1V3C24,1.343,22.657,0,21,0z M11,3.5 c0,0.552-0.448,1-1,1s-1-0.448-1-1s0.448-1,1-1S11,2.948,11,3.5z M8,3.5c0,0.552-0.448,1-1,1s-1-0.448-1-1s0.448-1,1-1 S8,2.948,8,3.5z M5,3.5c0,0.552-0.448,1-1,1s-1-0.448-1-1s0.448-1,1-1S5,2.948,5,3.5z M11.942,9.913 c-0.399-0.382-1.032-0.369-1.414,0.03c0,0,0,0,0,0L7.118,13.5c-0.047,0.049-0.113,0.077-0.181,0.077 c-0.068,0-0.133-0.028-0.18-0.077l-0.535-0.558c-0.382-0.399-1.015-0.412-1.414-0.03c-0.399,0.382-0.412,1.015-0.03,1.414 l1.438,1.5c0.382,0.398,1.015,0.411,1.414,0.029c0.01-0.009,0.02-0.019,0.029-0.029l4.313-4.5 C12.354,10.927,12.34,10.295,11.942,9.913z M17.382,16.118c-0.065,0.066-0.161,0.09-0.25,0.063C16.766,16.065,16.384,16.004,16,16 c-2.209,0-4,1.791-4,4s1.791,4,4,4s4-1.791,4-4c-0.003-0.384-0.064-0.765-0.181-1.131c-0.027-0.089-0.003-0.185,0.063-0.25 l4.045-4.046c0.046-0.046,0.072-0.108,0.073-0.173v-2.15c0-0.138-0.112-0.25-0.25-0.25H21.6c-0.066,0-0.13,0.026-0.177,0.073 L17.382,16.118z M16,21.5c-0.828,0-1.5-0.672-1.5-1.5s0.672-1.5,1.5-1.5c0.828,0,1.5,0.672,1.5,1.5S16.828,21.5,16,21.5z" stroke="none" stroke-width="0" stroke-linecap="round" stroke-linejoin="round"></path></g></svg>