<svg width="24" height="24" viewBox="0 0 24 24" fill="none" xmlns="http://www.w3.org/2000/svg">
<path fill-rule="evenodd" clip-rule="evenodd" d="M15.2 13.8C15.2 13.2477 15.6477 12.8 16.2 12.8H18.6C19.1523 12.8 19.6 13.2477 19.6 13.8C19.6 14.3523 19.1523 14.8 18.6 14.8H16.2C15.6477 14.8 15.2 14.3523 15.2 13.8Z"/>
<path fill-rule="evenodd" clip-rule="evenodd" d="M3.33333 8C3.2131 8 3 8.12578 3 8.42857V15.5714C3 15.8742 3.2131 16 3.33333 16H20.6667C20.7869 16 21 15.8742 21 15.5714V8.42857C21 8.12578 20.7869 8 20.6667 8H3.33333ZM1 8.42857C1 7.15341 1.98081 6 3.33333 6H20.6667C22.0192 6 23 7.15341 23 8.42857V15.5714C23 16.8466 22.0192 18 20.6667 18H3.33333C1.98081 18 1 16.8466 1 15.5714V8.42857Z"/>
<path fill-rule="evenodd" clip-rule="evenodd" d="M9.10711 10.0929C9.49763 10.4834 9.49763 11.1166 9.10711 11.5071L6.10711 14.5071C5.71658 14.8976 5.08342 14.8976 4.69289 14.5071C4.30237 14.1166 4.30237 13.4834 4.69289 13.0929L7.69289 10.0929C8.08342 9.70236 8.71658 9.70236 9.10711 10.0929Z"/>
<path fill-rule="evenodd" clip-rule="evenodd" d="M4.69289 10.0929C5.08342 9.70236 5.71658 9.70236 6.10711 10.0929L9.10711 13.0929C9.49763 13.4834 9.49763 14.1166 9.10711 14.5071C8.71658 14.8976 8.08342 14.8976 7.69289 14.5071L4.69289 11.5071C4.30237 11.1166 4.30237 10.4834 4.69289 10.0929Z"/>
<path fill-rule="evenodd" clip-rule="evenodd" d="M14.5071 10.0929C14.8976 10.4834 14.8976 11.1166 14.5071 11.5071L11.5071 14.5071C11.1166 14.8976 10.4834 14.8976 10.0929 14.5071C9.70237 14.1166 9.70237 13.4834 10.0929 13.0929L13.0929 10.0929C13.4834 9.70236 14.1166 9.70236 14.5071 10.0929Z"/>
<path fill-rule="evenodd" clip-rule="evenodd" d="M10.0929 10.0929C10.4834 9.70236 11.1166 9.70236 11.5071 10.0929L14.5071 13.0929C14.8976 13.4834 14.8976 14.1166 14.5071 14.5071C14.1166 14.8976 13.4834 14.8976 13.0929 14.5071L10.0929 11.5071C9.70237 11.1166 9.70237 10.4834 10.0929 10.0929Z"/>
</svg>
