<svg xmlns="http://www.w3.org/2000/svg" version="1.1" xmlns:xlink="http://www.w3.org/1999/xlink" xmlns:svgjs="http://svgjs.com/svgjs" viewBox="0 0 24 24" width="24" height="24"><g transform="matrix(1,0,0,1,0,0)"><path d="M23.25,13.5V2.25a1.5,1.5,0,0,0-1.5-1.5H5.25a1.5,1.5,0,0,0-1.5,1.5V6" fill="none" stroke="" stroke-linecap="round" stroke-linejoin="round" stroke-width="1.5"></path><path d="M3.75 5.25L23.25 5.25" fill="none" stroke="" stroke-linecap="round" stroke-linejoin="round" stroke-width="1.5"></path><path d="M0.750 9.000 L20.250 9.000 L20.250 23.250 L0.750 23.250 Z" fill="none" stroke="" stroke-linecap="round" stroke-linejoin="round" stroke-width="1.5"></path><path d="M0.75 13.5L20.25 13.5" fill="none" stroke="" stroke-linecap="round" stroke-linejoin="round" stroke-width="1.5"></path><path d="M3.75 18L6 18" fill="none" stroke="" stroke-linecap="round" stroke-linejoin="round" stroke-width="1.5"></path><path d="M13.875,17.25a1.875,1.875,0,1,0,0,2.25,1.875,1.875,0,1,0,0-2.25Z" fill="none" stroke="" stroke-linecap="round" stroke-linejoin="round" stroke-width="1.5"></path></g></svg>