<svg width="24" height="24" viewBox="0 0 24 24" fill="none" xmlns="http://www.w3.org/2000/svg">
<path fill-rule="evenodd" clip-rule="evenodd" d="M4.01713 12C4.07304 12.07 4.13435 12.1453 4.20092 12.2252C4.60694 12.7124 5.20275 13.3622 5.95849 14.01C7.48573 15.319 9.56868 16.5385 12 16.5385C14.4313 16.5385 16.5143 15.319 18.0415 14.01C18.7973 13.3622 19.3931 12.7124 19.7991 12.2252C19.8657 12.1453 19.927 12.07 19.9829 12C19.927 11.93 19.8657 11.8547 19.7991 11.7748C19.3931 11.2876 18.7973 10.6378 18.0415 9.99004C16.5143 8.68097 14.4313 7.46155 12 7.46155C9.56868 7.46155 7.48573 8.68097 5.95849 9.99004C5.20275 10.6378 4.60694 11.2876 4.20092 11.7748C4.13435 11.8547 4.07304 11.93 4.01713 12ZM21.2308 12C22.0628 11.4453 22.0626 11.445 22.0624 11.4447L22.0606 11.442L22.0571 11.4367L22.0459 11.4202C22.0366 11.4066 22.0237 11.3879 22.0072 11.3643C21.9742 11.3173 21.927 11.251 21.8659 11.1682C21.7437 11.0027 21.5658 10.7707 21.3355 10.4944C20.8762 9.9432 20.2027 9.20836 19.3431 8.47152C17.6396 7.01136 15.1071 5.46155 12 5.46155C8.89286 5.46155 6.36043 7.01136 4.6569 8.47152C3.79725 9.20836 3.12384 9.9432 2.66447 10.4944C2.43424 10.7707 2.25628 11.0027 2.13413 11.1682C2.07302 11.251 2.02577 11.3173 1.99282 11.3643C1.97634 11.3879 1.96343 11.4066 1.95414 11.4202L1.94293 11.4367L1.93937 11.442L1.9381 11.4439C1.93789 11.4443 1.93718 11.4453 2.76923 12L1.93718 11.4453L1.56738 12L1.93718 12.5547L2.76923 12C1.93718 12.5547 1.93697 12.5544 1.93718 12.5547L1.9381 12.5561L1.93937 12.558L1.94293 12.5633L1.95414 12.5798C1.96343 12.5934 1.97634 12.6121 1.99282 12.6357C2.02577 12.6827 2.07302 12.749 2.13413 12.8318C2.25628 12.9973 2.43424 13.2293 2.66447 13.5056C3.12384 14.0568 3.79725 14.7917 4.6569 15.5285C6.36043 16.9887 8.89286 18.5385 12 18.5385C15.1071 18.5385 17.6396 16.9887 19.3431 15.5285C20.2027 14.7917 20.8762 14.0568 21.3355 13.5056C21.5658 13.2293 21.7437 12.9973 21.8659 12.8318C21.927 12.749 21.9742 12.6827 22.0072 12.6357C22.0237 12.6121 22.0366 12.5934 22.0459 12.5798L22.0571 12.5633L22.0606 12.558L22.0619 12.5561C22.0621 12.5558 22.0628 12.5547 21.2308 12ZM21.2308 12L22.0628 12.5547L22.4326 12L22.0624 11.4447L21.2308 12Z"/>
<path fill-rule="evenodd" clip-rule="evenodd" d="M12 7.46155C10.5131 7.46155 9.3077 8.66693 9.3077 10.1539C9.3077 11.6408 10.5131 12.8462 12 12.8462C13.4869 12.8462 14.6923 11.6408 14.6923 10.1539C14.6923 8.66693 13.4869 7.46155 12 7.46155ZM7.3077 10.1539C7.3077 7.56237 9.40851 5.46155 12 5.46155C14.5915 5.46155 16.6923 7.56237 16.6923 10.1539C16.6923 12.7453 14.5915 14.8462 12 14.8462C9.40851 14.8462 7.3077 12.7453 7.3077 10.1539Z"/>
</svg>
