<svg width="24" height="24" fill="none" xmlns="http://www.w3.org/2000/svg">
  <path d="M5.813 16.812h-2.75c-.76 0-1.376-.616-1.376-1.375V8.562c0-.76.616-1.375 1.375-1.375h17.875c.76 0 1.375.615 1.375 1.375v6.875c0 .759-.615 1.375-1.375 1.375h-2.75M4.438 9.937h1.375" stroke="" stroke-width="1.5" stroke-linecap="round" stroke-linejoin="round"/>
  <path clip-rule="evenodd" d="M5.813 12.687h12.375v9.625H5.813v-9.625zM18.188 7.187H5.813V3.062c0-.76.615-1.375 1.375-1.375h9.625c.759 0 1.375.615 1.375 1.375v4.125z" stroke="" stroke-width="1.5" stroke-linecap="round" stroke-linejoin="round"/>
  <path d="M8.563 15.437h6.874M8.563 18.187h4.812" stroke="" stroke-width="1.5" stroke-linecap="round" stroke-linejoin="round"/>
</svg>