<svg xmlns="http://www.w3.org/2000/svg" version="1.1" xmlns:xlink="http://www.w3.org/1999/xlink" xmlns:svgjs="http://svgjs.com/svgjs" viewBox="0 0 24 24" height="24" width="24"><title>single neutral circle (From Streamline App : https://app.streamlineicons.com)</title><g transform="matrix(1,0,0,1,0,0)"><path d="M12,0C5.373,0,0,5.373,0,12s5.373,12,12,12s12-5.373,12-12C23.993,5.376,18.624,0.007,12,0z M19.49,18.239 c-3.443,4.136-9.588,4.698-13.724,1.255c-0.456-0.379-0.876-0.799-1.255-1.255c-0.048-0.057-0.068-0.133-0.054-0.207 c0.015-0.073,0.061-0.136,0.126-0.173c1.308-0.645,2.658-1.202,4.04-1.669l0.674-0.249c0.264-0.152,0.441-0.42,0.477-0.723 c0.167-0.593,0.076-1.229-0.249-1.752c-0.839-0.924-1.659-2.064-1.659-4.915c-0.198-2.224,1.445-4.188,3.669-4.385 c0.155-0.014,0.31-0.019,0.465-0.015c2.232-0.06,4.09,1.702,4.149,3.934c0.004,0.156-0.001,0.311-0.014,0.466 c0,2.851-0.82,3.991-1.659,4.915c-0.325,0.523-0.416,1.159-0.249,1.752c0.036,0.303,0.213,0.571,0.477,0.723l0.675,0.249 c1.381,0.467,2.73,1.024,4.038,1.668c0.065,0.037,0.111,0.1,0.126,0.173C19.558,18.105,19.538,18.181,19.49,18.239z" stroke="none" stroke-width="0" stroke-linecap="round" stroke-linejoin="round"></path></g></svg>