<svg xmlns="http://www.w3.org/2000/svg" fill="none" viewBox="0 0 24 24" height="44" width="44"><path stroke="" stroke-linecap="round" stroke-linejoin="round" stroke-width="1.5" d="M11.25 15.75h3v4.5l4.5-4.5h3a1.5 1.5 0 0 0 1.5-1.5v-12a1.5 1.5 0 0 0-1.5-1.5h-12a1.5 1.5 0 0 0-1.5 1.5M4.5 9.75a3 3 0 1 0 0-6 3 3 0 0 0 0 6Zm3.75 7.5V15a3.75 3.75 0 0 0-7.5 0v2.25h1.5l.75 6h3l.75-6h1.5Z"/><path stroke="" stroke-width="1.5" d="M15.75 12a.375.375 0 0 1 0-.75m0 .75a.375.375 0 0 0 0-.75"/><path stroke="" stroke-linecap="round" stroke-linejoin="round" stroke-width="1.5" d="M15.75 9V5.25"/></svg>