<svg xmlns="http://www.w3.org/2000/svg" x="0px" y="0px" viewBox="0 0 48 48" style="enable-background:new 0 0 48 48;" xml:space="preserve">
<g>
	<path d="M33.7,36.4c-6.8,5.3-16.8,4.1-22.1-2.7C9.4,31,8.3,27.5,8.2,24v-0.7l1.1,1.1c0.3,0.3,0.7,0.5,1.2,0.5
		c0.4,0,0.8-0.2,1.2-0.5c0.6-0.6,0.6-1.7,0-2.3l-3.9-3.9c-0.6-0.6-1.7-0.6-2.3,0l-3.9,3.9c-0.6,0.6-0.6,1.7,0,2.3
		c0.6,0.6,1.7,0.6,2.3,0L5,23.4V24c0,4.2,1.4,8.4,4,11.7c3.7,4.8,9.3,7.3,15,7.3c4.1,0,8.2-1.3,11.7-4c0.7-0.6,0.8-1.6,0.3-2.3
		C35.4,36,34.4,35.9,33.7,36.4z"/>
	<path d="M46.4,23.6c-0.6-0.6-1.7-0.6-2.3,0L43,24.7V24c0-4.2-1.4-8.4-4-11.7C32.5,4.1,20.6,2.6,12.3,9c-0.7,0.6-0.8,1.6-0.3,2.3
		c0.6,0.7,1.6,0.8,2.3,0.3c6.8-5.3,16.8-4.1,22.1,2.7c2.2,2.8,3.3,6.2,3.3,9.7v0.7l-1.1-1.1C38,23,37,23,36.4,23.6
		c-0.6,0.6-0.6,1.7,0,2.3l3.9,3.9c0.3,0.3,0.7,0.5,1.2,0.5c0.4,0,0.8-0.2,1.2-0.5l3.9-3.9C47,25.3,47,24.3,46.4,23.6z"/>
</g>
</svg>
