<svg width="24" height="24" viewBox="0 0 24 24" fill="none" xmlns="http://www.w3.org/2000/svg">
<path fill-rule="evenodd" clip-rule="evenodd" d="M3.21635 9.88702L4.51052 11.216C4.49278 11.4309 4.47849 11.6457 4.47849 11.8606C4.49695 13.3387 4.94616 14.7782 5.76959 15.9981C6.59302 17.218 7.75391 18.1639 9.10622 18.7166C10.4585 19.2693 11.9419 19.4043 13.3696 19.1044C14.7974 18.8046 16.1058 18.0834 17.1303 17.0316C18.1548 15.9798 18.8496 14.6444 19.1273 13.1932C19.4051 11.7421 19.2533 10.24 18.6912 8.8761C18.129 7.51217 17.1815 6.34721 15.968 5.52782C14.7544 4.70843 13.3289 4.27122 11.8709 4.27111C10.2719 4.20015 8.70241 4.72434 7.45812 5.74501L9.51123 6.04978C9.6967 6.07886 9.86463 6.17747 9.98176 6.32613C10.0989 6.47479 10.1567 6.66268 10.1436 6.85248C10.1306 7.04229 10.0478 7.22023 9.91146 7.35102C9.77517 7.48182 9.59539 7.55593 9.40774 7.5587C9.37251 7.55951 9.33727 7.55784 9.30227 7.55369L5.85248 7.04405C5.65717 7.01383 5.48159 6.90651 5.36405 6.7455C5.24651 6.5845 5.19656 6.3829 5.22512 6.18469L5.71795 2.64228C5.73186 2.54485 5.76457 2.4511 5.8142 2.36648C5.86383 2.28186 5.92942 2.20797 6.00722 2.14905C6.08502 2.09013 6.17351 2.04736 6.26762 2.02311C6.36174 1.99885 6.45964 1.99363 6.55575 2.00774C6.65186 2.02184 6.74428 2.055 6.82775 2.10532C6.91122 2.15564 6.98409 2.22211 7.04221 2.30098C7.10033 2.37985 7.14256 2.46959 7.16648 2.56501C7.1904 2.66043 7.19555 2.75966 7.18164 2.85709L6.97958 4.31106C8.39092 3.24899 10.114 2.69984 11.8709 2.75219C13.7405 2.72499 15.5721 3.28884 17.1112 4.3654C18.6502 5.44196 19.8203 6.97779 20.4589 8.75948C21.0975 10.5412 21.1728 12.4803 20.6745 14.3074C20.1761 16.1345 19.1289 17.7588 17.6781 18.9548C16.2274 20.1508 14.4453 20.8591 12.5793 20.9811C10.7134 21.1031 8.85624 20.6329 7.26598 19.6357C5.67572 18.6386 4.43128 17.1641 3.70555 15.417C2.97982 13.6699 2.80883 11.7371 3.21635 9.88702Z" />
</svg>
