<svg width="24" height="22" fill="none" xmlns="http://www.w3.org/2000/svg">
  <path fill-rule="evenodd" clip-rule="evenodd" d="M0 20.75A.75.75 0 0 1 .75 20h22.5a.75.75 0 0 1 0 1.5H.75a.75.75 0 0 1-.75-.75z" fill=""/>
  <path fill-rule="evenodd" clip-rule="evenodd" d="M1.5 11A1.5 1.5 0 0 1 3 9.5h3A1.5 1.5 0 0 1 7.5 11v9.75a.75.75 0 0 1-.75.75h-4.5a.75.75 0 0 1-.75-.75V11zM6 11H3v9h3v-9zM9 2A1.5 1.5 0 0 1 10.5.5h3A1.5 1.5 0 0 1 15 2v18.75a.75.75 0 0 1-.75.75h-4.5a.75.75 0 0 1-.75-.75V2zm4.5 0h-3v18h3V2zM16.5 6.5A1.5 1.5 0 0 1 18 5h3a1.5 1.5 0 0 1 1.5 1.5v14.25a.75.75 0 0 1-.75.75h-4.5a.75.75 0 0 1-.75-.75V6.5zm4.5 0h-3V20h3V6.5z" fill=""/>
</svg>
