<svg width="24" height="24" viewBox="0 0 24 24" fill="none" xmlns="http://www.w3.org/2000/svg">
<path d="M2 11.9718C1.99988 11.7538 2.04613 11.5383 2.13567 11.3398C2.22521 11.1412 2.35598 10.964 2.51923 10.8201L9.93019 4.28011C10.1763 4.07727 10.4914 3.97827 10.8089 4.00401C11.1264 4.02975 11.4215 4.17822 11.632 4.41807C11.8424 4.65792 11.9516 4.97039 11.9366 5.2895C11.9217 5.60862 11.7836 5.90941 11.5517 6.12838L5.07107 11.8474C5.05363 11.863 5.03969 11.8822 5.03015 11.9036C5.0206 11.9251 5.01567 11.9483 5.01567 11.9718C5.01567 11.9952 5.0206 12.0185 5.03015 12.0399C5.03969 12.0613 5.05363 12.0805 5.07107 12.0962L11.5517 17.8169C11.679 17.9218 11.7839 18.0513 11.8602 18.1978C11.9366 18.3442 11.9827 18.5045 11.996 18.6692C12.0093 18.8339 11.9894 18.9995 11.9375 19.1563C11.8856 19.3132 11.8028 19.4579 11.6939 19.5819C11.5851 19.706 11.4525 19.8068 11.304 19.8784C11.1556 19.95 10.9942 19.9909 10.8297 19.9986C10.6651 20.0064 10.5007 19.9809 10.3461 19.9236C10.1916 19.8663 10.0502 19.7784 9.93019 19.6652L2.52277 13.1269C2.35878 12.9827 2.22733 12.8051 2.13719 12.6059C2.04704 12.4067 2.00027 12.1905 2 11.9718V11.9718Z" />
<path d="M12 11.9718C11.9999 11.7538 12.0461 11.5383 12.1357 11.3398C12.2252 11.1412 12.356 10.964 12.5192 10.8201L19.9302 4.28011C20.1763 4.07727 20.4914 3.97827 20.8089 4.00401C21.1264 4.02975 21.4215 4.17822 21.632 4.41807C21.8424 4.65792 21.9516 4.97039 21.9366 5.2895C21.9217 5.60862 21.7836 5.90941 21.5517 6.12838L15.0711 11.8474C15.0536 11.863 15.0397 11.8822 15.0301 11.9036C15.0206 11.9251 15.0157 11.9483 15.0157 11.9718C15.0157 11.9952 15.0206 12.0185 15.0301 12.0399C15.0397 12.0613 15.0536 12.0805 15.0711 12.0962L21.5517 17.8169C21.679 17.9218 21.7839 18.0513 21.8602 18.1978C21.9366 18.3442 21.9827 18.5045 21.996 18.6692C22.0093 18.8339 21.9894 18.9995 21.9375 19.1563C21.8856 19.3132 21.8028 19.4579 21.6939 19.5819C21.5851 19.706 21.4525 19.8068 21.304 19.8784C21.1556 19.95 20.9942 19.9909 20.8297 19.9986C20.6651 20.0064 20.5007 19.9809 20.3461 19.9236C20.1916 19.8663 20.0502 19.7784 19.9302 19.6652L12.5228 13.1269C12.3588 12.9827 12.2273 12.8051 12.1372 12.6059C12.047 12.4067 12.0003 12.1905 12 11.9718V11.9718Z" />
</svg>
