<svg width="24" height="24" viewBox="0 0 24 24" fill="none" xmlns="http://www.w3.org/2000/svg">
<path d="M3 9C3 6.23858 5.23858 4 8 4H16C18.7614 4 21 6.23858 21 9V13C21 17.9706 16.9706 22 12 22C7.02944 22 3 17.9706 3 13V9Z" fill="white"/>
<path d="M1 11C1 9.89543 1.89543 9 3 9H4V15H3C1.89543 15 1 14.1046 1 13V11Z" fill="white"/>
<path d="M23 11C23 9.89543 22.1046 9 21 9H20V15H21C22.1046 15 23 14.1046 23 13V11Z" fill="white"/>
<path d="M8 4H16L14.6667 9H9.33333L8 4Z" fill="#FFCB57"/>
<path d="M10 12.5C10 13.3284 9.32843 14 8.5 14C7.67157 14 7 13.3284 7 12.5C7 11.6716 7.67157 11 8.5 11C9.32843 11 10 11.6716 10 12.5Z" fill="#E78888"/>
<path d="M17 12.5C17 13.3284 16.3284 14 15.5 14C14.6716 14 14 13.3284 14 12.5C14 11.6716 14.6716 11 15.5 11C16.3284 11 17 11.6716 17 12.5Z" fill="#E78888"/>
<path fill-rule="evenodd" clip-rule="evenodd" d="M8 4L9.33333 9H14.6667L16 4H8ZM9.30161 5L10.1016 8H13.8984L14.6984 5H9.30161Z" fill="#4F4A46"/>
<path fill-rule="evenodd" clip-rule="evenodd" d="M8.5 11.5C7.94772 11.5 7.5 11.9477 7.5 12.5C7.5 13.0523 7.94772 13.5 8.5 13.5C9.05228 13.5 9.5 13.0523 9.5 12.5C9.5 11.9477 9.05228 11.5 8.5 11.5ZM6.5 12.5C6.5 11.3954 7.39543 10.5 8.5 10.5C9.60457 10.5 10.5 11.3954 10.5 12.5C10.5 13.6046 9.60457 14.5 8.5 14.5C7.39543 14.5 6.5 13.6046 6.5 12.5Z" fill="#4F4A46"/>
<path fill-rule="evenodd" clip-rule="evenodd" d="M15.5 11.5C14.9477 11.5 14.5 11.9477 14.5 12.5C14.5 13.0523 14.9477 13.5 15.5 13.5C16.0523 13.5 16.5 13.0523 16.5 12.5C16.5 11.9477 16.0523 11.5 15.5 11.5ZM13.5 12.5C13.5 11.3954 14.3954 10.5 15.5 10.5C16.6046 10.5 17.5 11.3954 17.5 12.5C17.5 13.6046 16.6046 14.5 15.5 14.5C14.3954 14.5 13.5 13.6046 13.5 12.5Z" fill="#4F4A46"/>
<path fill-rule="evenodd" clip-rule="evenodd" d="M21 10V14C21.5523 14 22 13.5523 22 13V11C22 10.4477 21.5523 10 21 10ZM21 9H20V15H21C22.1046 15 23 14.1046 23 13V11C23 9.89543 22.1046 9 21 9Z" fill="#4F4A46"/>
<path fill-rule="evenodd" clip-rule="evenodd" d="M3 10V14C2.44772 14 2 13.5523 2 13V11C2 10.4477 2.44772 10 3 10ZM3 9H4V15H3C1.89543 15 1 14.1046 1 13V11C1 9.89543 1.89543 9 3 9Z" fill="#4F4A46"/>
<path fill-rule="evenodd" clip-rule="evenodd" d="M8.5 16V17C8.5 17.2761 8.72386 17.5 9 17.5H15C15.2761 17.5 15.5 17.2761 15.5 17V16H16.5V17C16.5 17.8284 15.8284 18.5 15 18.5H9C8.17157 18.5 7.5 17.8284 7.5 17V16H8.5Z" fill="#4F4A46"/>
<path fill-rule="evenodd" clip-rule="evenodd" d="M16 5H8C5.79086 5 4 6.79086 4 9V13C4 17.4183 7.58172 21 12 21C16.4183 21 20 17.4183 20 13V9C20 6.79086 18.2091 5 16 5ZM8 4C5.23858 4 3 6.23858 3 9V13C3 17.9706 7.02944 22 12 22C16.9706 22 21 17.9706 21 13V9C21 6.23858 18.7614 4 16 4H8Z" fill="#4F4A46"/>
<path fill-rule="evenodd" clip-rule="evenodd" d="M1.5 2C1.77614 2 2 2.22386 2 2.5V12C2 12.2761 1.77614 12.5 1.5 12.5C1.22386 12.5 1 12.2761 1 12V2.5C1 2.22386 1.22386 2 1.5 2Z" fill="#4F4A46"/>
<path fill-rule="evenodd" clip-rule="evenodd" d="M22.5 2C22.7761 2 23 2.22386 23 2.5V12C23 12.2761 22.7761 12.5 22.5 12.5C22.2239 12.5 22 12.2761 22 12V2.5C22 2.22386 22.2239 2 22.5 2Z" fill="#4F4A46"/>
</svg>
