<svg xmlns="http://www.w3.org/2000/svg" version="1.1" xmlns:xlink="http://www.w3.org/1999/xlink" xmlns:svgjs="http://svgjs.com/svgjs" viewBox="0 0 24 24" height="24" width="24"><title>single man shield (From Streamline App : https://app.streamlineicons.com)</title><g transform="matrix(1,0,0,1,0,0)"><path d="M23.5,1.957c-0.001-0.804-0.652-1.456-1.456-1.457H1.956C1.152,0.501,0.501,1.153,0.5,1.957V9.25 c0.019,6.823,4.747,12.729,11.4,14.24c0.066,0.013,0.134,0.013,0.2,0c6.653-1.511,11.381-7.417,11.4-14.24V1.957z M17.5,16.268 c0,0.276-0.224,0.5-0.5,0.5H7c-0.276,0-0.5-0.224-0.5-0.5c0.021-0.689,0.187-1.367,0.487-1.988c0.369-0.739,1.5-1.156,3.073-1.733 l0.19-0.071c0.098-0.036,0.163-0.13,0.163-0.234v-0.451c0-0.063-0.024-0.124-0.067-0.171c-0.299-0.314-0.494-0.711-0.561-1.139 c-0.006-0.04-0.021-0.077-0.045-0.109c-0.09-0.131-0.154-0.278-0.188-0.434C9.468,9.624,9.502,9.29,9.649,9 C9.681,8.942,9.688,8.874,9.67,8.81C9.398,8.176,9.417,7.455,9.723,6.837c0.143-0.193,0.348-0.331,0.58-0.392 c0.047-0.013,0.089-0.04,0.121-0.076c0.553-0.461,1.269-0.677,1.984-0.6c0.975,0.023,2.079,0.362,2.256,1.245 c0.061,0.622-0.044,1.249-0.306,1.816c-0.025,0.065-0.021,0.138,0.01,0.2c0.132,0.283,0.16,0.603,0.08,0.905 c-0.034,0.155-0.098,0.302-0.188,0.433c-0.024,0.032-0.039,0.07-0.045,0.109c-0.067,0.428-0.262,0.826-0.561,1.14 c-0.043,0.047-0.067,0.108-0.067,0.171v0.451c0,0.104,0.065,0.198,0.163,0.234l0.19,0.071c1.57,0.577,2.7,0.994,3.073,1.733 C17.313,14.899,17.479,15.578,17.5,16.268z" stroke="none" fill="#000000" stroke-width="0" stroke-linecap="round" stroke-linejoin="round"></path></g></svg>