<svg xmlns="http://www.w3.org/2000/svg" version="1.1" xmlns:xlink="http://www.w3.org/1999/xlink" xmlns:svgjs="http://svgjs.com/svgjs" viewBox="0 0 140 140" width="140" height="140"><g transform="matrix(5.833333333333333,0,0,5.833333333333333,0,0)"><path d="M11.250 17.250 A6.000 6.000 0 1 0 23.250 17.250 A6.000 6.000 0 1 0 11.250 17.250 Z" fill="none" stroke-linecap="round" stroke-linejoin="round" stroke-width="1.5"></path><path d="M17.25 14.25L17.25 18 19.286 18" fill="none" stroke-linecap="round" stroke-linejoin="round" stroke-width="1.5"></path><path d="M17.25 11.25L17.25 9" fill="none" stroke-linecap="round" stroke-linejoin="round" stroke-width="1.5"></path><path d="M19.5,6V1.868A1.128,1.128,0,0,0,18.369.75H1.875A1.121,1.121,0,0,0,.75,1.862V15.381A1.129,1.129,0,0,0,1.881,16.5H8.25" fill="none" stroke-linecap="round" stroke-linejoin="round" stroke-width="1.5"></path><path d="M0.75 4.5L19.5 4.5" fill="none" stroke-linecap="round" stroke-linejoin="round" stroke-width="1.5"></path><path d="M15 9L19.5 9" fill="none" stroke-linecap="round" stroke-linejoin="round" stroke-width="1.5"></path></g></svg>