<svg width="24" height="24" viewBox="0 0 24 24" xmlns="http://www.w3.org/2000/svg">
<path d="M0 12C0 5.37258 5.37258 0 12 0C18.6274 0 24 5.37258 24 12C24 18.6274 18.6274 24 12 24C5.37258 24 0 18.6274 0 12ZM12 1.5C6.20101 1.5 1.5 6.20101 1.5 12C1.5 17.799 6.20101 22.5 12 22.5C17.799 22.5 22.5 17.799 22.5 12C22.5 6.20101 17.799 1.5 12 1.5Z"/>
<path d="M6 11.125C6 8.29454 8.29454 6 11.125 6C13.9555 6 16.25 8.29454 16.25 11.125C16.25 13.9555 13.9555 16.25 11.125 16.25C8.29454 16.25 6 13.9555 6 11.125ZM11.125 7.5C9.12297 7.5 7.5 9.12297 7.5 11.125C7.5 13.127 9.12297 14.75 11.125 14.75C13.127 14.75 14.75 13.127 14.75 11.125C14.75 9.12297 13.127 7.5 11.125 7.5Z"/>
<path d="M13.6888 13.6876C13.9817 13.3947 14.4566 13.3948 14.7494 13.6878L17.7804 16.7198C18.0733 17.0127 18.0732 17.4876 17.7802 17.7804C17.4873 18.0733 17.0124 18.0732 16.7196 17.7802L13.6886 14.7482C13.3957 14.4553 13.3958 13.9804 13.6888 13.6876Z"/>
</svg>
