<svg width="24" height="24" viewBox="0 0 24 24" fill="none" xmlns="http://www.w3.org/2000/svg">
<g>
<path d="M23.414 20.591L18.769 15.946C20.1833 13.8289 20.7596 11.2613 20.3857 8.74284C20.0118 6.22435 18.7145 3.93496 16.7462 2.32001C14.7778 0.705056 12.2791 -0.119999 9.73606 0.00533155C7.19305 0.130662 4.78758 1.19742 2.98753 2.99809C1.18749 4.79877 0.121589 7.20462 -0.002842 9.74767C-0.127273 12.2907 0.698665 14.7891 2.31432 16.757C3.92997 18.7248 6.21981 20.0213 8.73843 20.3942C11.2571 20.7672 13.8244 20.1901 15.941 18.775L20.586 23.419C20.9642 23.7879 21.4717 23.9944 22 23.9944C22.5284 23.9944 23.0358 23.7879 23.414 23.419C23.789 23.0439 23.9996 22.5353 23.9996 22.005C23.9996 21.4747 23.789 20.966 23.414 20.591ZM10.25 3.00499C11.6839 3.00499 13.0856 3.4302 14.2779 4.22684C15.4702 5.02348 16.3994 6.15577 16.9481 7.48054C17.4969 8.8053 17.6404 10.263 17.3607 11.6694C17.081 13.0758 16.3905 14.3676 15.3765 15.3815C14.3626 16.3954 13.0708 17.0859 11.6644 17.3657C10.2581 17.6454 8.80032 17.5019 7.47556 16.9531C6.15079 16.4044 5.0185 15.4751 4.22186 14.2829C3.42522 13.0906 3.00001 11.6889 3.00001 10.255C3.00213 8.33282 3.76665 6.48999 5.12583 5.13081C6.48501 3.77163 8.32784 3.00711 10.25 3.00499Z" />
</g>
</svg>
