<svg width="24" height="24" viewBox="0 0 24 24" fill="none" xmlns="http://www.w3.org/2000/svg">
<path d="M5.21876 4.00001C4.93751 4.25 4.37502 4.5 3.25003 4.5C2.12502 4.5 1.56252 4.25 1.28127 3.99999M5.21876 4.00001C4.93752 3.75 4.37502 3.5 3.25002 3.5C2.12503 3.5 1.56252 3.75 1.28127 3.99999M5.21876 4.00001C5.5 4.25001 5.5 4.5 5.5 4.5V21C5.5 21 5.50002 22 3.25002 22C1.00002 22 1 21 1 21V4.5C1 4.5 1 4.25 1.28127 3.99999" stroke-width="1.5" stroke="" />
<circle cx="3.25002" cy="22.5" r="0.75" stroke="" />
<path d="M18.7813 4C19.0625 4.25 19.625 4.50001 20.75 4.50001C21.875 4.50001 22.4375 4.25 22.7188 4M18.7813 4C18.5 4.25 18.5 4.5 18.5 4.5L18.5 21C18.5 21 18.5 22 20.75 22C23 22 23 21 23 21V4.5C23 4.5 23 4.25 22.7188 4M18.7813 4C19.0625 3.75 19.625 3.5 20.75 3.5C21.875 3.5 22.4375 3.75 22.7188 4" stroke-width="1.5" stroke="" />
<circle cx="20.75" cy="22.5" r="0.75" stroke="" />
<path d="M5.00002 20H19M5.00002 5.5H19M8.50002 16.5H15.5M8.50002 9.2H12H15.5M13 13H8.50002" stroke-width="1.5" stroke="" />
<path d="M3.25002 4.00001V1" stroke-width="1.5" stroke="" />
<circle cx="3.25002" cy="1.5" r="0.5" stroke-width="1.5" stroke="" />
<path d="M20.75 4.00001V1" stroke-width="1.5" stroke="" />
<circle cx="20.75" cy="1.5" r="0.5" stroke-width="1.5" stroke="" />
</svg>
