<svg xmlns="http://www.w3.org/2000/svg" version="1.1" xmlns:xlink="http://www.w3.org/1999/xlink" xmlns:svgjs="http://svgjs.com/svgjs" viewBox="0 0 24 24" width="24" height="24"><g transform="matrix(1,0,0,1,0,0)"><path d="M0.75 14.25L0.75 23.25" fill="none" stroke="" stroke-linecap="round" stroke-linejoin="round" stroke-width="1.5"></path><path d="M.75,21.75h16.5a3,3,0,0,0-3-3H10.5a3,3,0,0,0-3-3H.75" fill="none" stroke="" stroke-linecap="round" stroke-linejoin="round" stroke-width="1.5"></path><path d="M6.75 18.75L10.5 18.75" fill="none" stroke="" stroke-linecap="round" stroke-linejoin="round" stroke-width="1.5"></path><path d="M7.875,3a.375.375,0,1,1-.375.375A.375.375,0,0,1,7.875,3" fill="none" stroke="" stroke-linecap="round" stroke-linejoin="round" stroke-width="1.5"></path><path d="M20.625,9a.375.375,0,1,1-.375.375A.375.375,0,0,1,20.625,9" fill="none" stroke="" stroke-linecap="round" stroke-linejoin="round" stroke-width="1.5"></path><path d="M6.635.75h15.23A1.4,1.4,0,0,1,23.25,2.156v8.438A1.4,1.4,0,0,1,21.865,12H6.635A1.4,1.4,0,0,1,5.25,10.594V2.156A1.4,1.4,0,0,1,6.635.75Z" fill="none" stroke="" stroke-linecap="round" stroke-linejoin="round" stroke-width="1.5"></path><path d="M12.000 6.000 A2.250 2.250 0 1 0 16.500 6.000 A2.250 2.250 0 1 0 12.000 6.000 Z" fill="none" stroke="" stroke-linecap="round" stroke-linejoin="round" stroke-width="1.5"></path></g></svg>