<svg xmlns="http://www.w3.org/2000/svg" version="1.1" xmlns:xlink="http://www.w3.org/1999/xlink" xmlns:svgjs="http://svgjs.com/svgjs" viewBox="0 0 24 24" width="24" height="24"><g transform="matrix(1,0,0,1,0,0)"><path d="M14.998 23.253L8.998 23.253 9.748 18.753 14.248 18.753 14.998 23.253z" fill="none" stroke="" stroke-linecap="round" stroke-linejoin="round" stroke-width="1"></path><path d="M6.748 23.253L17.248 23.253" fill="none" stroke="" stroke-linecap="round" stroke-linejoin="round" stroke-width="1"></path><path d="M0.748 0.753 L23.248 0.753 L23.248 18.753 L0.748 18.753 Z" fill="none" stroke="" stroke-linecap="round" stroke-linejoin="round" stroke-width="1"></path><path d="M.748,11.253l3.97-3.969a.75.75,0,0,1,1.061,0L7.718,9.223a.75.75,0,0,0,1.061,0l3.969-3.97" fill="none" stroke="" stroke-linecap="round" stroke-linejoin="round" stroke-width="1"></path><path d="M0.748 15.753L23.248 15.753" fill="none" stroke="" stroke-linecap="round" stroke-linejoin="round" stroke-width="1"></path><path d="M14.248 9.753L14.248 12.003" fill="none" stroke="" stroke-linecap="round" stroke-linejoin="round" stroke-width="1"></path><path d="M20.248 9.753L20.248 12.003" fill="none" stroke="" stroke-linecap="round" stroke-linejoin="round" stroke-width="1"></path><path d="M17.248 7.503L17.248 12.003" fill="none" stroke="" stroke-linecap="round" stroke-linejoin="round" stroke-width="1"></path></g></svg>