<svg width="24" height="24" viewBox="0 0 24 24" fill="none" xmlns="http://www.w3.org/2000/svg">
<path d="M0.75 14.25V23.25" stroke="" stroke-width="1.5" stroke-linecap="round" stroke-linejoin="round"/>
<path d="M0.75 21.75H17.25C17.25 20.9544 16.9339 20.1913 16.3713 19.6287C15.8087 19.0661 15.0456 18.75 14.25 18.75H10.5C10.5 17.9544 10.1839 17.1913 9.62132 16.6287C9.05871 16.0661 8.29565 15.75 7.5 15.75H0.75" stroke="" stroke-width="1.5" stroke-linecap="round" stroke-linejoin="round"/>
<path d="M6.75 18.75H10.5" stroke="" stroke-width="1.5" stroke-linecap="round" stroke-linejoin="round"/>
<path d="M7.204 10.344C7.42057 10.6284 7.70252 10.8565 8.02595 11.0088C8.34939 11.1611 8.70478 11.2332 9.062 11.219C10.201 11.219 11.125 10.526 11.125 9.672C11.125 8.818 10.201 8.126 9.062 8.126C7.923 8.126 7 7.433 7 6.578C7 5.723 7.924 5.031 9.062 5.031C9.41926 5.01652 9.77473 5.0885 10.0982 5.24084C10.4217 5.39318 10.7036 5.62136 10.92 5.906" stroke="" stroke-width="1.5" stroke-linecap="round" stroke-linejoin="round"/>
<path d="M9.06201 11.219V12.25" stroke="" stroke-width="1.5" stroke-linecap="round" stroke-linejoin="round"/>
<path d="M9.06201 4V5.031" stroke="" stroke-width="1.5" stroke-linecap="round" stroke-linejoin="round"/>
</svg>
