<svg xmlns="http://www.w3.org/2000/svg" version="1.1" xmlns:xlink="http://www.w3.org/1999/xlink" xmlns:svgjs="http://svgjs.com/svgjs" viewBox="0 0 24 24" height="24" width="24"><title>ticket (From Streamline App : https://app.streamlineicons.com)</title><g transform="matrix(1,0,0,1,0,0)"><path d="M23.2,10.53c0.466-0.095,0.8-0.505,0.8-0.98V5.5C24,4.672,23.328,4,22.5,4h-21C0.672,4,0,4.672,0,5.5v4.05 c0,0.475,0.334,0.885,0.8,0.98c0.812,0.165,1.336,0.957,1.172,1.768C1.852,12.889,1.39,13.35,0.8,13.47 C0.334,13.565,0,13.975,0,14.45v4.05C0,19.328,0.672,20,1.5,20h21c0.828,0,1.5-0.672,1.5-1.5v-4.05c0-0.475-0.334-0.885-0.8-0.98 c-0.812-0.165-1.336-0.957-1.172-1.768C22.148,11.111,22.61,10.65,23.2,10.53z M5.25,18.25c-0.414,0-0.75-0.336-0.75-0.75 s0.336-0.75,0.75-0.75S6,17.086,6,17.5S5.664,18.25,5.25,18.25z M5.25,14.583c-0.414,0-0.75-0.336-0.75-0.75s0.336-0.75,0.75-0.75 S6,13.419,6,13.833S5.664,14.583,5.25,14.583L5.25,14.583z M5.25,10.917c-0.414,0-0.75-0.336-0.75-0.75s0.336-0.75,0.75-0.75 S6,9.753,6,10.167S5.664,10.917,5.25,10.917z M5.25,7.25C4.836,7.25,4.5,6.914,4.5,6.5s0.336-0.75,0.75-0.75S6,6.086,6,6.5 S5.664,7.25,5.25,7.25z M17,16.25c-0.966,0-1.75-0.784-1.75-1.75s0.784-1.75,1.75-1.75s1.75,0.784,1.75,1.75l0,0 C18.749,15.466,17.966,16.249,17,16.25z M18.5,8.75h-9C9.086,8.75,8.75,8.414,8.75,8c0-0.414,0.336-0.75,0.75-0.75h9 c0.414,0,0.75,0.336,0.75,0.75C19.25,8.414,18.914,8.75,18.5,8.75z" stroke="none" stroke-width="0" stroke-linecap="round" stroke-linejoin="round"></path></g></svg>