<svg width="24" height="22" fill="none" xmlns="http://www.w3.org/2000/svg">
  <path fill-rule="evenodd" clip-rule="evenodd" d="M0 6.751a2.25 2.25 0 0 1 2.25-2.25h19.5A2.25 2.25 0 0 1 24 6.751v12a2.25 2.25 0 0 1-2.25 2.25H2.25A2.25 2.25 0 0 1 0 18.751v-12zm2.25-.75a.75.75 0 0 0-.75.75v12c0 .414.336.75.75.75h19.5a.75.75 0 0 0 .75-.75v-12a.75.75 0 0 0-.75-.75H2.25z" fill=""/>
  <path fill-rule="evenodd" clip-rule="evenodd" d="M6.75 5.251a5.25 5.25 0 1 1 10.5 0 .75.75 0 0 1-1.5 0 3.75 3.75 0 1 0-7.5 0 .75.75 0 0 1-1.5 0zM0 11.251a.75.75 0 0 1 .75-.75h9.75a.75.75 0 0 1 0 1.5H.75a.75.75 0 0 1-.75-.75zM12.75 11.251a.75.75 0 0 1 .75-.75h9.75a.75.75 0 0 1 0 1.5H13.5a.75.75 0 0 1-.75-.75z" fill=""/>
  <path fill-rule="evenodd" clip-rule="evenodd" d="M12 9.75a.75.75 0 0 0-.75.75V12a.75.75 0 0 0 1.5 0v-1.5a.75.75 0 0 0-.75-.75zm-2.25.75a2.25 2.25 0 0 1 4.5 0V12a2.25 2.25 0 0 1-4.5 0v-1.5z" fill=""/>
</svg>