<svg xmlns="http://www.w3.org/2000/svg" version="1.1" xmlns:xlink="http://www.w3.org/1999/xlink" xmlns:svgjs="http://svgjs.com/svgjs" viewBox="0 0 2 2" width="2" height="2"><g transform="matrix(0.08333333333333333,0,0,0.08333333333333333,0,0)"><path d="M11.250 6.750 A6.000 6.000 0 1 0 23.250 6.750 A6.000 6.000 0 1 0 11.250 6.750 Z" fill="none" stroke="" stroke-linecap="round" stroke-linejoin="round" stroke-width="1.5"></path><path d="M15.75,9.75v-6H18a1.5,1.5,0,0,1,0,3,1.5,1.5,0,0,1,0,3Z" fill="none" stroke="" stroke-linecap="round" stroke-linejoin="round" stroke-width="1.5"></path><path d="M15.75 6.75L18 6.75" fill="none" stroke="" stroke-linecap="round" stroke-linejoin="round" stroke-width="1.5"></path><path d="M17.25 3.75L17.25 3" fill="none" stroke="" stroke-linecap="round" stroke-linejoin="round" stroke-width="1.5"></path><path d="M17.25 9.75L17.25 10.5" fill="none" stroke="" stroke-linecap="round" stroke-linejoin="round" stroke-width="1.5"></path><path d="M8.25,14.25H6.217a1.342,1.342,0,0,0-.5,2.587l2.064.826a1.342,1.342,0,0,1-.5,2.587H5.25" fill="none" stroke="" stroke-linecap="round" stroke-linejoin="round" stroke-width="1.5"></path><path d="M6.75 14.25L6.75 13.5" fill="none" stroke="" stroke-linecap="round" stroke-linejoin="round" stroke-width="1.5"></path><path d="M6.75 21L6.75 20.25" fill="none" stroke="" stroke-linecap="round" stroke-linejoin="round" stroke-width="1.5"></path><path d="M0.750 17.250 A6.000 6.000 0 1 0 12.750 17.250 A6.000 6.000 0 1 0 0.750 17.250 Z" fill="none" stroke="" stroke-linecap="round" stroke-linejoin="round" stroke-width="1.5"></path><path d="M0.75 4.5L3 8.25 6.75 6" fill="none" stroke="" stroke-linecap="round" stroke-linejoin="round" stroke-width="1.5"></path><path d="M8.189.9A6.752,6.752,0,0,0,3.772,7.786" fill="none" stroke="" stroke-linecap="round" stroke-linejoin="round" stroke-width="1.5"></path><path d="M23.25 19.5L21 15.75 17.25 18" fill="none" stroke="" stroke-linecap="round" stroke-linejoin="round" stroke-width="1.5"></path><path d="M15.811,23.1a6.752,6.752,0,0,0,4.417-6.884" fill="none" stroke="" stroke-linecap="round" stroke-linejoin="round" stroke-width="1.5"></path></g></svg>