<svg xmlns="http://www.w3.org/2000/svg" height="24" width="24"><path d="M0 12c0 6.627 5.373 12 12 12s12-5.373 12-12S18.627 0 12 0C5.376.007.007 5.376 0 12zm7.5-.75a.25.25 0 0 0 .25-.25 4.25 4.25 0 0 1 8.5 0v6a.75.75 0 0 1-1.5 0v-6a2.75 2.75 0 1 0-5.5 0c0 .138.112.25.25.25h1.125a.75.75 0 0 1 .577 1.229l-2.125 2.562c-.007.008-.018.011-.025.019a.722.722 0 0 1-.175.136.882.882 0 0 1-.071.048.75.75 0 0 1-.306.068.672.672 0 0 1-.507-.2l-.037-.036c-.012-.013-.026-.023-.037-.036l-2.093-2.565a.75.75 0 0 1 .58-1.225H7.5z"/></svg>