<svg xmlns="http://www.w3.org/2000/svg" version="1.1" xmlns:xlink="http://www.w3.org/1999/xlink" xmlns:svgjs="http://svgjs.com/svgjs" viewBox="0 0 24 24" height="24" width="24"><title>lock unlock 1 (From Streamline App : https://app.streamlineicons.com)</title><g transform="matrix(1,0,0,1,0,0)"><path d="M19.5,9.5h-0.75V6.75C18.749,3.022,15.726,0,11.997,0.001c-2.98,0.001-5.607,1.956-6.464,4.81 C5.335,5.472,5.711,6.169,6.372,6.367C7.033,6.565,7.73,6.189,7.928,5.528l0,0c0.676-2.248,3.047-3.523,5.295-2.847 c1.796,0.54,3.026,2.193,3.027,4.069V9c0,0.276-0.224,0.5-0.5,0.5H4.5c-1.105,0-2,0.895-2,2V22c0,1.105,0.895,2,2,2h15 c1.105,0,2-0.895,2-2V11.5C21.5,10.395,20.605,9.5,19.5,9.5z M12,18.5c-1.105,0-2-0.895-2-2s0.895-2,2-2s2,0.895,2,2 S13.105,18.5,12,18.5z" stroke="none" stroke-width="0" stroke-linecap="round" stroke-linejoin="round"></path></g></svg>