<svg xmlns="http://www.w3.org/2000/svg" version="1.1" xmlns:xlink="http://www.w3.org/1999/xlink" xmlns:svgjs="http://svgjs.com/svgjs" viewBox="0 0 24 24" height="24" width="24"><title>common file upload (From Streamline App : https://app.streamlineicons.com)</title><g transform="matrix(1,0,0,1,0,0)"><path d="M6.5,11C2.91,11,0,13.91,0,17.5S2.91,24,6.5,24s6.5-2.91,6.5-6.5C12.996,13.912,10.088,11.004,6.5,11z M8.891,16.688 c0.172,0.216,0.137,0.53-0.079,0.703C8.724,17.462,8.613,17.5,8.5,17.5H7.75c-0.138,0-0.25,0.112-0.25,0.25v2.75 c0,0.552-0.448,1-1,1s-1-0.448-1-1v-2.75c0-0.138-0.112-0.25-0.25-0.25H4.5C4.224,17.5,4,17.276,4,17 c0-0.113,0.038-0.224,0.109-0.312l2-2.5c0.187-0.216,0.513-0.24,0.729-0.053c0.019,0.016,0.036,0.034,0.053,0.053L8.891,16.688z M24,4.414c0-0.53-0.211-1.039-0.586-1.414L21,0.586C20.625,0.211,20.116,0,19.585,0H8C6.895,0,6,0.895,6,2v7.275 C5.999,9.41,6.107,9.522,6.242,9.525C6.608,9.531,7.28,9.558,7.727,9.608c0.135,0.015,0.257-0.082,0.272-0.217 C8,9.38,8,9.37,8,9.36V2.5C8,2.224,8.224,2,8.5,2h10.879c0.132,0,0.259,0.053,0.353,0.146l2.122,2.122 C21.947,4.362,22,4.489,22,4.621V18c0,0.276-0.224,0.5-0.5,0.5h-6.858c-0.121,0.001-0.224,0.09-0.241,0.21 c-0.075,0.496-0.197,0.985-0.364,1.458c-0.048,0.126,0.015,0.267,0.141,0.315c0.028,0.011,0.057,0.016,0.087,0.016H22 c1.105,0,2-0.895,2-2V4.414z" stroke="none" stroke-width="0" stroke-linecap="round" stroke-linejoin="round"></path></g></svg>