<svg width="209" height="208" viewBox="0 0 209 208" fill="none" xmlns="http://www.w3.org/2000/svg">
<path d="M21.3 104C21.3 126.066 30.0657 147.228 45.6688 162.831C61.2718 178.434 82.434 187.2 104.5 187.2C126.566 187.2 147.728 178.434 163.331 162.831C178.934 147.228 187.7 126.066 187.7 104C187.7 81.934 178.934 60.7718 163.331 45.1688C147.728 29.5657 126.566 20.8 104.5 20.8C82.434 20.8 61.2718 29.5657 45.6688 45.1688C30.0657 60.7718 21.3 81.934 21.3 104Z" fill="#FCF9F6"/>
<path d="M112.82 58.24H119.06V97.76H112.82V58.24Z" fill="white"/>
<path d="M112.82 58.24H119.06V97.76H112.82V58.24Z" stroke="#27395B" stroke-width="2.08" stroke-linecap="round" stroke-linejoin="round"/>
<path d="M162.969 34.3366H155.581C149.774 34.3491 144.005 33.4133 138.5 31.566C132.994 29.7189 127.224 28.7831 121.417 28.7955H114.029C113.747 28.7632 113.463 28.8413 113.238 29.0135C113.013 29.1858 112.863 29.4386 112.82 29.719V60.0371C112.863 60.3174 113.013 60.5703 113.238 60.7425C113.463 60.9147 113.747 60.9929 114.029 60.9606H121.417C127.224 60.9482 132.994 61.8841 138.5 63.7311C144.005 65.5777 149.774 66.5129 155.581 66.4996H162.969C163.251 66.5325 163.534 66.4545 163.76 66.2822C163.985 66.1099 164.135 65.8567 164.177 65.5761L150.273 50.4171L164.177 35.258C164.135 34.9778 163.985 34.7251 163.759 34.5533C163.534 34.3814 163.25 34.3037 162.969 34.3366Z" fill="#C9D4E8" stroke="#27395B" stroke-width="2.08" stroke-linecap="round" stroke-linejoin="round"/>
<path d="M65.5105 177.501L144.892 176.737C148.765 174.578 152.459 172.113 155.941 169.366L130.581 99.8087C130.238 98.8044 129.645 97.9041 128.858 97.1929C128.07 96.4818 127.114 95.9832 126.08 95.7444L108.5 91.6884C107.701 91.5034 106.874 91.4778 106.065 91.6128C105.256 91.7478 104.482 92.041 103.786 92.4754C103.091 92.9099 102.488 93.4771 102.012 94.1447C101.536 94.8124 101.196 95.5673 101.012 96.3663L91.057 139.528C90.7399 140.904 89.9658 142.131 88.8612 143.01C87.7566 143.889 86.3866 144.367 84.9751 144.366H76.5823C75.5702 144.366 74.5733 144.613 73.6776 145.084C72.7818 145.555 72.0141 146.237 71.4406 147.07L55.0522 170.907C58.37 173.361 61.8657 175.565 65.5105 177.501Z" fill="#C9D4E8"/>
<path d="M102.628 152.709C102.568 153.01 102.42 153.286 102.203 153.503C101.986 153.72 101.71 153.868 101.409 153.928C101.048 154.002 100.725 154.201 100.498 154.49C100.27 154.779 100.152 155.14 100.166 155.508C100.179 155.876 100.323 156.227 100.571 156.499C100.82 156.77 101.156 156.945 101.521 156.992L106.721 157.643C107.246 157.709 107.776 157.573 108.204 157.262C108.632 156.951 108.925 156.488 109.024 155.969L116.876 114.739C116.984 114.173 116.722 111.827 114.742 111.735C114.322 111.717 113.906 111.826 113.549 112.049C113.192 112.272 112.911 112.598 112.743 112.983L108.743 122.316C108.686 122.45 108.643 122.59 108.616 122.732L102.628 152.709Z" fill="white"/>
<path d="M149.428 118.19C149.424 117.378 149.618 116.577 149.995 115.858C150.372 115.139 150.919 114.523 151.59 114.065C152.26 113.607 153.032 113.319 153.839 113.229C154.645 113.138 155.462 113.247 156.217 113.545C156.523 111.593 157.516 109.815 159.017 108.531C160.518 107.247 162.429 106.541 164.404 106.541C166.38 106.541 168.29 107.247 169.791 108.531C171.292 109.815 172.285 111.593 172.591 113.545C173.276 113.275 174.011 113.16 174.746 113.208C175.48 113.256 176.194 113.466 176.838 113.822C177.482 114.179 178.039 114.673 178.469 115.27C178.9 115.867 179.193 116.551 179.328 117.275C179.463 117.998 179.436 118.742 179.25 119.454C179.063 120.166 178.722 120.828 178.25 121.392C177.778 121.957 177.187 122.41 176.519 122.719C175.852 123.028 175.124 123.186 174.388 123.182H154.42C153.096 123.182 151.826 122.656 150.89 121.72C149.954 120.783 149.428 119.514 149.428 118.19Z" fill="white" stroke="#27395B" stroke-width="2.08" stroke-linecap="round" stroke-linejoin="round"/>
<path d="M149.428 118.19C149.424 117.378 149.618 116.577 149.995 115.858C150.372 115.139 150.919 114.523 151.59 114.065C152.26 113.607 153.032 113.319 153.839 113.229C154.645 113.138 155.462 113.247 156.217 113.545C156.523 111.593 157.516 109.815 159.017 108.531C160.518 107.247 162.429 106.541 164.404 106.541C166.38 106.541 168.29 107.247 169.791 108.531C171.292 109.815 172.285 111.593 172.591 113.545C173.276 113.275 174.011 113.16 174.746 113.208C175.48 113.256 176.194 113.466 176.838 113.822C177.482 114.179 178.039 114.673 178.469 115.27C178.9 115.867 179.193 116.551 179.328 117.275C179.463 117.998 179.436 118.742 179.25 119.454C179.063 120.166 178.722 120.828 178.25 121.392C177.778 121.957 177.187 122.41 176.519 122.719C175.852 123.028 175.124 123.186 174.388 123.182H154.42C153.096 123.182 151.826 122.656 150.89 121.72C149.954 120.783 149.428 119.514 149.428 118.19Z" fill="white" stroke="#27395B" stroke-width="2.08" stroke-linecap="round" stroke-linejoin="round"/>
<path d="M45.5673 93.7851C46.3508 93.7903 47.1265 93.9405 47.8553 94.2282C48.245 91.7337 49.5133 89.4607 51.4313 87.819C53.3494 86.1774 55.7909 85.2751 58.3156 85.2751C60.8403 85.2751 63.2819 86.1774 65.1999 87.819C67.118 89.4607 68.3862 91.7337 68.7759 94.2282C69.6496 93.8887 70.5873 93.7462 71.5223 93.8107C72.4574 93.8751 73.3667 94.145 74.1855 94.6012C75.0042 95.0573 75.7123 95.6884 76.2593 96.4495C76.8063 97.2106 77.1786 98.0829 77.3498 99.0044C77.5211 99.9259 77.4869 100.874 77.2499 101.781C77.0128 102.687 76.5787 103.531 75.9784 104.25C75.3781 104.97 74.6265 105.549 73.777 105.945C72.9276 106.341 72.0012 106.545 71.0639 106.542H45.5673C44.72 106.557 43.8781 106.403 43.0909 106.09C42.3036 105.776 41.5868 105.309 40.9821 104.715C40.3775 104.121 39.8973 103.413 39.5694 102.631C39.2416 101.85 39.0728 101.011 39.0728 100.163C39.0728 99.316 39.2416 98.4771 39.5694 97.6956C39.8973 96.9141 40.3775 96.2058 40.9821 95.612C41.5868 95.0182 42.3036 94.5508 43.0909 94.2372C43.8781 93.9235 44.72 93.7698 45.5673 93.7851Z" fill="white" stroke="#27395B" stroke-width="2.08" stroke-linecap="round" stroke-linejoin="round"/>
<path d="M45.5673 93.7851C46.3508 93.7903 47.1265 93.9405 47.8553 94.2282C48.245 91.7337 49.5133 89.4607 51.4313 87.819C53.3494 86.1774 55.7909 85.2751 58.3156 85.2751C60.8403 85.2751 63.2819 86.1774 65.1999 87.819C67.118 89.4607 68.3862 91.7337 68.7759 94.2282C69.6496 93.8887 70.5873 93.7462 71.5223 93.8107C72.4574 93.8751 73.3667 94.145 74.1855 94.6012C75.0042 95.0573 75.7123 95.6884 76.2593 96.4495C76.8063 97.2106 77.1786 98.0829 77.3498 99.0044C77.5211 99.9259 77.4869 100.874 77.2499 101.781C77.0128 102.687 76.5787 103.531 75.9784 104.25C75.3781 104.97 74.6265 105.549 73.777 105.945C72.9276 106.341 72.0012 106.545 71.0639 106.542H45.5673C44.72 106.557 43.8781 106.403 43.0909 106.09C42.3036 105.776 41.5868 105.309 40.9821 104.715C40.3775 104.121 39.8973 103.413 39.5694 102.631C39.2416 101.85 39.0728 101.011 39.0728 100.163C39.0728 99.316 39.2416 98.4771 39.5694 97.6956C39.8973 96.9141 40.3775 96.2058 40.9821 95.612C41.5868 95.0182 42.3036 94.5508 43.0909 94.2372C43.8781 93.9235 44.72 93.7698 45.5673 93.7851Z" fill="white" stroke="#27395B" stroke-width="2.08" stroke-linecap="round" stroke-linejoin="round"/>
<path d="M134.806 111.398L131.817 136.816C131.782 137.11 131.686 137.393 131.533 137.646C131.381 137.9 131.176 138.118 130.933 138.286C130.69 138.454 130.413 138.568 130.122 138.621C129.832 138.674 129.533 138.664 129.246 138.592L125.367 137.621C125.091 137.552 124.804 137.54 124.524 137.586C124.244 137.632 123.976 137.736 123.737 137.889C123.498 138.043 123.293 138.243 123.135 138.479C122.977 138.715 122.868 138.981 122.816 139.26L115.815 177.022L144.887 176.74C148.762 174.58 152.458 172.114 155.94 169.366L134.806 111.398Z" fill="white"/>
<path d="M56.7891 168.382L71.4406 147.07C72.0141 146.237 72.7818 145.555 73.6776 145.084C74.5734 144.613 75.5703 144.366 76.5823 144.366H84.9751C86.3867 144.367 87.7566 143.889 88.8612 143.01C89.9659 142.131 90.7399 140.904 91.0571 139.528L101.016 96.3663C101.2 95.5673 101.54 94.8124 102.016 94.1447C102.492 93.4771 103.095 92.9099 103.791 92.4754C104.486 92.041 105.26 91.7478 106.069 91.6128C106.878 91.4778 107.705 91.5034 108.504 91.6884L126.084 95.7444C127.118 95.9832 128.074 96.4818 128.862 97.1929C129.649 97.9041 130.243 98.8044 130.585 99.8087L154.836 166.348" stroke="#27395B" stroke-width="2.08" stroke-linecap="round" stroke-linejoin="round"/>
<path d="M151.604 164.32C150.46 163.27 149.002 162.625 147.456 162.486C145.909 162.346 144.36 162.72 143.047 163.548C143.074 163.274 143.088 162.997 143.088 162.716C143.054 160.528 142.16 158.441 140.6 156.905C139.04 155.37 136.939 154.509 134.751 154.509C132.562 154.509 130.461 155.37 128.901 156.905C127.341 158.441 126.447 160.528 126.413 162.716C126.413 162.999 126.427 163.276 126.454 163.548C125.325 162.84 124.02 162.462 122.688 162.458C122.214 162.46 121.742 162.507 121.277 162.6C120.008 160.617 118.226 159.016 116.121 157.964C114.015 156.912 111.664 156.45 109.317 156.627C106.969 156.803 104.714 157.611 102.789 158.966C100.864 160.32 99.3414 162.17 98.3828 164.32C97.239 163.27 95.7814 162.625 94.2348 162.486C92.6883 162.346 91.1389 162.72 89.8256 163.548C89.8527 163.274 89.8672 162.997 89.8672 162.716C89.8327 160.528 88.939 158.441 87.3792 156.905C85.8193 155.37 83.7183 154.509 81.5296 154.509C79.3408 154.509 77.2398 155.37 75.6799 156.905C74.1201 158.441 73.2265 160.528 73.1919 162.716C73.1919 162.999 73.2064 163.276 73.2335 163.548C71.9205 162.72 70.3715 162.347 68.8254 162.486C67.2793 162.626 65.8221 163.27 64.6784 164.32C63.8118 162.377 62.4833 160.676 60.8087 159.365C59.1341 158.053 57.1641 157.171 55.0705 156.796C52.9769 156.42 50.8232 156.562 48.7971 157.209C46.7709 157.857 44.9338 158.989 43.4458 160.509C51.4627 169.179 61.2341 176.042 72.1097 180.642C82.9853 185.241 94.7158 187.472 106.521 187.186C118.325 186.899 129.934 184.102 140.574 178.98C151.213 173.858 160.64 166.529 168.227 157.481C165.108 156.264 161.641 156.296 158.545 157.57C155.449 158.843 152.963 161.261 151.604 164.32Z" fill="white"/>
<path d="M165.575 156.741C164.894 156.633 164.205 156.58 163.516 156.58C160.994 156.582 158.528 157.314 156.413 158.687C154.299 160.061 152.628 162.017 151.601 164.32C150.458 163.27 149.001 162.625 147.455 162.486C145.909 162.346 144.36 162.718 143.046 163.546C143.073 163.272 143.088 162.995 143.088 162.714C143.053 160.526 142.16 158.439 140.6 156.903C139.04 155.368 136.939 154.507 134.75 154.507C132.562 154.507 130.461 155.368 128.901 156.903C127.341 158.439 126.447 160.526 126.413 162.714C126.413 162.997 126.427 163.274 126.454 163.546C125.325 162.838 124.02 162.46 122.687 162.456C122.214 162.458 121.742 162.505 121.277 162.598C120.008 160.616 118.226 159.014 116.12 157.962C114.014 156.911 111.663 156.449 109.316 156.626C106.969 156.802 104.713 157.611 102.788 158.965C100.863 160.32 99.341 162.17 98.3826 164.32C97.2391 163.27 95.7816 162.625 94.235 162.485C92.6885 162.345 91.1389 162.718 89.8255 163.546C89.8525 163.272 89.8671 162.995 89.8671 162.714C89.8325 160.526 88.9389 158.439 87.379 156.903C85.8192 155.368 83.7182 154.507 81.5294 154.507C79.3407 154.507 77.2397 155.368 75.6798 156.903C74.1199 158.439 73.2263 160.526 73.1917 162.714C73.1917 162.997 73.2063 163.274 73.2333 163.546C71.9199 162.718 70.3703 162.345 68.8238 162.485C67.2773 162.625 65.8197 163.27 64.6762 164.32C63.8778 162.531 62.687 160.945 61.192 159.679C59.6969 158.413 57.9361 157.5 56.0401 157.008C54.144 156.515 52.1615 156.456 50.2394 156.834C48.3173 157.213 46.505 158.019 44.937 159.193" stroke="#27395B" stroke-width="2.08" stroke-linecap="round" stroke-linejoin="round"/>
</svg>
