<svg width="209" height="208" viewBox="0 0 209 208" fill="none" xmlns="http://www.w3.org/2000/svg">
<path d="M104.5 206.155C150.45 206.155 187.7 168.905 187.7 122.955C187.7 77.005 150.45 39.7551 104.5 39.7551C58.5497 39.7551 21.2998 77.005 21.2998 122.955C21.2998 168.905 58.5497 206.155 104.5 206.155Z" fill="#FCF9F6"/>
<path d="M140.068 190.967C140.068 193.267 124.632 195.127 105.592 195.127C86.5518 195.127 69.3481 193.267 69.3481 190.967C69.3481 188.666 86.5518 186.807 105.592 186.807C124.632 186.807 140.068 188.671 140.068 190.967Z" fill="#F0E0D1"/>
<path d="M48.2402 141.232L108.612 184.912C108.982 185.18 109.426 185.327 109.882 185.331C110.339 185.335 110.786 185.197 111.16 184.936C111.535 184.675 111.819 184.303 111.973 183.873C112.127 183.444 112.143 182.976 112.019 182.537L91.9202 110.777L48.2402 141.232Z" fill="white"/>
<path d="M84.6278 138.551C79.2664 144.733 72.8454 149.909 65.6665 153.837L70.7209 157.492C72.0937 156.687 73.4665 155.828 74.8351 154.871C79.9752 151.238 84.675 147.019 88.8398 142.299C92.0569 138.687 94.9535 134.801 97.4967 130.687L95.3398 122.991C92.4517 128.616 88.8514 133.846 84.6278 138.551Z" fill="#C9D4E8" stroke="#27395B" stroke-width="3" stroke-linecap="round" stroke-linejoin="round"/>
<path d="M93.84 151.763C89.7085 156.444 85.0008 160.583 79.8291 164.081L84.6942 167.6C89.5808 164.078 94.0609 160.023 98.052 155.511C99.7576 153.598 101.326 151.628 102.807 149.635L100.841 142.617C98.734 145.833 96.394 148.89 93.84 151.763Z" fill="#C9D4E8" stroke="#27395B" stroke-width="3" stroke-linecap="round" stroke-linejoin="round"/>
<path d="M103.416 167.351C100.905 170.183 98.1939 172.831 95.3042 175.275L99.978 178.657C102.68 176.3 105.232 173.777 107.62 171.101C107.926 170.756 108.221 170.408 108.518 170.061L106.661 163.424C105.625 164.778 104.537 166.092 103.416 167.351Z" fill="#C9D4E8" stroke="#27395B" stroke-width="3" stroke-linecap="round" stroke-linejoin="round"/>
<path d="M48.2402 141.232L108.612 184.912C108.982 185.18 109.426 185.327 109.882 185.331C110.339 185.335 110.786 185.197 111.16 184.936C111.535 184.675 111.819 184.303 111.973 183.873C112.127 183.444 112.143 182.976 112.019 182.537L91.9202 110.777L48.2402 141.232Z" stroke="#27395B" stroke-width="3" stroke-linecap="round" stroke-linejoin="round"/>
<path d="M77.3424 136.385C89.3995 127.975 95.9172 116.488 91.8999 110.728C87.8824 104.969 74.8512 107.119 62.7938 115.529C50.7367 123.94 44.219 135.427 48.2365 141.186C52.2539 146.945 65.2851 144.796 77.3424 136.385Z" fill="#C9D4E8"/>
<path d="M77.3424 136.385C89.3995 127.975 95.9172 116.488 91.8999 110.728C87.8824 104.969 74.8512 107.119 62.7938 115.529C50.7367 123.94 44.219 135.427 48.2365 141.186C52.2539 146.945 65.2851 144.796 77.3424 136.385Z" stroke="#27395B" stroke-width="3" stroke-linecap="round" stroke-linejoin="round"/>
<path d="M119.285 79.8721L112.529 154.08C112.487 154.535 112.588 154.991 112.817 155.386C113.046 155.781 113.393 156.095 113.809 156.284C114.224 156.473 114.689 156.528 115.137 156.441C115.585 156.353 115.995 156.129 116.31 155.798L167.763 101.903L119.285 79.8721Z" fill="#C9D4E8"/>
<path d="M140.155 109.803C132.103 108.346 124.375 105.465 117.334 101.296L116.772 107.507C118.166 108.276 119.607 109.017 121.125 109.707C126.872 112.275 132.898 114.164 139.082 115.336C143.83 116.261 148.65 116.77 153.486 116.858L159.008 111.072C152.696 111.46 146.359 111.034 140.155 109.803Z" fill="white" stroke="#27395B" stroke-width="3" stroke-linecap="round" stroke-linejoin="round"/>
<path d="M133.493 124.465C127.359 123.302 121.397 121.366 115.751 118.702L115.206 124.682C120.728 127.086 126.5 128.87 132.415 130C134.932 130.489 137.428 130.832 139.903 131.092L144.935 125.822C141.093 125.65 137.269 125.196 133.493 124.465Z" fill="white" stroke="#27395B" stroke-width="3" stroke-linecap="round" stroke-linejoin="round"/>
<path d="M124.972 140.656C121.255 139.941 117.595 138.961 114.018 137.725L113.494 143.47C116.9 144.595 120.374 145.503 123.894 146.191C124.348 146.28 124.795 146.355 125.246 146.436L130.005 141.444C128.312 141.243 126.627 140.978 124.972 140.656Z" fill="white" stroke="#27395B" stroke-width="3" stroke-linecap="round" stroke-linejoin="round"/>
<path d="M119.285 79.8721L112.529 154.08C112.487 154.535 112.588 154.991 112.817 155.386C113.046 155.781 113.393 156.095 113.809 156.284C114.224 156.473 114.689 156.528 115.137 156.441C115.585 156.353 115.995 156.129 116.31 155.798L167.763 101.903L119.285 79.8721Z" stroke="#27395B" stroke-width="3" stroke-linecap="round" stroke-linejoin="round"/>
<path d="M167.763 101.903C170.668 95.5089 162.172 85.394 148.785 79.3111C135.398 73.2281 122.19 73.4804 119.285 79.8748C116.379 86.2691 124.876 96.3839 138.263 102.467C151.65 108.55 164.857 108.297 167.763 101.903Z" fill="white"/>
<path d="M167.763 101.903C170.668 95.5089 162.172 85.394 148.785 79.3111C135.398 73.2281 122.19 73.4804 119.285 79.8748C116.379 86.2691 124.876 96.3839 138.263 102.467C151.65 108.55 164.857 108.297 167.763 101.903Z" stroke="#27395B" stroke-width="3" stroke-linecap="round" stroke-linejoin="round"/>
<path d="M181.934 51.6756C182.137 52.0329 182.229 52.4425 182.2 52.8522C182.17 53.262 182.02 53.6539 181.768 53.9781C180.44 55.7474 178.762 57.2238 176.838 58.3149C174.914 59.4061 172.786 60.0888 170.586 60.3201C170.178 60.3693 169.765 60.2968 169.399 60.1118C169.032 59.9267 168.729 59.6374 168.527 59.2801L165.962 54.7561C165.8 54.4709 165.708 54.1512 165.693 53.8236C165.678 53.4958 165.741 53.1692 165.877 52.8705C166.012 52.5716 166.216 52.3093 166.473 52.1045C166.729 51.8998 167.03 51.7586 167.351 51.6922C170.698 51.0322 173.741 49.3073 176.027 46.7751C176.248 46.5311 176.525 46.3431 176.833 46.2268C177.141 46.1103 177.472 46.0687 177.8 46.1055C178.127 46.1424 178.441 46.2563 178.716 46.4381C178.991 46.6201 179.218 46.8645 179.38 47.1516L181.934 51.6756Z" fill="#C9D4E8" stroke="#27395B" stroke-width="3" stroke-linecap="round" stroke-linejoin="round"/>
<path d="M88.9 51.6754C89.1028 52.0327 89.1951 52.4421 89.1656 52.8518C89.1358 53.2616 88.9856 53.6535 88.7335 53.978C87.4069 55.7462 85.7298 57.2219 83.8075 58.3131C81.8849 59.4043 79.7581 60.0873 77.5598 60.3199C77.1519 60.3696 76.7384 60.2972 76.3717 60.1121C76.0048 59.927 75.7009 59.6374 75.4985 59.2799L72.9339 54.7559C72.7721 54.4705 72.6799 54.1508 72.6651 53.8228C72.6506 53.495 72.7136 53.1684 72.8492 52.8695C72.985 52.5708 73.1895 52.3083 73.446 52.1037C73.7026 51.899 74.0038 51.758 74.3254 51.692C77.6721 51.0321 80.7154 49.3071 83.0011 46.7749C83.2226 46.533 83.4984 46.3471 83.8056 46.232C84.1128 46.117 84.4427 46.0765 84.7687 46.1133C85.0946 46.1503 85.4072 46.2637 85.6809 46.4444C85.9547 46.6252 86.1818 46.8681 86.3436 47.1535L88.9 51.6754Z" fill="#C9D4E8" stroke="#27395B" stroke-width="3" stroke-linecap="round" stroke-linejoin="round"/>
<path d="M138.851 87.8157C138.45 87.902 138.032 87.8673 137.65 87.7163C137.268 87.5653 136.939 87.3047 136.705 86.9671C135.414 85.171 134.508 83.1282 134.043 80.9663C133.578 78.8041 133.563 76.5696 134.001 74.4018C134.074 73.9962 134.266 73.6218 134.552 73.3254C134.838 73.0292 135.206 72.8247 135.609 72.7378L140.694 71.6458C141.014 71.5788 141.345 71.588 141.661 71.6728C141.976 71.7579 142.267 71.9158 142.511 72.1342C142.754 72.3526 142.942 72.6253 143.06 72.9298C143.178 73.2345 143.223 73.5627 143.19 73.888C142.818 77.2791 143.553 80.6998 145.285 83.6391C145.449 83.9228 145.544 84.2416 145.562 84.5692C145.58 84.8968 145.52 85.224 145.387 85.524C145.254 85.8241 145.052 86.0883 144.798 86.2954C144.543 86.5024 144.243 86.6463 143.922 86.7154L138.851 87.8157Z" fill="#C9D4E8" stroke="#27395B" stroke-width="3" stroke-linecap="round" stroke-linejoin="round"/>
<path d="M48.363 33.9831C47.9616 34.0697 47.5435 34.0356 47.1616 33.8848C46.7795 33.7342 46.4507 33.4737 46.2165 33.1366C44.9261 31.3401 44.02 29.2971 43.5547 27.1347C43.0896 24.9724 43.0751 22.7374 43.5125 20.5692C43.5855 20.1638 43.7775 19.7892 44.0637 19.493C44.3499 19.1968 44.7176 18.9922 45.1203 18.9052L50.2122 17.8215C50.5323 17.7545 50.8634 17.7638 51.1792 17.8488C51.4949 17.9338 51.7863 18.092 52.0295 18.3106C52.2726 18.5293 52.4606 18.8021 52.5786 19.1071C52.6965 19.4121 52.741 19.7405 52.7082 20.0659C52.3363 23.4565 53.0711 26.8762 54.8027 29.8148C54.9673 30.0989 55.0621 30.4178 55.0798 30.7456C55.0975 31.0732 55.0371 31.4006 54.9042 31.7005C54.7711 32.0007 54.5689 32.2648 54.3141 32.4718C54.0593 32.6788 53.7592 32.8225 53.4382 32.8911L48.363 33.9831Z" fill="#C9D4E8" stroke="#27395B" stroke-width="3" stroke-linecap="round" stroke-linejoin="round"/>
<path d="M32.8042 44.1916C32.4758 43.945 32.0816 43.8012 31.6715 43.7781C31.2613 43.7553 30.8536 43.8543 30.4996 44.0627C28.5758 45.1545 26.8979 46.6311 25.5704 48.4005C24.2432 50.1698 23.2949 52.1938 22.7849 54.3462C22.684 54.7443 22.7033 55.1634 22.8402 55.5505C22.9773 55.9378 23.2258 56.2758 23.5545 56.5219L27.7145 59.6419C27.9768 59.8389 28.2817 59.9709 28.6049 60.0275C28.928 60.0841 29.2597 60.0635 29.5732 59.9674C29.8868 59.8711 30.173 59.7022 30.4089 59.4744C30.6448 59.2465 30.8235 58.9661 30.9302 58.656C32.012 55.4211 34.1113 52.6229 36.9143 50.6792C37.1828 50.4903 37.4027 50.2405 37.556 49.9501C37.7095 49.66 37.7919 49.3373 37.7969 49.0091C37.8016 48.6809 37.7288 48.3562 37.5841 48.0615C37.4393 47.7667 37.2269 47.5107 36.9642 47.3137L32.8042 44.1916Z" fill="#C9D4E8" stroke="#27395B" stroke-width="3" stroke-linecap="round" stroke-linejoin="round"/>
<path d="M66.228 110.492C66.5506 110.238 66.9413 110.084 67.3506 110.052C67.76 110.019 68.1699 110.109 68.5285 110.309C70.4771 111.355 72.1889 112.792 73.5569 114.529C74.9251 116.267 75.9204 118.268 76.4803 120.407C76.5908 120.803 76.5816 121.222 76.4539 121.613C76.3262 122.004 76.0858 122.347 75.7627 122.601L71.6839 125.819C71.4262 126.022 71.1239 126.162 70.8022 126.226C70.4804 126.29 70.1478 126.277 69.832 126.188C69.5163 126.099 69.2259 125.936 68.9849 125.713C68.744 125.491 68.5591 125.214 68.4453 124.906C67.2882 121.697 65.124 118.949 62.276 117.071C62.0036 116.888 61.7783 116.644 61.6183 116.357C61.4584 116.071 61.3685 115.751 61.356 115.423C61.3434 115.095 61.4085 114.769 61.546 114.471C61.6834 114.174 61.8894 113.912 62.1471 113.709L66.228 110.492Z" fill="#C9D4E8" stroke="#27395B" stroke-width="3" stroke-linecap="round" stroke-linejoin="round"/>
<path d="M124.705 34.7943C124.368 35.0294 124.108 35.3588 123.958 35.7411C123.808 36.1234 123.775 36.5417 123.863 36.943C124.298 39.1109 125.176 41.166 126.441 42.9797C127.706 44.7935 129.331 46.3269 131.215 47.4844C131.562 47.7055 131.966 47.8189 132.377 47.8103C132.788 47.8018 133.187 47.6718 133.524 47.4366L137.78 44.4601C138.049 44.2727 138.27 44.0241 138.425 43.7348C138.58 43.4457 138.664 43.1239 138.67 42.7959C138.677 42.4679 138.606 42.143 138.463 41.8478C138.32 41.5524 138.11 41.2951 137.848 41.0967C135.114 39.0575 133.113 36.1885 132.143 32.9182C132.048 32.6043 131.879 32.3172 131.651 32.0808C131.424 31.8445 131.143 31.6652 130.833 31.5578C130.523 31.4505 130.192 31.4183 129.867 31.4634C129.542 31.5085 129.232 31.63 128.963 31.8178L124.705 34.7943Z" fill="#C9D4E8" stroke="#27395B" stroke-width="3" stroke-linecap="round" stroke-linejoin="round"/>
<path d="M102.93 27.8324C102.968 28.2416 102.884 28.653 102.689 29.0145C102.494 29.3762 102.196 29.672 101.833 29.8646C99.8971 30.9333 97.7611 31.5914 95.5591 31.7975C93.3572 32.0037 91.1361 31.7534 89.0351 31.0627C88.6424 30.9412 88.2944 30.7059 88.0355 30.3869C87.7763 30.0678 87.6174 29.679 87.5791 29.2697L87.0945 24.0926C87.0639 23.7658 87.1111 23.4366 87.2322 23.1316C87.3532 22.8267 87.5446 22.5546 87.7909 22.3379C88.0372 22.121 88.331 21.9656 88.6491 21.884C88.9669 21.8025 89.2995 21.7975 89.6196 21.8691C92.9428 22.6368 96.4252 22.3098 99.5475 20.9372C99.8488 20.8074 100.177 20.751 100.504 20.7722C100.832 20.7934 101.149 20.8919 101.432 21.0593C101.714 21.227 101.952 21.4589 102.128 21.7362C102.303 22.0136 102.41 22.3285 102.441 22.6553L102.93 27.8324Z" fill="#C9D4E8" stroke="#27395B" stroke-width="3" stroke-linecap="round" stroke-linejoin="round"/>
<path d="M155.855 26.7635C155.544 26.4964 155.318 26.143 155.208 25.7482C155.097 25.3532 155.105 24.9343 155.231 24.5441C155.874 22.4292 156.946 20.4695 158.381 18.7875C159.815 17.1054 161.581 15.7372 163.568 14.7681C163.933 14.5827 164.345 14.5095 164.753 14.5576C165.16 14.6057 165.544 14.773 165.856 15.0385L169.808 18.4102C170.058 18.6229 170.254 18.8918 170.38 19.1947C170.506 19.4977 170.558 19.8262 170.533 20.1534C170.508 20.4806 170.406 20.7972 170.235 21.0774C170.064 21.3575 169.829 21.5932 169.55 21.7652C166.632 23.5328 164.364 26.1958 163.083 29.3572C162.958 29.6605 162.762 29.93 162.513 30.1433C162.264 30.3567 161.967 30.5081 161.648 30.5848C161.329 30.6618 160.996 30.662 160.677 30.5857C160.358 30.5093 160.061 30.3585 159.811 30.1455L155.855 26.7635Z" fill="#C9D4E8" stroke="#27395B" stroke-width="3" stroke-linecap="round" stroke-linejoin="round"/>
<path d="M48.8288 87.7261C48.5176 87.459 48.2921 87.1056 48.1811 86.7108C48.0702 86.3158 48.0783 85.8969 48.2048 85.5067C48.8477 83.392 49.9197 81.4326 51.3537 79.7505C52.7876 78.0686 54.5529 76.7002 56.5393 75.7307C56.905 75.5454 57.317 75.4722 57.7241 75.5202C58.1312 75.5683 58.5151 75.7357 58.8273 76.0011L62.7793 79.3728C63.0293 79.5854 63.2255 79.8541 63.3517 80.1569C63.478 80.4598 63.5308 80.7882 63.5059 81.1156C63.4809 81.4428 63.3788 81.7594 63.2082 82.0396C63.0375 82.3197 62.8028 82.5556 62.5235 82.7278C59.6053 84.4946 57.3368 87.1578 56.0568 90.3198C55.9313 90.6233 55.736 90.8927 55.4866 91.1061C55.2373 91.3193 54.9409 91.4707 54.6218 91.5477C54.3025 91.6244 53.9697 91.6248 53.6506 91.5483C53.3313 91.4719 53.0347 91.3211 52.7849 91.1081L48.8288 87.7261Z" fill="#C9D4E8" stroke="#27395B" stroke-width="3" stroke-linecap="round" stroke-linejoin="round"/>
<path d="M20.1436 73.8713V71.8704" stroke="#27395B" stroke-width="3" stroke-linecap="round" stroke-linejoin="round"/>
<path d="M24.3867 75.629L25.8011 74.2146" stroke="#27395B" stroke-width="3" stroke-linecap="round" stroke-linejoin="round"/>
<path d="M26.1445 79.8743H28.1455" stroke="#27395B" stroke-width="3" stroke-linecap="round" stroke-linejoin="round"/>
<path d="M24.3867 84.1194L25.8011 85.5338" stroke="#27395B" stroke-width="3" stroke-linecap="round" stroke-linejoin="round"/>
<path d="M20.1436 85.877V87.8781" stroke="#27395B" stroke-width="3" stroke-linecap="round" stroke-linejoin="round"/>
<path d="M15.8983 84.1194L14.4839 85.5338" stroke="#27395B" stroke-width="3" stroke-linecap="round" stroke-linejoin="round"/>
<path d="M14.1406 79.8743H12.1396" stroke="#27395B" stroke-width="3" stroke-linecap="round" stroke-linejoin="round"/>
<path d="M15.8983 75.629L14.4839 74.2146" stroke="#27395B" stroke-width="3" stroke-linecap="round" stroke-linejoin="round"/>
<path d="M134.342 3.84384V1.84497" stroke="#27395B" stroke-width="3" stroke-linecap="round" stroke-linejoin="round"/>
<path d="M138.585 5.60349L139.999 4.18701" stroke="#27395B" stroke-width="3" stroke-linecap="round" stroke-linejoin="round"/>
<path d="M140.343 9.84668H142.344" stroke="#27395B" stroke-width="3" stroke-linecap="round" stroke-linejoin="round"/>
<path d="M138.585 14.092L139.999 15.5064" stroke="#27395B" stroke-width="3" stroke-linecap="round" stroke-linejoin="round"/>
<path d="M134.342 15.8496V17.8506" stroke="#27395B" stroke-width="3" stroke-linecap="round" stroke-linejoin="round"/>
<path d="M130.097 14.092L128.682 15.5064" stroke="#27395B" stroke-width="3" stroke-linecap="round" stroke-linejoin="round"/>
<path d="M128.339 9.84668H126.338" stroke="#27395B" stroke-width="3" stroke-linecap="round" stroke-linejoin="round"/>
<path d="M130.097 5.60349L128.682 4.18701" stroke="#27395B" stroke-width="3" stroke-linecap="round" stroke-linejoin="round"/>
<path d="M184.848 103.663V101.662" stroke="#27395B" stroke-width="3" stroke-linecap="round" stroke-linejoin="round"/>
<path d="M189.094 105.423L190.508 104.006" stroke="#27395B" stroke-width="3" stroke-linecap="round" stroke-linejoin="round"/>
<path d="M190.851 109.666H192.852" stroke="#27395B" stroke-width="3" stroke-linecap="round" stroke-linejoin="round"/>
<path d="M189.094 113.911L190.508 115.326" stroke="#27395B" stroke-width="3" stroke-linecap="round" stroke-linejoin="round"/>
<path d="M184.848 115.669V117.67" stroke="#27395B" stroke-width="3" stroke-linecap="round" stroke-linejoin="round"/>
<path d="M180.605 113.911L179.191 115.326" stroke="#27395B" stroke-width="3" stroke-linecap="round" stroke-linejoin="round"/>
<path d="M178.848 109.666H176.847" stroke="#27395B" stroke-width="3" stroke-linecap="round" stroke-linejoin="round"/>
<path d="M180.605 105.423L179.191 104.006" stroke="#27395B" stroke-width="3" stroke-linecap="round" stroke-linejoin="round"/>
<path d="M126.816 72.0116L124.516 71.2066C124.185 71.091 123.88 70.911 123.619 70.6775C123.358 70.4439 123.145 70.1612 122.993 69.8455C122.841 69.5295 122.752 69.1869 122.733 68.8371C122.713 68.487 122.763 68.1367 122.879 67.8058L123.611 65.7258C123.727 65.3951 123.776 65.0448 123.757 64.6948C123.737 64.3449 123.649 64.0023 123.497 63.6864C123.345 63.3706 123.132 63.088 122.871 62.8544C122.609 62.6208 122.305 62.4409 121.974 62.325L119.894 61.5949C119.563 61.4793 119.258 61.2994 118.997 61.0658C118.736 60.8322 118.523 60.5495 118.371 60.2338C118.219 59.9178 118.131 59.5753 118.111 59.2254C118.092 58.8753 118.141 58.5251 118.257 58.1941L118.989 56.1141C119.105 55.7836 119.154 55.4333 119.135 55.0835C119.115 54.7338 119.027 54.3913 118.875 54.0757C118.723 53.76 118.51 53.4775 118.249 53.2441C117.988 53.0108 117.683 52.8311 117.352 52.7154L115.272 51.9853C114.941 51.8697 114.636 51.6898 114.375 51.4562C114.114 51.2226 113.901 50.9399 113.749 50.6242C113.597 50.3082 113.509 49.9657 113.489 49.6158C113.47 49.2657 113.519 48.9155 113.635 48.5845L114.367 46.5045C114.483 46.174 114.533 45.8237 114.513 45.4739C114.493 45.1242 114.405 44.7817 114.253 44.4661C114.101 44.1504 113.888 43.8679 113.627 43.6346C113.366 43.4012 113.061 43.2215 112.73 43.1058L110.65 42.3757" stroke="#27395B" stroke-width="3" stroke-linecap="round" stroke-linejoin="round"/>
<path d="M80.3325 107.802L78.6269 106.057C78.3819 105.807 78.1887 105.511 78.0583 105.186C77.9278 104.861 77.8627 104.513 77.8669 104.163C77.8708 103.812 77.9441 103.466 78.082 103.144C78.2199 102.822 78.42 102.531 78.6706 102.286L80.2493 100.741C80.7554 100.246 81.0443 99.5709 81.0524 98.8633C81.0605 98.1557 80.7874 97.4739 80.293 96.9676L78.7476 95.3868C78.5027 95.1366 78.3095 94.8404 78.1791 94.5155C78.0487 94.1904 77.9834 93.8428 77.9873 93.4928C77.9911 93.1425 78.0639 92.7966 78.2016 92.4746C78.339 92.1524 78.5387 91.8608 78.7892 91.6158L80.37 90.0703C80.876 89.5757 81.1649 88.9005 81.173 88.1929C81.1812 87.4853 80.9081 86.8035 80.4136 86.2972L78.8682 84.7164C78.6234 84.4662 78.4302 84.17 78.2997 83.8451C78.1693 83.52 78.104 83.1726 78.108 82.8224C78.1117 82.4721 78.1845 82.1262 78.3222 81.8042C78.4597 81.482 78.6594 81.1904 78.9098 80.9454L80.4906 79.3999C80.9963 78.9051 81.2847 78.2297 81.2927 77.5221C81.3003 76.8145 81.0268 76.1329 80.5322 75.6268L78.9888 74.0481" stroke="#27395B" stroke-width="3" stroke-linecap="round" stroke-linejoin="round"/>
<path d="M48.2421 119.026L45.8293 119.38C45.1294 119.483 44.417 119.303 43.8492 118.881C43.2813 118.459 42.9042 117.829 42.8008 117.129L42.4805 114.941C42.4296 114.595 42.311 114.261 42.1313 113.961C41.9516 113.66 41.7145 113.398 41.4335 113.189C41.1524 112.98 40.833 112.828 40.4933 112.743C40.1538 112.657 39.8007 112.639 39.4541 112.69L37.266 113.011C36.9194 113.062 36.5663 113.044 36.2268 112.958C35.8871 112.873 35.5676 112.721 35.2866 112.512C35.0056 112.303 34.7685 112.041 34.5888 111.74C34.4091 111.44 34.2905 111.107 34.2396 110.76L33.9192 108.576C33.8683 108.229 33.7495 107.896 33.5698 107.595C33.3901 107.294 33.1528 107.032 32.8716 106.823C32.5903 106.613 32.2706 106.461 31.9308 106.376C31.5909 106.29 31.2375 106.272 30.8908 106.323L28.7047 106.644C28.3582 106.695 28.005 106.677 27.6655 106.591C27.3259 106.506 27.0064 106.354 26.7254 106.145C26.4444 105.937 26.2072 105.674 26.0275 105.373C25.8478 105.073 25.7292 104.74 25.6783 104.393L25.3559 102.207C25.254 101.509 24.8794 100.879 24.3138 100.457C23.7485 100.034 23.0388 99.8525 22.3399 99.9523L20.1538 100.275" stroke="#27395B" stroke-width="3" stroke-linecap="round" stroke-linejoin="round"/>
<path d="M196.852 70.512L196.197 72.8624C196.103 73.1997 195.943 73.5153 195.727 73.7911C195.512 74.0667 195.243 74.2971 194.938 74.4694C194.633 74.6414 194.297 74.7516 193.95 74.7941C193.602 74.8363 193.25 74.8097 192.912 74.7156L190.782 74.1228C190.101 73.9336 189.372 74.0224 188.756 74.3699C188.14 74.7173 187.687 75.2951 187.496 75.9761L186.903 78.106C186.809 78.4434 186.65 78.759 186.434 79.0348C186.218 79.3104 185.95 79.5408 185.645 79.713C185.34 79.8851 185.004 79.9953 184.656 80.0377C184.309 80.08 183.956 80.0533 183.619 79.9593L181.489 79.3665C180.807 79.1768 180.078 79.2652 179.462 79.6128C178.846 79.9604 178.393 80.5384 178.203 81.2198L177.61 83.3497C177.516 83.6871 177.356 84.0026 177.14 84.2784C176.924 84.554 176.657 84.7845 176.351 84.9567C176.047 85.1287 175.711 85.239 175.363 85.2814C175.015 85.3236 174.663 85.297 174.326 85.203L172.196 84.6102C171.514 84.4205 170.785 84.5093 170.168 84.8573C169.552 85.2053 169.099 85.7837 168.909 86.4656L168.316 88.5934" stroke="#27395B" stroke-width="3" stroke-linecap="round" stroke-linejoin="round"/>
</svg>
