<svg width="209" height="208" viewBox="0 0 209 208" fill="none" xmlns="http://www.w3.org/2000/svg">
<path d="M21.3 104C21.3 126.066 30.0657 147.228 45.6687 162.831C61.2717 178.434 82.434 187.2 104.5 187.2C126.566 187.2 147.728 178.434 163.331 162.831C178.934 147.228 187.7 126.066 187.7 104C187.7 81.934 178.934 60.7718 163.331 45.1688C147.728 29.5657 126.566 20.8 104.5 20.8C82.434 20.8 61.2717 29.5657 45.6687 45.1688C30.0657 60.7718 21.3 81.934 21.3 104Z" fill="#FCF9F6"/>
<path d="M86.5579 39.5303C86.5579 38.7984 86.8484 38.0965 87.3655 37.5786C87.8826 37.0607 88.5841 36.7692 89.316 36.7681H144.575L166.677 58.8639V133.842C166.677 134.574 166.386 135.277 165.868 135.795C165.35 136.313 164.648 136.604 163.915 136.604H89.316C88.5836 136.603 87.8813 136.312 87.3634 135.794C86.8455 135.276 86.5543 134.574 86.5538 133.842L86.5579 39.5303Z" fill="#C9D4E8"/>
<path d="M86.5579 39.5303C86.5579 38.7984 86.8484 38.0965 87.3655 37.5786C87.8826 37.0607 88.5841 36.7692 89.316 36.7681H144.575L166.677 58.8639V133.842C166.677 134.574 166.386 135.277 165.868 135.795C165.35 136.313 164.648 136.604 163.915 136.604H89.316C88.5836 136.603 87.8813 136.312 87.3634 135.794C86.8455 135.276 86.5543 134.574 86.5538 133.842L86.5579 39.5303Z" stroke="#27395B" stroke-width="3" stroke-linecap="round" stroke-linejoin="round"/>
<path d="M166.677 58.864L144.575 36.7661V56.1101C144.576 56.473 144.649 56.8322 144.789 57.167C144.929 57.5019 145.133 57.8059 145.391 58.0616C145.648 58.3174 145.954 58.5199 146.29 58.6576C146.625 58.7952 146.985 58.8654 147.348 58.864H166.677Z" fill="white" stroke="#27395B" stroke-width="3" stroke-linecap="round" stroke-linejoin="round"/>
<path d="M101.386 57.3582H143.797" stroke="#27395B" stroke-width="3" stroke-linecap="round" stroke-linejoin="round"/>
<path d="M101.386 70.252H152.949" stroke="#27395B" stroke-width="3" stroke-linecap="round" stroke-linejoin="round"/>
<path d="M101.386 83.408H152.91" stroke="#27395B" stroke-width="3" stroke-linecap="round" stroke-linejoin="round"/>
<path d="M101.386 95.9919H125.493" stroke="#27395B" stroke-width="3" stroke-linecap="round" stroke-linejoin="round"/>
<path d="M101.386 109.148H125.493" stroke="#27395B" stroke-width="3" stroke-linecap="round" stroke-linejoin="round"/>
<path d="M101.386 121.732H125.493" stroke="#27395B" stroke-width="3" stroke-linecap="round" stroke-linejoin="round"/>
<path d="M134.645 95.4199H157.525V122.876H134.645V95.4199Z" fill="white" stroke="#27395B" stroke-width="3" stroke-linecap="round" stroke-linejoin="round"/>
<path d="M157.525 113.083V120.588C157.525 121.195 157.284 121.777 156.855 122.206C156.426 122.635 155.844 122.876 155.237 122.876H136.933C136.327 122.876 135.745 122.635 135.316 122.206C134.887 121.777 134.645 121.195 134.645 120.588V110.704C139.229 110.149 143.875 110.397 148.373 111.436C151.387 112.173 154.444 112.723 157.525 113.083Z" fill="#C9D4E8" stroke="#27395B" stroke-width="3" stroke-linecap="round" stroke-linejoin="round"/>
<path d="M71.6443 172.902C71.6443 173.353 72.5912 173.799 74.4309 174.215C76.2706 174.632 78.9672 175.01 82.3665 175.329C85.7659 175.647 89.8015 175.9 94.243 176.073C98.6845 176.245 103.445 176.334 108.252 176.334C113.06 176.334 117.82 176.245 122.262 176.073C126.703 175.9 130.739 175.647 134.138 175.329C137.537 175.01 140.234 174.632 142.074 174.215C143.913 173.799 144.86 173.353 144.86 172.902C144.86 172.451 143.913 172.005 142.074 171.589C140.234 171.172 137.537 170.794 134.138 170.475C130.739 170.156 126.703 169.904 122.262 169.731C117.82 169.559 113.06 169.47 108.252 169.47C103.445 169.47 98.6845 169.559 94.243 169.731C89.8015 169.904 85.7659 170.156 82.3665 170.475C78.9672 170.794 76.2706 171.172 74.4309 171.589C72.5912 172.005 71.6443 172.451 71.6443 172.902Z" fill="#FBE7D0"/>
<path d="M36.1824 60.1224C36.1821 59.7595 36.2534 59.4002 36.3921 59.065C36.5308 58.7297 36.7343 58.4251 36.9908 58.1685C37.2474 57.912 37.552 57.7085 37.8872 57.5698C38.2225 57.4311 38.5818 57.3598 38.9446 57.3601H94.1998L116.302 79.4559V154.434C116.301 155.166 116.01 155.868 115.492 156.386C114.974 156.904 114.272 157.195 113.54 157.196H38.9446C38.212 157.196 37.5094 156.905 36.9914 156.387C36.4734 155.869 36.1824 155.166 36.1824 154.434V60.1224Z" fill="white"/>
<path d="M36.1824 60.1224C36.1821 59.7595 36.2534 59.4002 36.3921 59.065C36.5308 58.7297 36.7343 58.4251 36.9908 58.1685C37.2474 57.912 37.552 57.7085 37.8872 57.5698C38.2225 57.4311 38.5818 57.3598 38.9446 57.3601H94.1998L116.302 79.4559V154.434C116.301 155.166 116.01 155.868 115.492 156.386C114.974 156.904 114.272 157.195 113.54 157.196H38.9446C38.212 157.196 37.5094 156.905 36.9914 156.387C36.4734 155.869 36.1824 155.166 36.1824 154.434V60.1224Z" stroke="#27395B" stroke-width="3" stroke-linecap="round" stroke-linejoin="round"/>
<path d="M116.302 79.4561L94.1998 57.3582V76.7022C94.202 77.4333 94.494 78.1338 95.0118 78.65C95.5296 79.1662 96.2309 79.4561 96.9621 79.4561H116.302Z" fill="#C9D4E8" stroke="#27395B" stroke-width="3" stroke-linecap="round" stroke-linejoin="round"/>
<path d="M51.0087 77.9502H93.4219" stroke="#27395B" stroke-width="3" stroke-linecap="round" stroke-linejoin="round"/>
<path d="M51.0087 90.844H102.574" stroke="#27395B" stroke-width="3" stroke-linecap="round" stroke-linejoin="round"/>
<path d="M51.0087 104H102.532" stroke="#27395B" stroke-width="3" stroke-linecap="round" stroke-linejoin="round"/>
<path d="M51.0087 116.584H75.1179" stroke="#27395B" stroke-width="3" stroke-linecap="round" stroke-linejoin="round"/>
<path d="M51.0087 129.74H75.1179" stroke="#27395B" stroke-width="3" stroke-linecap="round" stroke-linejoin="round"/>
<path d="M51.0087 142.324H75.1179" stroke="#27395B" stroke-width="3" stroke-linecap="round" stroke-linejoin="round"/>
<path d="M84.2699 116.012H107.15V143.468H84.2699V116.012Z" fill="#C9D4E8" stroke="#27395B" stroke-width="3" stroke-linecap="round" stroke-linejoin="round"/>
<path d="M107.15 133.675V141.18C107.15 141.787 106.909 142.369 106.48 142.798C106.051 143.227 105.469 143.468 104.862 143.468H86.5579C85.9511 143.468 85.3691 143.227 84.94 142.798C84.511 142.369 84.2699 141.787 84.2699 141.18V131.296C88.8537 130.741 93.4992 130.989 97.9979 132.028C101.012 132.765 104.068 133.315 107.15 133.675Z" fill="white" stroke="#27395B" stroke-width="3" stroke-linecap="round" stroke-linejoin="round"/>
</svg>
