<svg width="209" height="208" viewBox="0 0 209 208" fill="none" xmlns="http://www.w3.org/2000/svg">
<path d="M21.2998 104C21.2998 126.066 30.0655 147.228 45.6685 162.831C61.2715 178.434 82.4338 187.2 104.5 187.2C126.566 187.2 147.728 178.434 163.331 162.831C178.934 147.228 187.7 126.066 187.7 104C187.7 81.934 178.934 60.7718 163.331 45.1688C147.728 29.5657 126.566 20.8 104.5 20.8C82.4338 20.8 61.2715 29.5657 45.6685 45.1688C30.0655 60.7718 21.2998 81.934 21.2998 104Z" fill="#FCF9F6"/>
<path d="M43.3315 47.5862H155.579V139.917H43.3315V47.5862Z" fill="#F0E0D1"/>
<path d="M148.338 47.5862H50.578C49.627 47.5859 48.6853 47.773 47.8066 48.1367C46.9279 48.5005 46.1294 49.0338 45.4569 49.7061C44.7843 50.3785 44.2508 51.1768 43.8868 52.0554C43.5228 52.934 43.3354 53.8757 43.3354 54.8267V69.3097H155.578V54.8267C155.578 53.8758 155.391 52.9343 155.027 52.0558C154.663 51.1774 154.13 50.3792 153.458 49.7069C152.785 49.0345 151.987 48.5012 151.109 48.1373C150.23 47.7735 149.289 47.5862 148.338 47.5862Z" fill="white"/>
<path d="M43.3315 47.5862H155.579V139.917H43.3315V47.5862Z" stroke="#27395B" stroke-width="3" stroke-linejoin="round"/>
<path d="M148.338 47.5842H50.578C48.6572 47.5842 46.815 48.3473 45.4567 49.7055C44.0985 51.0638 43.3354 52.9059 43.3354 54.8268V69.3098H155.578V54.8268C155.578 52.9063 154.816 51.0644 153.458 49.7063C152.1 48.3481 150.258 47.5848 148.338 47.5842V47.5842Z" stroke="#27395B" stroke-width="3" stroke-linejoin="round"/>
<path d="M50.5737 58.4479C50.5737 58.9235 50.6674 59.3944 50.8494 59.8337C51.0314 60.2731 51.2981 60.6723 51.6344 61.0086C51.9706 61.3448 52.3699 61.6116 52.8092 61.7936C53.2486 61.9756 53.7195 62.0692 54.195 62.0692C54.6706 62.0692 55.1415 61.9756 55.5808 61.7936C56.0202 61.6116 56.4194 61.3448 56.7556 61.0086C57.0919 60.6723 57.3586 60.2731 57.5406 59.8337C57.7226 59.3944 57.8163 58.9235 57.8163 58.4479C57.8163 57.9724 57.7226 57.5015 57.5406 57.0621C57.3586 56.6228 57.0919 56.2236 56.7556 55.8873C56.4194 55.551 56.0202 55.2843 55.5808 55.1023C55.1415 54.9203 54.6706 54.8267 54.195 54.8267C53.7195 54.8267 53.2486 54.9203 52.8092 55.1023C52.3699 55.2843 51.9706 55.551 51.6344 55.8873C51.2981 56.2236 51.0314 56.6228 50.8494 57.0621C50.6674 57.5015 50.5737 57.9724 50.5737 58.4479Z" fill="#F0E0D1" stroke="#27395B" stroke-width="3" stroke-linejoin="round"/>
<path d="M65.0571 58.4479C65.0571 59.4084 65.4387 60.3295 66.1178 61.0086C66.7969 61.6877 67.718 62.0692 68.6784 62.0692C69.6388 62.0692 70.5599 61.6877 71.239 61.0086C71.9182 60.3295 72.2997 59.4084 72.2997 58.4479C72.2997 57.4875 71.9182 56.5664 71.239 55.8873C70.5599 55.2082 69.6388 54.8267 68.6784 54.8267C67.718 54.8267 66.7969 55.2082 66.1178 55.8873C65.4387 56.5664 65.0571 57.4875 65.0571 58.4479Z" fill="#F0E0D1" stroke="#27395B" stroke-width="3" stroke-linecap="round" stroke-linejoin="round"/>
<path d="M79.54 58.4479C79.54 59.4084 79.9216 60.3295 80.6007 61.0086C81.2798 61.6877 82.2009 62.0692 83.1613 62.0692C84.1217 62.0692 85.0428 61.6877 85.722 61.0086C86.4011 60.3295 86.7826 59.4084 86.7826 58.4479C86.7826 57.4875 86.4011 56.5664 85.722 55.8873C85.0428 55.2082 84.1217 54.8267 83.1613 54.8267C82.2009 54.8267 81.2798 55.2082 80.6007 55.8873C79.9216 56.5664 79.54 57.4875 79.54 58.4479Z" fill="#F0E0D1" stroke="#27395B" stroke-width="3" stroke-linejoin="round"/>
<path d="M57.207 76.9102H93.399V126.262H57.207V76.9102Z" fill="white" stroke="#27395B" stroke-width="3" stroke-linecap="round" stroke-linejoin="round"/>
<path d="M65.4336 96.6513C65.4336 97.9474 65.6889 99.2308 66.1849 100.428C66.6809 101.626 67.4079 102.714 68.3243 103.63C69.2408 104.547 70.3288 105.274 71.5263 105.77C72.7237 106.266 74.0071 106.521 75.3032 106.521C76.5993 106.521 77.8827 106.266 79.0801 105.77C80.2776 105.274 81.3656 104.547 82.2821 103.63C83.1985 102.714 83.9255 101.626 84.4215 100.428C84.9175 99.2308 85.1728 97.9474 85.1728 96.6513C85.1728 95.3552 84.9175 94.0718 84.4215 92.8744C83.9255 91.677 83.1985 90.589 82.2821 89.6725C81.3656 88.756 80.2776 88.029 79.0801 87.533C77.8827 87.037 76.5993 86.7817 75.3032 86.7817C74.0071 86.7817 72.7237 87.037 71.5263 87.533C70.3288 88.029 69.2408 88.756 68.3243 89.6725C67.4079 90.589 66.6809 91.677 66.1849 92.8744C65.6889 94.0718 65.4336 95.3552 65.4336 96.6513Z" fill="#F0E0D1" stroke="#27395B" stroke-width="3" stroke-linejoin="round"/>
<path d="M104.127 83.3477H123.201" stroke="#27395B" stroke-width="3" stroke-linecap="round" stroke-linejoin="round"/>
<path d="M104.127 107.189H135.122" stroke="#27395B" stroke-width="3" stroke-linecap="round" stroke-linejoin="round"/>
<path d="M104.127 95.2681H130.354" stroke="#27395B" stroke-width="3" stroke-linecap="round" stroke-linejoin="round"/>
<path d="M104.127 119.111H130.354" stroke="#27395B" stroke-width="3" stroke-linecap="round" stroke-linejoin="round"/>
<path d="M57.207 123.739C57.4405 119.097 59.449 114.722 62.817 111.52C66.1851 108.317 70.6552 106.531 75.303 106.531C79.9509 106.531 84.421 108.317 87.789 111.52C91.1571 114.722 93.1655 119.097 93.399 123.739V123.968C93.399 124.575 93.158 125.157 92.7289 125.586C92.2998 126.015 91.7178 126.256 91.111 126.256H59.5013C58.8945 126.256 58.3125 126.015 57.8834 125.586C57.4543 125.157 57.2133 124.575 57.2133 123.968L57.207 123.739Z" fill="#F0E0D1" stroke="#27395B" stroke-width="3" stroke-linejoin="round"/>
<path d="M131.54 162.933C131.54 161.198 117.664 159.788 100.548 159.788C83.4318 159.788 69.5562 161.198 69.5562 162.933C69.5562 164.667 83.4339 166.078 100.548 166.078C117.662 166.078 131.54 164.671 131.54 162.933Z" fill="#F0E0D1"/>
<path d="M120.038 125.852C120.038 134.073 123.303 141.956 129.116 147.769C134.928 153.581 142.812 156.847 151.032 156.847C159.252 156.847 167.135 153.581 172.948 147.769C178.76 141.956 182.026 134.073 182.026 125.852C182.026 117.632 178.76 109.749 172.948 103.936C167.135 98.1238 159.252 94.8584 151.032 94.8584C142.812 94.8584 134.928 98.1238 129.116 103.936C123.303 109.749 120.038 117.632 120.038 125.852Z" fill="#C9D4E8" stroke="#27395B" stroke-width="3" stroke-linecap="round" stroke-linejoin="round"/>
<path d="M144.761 141.147C144.168 141.147 143.581 141.031 143.034 140.804C142.486 140.578 141.989 140.245 141.57 139.826L132.545 130.799C131.699 129.952 131.223 128.805 131.223 127.608C131.223 126.411 131.699 125.263 132.545 124.417C133.391 123.571 134.539 123.096 135.736 123.096C136.932 123.096 138.08 123.571 138.926 124.417L144.75 130.254L163.125 111.879C163.971 111.033 165.119 110.557 166.316 110.557C167.512 110.557 168.66 111.033 169.506 111.879C170.353 112.725 170.828 113.873 170.828 115.07C170.828 116.266 170.353 117.414 169.506 118.26L147.951 139.826C147.533 140.245 147.035 140.578 146.488 140.804C145.94 141.031 145.353 141.147 144.761 141.147Z" fill="white" stroke="#27395B" stroke-width="3" stroke-linecap="round" stroke-linejoin="round"/>
</svg>
