<svg width="209" height="208" viewBox="0 0 209 208" fill="none" xmlns="http://www.w3.org/2000/svg">
<path d="M104.5 185.569C149.549 185.569 186.069 149.049 186.069 104C186.069 58.9509 149.549 22.4314 104.5 22.4314C59.4509 22.4314 22.9314 58.9509 22.9314 104C22.9314 149.049 59.4509 185.569 104.5 185.569Z" fill="#FCF9F6"/>
<path d="M79.3215 39.8808L57.4972 132.856C57.2398 133.953 57.9201 135.05 59.0164 135.308L130.019 151.974C131.115 152.232 132.213 151.551 132.47 150.455L154.295 57.4794C154.552 56.3831 153.872 55.2856 152.775 55.0283L81.7728 38.3615C80.6763 38.1042 79.5788 38.7845 79.3215 39.8808Z" fill="white" stroke="#27395B" stroke-width="3" stroke-linecap="round" stroke-linejoin="round"/>
<path d="M123.432 64.1985L141.326 68.3972" stroke="#27395B" stroke-width="3" stroke-linecap="round" stroke-linejoin="round"/>
<path d="M138.337 81.1281L116.686 76.0464" stroke="#27395B" stroke-width="3" stroke-linecap="round" stroke-linejoin="round"/>
<path d="M112.043 88.3899L135.349 93.8591" stroke="#27395B" stroke-width="3" stroke-linecap="round" stroke-linejoin="round"/>
<path d="M77.1113 93.6223L132.36 106.59" stroke="#27395B" stroke-width="3" stroke-linecap="round" stroke-linejoin="round"/>
<path d="M74.1238 106.353L129.372 119.323" stroke="#27395B" stroke-width="3" stroke-linecap="round" stroke-linejoin="round"/>
<path d="M71.1344 119.084L126.385 132.053" stroke="#27395B" stroke-width="3" stroke-linecap="round" stroke-linejoin="round"/>
<path d="M59.9207 80.1065C59.4731 80.0392 59.0522 79.852 58.7025 79.5649C58.3528 79.2776 58.0875 78.9012 57.9345 78.4752C57.7706 78.0653 57.7276 77.6171 57.8103 77.1833C57.8931 76.7498 58.0983 76.3489 58.4015 76.0281L58.8094 75.6203C59.165 75.254 59.4395 74.8172 59.615 74.338C59.7908 73.8588 59.8636 73.348 59.829 72.8388C59.7672 71.7559 59.2988 70.7363 58.5177 69.9839C58.2537 69.6378 57.9205 69.3505 57.5391 69.1402C57.158 68.9302 56.7371 68.8017 56.3034 68.7634C55.8698 68.7251 55.4328 68.7775 55.0207 68.9174C54.6084 69.0573 54.2299 69.2816 53.9091 69.576L52.0616 71.4113C51.3511 72.0673 50.4104 72.4164 49.4441 72.3828C48.4777 72.3492 47.5635 71.9356 46.9003 71.2319C46.5573 70.863 46.1413 70.5693 45.679 70.3695C45.2166 70.1696 44.7178 70.0679 44.2141 70.0707C43.7104 70.0736 43.2128 70.1811 42.7526 70.3862C42.2925 70.5914 41.88 70.8897 41.5413 71.2625L40.4727 72.5125C40.0465 72.9903 39.7276 73.5537 39.5373 74.1651C39.3471 74.7764 39.2898 75.4214 39.3695 76.0567C39.4817 76.4988 39.4576 76.9643 39.3008 77.3925C39.144 77.8208 38.8617 78.1917 38.4906 78.4568C38.1078 78.6927 37.6615 78.8047 37.2126 78.7778C36.7638 78.7507 36.3341 78.5859 35.9824 78.3059C35.6392 78.0349 35.2226 77.873 34.7864 77.841C34.3502 77.809 33.9144 77.9085 33.5353 78.1265C33.1683 78.362 32.8785 78.7001 32.7021 79.099C32.5255 79.4976 32.4698 79.9395 32.5422 80.3696C31.9614 81.0209 31.5607 81.8127 31.3801 82.6666C31.1994 83.5202 31.2451 84.4064 31.5124 85.2372C31.7889 86.0394 32.2694 86.756 32.9064 87.3166C33.5435 87.8772 34.3153 88.2626 35.1463 88.4347L38.1806 88.7059C38.4274 90.4474 31.9468 93.4206 33.4905 94.1934L40.2606 96.6976C40.8506 97.0059 41.5023 97.177 42.1675 97.1982C42.8329 97.2194 43.4942 97.0901 44.1025 96.8199C44.6986 96.5377 45.2217 96.1217 45.6305 95.6042C46.0394 95.0868 46.3232 94.4818 46.4599 93.8366L46.7861 92.4091C46.9662 91.5284 47.4236 90.7286 48.091 90.1264C48.7585 89.5245 49.6011 89.1517 50.4955 89.0628L57.3737 88.4123C59.0047 88.2361 60.6057 87.8468 62.1353 87.254C63.993 86.4383 65.6407 83.5834 63.8727 81.7868C62.7497 80.8494 61.3749 80.265 59.9207 80.1065Z" fill="#FCF9F6" stroke="#27395B" stroke-width="3" stroke-linecap="round" stroke-linejoin="round"/>
<path d="M173.297 110.138C173.329 109.76 173.462 109.397 173.683 109.088C173.905 108.779 174.205 108.536 174.553 108.384C174.887 108.222 175.261 108.159 175.63 108.204C175.999 108.248 176.347 108.398 176.633 108.635L176.996 108.953C177.321 109.231 177.702 109.438 178.112 109.559C178.523 109.679 178.954 109.712 179.378 109.655C180.283 109.542 181.112 109.092 181.699 108.395C181.972 108.154 182.192 107.858 182.345 107.527C182.498 107.196 182.581 106.837 182.587 106.473C182.594 106.108 182.525 105.746 182.383 105.41C182.242 105.074 182.033 104.771 181.768 104.52L180.137 103.08C179.547 102.524 179.201 101.758 179.174 100.947C179.147 100.137 179.442 99.349 179.994 98.7552C180.283 98.4466 180.505 98.0816 180.645 97.6832C180.786 97.2845 180.843 96.8611 180.812 96.4396C180.781 96.0181 180.663 95.6076 180.465 95.2341C180.268 94.8603 179.994 94.5318 179.664 94.2689L178.556 93.4532C178.133 93.1235 177.644 92.8884 177.122 92.764C176.601 92.6394 176.058 92.6283 175.532 92.7313C175.169 92.8508 174.778 92.8576 174.411 92.7509C174.044 92.6445 173.717 92.4293 173.474 92.1338C173.252 91.8282 173.129 91.4611 173.123 91.083C173.116 90.7048 173.227 90.334 173.44 90.0212C173.643 89.7206 173.753 89.3664 173.755 89.0034C173.757 88.6405 173.652 88.285 173.452 87.982C173.233 87.6873 172.933 87.4638 172.588 87.339C172.243 87.2142 171.869 87.1938 171.513 87.2805C170.935 86.8321 170.25 86.5425 169.527 86.4401C168.803 86.338 168.064 86.4265 167.385 86.6973C166.73 86.974 166.158 87.4163 165.726 87.9808C165.293 88.5452 165.015 89.2127 164.918 89.9172L164.861 92.4622C163.417 92.768 160.564 87.5211 160.005 88.8548L158.299 94.6563C158.074 95.1684 157.968 95.7245 157.989 96.2832C158.01 96.8418 158.157 97.3885 158.419 97.8824C158.689 98.3643 159.066 98.7774 159.522 99.0894C159.977 99.4014 160.499 99.6039 161.045 99.681L162.269 99.8727C163.013 99.9744 163.705 100.311 164.245 100.833C164.784 101.355 165.143 102.036 165.269 102.777L166.205 108.486C166.444 109.84 166.861 111.157 167.445 112.402C168.232 113.907 170.707 115.122 172.112 113.542C172.835 112.549 173.248 111.365 173.297 110.138Z" fill="#C9D4E8" stroke="#27395B" stroke-width="3" stroke-linecap="round" stroke-linejoin="round"/>
<path d="M162.073 79.8739C162.426 79.942 162.79 79.9367 163.141 79.8582C163.491 79.7795 163.822 79.6294 164.112 79.4172C164.398 79.2597 164.638 79.0311 164.809 78.7534C164.98 78.4758 165.077 78.1585 165.089 77.8327L165.044 77.4901C165.035 77.1308 165.102 76.7739 165.241 76.4423C165.38 76.111 165.588 75.8126 165.85 75.5671C166.466 74.9203 167.244 74.4494 168.103 74.2029C169.708 73.7441 170.958 74.0377 171.078 75.1674L171.254 76.7376C171.384 77.9143 172.777 78.4546 174.449 77.9754C176.219 77.4697 177.653 78.1019 177.657 79.3906V80.4102C177.641 80.8676 177.531 81.3169 177.333 81.7296C177.135 82.1424 176.853 82.5096 176.507 82.8084C176.235 82.9807 176.023 83.2319 175.898 83.528C175.773 83.8243 175.741 84.1516 175.807 84.4663C175.999 84.9557 176.623 85.1841 177.388 85.0454C177.67 84.951 177.975 84.9516 178.257 85.047C178.538 85.1425 178.781 85.3272 178.948 85.5735C179.032 85.865 179.024 86.1751 178.924 86.4616C178.824 86.7479 178.638 86.9963 178.391 87.1723C178.353 87.8112 178.163 88.4317 177.838 88.9827C177.512 89.5337 177.06 89.9995 176.519 90.3412C175.42 91.149 174.047 91.4926 172.697 91.2976L170.734 90.6675C169.694 91.6402 172.069 95.0987 170.744 95.1538L165.393 94.8805C164.951 94.9397 164.501 94.8856 164.086 94.7233C163.671 94.561 163.304 94.2959 163.019 93.9527C162.807 93.5854 162.705 93.1651 162.724 92.7416C162.744 92.318 162.884 91.9088 163.129 91.5627L163.666 90.6247C163.842 90.4024 163.97 90.1453 164.04 89.8702C164.11 89.5953 164.121 89.3084 164.072 89.0288C164.023 88.7492 163.915 88.4833 163.756 88.2484C163.597 88.0133 163.39 87.8149 163.148 87.6658L159.355 85.4838C158.491 84.9773 157.722 84.3237 157.083 83.5527C156.911 83.1987 156.82 82.8106 156.817 82.4168C156.815 82.0231 156.901 81.6338 157.07 81.2777C157.238 80.9217 157.484 80.6083 157.79 80.3603C158.096 80.1123 158.454 79.9363 158.837 79.8454C159.9 79.576 161.015 79.586 162.073 79.8739Z" fill="#FCF9F6" stroke="#27395B" stroke-width="3" stroke-linecap="round" stroke-linejoin="round"/>
<path d="M58.0813 159.132C58.5345 159.219 59.0008 159.211 59.4509 159.11C59.9009 159.009 60.3255 158.816 60.6977 158.543C61.0653 158.341 61.3741 158.046 61.5939 157.689C61.8137 157.331 61.9371 156.923 61.9518 156.504L61.9028 156.057C61.891 155.595 61.9773 155.136 62.1559 154.709C62.3343 154.283 62.6013 153.899 62.9388 153.584C63.7314 152.752 64.7318 152.146 65.8365 151.83C67.9022 151.238 69.5071 151.616 69.6621 153.07L69.8884 155.088C70.0556 156.602 71.8481 157.295 73.9974 156.679C76.2732 156.029 78.1187 156.842 78.1207 158.498V159.813C78.0995 160.402 77.9574 160.979 77.7031 161.51C77.4486 162.041 77.0874 162.514 76.6423 162.899C76.2938 163.121 76.0211 163.443 75.86 163.824C75.6991 164.205 75.6575 164.625 75.741 165.03C75.9897 165.66 76.7911 165.953 77.7802 165.774C78.1425 165.652 78.5349 165.653 78.8968 165.776C79.259 165.898 79.5708 166.136 79.7847 166.453C79.894 166.828 79.884 167.227 79.7562 167.596C79.6283 167.964 79.3887 168.284 79.071 168.511C79.0227 169.333 78.779 170.132 78.3601 170.841C77.9413 171.55 77.3593 172.15 76.6627 172.589C75.2481 173.625 73.4833 174.064 71.7482 173.813L69.2257 172.997C67.8859 174.249 70.9406 178.707 69.2379 178.77L62.3535 178.431C61.7842 178.508 61.2046 178.439 60.6695 178.23C60.1344 178.021 59.6613 177.679 59.2947 177.236C59.0226 176.764 58.8913 176.224 58.9166 175.679C58.9421 175.134 59.1228 174.608 59.4374 174.163L60.1267 172.956C60.3536 172.67 60.5174 172.34 60.6071 171.986C60.697 171.633 60.7109 171.264 60.6479 170.905C60.5849 170.545 60.4464 170.203 60.2417 169.902C60.037 169.6 59.7704 169.344 59.4599 169.153L54.5657 166.349C53.455 165.698 52.4666 164.859 51.6456 163.867C51.4237 163.412 51.3071 162.913 51.304 162.407C51.3012 161.9 51.4119 161.4 51.6284 160.942C51.845 160.484 52.1617 160.081 52.5551 159.762C52.9484 159.443 53.4083 159.217 53.901 159.1C55.2735 158.747 56.7145 158.758 58.0813 159.132Z" fill="#C9D4E8" stroke="#27395B" stroke-width="3" stroke-linecap="round" stroke-linejoin="round"/>
<path d="M48.6663 90.4698C48.3133 90.5386 47.9499 90.5335 47.599 90.4548C47.248 90.3762 46.9171 90.2257 46.6271 90.0131C46.3412 89.856 46.1008 89.6274 45.9297 89.3497C45.7584 89.072 45.6621 88.7547 45.6503 88.4286L45.6891 88.0819C45.6982 87.7224 45.6311 87.3649 45.4923 87.0331C45.3534 86.7014 45.146 86.4028 44.8836 86.1569C44.2661 85.5111 43.4888 85.0404 42.6302 84.7927C41.0233 84.3338 39.7753 84.6275 39.653 85.7593L39.4797 87.3274C39.3471 88.504 37.9543 89.0444 36.2822 88.5652C34.5142 88.0595 33.0786 88.6916 33.0765 89.9804V91C33.0932 91.4572 33.2044 91.9061 33.4026 92.3182C33.6008 92.7305 33.882 93.0976 34.2287 93.3961C34.5001 93.5686 34.7124 93.8197 34.8378 94.1158C34.963 94.4119 34.9952 94.7391 34.9302 95.054C34.7262 95.5454 34.1145 95.7738 33.3498 95.6331C33.0675 95.5389 32.7623 95.5399 32.4805 95.6356C32.1988 95.7314 31.9562 95.9168 31.7898 96.1633C31.7053 96.4547 31.7135 96.7651 31.8132 97.0514C31.9129 97.3379 32.0993 97.5863 32.3465 97.7621C32.3844 98.4008 32.5741 99.0211 32.8995 99.5719C33.2252 100.123 33.6773 100.588 34.2185 100.929C35.3174 101.737 36.69 102.08 38.04 101.885L40.0017 101.255C41.0437 102.228 38.668 105.686 40.0017 105.742L45.3546 105.466C45.7965 105.526 46.2462 105.472 46.6614 105.309C47.0768 105.147 47.4438 104.882 47.7283 104.538C47.9349 104.172 48.0331 103.754 48.0113 103.334C47.9897 102.914 47.8492 102.508 47.6059 102.165L47.0696 101.227C46.893 101.005 46.7656 100.748 46.6956 100.473C46.6259 100.198 46.6149 99.9112 46.6638 99.6318C46.7128 99.3525 46.8204 99.0865 46.9797 98.8518C47.1389 98.6169 47.3461 98.4187 47.5876 98.2698L51.3907 96.0879C52.2547 95.5832 53.0231 94.9302 53.6604 94.1588C53.8331 93.8048 53.924 93.4167 53.9265 93.0229C53.9291 92.6292 53.8431 92.2397 53.6748 91.8836C53.5068 91.5276 53.2607 91.2137 52.955 90.9656C52.6493 90.7174 52.2916 90.541 51.9087 90.4494C50.8442 90.1762 49.7273 90.1833 48.6663 90.4698Z" fill="#C9D4E8" stroke="#27395B" stroke-width="3" stroke-linecap="round" stroke-linejoin="round"/>
<path d="M144.526 118.816L101.129 148.633L107.407 157.769L150.803 127.953L144.526 118.816Z" fill="white"/>
<path d="M150.8 127.953C150.994 127.924 155.57 120.932 157.836 117.455C157.937 117.3 157.989 117.118 157.987 116.933C157.984 116.748 157.926 116.568 157.821 116.416C157.715 116.264 157.567 116.147 157.394 116.08C157.222 116.013 157.033 115.999 156.853 116.04L144.524 118.815L150.8 127.953Z" fill="#27395B" stroke="#27395B" stroke-width="3" stroke-linecap="round" stroke-linejoin="round"/>
<path d="M144.526 118.816L101.129 148.633L107.407 157.769L150.803 127.953L144.526 118.816Z" stroke="#27395B" stroke-width="3" stroke-linecap="round" stroke-linejoin="round"/>
<path d="M101.129 148.63L96.5605 151.769L102.838 160.905L107.406 157.767L101.129 148.63Z" fill="#27395B" stroke="#27395B" stroke-width="3" stroke-linecap="round" stroke-linejoin="round"/>
<path d="M93.1334 154.126C92.5334 154.538 92.0208 155.065 91.6243 155.675C91.2279 156.285 90.9555 156.968 90.8229 157.684C90.6902 158.399 90.7 159.134 90.8513 159.846C91.0026 160.558 91.2926 161.233 91.7049 161.833C92.1172 162.433 92.6435 162.946 93.2539 163.342C93.8644 163.739 94.5469 164.011 95.2627 164.144C95.9783 164.276 96.7132 164.267 97.4251 164.115C98.137 163.964 98.8122 163.674 99.4121 163.262L102.838 160.908L96.5592 151.773L93.1334 154.126Z" fill="#C9D4E8" stroke="#27395B" stroke-width="3" stroke-linecap="round" stroke-linejoin="round"/>
<path d="M150.348 117.504L154.163 123.056C155.46 121.095 156.863 118.947 157.834 117.453C157.934 117.297 157.986 117.116 157.983 116.931C157.98 116.746 157.922 116.566 157.816 116.415C157.711 116.263 157.562 116.146 157.39 116.079C157.217 116.013 157.029 115.999 156.849 116.039L150.348 117.504Z" fill="#C9D4E8" stroke="#27395B" stroke-width="3" stroke-linecap="round" stroke-linejoin="round"/>
<path d="M90.9352 59.6511L105.611 80.7325" stroke="#27395B" stroke-width="3" stroke-linecap="round" stroke-linejoin="round"/>
<path d="M110.459 62.0002L86.0879 78.3833" stroke="#27395B" stroke-width="3" stroke-linecap="round" stroke-linejoin="round"/>
</svg>
