<svg width="209" height="208" fill="none" xmlns="http://www.w3.org/2000/svg"><g clip-path="url(#a)"><path d="M71.596 180.418a83.2 83.2 0 1 0 65.806-152.834 83.2 83.2 0 0 0-65.806 152.834Z" fill="#C9D4E8"/><path d="M21.3 104a83.2 83.2 0 1 0 166.399 0 83.2 83.2 0 0 0-166.4 0Z" fill="#FCF9F6"/><path d="M162.807 43.014a1.493 1.493 0 0 1 1.224 1.457 1.5 1.5 0 0 1-.149.665l-6.009 12.372a1.494 1.494 0 0 1-2.837-.597l-.51-13.566a1.5 1.5 0 0 1 .516-1.185 1.488 1.488 0 0 1 1.246-.34l6.519 1.194ZM132.272 43.888a1.497 1.497 0 0 0-1.017.853 1.486 1.486 0 0 0 .064 1.327l6.7 12.012a1.492 1.492 0 0 0 2.798-.755l-.258-13.574a1.497 1.497 0 0 0-.581-1.154 1.493 1.493 0 0 0-1.264-.27l-6.442 1.56ZM78.448 50.082a1.494 1.494 0 0 0-2.313.556l-5.528 12.594a1.493 1.493 0 0 0 2.288 1.772l10.662-8.403a1.494 1.494 0 0 0 .02-2.332l-5.129-4.187ZM53.006 41.097a1.496 1.496 0 0 0-1.504 1.843l3.218 13.372a1.493 1.493 0 0 0 2.897.025l3.411-13.142a1.491 1.491 0 0 0-1.393-1.871l-6.63-.227Z" fill="#C9D4E8" stroke="#27395B" stroke-width="3" stroke-linejoin="round"/><path d="M64.564 86.437c-.306-6.725-1.508-21.069-7.038-20.26a4.031 4.031 0 0 0-3.408 4.576l.194 1.332c1.427 9.755-1.315 20.575-9.5 21.77l2.975 20.402 1.04-.152c5.117-.749 8.056 2.446 17.218 1.106l15.534-2.267a3.586 3.586 0 0 0-1.04-7.097l1.774-.258a3.587 3.587 0 0 0-1.04-7.097l1.774-.258a3.586 3.586 0 1 0-1.04-7.097l1.772-.258a3.587 3.587 0 1 0-1.04-7.097l-18.175 2.655Z" fill="#fff"/><path d="m61.02 86.954 3.548-.517M80.54 105.843l-1.773.26M81.277 98.488l-1.772.26M82.015 91.133l-1.774.26" stroke="#27395B" stroke-width="3" stroke-linecap="round" stroke-linejoin="round"/><path d="M42.63 116.128a2.463 2.463 0 0 1-2.08 2.798l-15.484 2.771a95.425 95.425 0 0 1-1.456-16.732c.002-3.753.216-7.503.643-11.232L37.15 91.36a1.848 1.848 0 0 1 2.105 1.558l3.376 23.21Z" fill="#C9D4E8"/><path d="M24.249 93.754v-.025l12.896-2.373a1.85 1.85 0 0 1 2.105 1.558l3.39 23.214a2.463 2.463 0 0 1-2.08 2.798l-15.483 2.771" stroke="#27395B" stroke-width="3" stroke-linecap="round" stroke-linejoin="round"/><path d="m42.737 116.804 2.872-.416a2.477 2.477 0 0 0 2.08-2.808l-2.785-19.05a2.475 2.475 0 0 0-2.806-2.08l-2.872.416 3.51 23.938Z" fill="#fff" stroke="#27395B" stroke-width="3" stroke-linecap="round" stroke-linejoin="round"/><path d="M64.564 86.437c-.306-6.725-1.508-21.069-7.038-20.26a4.031 4.031 0 0 0-3.408 4.576l.194 1.332c1.427 9.755-1.315 20.575-9.5 21.77l2.975 20.402 1.04-.152c5.117-.749 8.056 2.446 17.218 1.106l15.534-2.267a3.586 3.586 0 0 0-1.04-7.097l1.774-.258a3.587 3.587 0 0 0-1.04-7.097l1.774-.258a3.586 3.586 0 1 0-1.04-7.097l1.772-.258a3.587 3.587 0 0 0-1.04-7.097l-18.175 2.655Z" stroke="#27395B" stroke-width="3" stroke-linejoin="round"/><path d="M143.907 86.437c.306-6.725 1.508-21.069 7.039-20.26a4.041 4.041 0 0 1 2.652 1.582 4.03 4.03 0 0 1 .755 2.994l-.193 1.332c-1.427 9.755 1.314 20.575 9.499 21.77l-2.974 20.402-1.04-.152c-5.115-.749-8.056 2.446-17.219 1.106l-15.529-2.267a3.587 3.587 0 0 1 1.04-7.097l-1.774-.258a3.587 3.587 0 0 1 1.04-7.097l-1.774-.258a3.585 3.585 0 0 1-3.029-4.068 3.586 3.586 0 0 1 4.069-3.029l-1.775-.258a3.587 3.587 0 0 1 1.04-7.097l18.173 2.655Z" fill="#fff"/><path d="m147.457 86.954-3.549-.517M127.936 105.843l1.774.26M127.199 98.488l1.774.26M126.463 91.133l1.774.26" stroke="#27395B" stroke-width="3" stroke-linecap="round" stroke-linejoin="round"/><path d="M184.894 104.416a96.983 96.983 0 0 1-1.436 16.657l-15.518-2.147a2.463 2.463 0 0 1-2.105-2.798l3.386-23.215a1.869 1.869 0 0 1 2.128-1.557l12.877 1.755a94.71 94.71 0 0 1 .668 11.305Z" fill="#C9D4E8"/><path d="m183.458 121.077-15.518-2.151a2.463 2.463 0 0 1-2.105-2.798l3.386-23.215a1.869 1.869 0 0 1 2.128-1.557l12.877 1.755" stroke="#27395B" stroke-width="3" stroke-linecap="round" stroke-linejoin="round"/><path d="m165.742 116.805-2.875-.416a2.474 2.474 0 0 1-2.09-2.808l2.795-19.053a2.477 2.477 0 0 1 2.806-2.08l2.875.416-3.511 23.941Z" fill="#fff" stroke="#27395B" stroke-width="3" stroke-linecap="round" stroke-linejoin="round"/><path d="M143.907 86.437c.306-6.725 1.508-21.069 7.039-20.26a4.041 4.041 0 0 1 2.652 1.582 4.03 4.03 0 0 1 .755 2.994l-.193 1.332c-1.427 9.755 1.314 20.575 9.499 21.77l-2.974 20.402-1.04-.152c-5.115-.749-8.056 2.446-17.219 1.106l-15.529-2.267a3.587 3.587 0 0 1 1.04-7.097l-1.774-.258a3.587 3.587 0 0 1 1.04-7.097l-1.774-.258a3.585 3.585 0 0 1-3.029-4.068 3.587 3.587 0 0 1 4.069-3.029l-1.775-.258a3.587 3.587 0 0 1 1.04-7.097l18.173 2.655Z" stroke="#27395B" stroke-width="3" stroke-linejoin="round"/><path d="M98.404 137.54c.697-9.031 2.912-28.278 10.327-26.957a5.432 5.432 0 0 1 4.391 6.298l-.318 1.783c-2.334 13.065.896 27.735 11.856 29.69l-4.866 27.319-1.401-.25c-6.85-1.223-10.941 2.95-23.211.759l-20.784-3.708a4.826 4.826 0 0 1 1.696-9.502l-2.376-.416a4.813 4.813 0 0 1-3.11-1.991 4.831 4.831 0 0 1-.106-5.362 4.83 4.83 0 0 1 4.913-2.148l-2.375-.416a4.831 4.831 0 0 1-3.903-5.599 4.83 4.83 0 0 1 3.716-3.865 4.83 4.83 0 0 1 1.882-.038l-2.375-.416a4.825 4.825 0 1 1 1.695-9.501l24.349 4.32Z" fill="#fff"/><path d="m103.154 138.389-4.75-.849M76.094 162.972l2.375.422M75.415 153.046l2.375.423M74.735 143.121l2.376.424" stroke="#27395B" stroke-width="3" stroke-linecap="round" stroke-linejoin="round"/><path d="M171.21 151.763a94.482 94.482 0 0 1-42.686 30.378l-.096-.023a2.406 2.406 0 0 1-1.93-2.799l5.718-32.068a2.406 2.406 0 0 1 1.856-1.94c.31-.067.631-.072.944-.015l36.194 6.467Z" fill="#C9D4E8"/><path d="M128.549 182.141h-.025l-.096-.023a2.406 2.406 0 0 1-1.93-2.799l5.718-32.068a2.406 2.406 0 0 1 1.856-1.94c.31-.067.631-.072.944-.015l36.192 6.467" stroke="#27395B" stroke-width="3" stroke-linecap="round" stroke-linejoin="round"/><path d="m126.486 179.319-4.751-.855a2.414 2.414 0 0 1-1.951-2.798l4.876-27.318c.113-.63.472-1.189.997-1.554a2.412 2.412 0 0 1 1.803-.397l4.75.848-5.724 32.074Z" fill="#fff" stroke="#27395B" stroke-width="3" stroke-linecap="round" stroke-linejoin="round"/><path d="M98.404 137.54c.697-9.031 2.912-28.278 10.327-26.957a5.432 5.432 0 0 1 4.391 6.298l-.318 1.783c-2.334 13.065.896 27.735 11.856 29.69l-4.866 27.319-1.401-.25c-6.85-1.223-10.941 2.95-23.211.759l-20.784-3.708a4.826 4.826 0 0 1 1.696-9.502l-2.376-.416a4.813 4.813 0 0 1-3.11-1.991 4.831 4.831 0 0 1-.106-5.362 4.83 4.83 0 0 1 4.913-2.148l-2.375-.416a4.831 4.831 0 0 1-3.903-5.599 4.83 4.83 0 0 1 3.716-3.865 4.83 4.83 0 0 1 1.882-.038l-2.375-.416a4.825 4.825 0 1 1 1.695-9.501l24.349 4.32Z" stroke="#27395B" stroke-width="3" stroke-linejoin="round"/></g><defs><clipPath id="a"><path fill="#fff" transform="translate(.5)" d="M0 0h208v208H0z"/></clipPath></defs></svg>