<svg xmlns="http://www.w3.org/2000/svg" version="1.1" xmlns:xlink="http://www.w3.org/1999/xlink" xmlns:svgjs="http://svgjs.com/svgjs" viewBox="0 0 24 24" height="24" width="24"><title>task list warning (From Streamline App : https://app.streamlineicons.com)</title><g transform="matrix(1,0,0,1,0,0)"><path d="M12,7.749H6c-0.414,0-0.75,0.336-0.75,0.75c0,0.414,0.336,0.75,0.75,0.75h6c0.414,0,0.75-0.336,0.75-0.75 S12.414,7.749,12,7.749z M12.751,12c0-0.414-0.336-0.75-0.75-0.75H6c-0.414,0-0.75,0.336-0.75,0.75S5.586,12.75,6,12.75h6 c0.414,0.001,0.75-0.335,0.751-0.749C12.751,12.001,12.751,12,12.751,12z M6,14.749c-0.414,0-0.75,0.336-0.75,0.75 c0,0.414,0.336,0.75,0.75,0.75h4c0.414,0,0.75-0.336,0.75-0.75s-0.336-0.75-0.75-0.75L6,14.749z M10.59,19H3.5 C3.224,19,3,18.776,3,18.5v-13C3,5.224,3.224,5,3.5,5h11C14.776,5,15,5.224,15,5.5v5.217c-0.001,0.138,0.109,0.25,0.247,0.251 c0.063,0.001,0.124-0.023,0.17-0.065C16.006,10.278,16.843,9.947,17.7,10c0.137,0.027,0.269-0.063,0.295-0.199 C17.998,9.787,18,9.774,18,9.76V3.5C18,2.672,17.328,2,16.5,2h-4c-0.086,0-0.165-0.046-0.207-0.121 c-1.077-1.82-3.424-2.422-5.244-1.345C6.495,0.862,6.032,1.325,5.704,1.879C5.662,1.953,5.585,1.999,5.5,2h-4 C0.672,2,0,2.672,0,3.5v17C0,21.328,0.672,22,1.5,22h7.89c0.1,0.003,0.192-0.058,0.229-0.151c0.2-0.48,0.87-1.84,1.2-2.492 c0.06-0.123,0.009-0.272-0.114-0.332C10.669,19.008,10.63,18.999,10.59,19z M23.836,21.905l-5.055-9.635 c-0.375-0.707-1.251-0.977-1.959-0.602c-0.257,0.136-0.466,0.346-0.602,0.602l-5.055,9.63c-0.233,0.445-0.216,0.98,0.047,1.409 c0.264,0.428,0.73,0.689,1.233,0.691h10.111c0.501-0.001,0.967-0.26,1.233-0.685C24.052,22.886,24.07,22.35,23.836,21.905z M16.751,16c0-0.414,0.336-0.75,0.75-0.75s0.75,0.336,0.75,0.75v2.75c0,0.414-0.336,0.75-0.75,0.75s-0.75-0.336-0.75-0.75V16z M17.501,22.25c-0.552,0-1-0.448-1-1s0.448-1,1-1s1,0.448,1,1C18.5,21.802,18.052,22.25,17.501,22.25 C17.5,22.249,17.5,22.249,17.501,22.25L17.501,22.25z" stroke="none" stroke-width="0" stroke-linecap="round" stroke-linejoin="round"></path></g></svg>