<svg width="127" height="131" viewBox="0 0 127 131" fill="none" xmlns="http://www.w3.org/2000/svg">
<path d="M80 15C80 23.2843 73.2843 30 65 30C56.7157 30 50 23.2843 50 15C50 6.71573 56.7157 0 65 0C73.2843 0 80 6.71573 80 15Z"/>
<path d="M80 116C80 124.284 73.2843 131 65 131C56.7157 131 50 124.284 50 116C50 107.716 56.7157 101 65 101C73.2843 101 80 107.716 80 116Z"/>
<path d="M45 101C45 109.284 38.2843 116 30 116C21.7157 116 15 109.284 15 101C15 92.7157 21.7157 86 30 86C38.2843 86 45 92.7157 45 101Z"/>
<path d="M115 101C115 109.284 108.284 116 100 116C91.7157 116 85 109.284 85 101C85 92.7157 91.7157 86 100 86C108.284 86 115 92.7157 115 101Z"/>
<path d="M30 66C30 74.2843 23.2843 81 15 81C6.71573 81 0 74.2843 0 66C0 57.7157 6.71573 51 15 51C23.2843 51 30 57.7157 30 66Z"/>
<path d="M127 66C127 74.2843 120.284 81 112 81C103.716 81 97 74.2843 97 66C97 57.7157 103.716 51 112 51C120.284 51 127 57.7157 127 66Z"/>
<path d="M45 31C45 39.2843 38.2843 46 30 46C21.7157 46 15 39.2843 15 31C15 22.7157 21.7157 16 30 16C38.2843 16 45 22.7157 45 31Z"/>
</svg>
